<svg xmlns="http://www.w3.org/2000/svg" fill="none" viewBox="0 0 400 400" height="400" width="400">
    <g id="hanging-out-with-friends-indoors--users-people-hanging-out-with-friends-indoors">
        <path id="chair 1" fill="#111112"
            d="M131.352 314.094c-0.41 -2.986 -4.308 -5.53 -9.266 -6.05 -12.372 -1.298 -15.856 -0.308 -16.302 -0.606 -0.174 -0.28 -0.36 -55.064 -0.264 -57.646 11.698 -0.32 22.55 1.65 23.564 -5.652 0.38 -2.76 -0.218 -7.988 -0.546 -8.59 -1.99 -3.678 -4.158 -3.616 -18.226 -3.224 -29.136 0.818 -32.126 -0.534 -35.538 2.682 -2.398 2.262 -1.712 4.454 -1.648 5.654 0.268 4.832 -0.28 7.024 2.588 8.61 2.696 1.486 6.302 1.08 15.746 0.76 3.398 -0.116 5.104 -0.174 5.31 -0.088 0.122 0.43 1.01 52.436 1.01 57.478 -2.324 0.102 -15.464 -0.586 -20.876 2 -0.366 0.176 -0.808 0.386 -1.412 0.654 -2.292 1.018 -3.988 3.9 -2.792 6.21 3.224 6.234 23.056 4.482 25.396 5.654 0.108 0.2 0.012 0.02 0.49 24.586 -0.33 0.056 -2.262 0.082 -4.424 0.176 -12.828 0.558 -12.114 0.962 -12.016 6.138 0.024 1.434 -0.006 1.02 40.714 1.004 2.19 0 1.948 -2.06 1.762 -4.4 -0.136 -1.714 -1.348 -1.966 -2.686 -2.09 -7.692 -0.686 -13.878 -0.672 -15.894 -0.822 0.11 -0.794 -0.344 -24.66 -0.102 -24.866 0.07 -0.06 0.504 -0.026 0.856 0 2.56 0.192 2.456 -0.024 8.56 -0.492 5.69 -0.438 16.772 -1.41 15.992 -7.082l0.004 0.002Zm-28.186 -64.13c0.26 0.752 0.18 0.63 0.494 66.346 -1.192 -0.286 -2.284 -0.068 -3.48 -0.144 -0.376 -0.964 -0.388 -7.526 -1.392 -66.214 0.056 0 3.04 0.026 4.378 0.012Zm-5.22 66.18c-0.2 0.096 -15.276 -0.178 -18.33 -2.002 3.324 -1.294 14.936 -1.188 18.348 -1.408 0.008 0.08 0.012 3.336 -0.018 3.41Zm2.646 30.38c-0.11 -0.394 -0.124 -1.97 -0.15 -4.91 -0.08 -8.75 -0.432 -19.534 -0.414 -19.736 0.272 -0.048 1.398 0.262 3.842 -0.128 0.004 0.218 0.042 23.108 0.18 24.792 -0.484 0.03 -2.41 -0.002 -3.46 -0.018h0.002Zm-24.694 -29.708c-0.696 -0.296 -1.274 -1.056 -1.438 -1.89 -1.148 -5.822 17.456 -5.786 23.344 -5.702 0 1.328 0.118 1.446 0.102 1.718 -3.474 -0.172 -20.24 -0.47 -20.768 3.028 -0.18 1.194 1.43 2.112 2.194 2.348 7.93 2.456 43.8 2.664 46.49 -1.372 2.83 -4.252 -14.632 -4.232 -19.718 -4.044 -0.126 0.006 -0.276 0.01 -0.366 0.006 0.008 -0.862 -0.028 -1.448 0 -1.69 6.422 0 23.236 -0.622 23.56 5.584 0.306 5.85 -41.568 7.004 -53.396 2.01l-0.004 0.004Zm29.94 -4.072c0.2 -0.042 14.8 0.318 17.698 1.394 -1.098 0.656 -4.538 1.652 -15.262 1.862 -1.318 0.026 -1.944 0.144 -2.368 0.162 -0.048 -1.898 -0.114 -3.278 -0.068 -3.418Z"
            stroke-width="1"></path>
        <path id="ground" fill="#111112"
            d="m381.174 355.636 -349.27 -2.072c-0.552 -0.002 -0.998 -0.454 -0.994 -1.006 0.002 -0.55 0.45 -0.994 1 -0.994l349.27 2.072c0.552 0.002 0.998 0.454 0.994 1.006 -0.002 0.55 -0.45 0.994 -1 0.994Z"
            stroke-width="1"></path>
        <g id="stars">
            <path id="vector" fill="#111112"
                d="M172.278 68.1196c-1.146 -0.978 -4.954 0.802 -6.386 1.454 0.132 -1.91 0.212 -3.554 0.026 -6.738 -0.07 -1.188 -0.728 -1.318 -1.012 -1.318 -1.304 0.004 -0.97 1.378 -1.238 7.684 -2.684 -2.504 -3.242 -2.76 -3.678 -2.716 -0.142 0.014 -0.346 0.134 -0.428 0.252 -0.56 0.804 0.012 1.008 3.322 4.346 -0.8 0.47 -2.626 0.998 -3.902 2.502 -0.334 0.392 -0.036 1.016 0 1.09 0.358 0.712 0.474 0.522 4.53 -1.374 0.028 0.964 -0.006 2.488 0.178 5.906 0.056 1.018 1.484 1.042 1.592 -0.148 0.328 -3.646 0.336 -4.656 0.386 -5.358 0.986 0.822 2.75 2.456 2.968 2.788 0.658 0.996 1.75 0.072 1.194 -0.82 -0.24 -0.388 -3.228 -3.308 -3.592 -3.736 4.55 -2.262 4.066 -2.102 4.834 -2.356 0.994 -0.33 0.968 -0.304 1.298 -0.578 0.216 -0.156 0.256 -0.642 -0.092 -0.88Z"
                stroke-width="1"></path>
            <path id="vector_2" fill="#111112"
                d="M290.278 51.0038c-0.15 -0.626 -1.066 -0.478 -3.812 -0.84 2.798 -6.286 2.822 -6.29 2.97 -6.876 0.188 -0.752 -0.814 -1.422 -1.454 -0.912 -0.628 0.5 -2.056 4.018 -3.062 5.844 -0.818 -1.3 -1.122 -2.4 -2.14 -2.924 -0.486 -0.25 -0.808 0 -0.896 0.086 -0.87 0.844 0.564 2.892 1.374 4.572 -1.646 -0.104 -4.668 -0.278 -4.44 1.368 0.172 1.24 1.888 0.974 4.344 1.068 -1.2 3.508 -1.182 3.52 -0.982 4.058 0.102 0.276 0.39 0.394 0.64 0.306 1.01 -0.362 1.416 -1.856 2.236 -3.442 1.968 3.404 3.272 6.18 4.038 6.18 0.36 0 0.662 -0.258 0.618 -0.836 -0.092 -1.192 -2.186 -5.32 -2.742 -6.374 2.692 -0.186 2.926 -0.242 3.278 -0.872 0.074 -0.116 0.058 -0.278 0.028 -0.41l0.002 0.004Z"
                stroke-width="1"></path>
            <path id="vector_3" fill="#111112"
                d="M47.854 113.2114c-0.528 -0.932 -1.842 0.23 -5.546 1.84 -0.056 -6.352 -0.308 -6.592 -0.492 -6.77 -0.41 -0.396 -0.752 -0.366 -0.966 -0.27 -1.014 0.448 -0.496 3.252 -0.576 5.976 -0.768 -0.576 -2.04 -1.822 -2.716 -0.712 -0.448 0.74 0.028 0.932 2.114 3.064 -1.5 0.862 -2.026 1.096 -3.062 2.212 -0.484 0.524 -0.054 1.672 0.974 1.562 0.342 -0.032 0.162 -0.048 2.898 -1.418 0.054 1.74 0.124 3.172 0.624 5.762 0.064 0.322 0.466 0.594 0.808 0.522 0.854 -0.176 0.472 -1.96 0.556 -6.18 0.89 0.716 2.286 2.034 3.196 2.628 0.234 0.152 0.49 0.11 0.756 0.068 0.134 -0.006 0.254 -0.126 0.344 -0.228 0.16 -0.184 0.16 -0.65 -0.042 -0.92 -1.114 -1.494 -2.04 -2.326 -2.652 -2.876 -0.252 -0.226 -0.51 -0.49 -0.584 -0.46 0.118 -0.214 2.194 -1.46 3.762 -2.52 0.894 -0.604 0.69 -1.132 0.606 -1.282l-0.002 0.002Z"
                stroke-width="1"></path>
            <path id="vector_4" fill="#111112"
                d="M362.806 116.5898c3.494 0.014 3.366 5.062 0.174 5.09 -3.692 0.032 -3.28 -5.102 -0.174 -5.09Z"
                stroke-width="1"></path>
            <path id="vector_5" fill="#111112"
                d="M81.598 48.8862c-1.092 0.27 -2.406 -0.232 -3.024 -1.242 -1.264 -2.072 1.112 -4.27 3.212 -3.186 2.868 1.482 1.288 4.062 -0.188 4.426v0.002Z"
                stroke-width="1"></path>
            <path id="vector_6" fill="#111112"
                d="M228.242 58.966c-2.988 -0.044 -2.608 -4.222 0.148 -4.254 2.542 -0.03 2.806 4.3 -0.148 4.254Z"
                stroke-width="1"></path>
        </g>
        <g id="table">
            <path id="vector_7" fill="#111112"
                d="M55.55 214.528c-2.186 -1.952 -3.79 -5.226 -4.762 -9.33 -19 -0.112 -32.31194 -0.188 -36.93994 -0.214 -3.308 -0.018 -3.74798 0.316 -3.82598 2.34 -0.042 1.08 -0.02402 2.856 0.04798 5.142 0.13 4.074 1.35802 2.726 25.06194 3.046 7.506 0.102 14.818 0.198 22.01 0.292 -0.532 -0.39 -1.064 -0.804 -1.592 -1.276Z"
                stroke-width="1"></path>
            <path id="vector_8" fill="#111112"
                d="M197.596 209.798c2.756 -1.23 6.08 -2.476 9.714 -3.646 -9.838 -0.062 -19.696 -0.124 -29.472 -0.186 -1.816 0.408 -3.708 0.824 -5.732 1.26 -1.108 0.238 -1.922 3.676 -3.218 5.528 -0.14 0.2 -4.202 2.338 -2.958 -4.114 0.05 -0.256 0.014 -0.534 -0.814 -0.024 -0.554 0.34 -1.494 1.032 -3.094 2.31 -4.73 3.78 -6.312 2.168 -4.432 -2.684 0.324 -0.836 1.098 -1.642 2.052 -2.388 -7.516 -0.046 -14.942 -0.092 -22.224 -0.136 0.134 9.634 -0.16 7.566 -3.066 9.794 0.976 0.3 2.056 0.738 3.188 1.258 17.514 0.19 33.796 0.35 48.972 0.488 3.09 -3.146 6.92 -5.602 11.084 -7.46Z"
                stroke-width="1"></path>
            <path id="vector_9" fill="#111112"
                d="M389.918 209.376c-0.034 -0.438 -0.15 -1.794 -1.852 -1.828 -4.204 -0.082 -14.106 -0.19 -28.074 -0.312 -1.044 3.758 -2.326 7.32 -3.776 10.57 19.21 -0.144 27.614 -0.356 31.208 -0.39 1.754 -0.016 2.324 -0.708 2.464 -1.498 0.124 -0.692 0.16 -4.844 0.03 -6.542Z"
                stroke-width="1"></path>
        </g>
        <path id="chair 3" fill="#111112"
            d="M351.838 309.484c-12.372 -1.296 -15.856 -0.308 -16.302 -0.606 -0.174 -0.28 -0.36 -55.064 -0.264 -57.646 11.698 -0.32 22.55 1.65 23.564 -5.652 0.38 -2.76 -0.218 -7.988 -0.546 -8.59 -1.752 -3.24 -3.654 -3.576 -13.692 -3.344 -0.07 0.046 -0.14 0.102 -0.21 0.146 -6.792 4.262 -15.026 5.77 -21.896 6.738 -6.69 0.942 -12.982 1.956 -19.57 2.576 0.158 4.124 -0.11 6.14 2.548 7.608 2.696 1.486 6.302 1.08 15.746 0.76 3.398 -0.116 5.104 -0.174 5.31 -0.088 0.122 0.43 1.01 52.436 1.01 57.478 -2.324 0.102 -15.464 -0.586 -20.876 2 -0.366 0.176 -0.808 0.386 -1.412 0.654 -2.292 1.018 -3.988 3.9 -2.792 6.21 3.224 6.234 23.056 4.482 25.396 5.654 0.108 0.2 0.012 0.02 0.49 24.586 -0.332 0.056 -2.262 0.082 -4.424 0.176 -12.828 0.558 -12.114 0.962 -12.016 6.138 0.024 1.434 -0.006 1.02 40.714 1.004 2.188 0 1.948 -2.06 1.762 -4.4 -0.136 -1.714 -1.348 -1.966 -2.686 -2.09 -7.692 -0.686 -13.878 -0.672 -15.894 -0.822 0.11 -0.794 -0.342 -24.66 -0.102 -24.866 0.07 -0.06 0.504 -0.026 0.856 0 2.56 0.192 2.456 -0.024 8.56 -0.492 5.69 -0.438 16.772 -1.41 15.992 -7.082 -0.41 -2.986 -4.308 -5.53 -9.266 -6.05Zm-18.92 -58.08c0.26 0.752 0.18 0.63 0.494 66.346 -1.192 -0.286 -2.284 -0.068 -3.48 -0.144 -0.376 -0.964 -0.388 -7.526 -1.392 -66.214 0.058 0 3.04 0.026 4.378 0.012Zm-5.22 66.18c-0.2 0.096 -15.276 -0.176 -18.33 -2.002 3.324 -1.292 14.936 -1.188 18.348 -1.408 0.008 0.08 0.012 3.336 -0.018 3.41Zm2.646 30.38c-0.11 -0.394 -0.124 -1.97 -0.15 -4.91 -0.08 -8.75 -0.432 -19.534 -0.414 -19.736 0.272 -0.048 1.398 0.262 3.842 -0.128 0.004 0.218 0.042 23.106 0.18 24.792 -0.482 0.03 -2.408 -0.002 -3.458 -0.018Zm-24.694 -29.708c-0.696 -0.296 -1.274 -1.056 -1.438 -1.89 -1.148 -5.822 17.458 -5.786 23.344 -5.702 0 1.328 0.118 1.446 0.102 1.718 -3.474 -0.172 -20.24 -0.468 -20.768 3.028 -0.18 1.194 1.43 2.112 2.194 2.348 7.93 2.456 43.8 2.664 46.49 -1.372 2.83 -4.252 -14.632 -4.232 -19.718 -4.044 -0.126 0.006 -0.276 0.01 -0.366 0.006 0.008 -0.862 -0.028 -1.448 0 -1.69 6.422 0 23.236 -0.624 23.56 5.584 0.306 5.85 -41.568 7.004 -53.396 2.01l-0.004 0.004Zm29.94 -4.072c0.2 -0.042 14.8 0.318 17.698 1.394 -1.098 0.656 -4.538 1.652 -15.262 1.862 -1.318 0.026 -1.944 0.144 -2.368 0.162 -0.048 -1.898 -0.114 -3.278 -0.068 -3.418Z"
            stroke-width="1"></path>
        <path id="chair 2" fill="#111112"
            d="M268.682 309.056c-12.372 -1.296 -15.856 -0.308 -16.302 -0.606 -0.174 -0.28 -0.358 -55.064 -0.264 -57.646 1.658 -0.046 3.294 -0.044 4.892 -0.03 -0.618 -4.026 -0.92 -7.132 -1.056 -9.332 -5.224 1.544 -10.894 2.982 -17.144 4.704 -0.212 0.058 -0.244 0.14 -0.196 0.352 0.328 1.47 0.55 2.974 0.734 4.5 2.538 -0.084 3.842 -0.12 4.02 -0.044 0.072 0.254 0.416 18.658 0.682 34.642 0 0.002 0.002 0.006 0.004 0.01 0.402 0.99 1.02 1.738 1.966 3.034 -0.154 -9.238 -0.356 -21.46 -0.632 -37.678 0.058 0 3.04 0.026 4.378 0.012 0.26 0.752 0.18 0.63 0.494 66.346 -1.192 -0.286 -2.284 -0.068 -3.48 -0.144 -0.244 -0.626 -0.336 -3.626 -0.644 -21.666 -0.526 0.434 -1.12 0.908 -1.838 1.486 -0.022 0.018 -0.04 0.032 -0.062 0.05 0.088 5.756 0.146 10.1 0.146 11.386 -2.324 0.102 -15.464 -0.586 -20.876 2 -0.366 0.176 -0.808 0.386 -1.412 0.654 -2.292 1.018 -3.988 3.9 -2.792 6.21 3.224 6.234 23.056 4.482 25.396 5.654 0.108 0.2 0.012 0.02 0.49 24.586 -0.33 0.056 -2.264 0.082 -4.424 0.176 -12.828 0.558 -12.114 0.962 -12.016 6.138 0.024 1.434 -0.006 1.02 40.714 1.004 2.188 0 1.948 -2.06 1.762 -4.4 -0.136 -1.714 -1.348 -1.966 -2.686 -2.09 -7.692 -0.686 -13.878 -0.672 -15.894 -0.822 0.11 -0.792 -0.342 -24.66 -0.102 -24.866 0.07 -0.06 0.504 -0.026 0.856 0 2.56 0.192 2.456 -0.024 8.56 -0.492 5.69 -0.438 16.772 -1.41 15.992 -7.082 -0.41 -2.986 -4.308 -5.53 -9.266 -6.05v0.004Zm-24.14 8.1c-0.2 0.096 -15.276 -0.176 -18.33 -2.002 3.324 -1.292 14.936 -1.188 18.348 -1.408 0.008 0.08 0.012 3.336 -0.018 3.41Zm2.646 30.38c-0.11 -0.394 -0.124 -1.97 -0.15 -4.91 -0.08 -8.75 -0.432 -19.534 -0.414 -19.736 0.272 -0.048 1.398 0.262 3.842 -0.128 0.004 0.218 0.042 23.108 0.18 24.792 -0.482 0.03 -2.408 -0.002 -3.458 -0.018Zm-24.694 -29.708c-0.696 -0.296 -1.274 -1.056 -1.438 -1.89 -1.148 -5.822 17.458 -5.786 23.344 -5.702 0 1.328 0.118 1.446 0.102 1.718 -3.474 -0.172 -20.24 -0.468 -20.768 3.028 -0.18 1.194 1.43 2.112 2.194 2.348 7.93 2.456 43.8 2.664 46.49 -1.372 2.83 -4.252 -14.632 -4.23 -19.718 -4.044 -0.126 0.006 -0.276 0.01 -0.366 0.006 0.008 -0.862 -0.028 -1.448 0 -1.69 6.422 0 23.236 -0.624 23.56 5.584 0.306 5.85 -41.568 7.004 -53.396 2.01l-0.004 0.004Zm29.94 -4.072c0.2 -0.042 14.8 0.318 17.698 1.394 -1.098 0.656 -4.538 1.652 -15.262 1.862 -1.318 0.026 -1.944 0.144 -2.368 0.162 -0.048 -1.898 -0.114 -3.278 -0.068 -3.418Z"
            stroke-width="1"></path>
        <g id="person 1">
            <path id="vector_10" fill="#111112"
                d="M181.35 152.5502c3.226 -5.26 2.952 -11.46 -0.75 -16.598 -0.768 -1.064 -0.734 -0.546 0.43 -4.406 2.614 -8.656 3.128 -9.726 1.212 -9.94 -3.096 -0.348 -10.176 -0.276 -11.836 0 -0.072 -0.182 0.136 -1.512 -0.134 -2.576 -0.614 -2.408 -1.854 -4.31 -3.684 -5.658 -10.646 -7.836 -22.632 6.906 -13.328 15.666 2.072 1.95 4.416 2.51 5.626 2.672 1.35 0.176 1.32 -1.886 0.31 -1.992 -4.28 -0.458 -7.9 -4.966 -7.174 -9.552 0.76 -4.792 5.488 -8.016 10.144 -6.926 5.446 1.268 6.28 5.77 6.68 7.932 0.03 0.16 0.058 0.31 0.084 0.444 -0.77 0.21 -3.348 -0.104 -6.948 0.278 -2.308 0.246 -2.316 0.646 -1.844 2.754 1.934 8.666 5.466 18.568 7.072 21.882 0.044 0.406 0.342 3.24 0.566 8.034 0.046 0.982 0.326 0.92 -0.158 1.484 -2.584 3.014 -13.91 16.09 -13.928 16.112 -0.358 -0.882 -0.908 -3.238 -3.51 -8.992 -8.324 -18.396 -16.866 -22.572 -29.72 -23.84 -3.768 -0.372 -3.698 0.064 -3.854 -0.656 -0.914 -4.204 -1.068 -4.176 -0.718 -4.39 5.304 -3.266 7.354 -12.34 6.466 -17.624 -0.036 -0.218 -0.03 -0.46 -0.028 -0.764 0 -0.16 0 -0.356 -0.022 -0.362 0.042 -0.018 0.196 -0.032 0.394 -0.048l0.252 -0.02c1.68 -0.14 3.008 -0.25 3.434 -1.902 0.516 -2 0.588 -4.338 0.196 -6.252 -0.396 -1.93 -0.774 -2.326 -2.7 -2.822 -2.728 -0.706 -4.284 0.354 -4.762 -0.796 -0.21 -0.504 -0.58 -0.918 -0.86 -1.324 -4.334 -6.292 -11.502 -4.64 -12.004 -5.566 -1.954 -3.594 -4.728 -1.36 -5.416 -2.196 -14.194 -17.37 -24.24 -16.088 -20.37 -11.13 1.074 1.374 1.224 1.342 0.954 1.228 -3.114 -1.32 -7.93 -3.344 -11.466 -2.584 -0.79 0.17 -1.366 1.38 -0.428 2.476 1.792 2.09 11.728 7.888 14.916 10.204 -8.07 -1.75 -13.802 -2.038 -17.04 -0.864 -2.894 1.052 -3.18 3.502 2.322 5.018 2.002 0.552 5.808 1.198 9.166 1.768 5.498 0.932 4.7 0.79 4.202 0.874 -1.472 0.252 -3.938 0.672 -8.528 3.078 -2.956 1.548 -5.904 4.518 -2.97 5.276 2.19 0.568 3.878 0.348 4.6 0.258 4.918 -0.608 14.804 -3.014 15.87 -2.97 0.064 0.05 0.18 0.306 0.25 0.46 0.664 1.44 1.058 0.386 0.806 2.62 -0.266 2.322 0.088 2.676 -1.582 2.96 -0.904 0.154 -2.028 0.346 -2.73 1.946 -2.1 4.784 0.86 8.592 4.2 8.43 0.166 -0.006 0.436 -0.016 0.486 0.006 0.166 0.2 1.004 7.69 5.094 10.964 0.304 0.244 0.0586 1.558 -0.736 3.942 -0.214 0.64 0.31 0.624 -3.924 1.366 -6.158 1.08 -18.97 3.324 -27.834 11.896 -19.05 18.426 -20.602 54.1258 -10.748 62.9278 5.296 4.732 10.928 5.166 13.332 5.352 0.922 0.076 -10.004 3.86 -21.52 15.59 -6.344 6.464 -8.224 11.978 -7.452 21.85 1.176 15.022 8.588 32.276 15.032 45.728 1.342 2.8 1.526 0.896 8.448 -0.748 0.404 -0.094 0.228 0.346 1.596 2.562 1.924 3.116 2.462 3.708 2.65 4.092 -1.482 1.532 -4.8 5.8 -6.676 8.93 -2.41 4.018 -0.67 6.936 4.048 3.43 3.528 -2.624 6.608 -5.432 11.052 -9.366 1.294 -1.144 1.226 -0.972 -2.462 -12.216 0.618 -0.16 0.584 -0.164 3.148 -1.034 6.826 -2.316 7.556 -2.332 6.766 -4.352 -1.078 -2.766 -0.682 -7.53 -7.124 -26.894 -1.92 -5.76 -1.886 -5.626 -1.318 -5.896 12.66 -5.994 13.672 -10.006 28.88 -17.252 1.402 -0.664 1.534 -0.612 7.246 3.084 1.32 0.854 1.092 0.69 3.142 2.13 15.018 10.55 16.208 9.734 16.732 10.236 0.032 0.136 -3.682 11.718 -3.724 11.852 -1.73 5.4 -2.19 6.278 -5.006 20.094 -0.406 1.99 -0.44 2.152 -0.71 2.63 -0.228 0.404 -0.278 0.788 -0.146 1.142 0.388 1.042 2.216 1.534 5.402 2.598 0.948 0.318 1.634 0.546 1.71 0.66 0.004 0.038 -0.038 0.17 -0.088 0.33 -3.11 9.756 -3.212 9.942 -2.42 10.924 0.258 0.32 5.564 4.974 5.802 5.178 5.122 4.406 6.13 5.074 8.228 6.016 1.678 0.754 3.02 -1.136 2.444 -2.51 -0.328 -0.786 -0.566 -1.612 -1.004 -2.352 -6.04 -10.21 -7.84 -7.522 -5.654 -10.668 2.85 -4.096 2.378 -4.336 2.796 -4.17 0.804 0.298 5.764 1.08 9.722 2.772 2.924 1.256 2.85 0.458 5.514 -5.394 6.066 -13.316 8.578 -18.828 12.392 -35.964 1.752 -7.88 2.96 -16.906 -1.36 -24.106 -4.872 -8.12 -20.476 -20.448 -29.754 -23.604 2.98 -2.024 2.878 0.092 2.626 -15.134 0 -0.058 -0.018 -0.112 -0.046 -0.156 -0.05 -0.2958 -0.042 -1.6278 0.004 -2.4078 1.244 1.084 3.686 3.9918 7.064 5.1818 5.058 1.778 9.938 1.31 13.058 -1.252 3.084 -2.5358 2.83 -2.5078 4.95 -5.3898 4.044 -5.504 9.718 -20.894 10.948 -25.218 0.152 -0.54 0.252 -0.292 1.232 -0.368 2.546 -0.196 3.446 -0.16 4.1 -0.832 0.322 -0.33 0.456 -0.642 0.41 -0.956 -0.07 -0.482 -0.534 -0.778 -1.088 -1.084 -2.134 -1.19 -3.492 -0.966 -3.388 -1.432 2.072 -9.254 1.99 -6.502 6.474 -13.81l-0.006 -0.002Zm-29.466 21.996c-1.612 2.136 -8.156 10.808 -6.106 11.364 1.56 0.4 1.286 -1.976 10.986 -14.332 0.458 -0.584 9.384 -11.106 11.252 -13.314 0.08 0.754 0.036 3.272 0.224 5.336 0.034 0.372 -0.228 1.76 -5.046 4.052 -2.248 1.07 -1.406 2.634 0.666 2.8 5.476 0.44 6.88 0.166 7.792 0.214 -3.562 10.748 -10.208 32.1598 -21.404 31.5578 -6.3 -0.336 -8.352 -3.1998 -12.47 -7.0558 -0.898 -0.842 0.364 -0.144 -2.602 -19.434 -0.164 -1.064 5.098 -3.33 13.38 -10.788l0.044 -0.042c0.236 0.388 0.744 1.644 1.37 3.214 2.316 5.826 2.438 5.732 1.914 6.428Zm21.266 -10.25c-0.258 -0.768 1.022 -13.952 1.112 -14.746 0.16 -0.256 1.792 -0.506 1.656 -1.348 -0.184 -1.172 -4.722 -1.604 -6.408 -2.398 0.242 -0.246 1.032 -0.654 1.414 -0.71 1.234 -0.182 2.546 -0.37 2.598 -0.984 0.084 -0.998 -2.738 -1.01 -2.914 -1.32 0 0 -0.004 -0.042 0.018 -0.098 0.196 -0.514 1.164 -0.232 2.07 -0.164 1.822 0.166 2.782 -1.432 0.744 -1.926 -0.658 -0.162 -0.942 -0.368 -0.982 -0.376 0 0 0.04 -0.054 0.22 -0.122 2.136 -0.804 3.31 0.152 4.866 0.172 0.558 0.008 1.344 0.16 1.562 -0.228 0.148 -0.266 0.18 -0.112 -2.682 -4.864 -2.138 -3.554 7.778 3.956 4.728 13.226 -1.068 3.248 -2.878 5.368 -5.202 8.764 -2.25 3.296 -2.146 6.372 -2.8 7.122Zm8.342 -40.83c-3.414 11.246 -2.758 10.24 -3.066 10.02 -0.086 -0.062 -0.174 -0.124 -0.246 -0.196 -1.072 -1.084 -4.15 -0.798 -3.782 0.866 0.094 0.42 0.794 2.338 2.054 4.272 -1.698 -0.406 -3.644 -0.702 -5.218 0.396 -0.916 0.64 -0.92 1.2 -0.678 1.926 -1.882 0.312 -2.94 1.712 -1.406 3.152 -0.434 0.206 -0.864 0.408 -0.954 0.408 -0.092 0.246 -6.11 -18.02 -6.594 -20.498 13.626 -0.442 19.968 -0.608 19.888 -0.344l0.002 -0.002Zm-11.61 40.458c0.002 -0.338 0.226 -3.958 0.136 -5.456 -0.128 -2.138 -0.62 -10.04 -0.634 -10.61 2.528 0.662 2.182 0.554 2.678 0.956 0.174 1.228 -0.43 13.906 -0.564 15.224 -0.082 0.8 -0.328 3.124 4.134 4.678 -2.34 0.142 -7.75 0.144 -10.084 0.002 2.876 -1.014 4.316 -2.624 4.334 -4.794Zm-94.752 33.846c-0.072 0.014 -0.348 -0.07 -0.638 -0.154 -3.466 -1.03 -12.384 -2.31 -12.026 -0.162 0.092 0.556 0.61 0.546 1.406 0.53 11.936 -0.256 25.402 9.0698 40.912 14.2918 3.148 1.058 3.208 1.01 6.04 0.85 4.256 -0.24 4.506 -0.204 6.724 1.044 0.764 0.43 1.078 0.88 1.156 1.102 -0.894 0.13 -0.694 1.458 0.424 1.624 0.316 0.046 0.568 0.392 0.628 0.572 -0.514 -0.014 -0.984 0.032 -1.08 0.388 -0.096 0.36 0.292 0.65 0.906 0.974 0.264 0.138 0.422 1.058 -0.11 0.91 -0.492 -0.134 -1.018 -0.384 -1.578 -0.648 -1.59 -0.754 -1.886 -0.84 -3.884 -0.944 -2.908 -0.152 -1.576 -1.062 -7.322 -1.062 -10.568 0 -34.81 3.192 -43.85 -0.076 -13.142 -4.75 -12.338 -18.9258 -10.572 -31.7978 1.004 -1.144 21.972 1.182 26.532 2.192l-3.672 10.366h0.004Zm44.862 17.1538c0.166 -0.29 0.078 -0.692 -0.248 -1.134 -0.864 -1.178 -3.32 -2.646 -6.83 -2.646 -4.932 0 -1.47 2.772 -24.126 -7.642 -11.61 -5.3358 -11.738 -4.8938 -11.906 -5.1538 -0.23 -1.198 11.766 -24.48 7.94 -37.356 -0.768 -2.594 -2.474 -1.792 -2.114 -0.546 2.092 7.264 -0.632 17.828 -3.176 24.886 -0.414 0.208 -17.382 -3.34 -26.774 -2.346 0.164 -2.73 3.458 -13.916 8.944 -22.692 4.844 -7.744 12.014 -12.86 22.568 -16.1 0.86 -0.266 5.818 -1.704 6.772 -1.832 -0.138 1.69 -0.322 3.068 0.648 6.922 4.458 17.728 11.14 21.88 16.508 25.214l0.774 0.488c-0.28 0.438 -1.516 1.328 -1.296 3.444 0.25 2.406 2.522 3.208 3.82 2.162 2.278 -1.848 2.23 -4.188 0.82 -5.416 -0.042 -0.036 -0.092 -0.082 -0.124 -0.116 0 0 0.026 -0.024 0.044 -0.04 2.782 -2.326 6.594 -8.324 8.102 -11.6 2.324 -5.046 3.266 -10.706 2.966 -17.81 -0.076 -1.814 -0.318 -2.862 -0.718 -4.146 13.472 2.566 19.124 8.814 25.092 21.408 0.4 0.848 -0.164 0.45 -12.91 10.494 -0.32 -1.074 -0.742 -5.398 -4.472 -16.882 -0.204 -0.626 -0.15 -0.536 -0.854 -0.99 -0.166 -0.108 -0.364 -0.03 -0.434 0.12 -0.448 0.918 -0.258 1.52 0.298 3.306 0.774 2.478 2.384 7.632 4.246 19.922 2.468 16.288 1.692 28.4838 2.184 33.1918 0.0614 0.586 -0.1066 0.992 -0.504 1.214 -2.348 1.318 -12.872 2.948 -13.188 3.076 -0.664 0.266 -1.158 0.118 -1.66 -0.49 -0.368 -0.448 -0.648 -0.47 -0.396 -0.908l0.004 -0.002ZM94.102 141.7162c0.782 -0.16 2.904 -0.608 3.146 -0.644 -0.148 1.546 -0.308 2.056 -0.05 2.474 0.324 0.524 1.116 0.584 1.284 -0.156 1.954 -8.674 3.92 -8.362 1.58 -10.282 -0.614 -0.502 -1.376 -1.128 -2.034 -2.356 -3.496 -6.512 -1.992 -9.952 -4.886 -9.08 -1.436 0.442 -3.99 -2.298 -2.584 -5.336 0.428 -0.93 1.768 -1.5 2.926 -1.236 2.172 0.488 5.118 0.456 5.436 0.362 0.42 -0.136 0.198 2.656 2.576 2.664 3.124 0.01 10.28 0.28 10.446 -2.814 0.202 -3.794 0.076 -3.936 0.53 -4.232 0.464 -0.306 0.796 -0.712 1.61 -0.594 0.438 0.06 0.82 0.276 1.046 0.59 0.272 0.466 -0.51 4.334 4.73 4.422 0.272 0.004 0.376 0.03 0.376 0.03 0.012 0.02 0.03 0.088 0.044 0.294 0.304 4.4 0.506 6.242 -1.492 11.928 -0.76 2.168 -2.53 3.862 -4.154 5.496 -1.036 1.044 -0.57 1.864 -0.026 5.076 0.474 2.784 0.526 4.938 1.634 4.77 0.53 -0.078 0.84 -0.714 0.764 -1.23 -0.01 -0.068 -0.202 -0.912 -0.198 -0.94 0 0 0.032 -0.016 0.122 -0.008 1.638 0.108 3.436 0.186 3.546 0.252 0.188 6.808 -1.532 9.408 -7.364 11.124 -5.096 1.5 -8.556 1.408 -13.228 -0.354 -2.704 -1.022 -5.95 -4.93 -6.082 -8.44 -0.052 -1.42 -0.632 -1.596 0.302 -1.786v0.006Zm21.808 -39.28c0.456 0.6 1.256 1.658 1.458 2.054 -1.008 0.248 -2.354 0.774 -2.35 2.478 0 0.546 0.044 1.05 0.024 1.326 -1.248 -0.562 -2.138 -0.154 -3.11 0.272 -0.13 -1.688 -1.736 -2.734 -3.298 -2.846 -0.314 -0.022 -6.102 0.336 -8.466 1.186 -0.926 0.334 -1.458 0.992 -1.674 2.074 -0.35 1.746 -0.104 2.356 -0.158 2.58 -0.032 0.136 -1.85 0.082 -2.29 0.104 0.064 -5.148 1.082 -6.468 5.31 -7.844 6.18 -2.012 10.632 -0.856 14.15 -1.628 0.11 0.052 0.336 0.15 0.408 0.244h-0.004Zm2.244 4.086c0.204 0 3.308 -0.136 5.27 0.29 1.282 0.282 1.16 0.39 1.158 3.052 -0.004 3.666 -0.016 3.454 -2.008 3.388 -5.372 -0.158 -5.264 0.726 -5.154 -5.01 0.03 -1.56 -0.04 -1.72 0.736 -1.722l-0.002 0.002Zm-9.498 8.552c-1.476 0.37 -6.904 0.792 -7.222 0.56 -0.054 -0.056 -0.098 -0.41 -0.144 -0.786 -0.518 -4.16 -1.19 -5.472 0.656 -5.908 1.934 -0.456 3.914 -0.676 5.924 -0.62 1.84 0.054 1.836 0.7 1.826 3.102 -0.012 2.752 0.258 3.326 -1.04 3.652Zm-4.06 -16.006c-4.902 0.884 -8.666 2.622 -9.576 6.66 -0.144 0.646 -1.518 1.02 -1.124 -1.282 0.506 -2.958 4.828 -7.752 8.91 -7.752 0.552 0 0.976 0.104 1.338 0.638 0.406 0.598 0.474 1.42 0.452 1.736Zm14.802 61.616c-1.654 4.506 -5.206 9.81 -9.048 13.51 -0.078 0.076 -0.13 0.118 -0.164 0.14 -0.58 -0.994 -1.306 -1.444 -2.302 -2.036 -7.54 -4.464 -12.41 -15.266 -14.324 -23.356 0.688 1.062 1.812 2.526 4.03 4.06 1.876 1.298 5.512 2.1 7.5 2.324 3.024 0.34 10.22 -1.058 13.342 -3.422 1.924 -1.458 2.606 -2.996 3.096 -4.4 0.012 2.692 -0.394 8.454 -2.13 13.184v-0.004ZM74.608 310.656c-1.302 1.434 -11.202 9.806 -12.938 10.262 1.062 -2.832 6.832 -10.152 7.57 -10.912 1.96 -0.002 4.222 -1.336 4.796 -1.73 0.118 0.332 0.284 1.142 0.572 2.38Zm-4.912 -2.514c-0.822 0.192 -0.686 0.456 -2.972 -3.626 -0.94 -1.678 -0.848 -1.55 -1.162 -1.948 -0.142 -0.18 -0.272 -0.344 -0.344 -0.524 4.246 -1.064 6.008 -1.556 6.422 -1.562 0.03 0.104 1.776 5.84 1.766 5.948 -1.78 1.232 -2.858 1.514 -3.708 1.714l-0.002 -0.002Zm57.826 0.708c0.152 -0.4 0.21 -0.804 0.258 -1.128 0.03 -0.2 0.068 -0.472 0.048 -0.502 0 0 0.034 0.002 0.114 0.046 2.224 1.222 3.744 2.358 5.472 1.7 0.2 0.108 6.884 9.114 7.018 10.278 -1.18 -0.186 -7.824 -5.744 -10.706 -8.154 -2.416 -2.022 -2.296 -2.008 -2.206 -2.24h0.002Zm5.766 -2.246c-0.354 0.816 -0.44 1.144 -1.904 0.376 -1.434 -0.752 -2.79 -1.464 -2.888 -1.638 0.028 -0.1 1.74 -5.724 1.812 -5.8 0.108 0.01 5.892 1.632 6.006 1.658 -0.284 0.638 -2.496 4.192 -3.026 5.404Z"
                stroke-width="1"></path>
            <path id="vector_11" fill="#111112"
                d="M115.322 124.7238c-0.414 -0.268 -1.25 0.094 -1.71 0.11 -4.446 0.164 -4.026 -0.638 -4.932 -1.088 -1.49 -0.728 -2.016 1.056 -1.61 2.886 0.608 2.732 2.558 4.058 3.85 4.058 0.798 0 1.056 -0.596 0.55 -1.128 -0.482 -0.504 -2.112 -1.4 -2.602 -3.298 -0.072 -0.28 -0.07 -0.122 0.176 -0.04 1.56 0.518 2.728 0.552 4.596 0.444 0.674 -0.04 1.35 -0.358 1.682 -0.792 0.264 -0.346 0.352 -0.926 0 -1.152Z"
                stroke-width="1"></path>
            <path id="vector_12" fill="#111112"
                d="M114.056 112.9284c-0.67 -0.644 -1.478 -0.548 -1.532 0.284 -0.086 1.418 1.502 2.08 2.324 4.28 0.622 1.658 -1.096 2.376 -2.758 2.376 -1.064 0 -1.524 0.488 -1.664 0.728 -0.134 0.23 -0.14 0.484 -0.018 0.696 0.22 0.384 0.8 0.58 1.724 0.582 2.29 0.148 3.968 -0.962 4.564 -2.314 0.476 -1.08 0.766 -3.376 -2.642 -6.63l0.002 -0.002Z"
                stroke-width="1"></path>
            <path id="vector_13" fill="#111112"
                d="M106.954 112.7246c0.746 -1.446 -0.748 -2.994 -1.624 -1.75 -0.286 0.406 -0.404 1.108 0.122 1.858 0.392 0.56 1.196 0.496 1.502 -0.108Z"
                stroke-width="1"></path>
            <path id="vector_14" fill="#111112"
                d="M118.846 110.3042c-0.022 1.124 1.154 1.956 1.856 1.042 0.438 -0.57 0.372 -1.466 -0.144 -1.958 -0.872 -0.834 -1.7 0.2 -1.712 0.916Z"
                stroke-width="1"></path>
            <path id="vector_15" fill="#111112"
                d="M177.9898 126.0946c-0.192 -0.248 -0.56 -0.452 -0.8 -0.39l-10.918 0.082c-0.68 0.004 -1.156 0.674 -0.94 1.318l3.364 10.004c0.14 0.418 0.53 0.682 0.948 0.682 0.682 0 1.166 -0.67 0.948 -1.318l-2.924 -8.698 8.218 -0.062 -0.328 1.196c-0.146 0.534 0.168 1.084 0.702 1.228 0.53 0.14 1.082 -0.168 1.228 -0.702 0.714 -2.608 0.896 -2.828 0.502 -3.34Z"
                stroke-width="1"></path>
            <path id="vector_16" fill="#111112"
                d="M166.348 122.0758c0.148 -2.362 0.216 -3.482 -0.7 -4.11 -0.272 -0.184 -0.696 -0.346 -1.29 -0.21 -0.446 -1.488 -1.192 -2.504 -2.768 -2.224 -1.94 0.352 -2.438 1.784 -2.528 3.034 -5.294 -1.434 -6.044 3.13 -2.622 5.368 -1.506 1.018 -1.21 2.2 -0.256 2.688 1.504 0.772 3.452 0.992 4.956 0.58 0.534 -0.146 0.846 -0.696 0.702 -1.228 -0.146 -0.534 -0.698 -0.84 -1.228 -0.702 -0.732 0.2 -1.644 0.176 -2.488 -0.044 0.296 -0.196 0.856 -0.622 0.85 -1.324 -0.012 -1.394 -1.912 -1.392 -2.472 -2.752 -0.162 -0.394 -0.138 -0.67 -0.07 -0.742 0.152 -0.158 1.048 -0.378 3.304 0.484 0.686 0.262 1.414 -0.284 1.354 -1.016 -0.182 -2.188 0.322 -2.28 1.008 -2.388 0.356 0.26 0.41 2.89 2.344 2.35 0.028 0.512 -0.042 1.344 -0.09 2.116 -0.034 0.55 0.386 1.026 0.938 1.058 0.55 0.034 1.022 -0.386 1.056 -0.938Z"
                stroke-width="1"></path>
        </g>
        <g id="person 2">
            <path id="vector_17" fill="#111112"
                d="M232.698 121.5876c-0.1 -0.31 -0.282 -0.74 -0.694 -0.882 -1.13 -0.388 -2.38 2.014 -5.212 1.774 -0.826 -0.07 -1.158 0.788 -0.702 1.248 1.376 1.388 3.48 0.226 5.052 -0.62 0.318 3.264 -1.184 2.386 -2.562 3.212 -1.06 0.63 -0.334 2.404 2.538 1.118 2.09 -0.936 2.3 -3.612 1.58 -5.85Z"
                stroke-width="1"></path>
            <path id="vector_18" fill="#111112"
                d="M228.214 117.552c-0.598 -0.444 -2.554 0.366 -3.432 -0.124 0.116 -0.426 0.57 -1.286 1.066 -3.678 0.146 -0.708 -0.232 -1.084 -0.636 -1.202 -0.966 -0.276 -0.91 0.388 -2.37 4.384 -0.556 1.52 0.848 2.736 2.402 2.736 1.052 0 1.462 -0.128 2.94 -0.63 0.628 -0.212 0.794 -0.918 0.03 -1.486Z"
                stroke-width="1"></path>
            <path id="vector_19" fill="#111112"
                d="M231.922 103.2236c-0.39 -0.82 -1.75 -1.708 -3.096 -1.702 -2.81 0.016 -3.426 2.942 -1.956 3.376 0.41 0.118 0.888 -0.06 1.152 -0.646 0.182 -0.4 0.74 -0.43 2.278 -0.016 1.562 0.42 1.942 -0.34 1.624 -1.014l-0.002 0.002Z"
                stroke-width="1"></path>
            <path id="vector_20" fill="#111112"
                d="M221.09 104.8936c-1.82 0 -2.608 2.234 -1.498 2.704 0.438 0.184 0.936 0.012 1.144 -0.376 0.208 -0.39 0.912 -0.03 1.648 -0.504 0.962 -0.618 0.168 -1.822 -1.296 -1.822l0.002 -0.002Z"
                stroke-width="1"></path>
            <path id="vector_21" fill="#111112"
                d="M227.962 110.6096c0.006 1.944 2.344 1.854 2.37 0.194 0.022 -1.602 -2.372 -1.92 -2.37 -0.194Z"
                stroke-width="1"></path>
            <path id="vector_22" fill="#111112"
                d="M222.004 110.4158c-1.132 -0.672 -1.802 0.928 -1.108 2.178 0.246 0.446 0.598 0.596 0.934 0.546 0.974 -0.158 1.45 -1.97 0.174 -2.724Z"
                stroke-width="1"></path>
            <path id="vector_23" fill="#111112"
                d="M280.186 125.592c-1.334 -2.126 -3.026 -4.59 -4.214 -6.806 -0.484 -0.902 0 -1.432 0.75 -1.476 0.338 -0.02 5.59 -0.268 8.378 -0.27 0.602 0 1.32 0.812 0.794 1.666 -4.56 7.396 -4.424 8.932 -5.708 6.884v0.002Z"
                stroke-width="1"></path>
            <path id="vector_24" fill="#111112"
                d="m289.678 150.7002 -2.004 0.066c1.462 6.236 3.368 15.102 4.034 20.418 0.462 3.68 0.334 6.768 -0.172 9.364 0.84 -0.164 1.622 -0.332 2.326 -0.51 1.06 -7.55 -1.212 -17.228 -3.492 -26.33 0.004 -0.204 -0.304 -1.48 -0.692 -3.008Z"
                stroke-width="1"></path>
            <path id="vector_25" fill="#111112"
                d="M294.42 112.6158c-0.616 -1 -3.574 -1.008 -12.032 -0.932 -2.878 0.026 -2.548 0.084 -2.544 -0.134 0.014 -0.718 -0.186 -0.626 0.552 -1.068 0.8 -0.48 2.012 -1.204 1.718 -3.618 -0.222 -1.818 -1.228 -2.286 -2.7 -2.97 -0.608 -0.276 0.126 -3.644 -1.24 -3.584 -0.46 0.02 -0.784 0.546 -0.75 1.196 0.072 1.404 0.194 2.314 0.186 2.516 -0.04 0.026 -0.192 0.062 -0.326 0.094 -1.84 0.44 -2.558 1.958 -2.556 3.298 0 3.192 3.06 3.504 3.26 3.628 0.028 0.07 0.018 0.574 0.012 0.65 -0.802 0.136 -2.038 -0.13 -8.08 0.404 -1.656 0.146 -2.356 1.19 -1.516 2.68 3.34 5.922 2.63 4.5 8.248 14.152 -1.708 3.012 -2.47 5.268 -1.542 7.706 -0.57 -0.392 -1.348 -0.854 -2.42 -1.386 -3.834 -1.902 -5.362 -1.518 -7.394 -2.076 -0.488 -0.132 -0.604 -0.802 -6.298 -1.272 -9.958 -0.82 -8.934 1.128 -9.522 -2.498 0.054 -0.024 0.18 -0.054 0.274 -0.076 1.416 -0.326 0.566 -0.458 3.536 -1.57 1.628 -0.612 3.656 -1.372 6.714 -3.626 0.374 -0.276 0.528 -0.578 0.46 -0.896 -0.178 -0.834 -2.068 -1.152 -3.228 -1.402 0.822 -0.422 1.802 -0.924 2.362 -1.19 0.45 -0.214 0.742 -0.636 0.742 -1.076 0 -0.922 -0.852 -1.104 -3.21 -2.212 1.218 -0.36 1.18 -1.182 0.618 -2.344 -3.354 -6.912 -1.602 -4.884 -4.728 -13.488 8.824 -1.554 7.228 -14.058 1.82 -14.088 -1.178 -0.022 -1.996 0.588 -2.436 0.792 -0.568 -2.508 -1.024 -5.262 -2.744 -7.512 -4.992 -6.534 -14.572 0.518 -11.5 10.65 -0.372 -0.046 -1.028 -0.17 -2.192 -0.216 -4.646 -0.182 -9.706 -0.936 -14.752 2.064 -3.732 2.214 -5.054 6.28 -3.632 11.156 0.436 1.5 -1.764 7.258 -0.042 17.306 1.634 9.54 5.032 10.93 12.396 11.83 0.244 0.03 0.254 0.03 0.236 0.64 -0.012 0.38 -0.026 0.852 0.108 1.398 0.176 0.71 -2.538 1.022 -10.546 5.378 -0.712 0.388 -0.738 0.858 -0.752 1.17 -0.014 0.254 -0.02 0.394 -0.47 0.632 -8.202 4.342 -11.4 14.33 -20.9878 32.198 -1.828 3.408 -1.614 3.79 -2.392 4.184 -13.496 6.848 -21.576 18.758 -28.708 22.5762 -1.35 0.722 -7.614 2.314 -9.2 6.41 -1.878 4.842 -0.072 7.314 4.67 3.452 0.732 -0.596 2.552 -2.054 3.336 -2.58 -0.272 0.884 -0.472 1.994 -0.332 3.4 0.284 2.848 4.878 2.33 5.716 -0.826 0.448 -1.684 0.96 -3.75 1.838 -3.998 0.222 -0.062 15.136 -3.096 25.102 -6.204 12.4358 -3.8802 14.4218 -6.8922 17.7318 -11.9102 1.638 -2.482 1.666 -2.382 2.242 -3.536 0.108 0.19 0.248 0.46 0.4 0.752 3.61 6.968 7.58 11.964 9.12 14.3202 -10.088 1.616 -21.68 4.928 -29.6118 8.466 -7.972 3.556 -13.482 8.592 -16.374 14.968 -6.726 14.822 -6.146 43.326 -6.336 45.236 -0.458 4.456 -0.328 4.8 -0.394 6.938 -0.044 1.508 -0.07 2.34 1.274 2.918 2.434 1.05 5.376 1.514 6.528 1.666 0.104 0.012 0.35 0.044 0.366 0.028 0.094 0.28 -0.444 2.722 -0.098 7.338 0.048 0.64 0.052 0.796 -0.02 0.864 -3.876 3.518 -6.46 4.118 -10.074 8.032 -1.434 1.554 -1.468 3.512 0.536 4.106 1.81 0.534 3.202 0.26 5.978 -0.29 5.536 -1.092 9.056 -1.404 14.55 -3.886 1.928 -0.87 2.3 -2.838 1.83 -4.302 -0.94 -2.916 -0.604 -4.56 -0.422 -5.446 1.108 -5.39 1.106 -5.872 1.262 -6.254 0.272 0.018 5.1178 -0.468 7.5358 -1.04 0.58 -0.13 1.136 -2.018 1.668 -5.66 0 0 1.122 -7.682 1.216 -8.11 1.728 2.896 6.02 12.038 9.332 16 1.672 2.004 12.164 0.25 12.27 0.232 0.472 -0.084 0.506 -0.094 2.19 2.392 3.794 5.604 3.828 5.45 3.494 6.12 -3.944 7.876 -4.472 7.632 -5.314 11.306 -0.32 1.392 0.722 2.818 2.796 2.818 3.812 0 8.364 -4.116 12.102 -7.118 4.598 -3.692 6.416 -4.684 4.914 -7.082 -2.046 -3.266 -3.234 -4.31 -3.816 -5.75 -1.536 -3.788 -2.382 -5.874 -2.312 -6.18 1.202 -1.126 0.93 -2.218 0.386 -4.39 -2.664 -10.662 -1.612 -19.862 -3.47 -28.382 5.958 -1.64 11.628 -3.046 16.958 -4.622 -0.072 -1.078 -0.108 -1.95 -0.12 -2.632 -7.288 2.33 -13.14 3.97 -17.426 4.874 -1.904 -5.704 -1.96 -6.002 -2.948 -5.686 -1.708 0.554 1.548 6.108 1.822 11.156 0.082 0.612 0.69 3.066 0.84 8.114 0.286 9.58 1.61 14.664 2.322 17.394 0.644 2.476 0.58 2.596 -0.122 2.804 -6.326 1.868 -13.084 3.08 -19.028 3.414 -3.584 0.2 -3.708 0.026 -4.01 -0.39 -4.306 -5.986 -12.978 -22.602 -13.996 -30.526 -1.764 -13.73 -0.508 -22.882 11.162 -31.912 5.444 -4.212 18.922 -8.784 24.62 -10.052 1.25 -0.278 1.44 -1.08 1.032 -1.498 -0.722 -0.738 -3.124 -0.148 -4.122 0.124 -6.866 1.87 -19.38 5.942 -26.048 12.2 -6.128 5.75 -7.246 8.94 -9.032 15.242 -0.78 2.754 -1.1018 12.388 0.74 19.238 4.388 16.306 2.786 0.406 1.202 24.076 -0.048 0.738 -0.122 0.668 -0.472 0.712 -5.0638 0.634 -17.6698 1.956 -25.5298 -0.594 -0.5508 -0.178 -0.7574 -0.646 -0.62 -1.404 1.17 -6.414 0.27 -22.846 2.898 -35.97 2.808 -14.024 3.972 -19.828 14.428 -26.414 11.5818 -7.292 33.6438 -11.404 35.6798 -11.432 0.648 -0.008 6.012 0.9 6.654 1.048 2.204 0.51 2.414 0.132 9.104 0.778 5.656 0.544 23.882 0.068 36.264 -1.968 1.77 -1.18 4.008 -2.18 5.514 -3.4942 -14.818 -3.844 -10.144 -2.832 -22.55 -7.526 -1.284 -0.486 -0.25 1.558 -2.508 2.348 -0.674 0.236 -0.55 0.2 -4.414 0.392 -0.582 0.028 -0.606 0.026 -0.596 0.65 0.01 0.63 -0.004 1.248 0.168 1.892 0.22 0.824 -0.666 2.216 -2.314 2.392 -1.364 0.146 -3.998 0.22 -6.576 0.004 -1.172 -0.1 0.004 0.236 -6.374 0.106 -1.592 -0.032 -5.014 -1.044 -4.866 -2.86 0.06 -0.726 0.02 -0.798 -0.202 -8.832 -0.006 -0.26 0.002 -0.344 -0.372 -0.342 -1.628 0.012 -3.198 -1.478 -3.262 -3.118 -0.088 -2.238 -2.942 -2.252 -1.884 -5.38 0.342 -1.012 0.432 -1.604 -0.334 -2.162 -1.666 -1.214 -2.598 -3.322 -1.776 -5.126 1.134 -2.492 1.714 -2.52 1.154 -3.024 -1.316 -1.188 -0.994 -3.222 -0.08 -4.206 1.41 -1.52 1.094 -0.758 0.22 -2.222 -1.53 -2.558 0.17 -5.338 2.578 -5.43 2.01 -0.078 2.364 0.2 2.544 -0.402 0.426 -1.422 1.448 -2.948 2.946 -3.854 2.094 -1.266 4.572 0.67 5.844 1.592 1.34 0.97 1.032 -0.16 3.52 -1.198 1.436 -0.6 2.852 -0.578 4.18 0.394 0.678 0.496 0.93 1.216 1.218 1.934 0.53 1.32 0.148 0.8 1.12 0.388 0.672 -0.286 3.78 -2.166 4.984 0.818 1.184 2.934 -0.874 4.406 0.348 4.606 1.312 0.214 2.108 1.18 2.14 2.424 0.042 1.724 -0.676 2.284 -1.04 2.87 -0.646 1.04 1.174 0.726 0.458 3.768 -0.356 1.512 -1.74 1.896 -2.212 2.16 -0.328 0.184 -0.282 0.52 -0.25 0.816 0.11 1.032 5.704 -0.352 5.834 3.808 0.042 1.33 0.09 4.864 -0.156 6.996 -0.076 0.66 0.334 0.506 7.904 -0.52 -0.078 -0.15 -0.174 -0.274 -0.25 -0.428 -8.326 -17.024 -7.466 -46.888 -6.284 -47.668 0.072 -0.044 0.306 -0.024 0.712 0.064 4.184 0.924 6.816 2.084 10.442 6.19 0.52 0.588 1.104 3.23 1.172 6.264l2.076 -0.99c-0.114 -3.024 -0.74 -6.082 -2.06 -8.432 -1.9 -3.388 -1.234 -5.746 -0.158 -7.6 0.258 0.382 0.534 0.84 0.572 0.964 0.12 0.634 -0.532 1.168 0.508 1.948 -0.032 0.04 -0.076 0.088 -0.108 0.126 -0.322 0.364 -0.988 1.12 0.254 2.35 0.328 0.326 0.402 0.468 0.27 0.794 -0.304 0.742 -0.07 1.422 0.662 1.762 0.028 0.044 0.07 0.216 0.112 0.778 0.182 2.426 2.386 2.752 4.434 2.832 1.914 0.074 1.722 -1.554 0.296 -1.764 -1.28 -0.188 -1.668 -0.292 -2.428 -0.632 -0.068 -0.03 -0.096 -0.128 -0.034 -0.156 1.014 -0.05 1.21 -0.528 1.238 -0.806 0.054 -0.572 -0.536 -1.124 -1.102 -1.266 -0.268 -0.066 -0.464 -0.134 -0.604 -0.196 0.47 -0.07 0.934 -0.624 0.966 -1.162 0.058 -1.014 -1.034 -0.988 -1.88 -1.292 -0.104 -0.038 -0.1 -0.026 0.01 -0.034 1.838 -0.086 2.178 -1.63 0.216 -2.29 0.5 -0.046 1.344 -0.122 4.654 0.198 0.996 0.096 1.748 0.394 2.172 1.542 0.996 2.686 0.808 5.294 -0.572 7.978 -0.274 0.532 -0.568 0.686 -1.308 0.874 -0.23 0.06 -0.358 0.302 -0.276 0.528 0.126 0.336 0.478 1.654 0.948 3.562l2.198 0.93c-0.478 -1.838 -0.904 -3.448 -0.908 -3.536 2.854 -1.758 4.46 -12.832 -1.804 -13.608 -0.682 -0.084 -1.89 -0.192 -1.89 -0.192 2.072 -5.184 6.136 -9.936 9.988 -17.398 0.208 -0.404 0.088 -0.708 0 -0.854l-0.006 0.002Zm-76.394 34.678c-2.308 11.274 -2.626 19.234 -3.082 23.318 -0.314 2.808 -0.638 5.71 1.442 12.644 0.196 0.654 0.304 1.014 -4.35 7.34 -4.766 6.476 -15.6638 9.16 -24.4278 11.2922 -16.966 4.128 -17.466 3.732 -18.108 6.006 -0.22 0.778 -0.578 1.62 -0.842 2.77 -0.508 2.206 -2.372 2.53 -1.808 -0.206 0.17 -0.822 0.45 -1.732 0.164 -2.424 -1.202 -2.898 -5.122 1.5 -8.08 3.238 -1.378 0.4 -0.756 -1.348 -0.156 -2.374 0.406 -1.05 1.362 -1.912 2.01 -2.498 1.372 -1.238 2.004 -1.418 5.204 -2.486 0.802 -0.268 5.74 -3.792 6.722 -4.4962 3.33 -2.388 10.948 -11.832 21.394 -17.708 3.162 -1.78 2.53 -0.548 6.7578 -8.612 6.134 -11.698 12.39 -26.174 17.592 -28.218 -0.044 0.516 -0.206 1.306 -0.432 2.414Zm20.896 133.2442c0.628 -0.168 1.124 -0.3 1.166 -0.332 0.168 0.244 1.83 6.002 4.802 9.8 0.112 0.142 0.226 0.288 0.28 0.376l-0.674 0.622c-3.08 2.846 -8.812 8.156 -10.448 7.428 -0.286 -0.124 -0.43 -0.522 -0.432 -1.148 0.198 -2.454 1.522 -2.938 2.362 -6.386 0.086 -0.358 -0.678 -1.828 -2.296 -4.412 0 0 -2.524 -4.018 -2.588 -4.144 0.578 -0.198 3.132 -0.552 7.828 -1.804Zm-54.4578 4.29c0.022 -0.894 0.09 -3.234 0.094 -3.27 1.672 0.234 7.486 0.164 8.482 0.062 0.234 -0.024 0.5 -0.05 1.056 -0.076 -0.09 0.552 -0.906 3.402 -1.314 6.872 -0.146 1.238 -0.572 1.834 -0.148 3.614 0.038 0.154 0.084 0.344 0.076 0.386 0 0 -0.038 0.044 -0.206 0.104 -7.652 2.732 -7.236 2.71 -12.702 3.566l-0.346 -0.054c-0.344 -0.052 -0.922 -0.14 -1.004 -0.25 -0.022 -0.2 0.542 -0.94 0.792 -1.152 4.962 -4.222 5.036 -2.374 5.218 -9.8l0.002 -0.002ZM247.172 81.2838c2.132 1.846 2.69 5.82 3.38 8.452 0.17 0.648 0.472 1.046 0.898 1.19 1 0.338 2.138 -0.95 2.628 -1.218 2.866 -1.588 5.84 8.47 -1.968 9.888 -0.104 0.042 -0.332 -0.386 -0.542 -0.788 -0.88 -1.67 -2.71 -5.146 -10.71 -6.822 -0.458 -0.096 -1.024 -0.92 -1.112 -4.3 -0.13 -5.068 4.034 -9.342 7.426 -6.402Zm-27.224 15.79c3.428 -6.398 21.698 -4.366 26.836 -0.786 6.148 4.284 5.448 13.234 9.048 19.488 -1.392 0.184 -2.264 0.112 -2.6 0.886 -0.21 0.478 -0.086 1.096 3.878 2.93 -3.046 1.792 -3.802 1.816 -3.69 2.712 0.116 0.922 2.016 1.12 3.524 1.534 -3.656 2.032 -9.996 4.436 -12.124 4.928 -0.234 -4.958 -0.158 -4.088 -0.586 -6.692 -0.014 -0.09 -0.018 -0.148 -0.028 -0.17 0.334 -0.092 1.226 -0.07 2.556 -0.918 2.998 -1.91 2.35 -6.068 -0.09 -7.604 -1.902 -1.194 -4.35 -0.29 -5.364 1.268 -0.812 1.252 -1.218 2.56 -1.524 3.302 -0.302 -0.88 -0.8 -3.186 -1.59 -6.838 -0.644 -2.97 -0.83 -4.444 -0.126 -8.464 0.252 -1.446 0.618 -3.114 -0.922 -3.154 -4.95 -0.138 -10.198 -0.078 -15.202 -2.048 -1.328 -0.524 -2.364 1.662 -2.924 2.976 0.116 -1.054 0.386 -2.342 0.926 -3.348l0.002 -0.002Zm28.58 40.192c-4.418 7.35 -4.244 6.394 -7.78 9.834 -0.214 -0.026 -4.716 -2.706 -7.752 -6.17 -0.59 -0.672 -0.596 -0.852 -0.676 -3.056 -0.236 -6.566 -0.18 -6.204 -2.572 -6.52 -3.744 -0.494 -7.28 -0.954 -8.982 -5.69 -2.96 -8.246 -1.876 -21.664 0.382 -25.74 0.234 -0.422 0.456 -0.82 0.536 -0.87 0.278 -0.016 4.074 2.558 14.632 2.446 -1.466 8.996 -0.132 6.954 2.206 20.552 0.154 0.882 1.504 0.882 1.782 0.144 1.826 -4.814 1.548 -4.484 2.926 -6.75 0.336 -0.556 1.752 -0.842 2.386 -0.29 0.754 0.658 1.142 1.772 0.962 2.774 -0.266 1.49 -1.478 1.798 -2.978 1.94 -0.766 0.072 -1.492 0.142 -1.398 1.524 0.056 0.798 0.124 1.408 0.19 2.002 0.68 6.106 -0.222 7.874 1.946 7.418 2.08 -0.422 2.596 -0.642 3.15 -0.75 0.742 5.682 1.676 6.144 1.04 7.202Zm41.104 -19.422c-5.136 7.96 -6.282 9.446 -7.066 12.806 -0.25 0.03 -0.974 -0.002 -2.302 -0.024 0 0 -9.618 -15.682 -10.146 -16.694 0.902 -0.042 6.876 -0.336 7.94 -0.204 0.012 0.202 0.35 5.932 0.434 6.464 0.034 0.216 0.13 0.874 0.848 0.872 0.576 0 0.886 -0.374 0.912 -1.098 0.056 -1.44 -0.304 -5.726 -0.222 -6.26 7.414 0 0.984 -0.328 12.212 0.018 -0.338 0.596 -1.172 1.892 -2.61 4.12Z"
                stroke-width="1"></path>
            <path id="vector_26" fill="#111112"
                d="M276.562 162.3434c2.876 -9.12 2.764 -8.546 2.914 -9.168 0.162 -0.676 0.284 -1.404 0.384 -2.152l-2.058 0.068c-0.062 0.464 -0.124 0.928 -0.222 1.376 -0.264 1.228 -0.48 1.73 -1.45 4.77 -1.7 5.326 -3.074 7.844 -3.518 14.186 -0.154 2.19 -0.124 3.38 0.044 4.122 0.402 1.764 2.034 2.424 1.916 0.198 -0.138 -2.678 0.258 -4.168 0.54 -6.5 0.378 -3.152 0.704 -4.532 1.452 -6.902l-0.002 0.002Z"
                stroke-width="1"></path>
            <path id="vector_27" fill="#111112"
                d="m291.854 148.3118 -8.33 -3.5242 -0.192 -3.5198c-0.072 -1.358 -2.068 -1.19 -1.996 0.11l0.19 3.482 -7.286 3.472c-1.94 0.926 -1.28 3.85 0.87 3.85l16.126 -0.534c1.852 -0.062 2.326 -2.614 0.618 -3.336Zm-17.074 1.888 7.812 -3.636 7.382 3.124 -15.194 0.512Z"
                stroke-width="1"></path>
        </g>
        <g id="person 3">
            <path id="vector_28" fill="#111112"
                d="M361.316 170.8876c-6.514 -23.43 -24.33 -34.95 -25.09 -36.368 -5.766 -11.296 -5.698 -11.368 -3.98 -13.212 3.128 -3.358 4.894 -4.89 5.342 -7.148 0.276 -1.384 -0.144 -1.968 -0.702 -2.628 1.308 -1.44 2.54 -2.802 2.95 -4.226 0.552 -1.916 -0.31 -3.524 -2.302 -4.258 0.324 -0.498 0.548 -0.822 0.89 -1.47 0.772 -1.458 0.68 -3.074 -0.24 -4.214 -1.446 -1.796 -3.448 -1.22 -5.522 -0.384 -0.162 -2.856 -2.086 -4.282 -5.918 -2.45 0 -0.25 0.012 -0.598 0.024 -0.94 0.106 -2.992 -3.214 -4.424 -7.17 -0.698 -0.316 -1.22 -0.418 -2.97 -1.776 -4.078 -0.552 -0.45 -1.188 -0.624 -1.858 -0.512 -2.312 0.406 -3.774 3.718 -4.292 5.906 -1.824 -1.974 -3.218 -1.752 -3.896 -1.434 -3.008 1.41 -1.858 8.078 -0.03 11.068 -7.058 6.09 -2.77 12.57 -5.056 15.342 -1.066 1.294 -1.556 2.586 -0.24 3.634 1.806 1.442 0.104 0.45 0.93 6.638 0.58 4.344 5.55 6.092 9.662 5.04 1.284 -0.33 2.12 -0.616 2.62 -0.786 0.71 -0.244 -0.134 -0.638 0.082 8.072 0.032 1.336 0.058 2.392 -0.118 2.686 -3.348 5.608 -2.318 8.57 -4.87 12.244 -15.416 22.194 -12.534 21.558 -15.61 22.548 -3.11 1.002 -8.22 1.688 -14.088 2.42 -11.1 1.382 -15.556 2.158 -16.376 2.074 0.288 -2.57 0.158 -6.824 0.152 -7.004 -0.13 -4.158 -5.23 -3.464 -5.838 -3.862 -0.046 -0.406 -0.044 -0.364 0.308 -0.526 0.63 -0.29 1.804 -0.83 2.148 -2.292 0.694 -2.948 -0.856 -3.088 -0.508 -3.648 0.442 -0.712 1.146 -1.242 1.1 -3.09 -0.036 -1.466 -1.008 -2.568 -2.474 -2.808 -0.032 -0.004 -0.068 -0.012 -0.068 -0.012 0.034 -0.532 0.946 -2.068 0.026 -4.35 -0.948 -2.348 -2.994 -2.252 -5.274 -1.148 -0.332 0.16 -0.448 0.194 -0.674 0.344 -0.406 -1.036 -0.68 -1.904 -1.51 -2.508 -2.124 -1.556 -4.54 -0.862 -6.602 0.772 -0.586 0.462 -0.554 0.428 -1.272 -0.096 -1.356 -0.99 -3.886 -2.83 -6.112 -1.484 -1.454 0.878 -2.622 2.404 -3.124 4.084 -0.018 0.06 -0.03 0.088 -0.03 0.088 -0.078 0.036 -0.39 0.028 -0.69 0.022 -0.354 -0.008 -0.826 -0.018 -1.456 0.008 -2.886 0.112 -4.978 3.608 -2.26 6.928 -0.806 0.916 -1.796 1.638 -1.716 3.434 0.03 0.686 0.246 1.516 1.086 2.264 -0.102 0.304 -0.568 0.816 -1.33 2.49 -0.852 1.87 -0.068 4.18 1.906 5.616 0.508 0.37 0.542 0.674 0.192 1.71 -1.136 3.356 1.784 3.546 1.864 5.522 0.072 1.836 1.8 3.498 3.636 3.502 0.228 7.958 0.248 8.162 0.202 8.74 -0.172 2.076 3.288 3.252 5.256 3.294 6.288 0.126 5.288 -0.194 6.348 -0.108 2.53 0.212 5.224 0.146 6.652 -0.004 1.912 -0.204 2.94 -1.836 2.66 -2.894 -0.158 -0.586 -0.164 -1.708 -0.156 -2.026 1.794 -0.142 3.684 -0.056 4.744 -0.426 1.794 -0.628 1.844 -2.06 2.036 -2.4 0.236 -0.02 7.056 2.738 7.554 2.94 3.866 1.576 4.642 1.892 14.464 4.446 -2.462 1.8144 -6.198 3.1024 -7.406 5.5404 -0.206 0.414 -0.406 0.644 -0.594 0.686 -6.8 1.514 -13.398 6.624 -16.652 10.73 -5.332 6.728 -5.732 12.762 -5.734 21.194 -0.38 2.026 0.228 16.812 7.79 42.244 2.048 6.88 2.092 7.894 3.396 8.118 2.738 0.464 3.218 0.442 5.256 0.362 6.326 -0.252 6.728 -0.528 7 -0.416 0.028 0.042 0.062 0.216 0.108 0.45 0.942 4.704 1.412 5.518 1.424 5.772 -0.176 0.46 -4.762 4.04 -6.924 8.924 -0.7 1.58 0.324 2.98 2.078 2.98 3.718 0 13.34 -5.616 15.756 -7.22 1.816 -1.208 1.176 -2.862 -0.102 -6.158 -0.902 -2.328 -0.35 -2.268 -0.818 -6.066 0.322 -0.148 0.892 -0.098 1.994 -0.708 1.634 -0.902 0.948 -2.954 0.698 -3.87 0.408 -0.082 0.63 -0.164 0.876 -0.32 0.436 0.682 0.398 0.834 2.018 3.612 1.43 2.452 1.548 2.19 1.342 2.66 -1.018 2.322 -1.558 7.788 -1.576 10.322 -0.006 1.08 0.45 2.046 1.164 2.462 3.17 1.858 9.636 -9.846 11.3 -13.114 0.818 -1.606 0.686 -3.04 -0.406 -4.382 -1.88 -2.316 -4.484 -6.86 -4.488 -7.06 0.032 -0.072 0.276 -0.254 0.516 -0.436 4.498 -3.382 -0.888 -4.318 -6.952 -28.224 -0.498 -1.964 -0.882 -2.872 -0.99 -3.362 7.396 -0.6 6.144 -0.102 21.97 -2.404 9.02 -1.312 18.482 -2.338 26.632 -7.454 11.532 -7.236 23.608 -38.4484 16.714 -63.2424l0.004 -0.004Zm-72.692 117.4104c0.312 3.066 0.498 3.22 -0.136 3.504 -2.62 1.174 -2.374 1.178 -4.584 1.232 -1.366 0.034 -1.244 0.016 -1.61 0.106 -0.088 -0.25 -0.19 -0.782 -0.284 -1.264 -0.214 -1.122 -0.504 -2.642 -1.164 -4.36 1.004 -0.126 4.634 -0.232 7.274 -0.716 0.212 -0.038 0.43 -0.078 0.562 -0.09 0.042 1.588 -0.076 1.388 -0.058 1.588Zm-24.286 -99.6964c0.142 -1.636 0.18 -2.688 0.276 -3.132 0.882 0.14 4.782 -0.398 14.708 -1.728 6.204 -0.832 11.55 -0.932 16.96 -3.092 1.61 -0.642 1.824 -1.194 4.952 -5.938 0.342 0.234 1.152 0.924 2.452 2.03 7.872 6.704 7.832 6.358 7.796 6.896 -0.032 0.5 0.038 0.966 -0.084 2.788 -9.052 4.054 -15.412 6.176 -20.416 9.39 -1.99 1.28 -2.76 1.962 -3.068 1.906 -9.706 -1.734 -17.136 -5.386 -23.034 -7.43 -0.446 -0.1548 -0.628 -0.718 -0.542 -1.69Zm39.31 -67.474c0.072 -0.104 0.464 -0.568 0.546 -0.668 3.182 -3.876 -1.612 -9.238 4.708 -15.462 0 0 0.03 0.01 0.096 0.048 3.608 2.098 7.532 0.972 10.114 2.152 0.424 0.194 0.838 1.182 0.662 1.848 -0.746 2.818 -1.098 2.742 -0.988 4.704 0.128 2.292 -0.076 3.07 -0.21 3.586 -0.528 2.01 0.984 3.964 2.876 2.77 0.41 -0.26 0.724 -0.628 1.028 -0.984 2.18 -2.542 3.746 -2.646 4.47 -2.04 0.89 0.74 0.906 2.708 -0.488 4.456 -0.924 1.16 -3.718 -0.192 -3.908 1.166 -0.22 1.58 2.584 1.676 4.186 1 0.934 -0.394 0.656 0.026 2.486 -0.124 0.648 -0.05 -0.788 0.316 3.32 8.308 0.264 0.516 1.8 3.33 1.938 3.33 0 0 -0.02 0.024 -0.092 0.076 -2.682 1.944 -2.426 2.096 -3.106 1.934 -2.822 -0.662 -5.318 -0.814 -8.334 0.604 -2.998 1.408 -4.544 3.096 -5.382 4.02 -0.058 -1.614 0.078 -4.978 0.164 -7.152 0.098 -2.438 0.232 -3.024 -0.238 -3.348 -1.23 -0.848 -5.398 2.814 -10.288 0.334 -1.026 -0.52 -1.7 -1.67 -1.802 -3.076 -0.308 -4.192 -0.188 -3.608 -0.044 -4.868 0.196 -1.72 -1.254 -2.22 -1.708 -2.616l-0.006 0.002Zm7.858 58.7c0.02 0.2 -0.006 0.712 -0.022 1.234 -4.118 -4.118 -9.178 -7.608 -9.366 -7.792 0.514 -0.928 8.166 -12.662 9.18 -14.21 -0.548 5.494 -2.396 20.234 0.206 20.77l0.002 -0.002Zm-2.768 10.052c1.508 -0.59 8.584 -3.094 8.182 -4.322 -0.108 -0.324 -0.77 -0.414 -1.092 -0.414 -0.578 0 -1.788 0.396 -2.306 0.568 0.014 -0.806 0.226 -2.124 0.11 -5.704 5.498 0.262 5.496 -0.194 16.522 0.612 2.726 0.202 4.398 -0.08 4.688 0.228 0.298 0.318 0.018 2.01 -0.148 4.946 -1.258 22.1344 -20.266 18.0004 -36.746 17.8824 -13.306 -0.098 -16.2 0.902 -17.282 1.286 0.454 -0.438 1.214 -0.878 2.204 -1.454 7.528 -4.3744 6.56 -6.0864 25.868 -13.6324v0.004Zm21.612 11.2664c2.45 -2.3744 4.266 -4.4124 5.322 -8.6564 0.8 -3.224 1.218 -7.492 1.28 -13.048 0.084 -7.642 0.416 -4.63 0.354 -11.57 0 -0.116 -0.228 -11.722 -1.016 -12.464 -0.388 -0.36 -1.076 -0.152 -1.156 0.314 -0.174 0.982 0.376 14.522 0.208 16.014 -0.18 1.57 -0.254 5.564 -0.266 6.768 0 0.204 -0.004 0.484 -0.026 0.496 -7.562 -1.018 -19.214 -0.928 -22.916 -1.082 -0.42 -14.276 1.08 -38.678 15.438 -39.04 3.182 -0.074 5.192 1.166 7.394 1.968 1.228 0.44 1.872 -1.08 0.858 -1.674 -0.56 -0.328 -1.098 -0.618 -1.786 -0.956l0.616 -0.636c0.528 -0.548 0.944 -0.98 1.05 -1.016 0.05 0.016 0.196 0.144 0.256 0.198 8.718 7.682 15.196 14.808 20.546 26.584 7.898 17.382 4.838 32.19 0.7 47.0824 -0.104 0.374 -0.174 0.584 -0.222 0.702 -18.656 -8.05 -14.656 -6.314 -26.636 -9.986l0.002 0.002Zm-37.486 79.11 -0.068 -0.076 0.024 -0.008 0.044 0.084Zm-0.278 -0.306c0.02 -0.008 0.054 -0.018 0.1 -0.018l0.068 0.116 -0.036 0.048 -0.132 -0.146Zm-2.658 -31.818c0.07 -1.098 0.184 -4.352 0.184 -4.352 0.498 0.046 0.472 0.25 2.852 0.218 0.336 -0.004 0.68 -0.01 1.006 -0.006 0.234 0.132 0.486 1.41 0.752 2.762 2.536 12.882 5.948 18.124 9.024 26.454 -0.206 0.156 -6.25 4.28 -8.756 5.518 -0.5 0.248 -1.128 0.558 -2.062 1.042 -1.652 -13.73 -3.664 -21.19 -3 -31.636Zm10.952 -6.62c-1.904 0.084 -7.646 0.364 -10.152 0.268 -1.362 -0.052 0.09 -0.838 -1.43 -7.24 -0.056 -0.24 -0.216 -0.954 -1.05 -0.898 -0.678 0.06 -0.604 1.12 -0.534 2.146 1.256 18.604 -2.126 10.072 3.118 43.572 0.74 4.734 0.724 4.668 0.376 4.764 -2.636 0.754 -15.158 2.146 -23.824 1.774 -0.052 -0.002 -0.114 -0.004 -0.152 -0.004 -0.026 0 -0.044 0.004 -0.044 0.004 -0.078 -0.088 -0.198 -0.584 -0.35 -1.212 -2.468 -10.194 -13.34 -43.122 -8.066 -59.686 3.564 -11.19 16.964 -17.646 23.552 -18.132 1.424 -0.3 9.256 -1.752 23.674 -0.938 7.214 0.406 13.962 1.176 20.596 -2.444 1.208 -0.66 1.874 -1.022 2.86 -0.668 4.718 1.688 11.22 3.044 26.854 10.226 -0.404 1.498 -3.606 9.448 -7.966 15.126 -6.616 8.614 -23.934 10.2 -31.092 11.26 -0.122 0.02 -12.544 1.914 -16.37 2.084v-0.002Zm-64.708 -55.9464c-0.188 0.176 -1.222 -0.172 -1.552 -0.958 -0.568 -1.358 0.138 -1.294 -1.066 -2.678 -1.548 -1.782 -1.294 -2.33 -1 -2.962 0.448 -0.968 0.642 -1.882 -1.232 -4.046 -1.716 -1.982 -0.626 -3.756 0.168 -5.05 0.798 -1.3 0.688 -1.32 -0.124 -2.396 -1.028 -1.362 -0.38 -2.062 0.372 -2.872 0.612 -0.66 1.448 -1.564 0.364 -2.688 -1.116 -1.156 -0.836 -3.804 0.802 -3.686 2.998 0.25 3.41 0.198 3.872 -1.238 0.484 -1.5 1.252 -3.196 2.81 -3.428 0.604 -0.094 1.184 0.06 1.624 0.422l0.498 0.414c1.984 1.644 3.416 2.832 4.702 1.308 0.876 -1.036 2.468 -1.704 3.632 -1.54 2.174 0.324 1.236 3.654 2.74 3.896 0.64 0.11 1.194 -0.566 1.666 -0.94 1.21 -0.952 2.762 -1.474 3.326 0 0.398 1.04 0.098 2.364 -0.098 3.476 -0.23 1.3 0.72 1.518 1.548 1.742 1.384 0.374 1.018 1.628 0.168 2.776 -0.926 1.254 -0.424 2.24 -0.02 3.03 0.408 0.802 0.694 1.364 -0.37 2.206 -0.4 -2.364 -0.036 -2.454 -3.514 -2.838 -4.1 -0.456 -9.87 -1.2 -16.282 -0.454 -1.902 0.22 -2.142 1.978 -2.396 3.84 -0.426 3.144 -0.704 5.862 -0.642 14.664h0.004Zm2.858 -15.364c0.042 -1 0.196 -1.15 0.196 -1.15 0.106 -0.018 0.478 0.024 0.754 -0.024 4.29 -0.684 14.938 0.458 16.348 0.448 0.228 -0.002 0.51 -0.002 0.564 0.02 0.114 0.2 -0.158 10.32 -0.266 10.542 0 0 -1.228 -0.21 -2.37 -0.314 -3.964 -0.362 -4.664 5.1 -2.06 5.816 1.12 0.308 3.392 1.814 3.296 5.36 -0.038 1.414 -0.07 2.592 -0.174 3.94 -0.246 3.208 -0.11 3.622 -13.598 2.504 -1.592 -0.132 -2.514 -0.244 -2.936 -1.044 -0.768 -1.458 -0.298 -12.876 0.246 -26.098Zm15.004 13.774c-1.408 -0.418 -1.136 -2.376 0.74 -2.124 0.134 0.018 0.688 0.102 1.342 0.198 1.712 0.256 2.634 1.124 2.566 2.226 -0.194 3.172 0.198 4.122 -1.034 3.996 -0.474 -0.048 -0.984 -0.148 -1.092 -1.388 -0.214 -2.428 -1.504 -2.606 -2.522 -2.908Zm3.254 7.686c0.04 -1.39 -0.136 -1.42 0.88 -1.424 2.076 -0.012 2.232 -1.044 2.286 -3.096 0.082 -3.206 0.326 -1.74 0.312 -5.718 0 -0.574 -0.004 -1.148 0.016 -1.722 0.082 -2.286 -1.812 -2.458 -2.02 -2.482 -0.022 -0.246 0.11 -1.182 0.216 -2.5 4.186 0.384 4.156 0.874 3.9 6.434 -0.522 11.39 -0.518 11.534 -3.622 11.52 -1.944 -0.01 -1.744 0.08 -1.944 0.018 -0.054 -0.1 -0.042 -0.55 -0.026 -1.026l0.002 -0.004Zm41.706 95.0284c-0.956 -2.628 -3.2 -5.372 -3.152 -5.972 0.008 -0.082 0.266 -0.176 0.456 -0.246 0.776 -0.286 4.492 -2.89 5.39 -3.402 1.054 2.804 2.846 4.12 2.302 5.092 -1.848 3.314 -3.17 3.97 -4.802 4.644 -0.17 -0.05 -0.17 -0.05 -0.194 -0.118v0.002Zm2.604 -9.872c0.48 -0.202 0.474 -0.246 0.078 0.092 -0.036 -0.026 -0.064 -0.058 -0.078 -0.092Z"
                stroke-width="1"></path>
            <path id="vector_29" fill="#111112"
                d="M310.426 123.545c-2.074 0.918 -2.784 -0.4878 -3.332 0.5062 -0.66 1.19 1.342 1.872 2.78 1.554 0.092 -0.02 0.162 -0.032 0.212 -0.04 -0.19 1.526 -2.516 0.702 -2.438 2.096 0.082 1.404 3.318 1.142 4.012 -1.126 0.174 -0.572 0.29 -1.45 0.328 -2.068 0.052 -0.87 -0.778 -1.2702 -1.562 -0.9222Z"
                stroke-width="1"></path>
            <path id="vector_30" fill="#111112"
                d="M307.77 109.7176c-0.256 0.804 0.524 1.268 1.308 0.926 0.98 -0.422 2.57 0.86 3.09 -0.066 0.798 -1.42 -3.74 -2.926 -4.398 -0.86Z"
                stroke-width="1"></path>
            <path id="vector_31" fill="#111112"
                d="M309.514 112.8178c-0.788 -0.272 -1.864 0.918 -1.22 1.924 0.228 0.358 0.624 0.576 1.018 0.476 0.92 -0.224 1.096 -2.09 0.202 -2.4Z"
                stroke-width="1"></path>
            <path id="vector_32" fill="#111112"
                d="M242.874 170.9334c-1.298 -0.438 -1.492 2.1498 -1.788 16.6238 -0.046 2.276 -0.086 4.2422 -0.138 5.2342 -0.148 2.818 0.52 2.8578 0.74 2.874 2.01 0.132 0.816 -12.382 1.216 -17.564 0.46 -5.934 0.496 -5.4382 0.524 -5.9282 0.056 -0.932 -0.37 -1.1758 -0.556 -1.2378l0.002 -0.002Z"
                stroke-width="1"></path>
            <path id="vector_33" fill="#111112"
                d="M248.762 171.9738c-0.116 -0.826 -1.178 -0.764 -1.402 -0.25 -0.234 0.532 -0.774 17.7 -0.83 19.56 -0.048 1.642 -0.508 2.646 0.222 3.436 0.644 0.692 1.72 0.352 1.314 -1.546 -0.012 -0.056 1.004 -19.002 0.696 -21.2Z"
                stroke-width="1"></path>
            <path id="vector_34" fill="#111112"
                d="M251.114 189.4336c-0.034 2.354 -0.092 3.37 -0.146 4.69 -0.048 1.192 1.528 1.598 1.698 -0.008 0.126 -1.184 0.262 -3.03 0.262 -4.654 0 -1.502 -1.79 -1.642 -1.814 -0.028Z"
                stroke-width="1"></path>
            <path id="vector_35" fill="#111112"
                d="M253.396 172.2214c-0.216 -0.86 -1.412 -1.018 -1.57 -0.036 -0.278 1.692 -0.144 0.13 -0.408 4.76 -0.088 1.534 1.506 2.126 1.706 0.298 0.186 -1.688 0.39 -4.55 0.272 -5.022Z"
                stroke-width="1"></path>
        </g>
    </g>
</svg>