<svg xmlns="http://www.w3.org/2000/svg" fill="none" viewBox="0 0 400 400" height="400" width="400">
    <g id="consult-experts--work-consult-experts">
        <g id="table-2">
            <path id="vector" fill="#111112"
                d="M189.3762 282.014c-0.326 0.296 -0.238 0.26 -0.382 0.164 0.26 -0.314 0.16 -0.266 0.382 -0.164Z"
                stroke-width="1"></path>
            <path id="vector_2" fill="#111112"
                d="M176.4542 293.296c2.922 0.6 18.936 21.356 23.6118 27.886 0.65 0.908 -0.4258 1.4 -1.5318 1.52 -5.81 0.622 -47.612 3.744 -49.022 3.83 -15.81 0.966 -14.1 0.664 -15.468 -2.07 -0.4 -0.788 -0.88 0.12 -5.238 0.274 -2.03 0.072 -2.708 0.652 -3.304 -0.748 -3.277 -8.08 -6.0372 -16.36 -8.264 -24.788 -0.626 -2.714 -0.746 -2.88 0.058 -3.21 3.316 -1.362 3.4 0.472 2.34 -2.966 -0.4 -1.282 1.342 -1.2 15.028 -1.632 0 0.178 34.632 0.426 41.79 1.904Zm-55.27 0.308c3.574 8.06 9.69 20.98 15.02 31.434 0.422 0.828 0.092 0.526 3.164 0.288 54.55 -4.236 60.114 -3.24 59.784 -3.666 -6.83 -8.776 -22.848 -27.778 -23.812 -27.786 -22.414 -0.184 -54.654 -1.396 -54.156 -0.274v0.004Zm11.678 29.656c1.384 0.18 0.096 1.012 -10.6 -23.7 -1.38 -3.188 -1.262 -3.428 -1.91 -3.154 -2 0.842 -2.894 -0.02 -2.44 1.4 2.932 9.222 0.96 3.278 8.2 24.912 0.454 1.39 -0.016 0.18 6.75 0.542Z"
                stroke-width="1"></path>
            <path id="vector_3" fill="#111112"
                d="M222 308.6c10.554 -0.254 10.736 -0.578 18.732 4.172 1 0.6 0.442 0.334 11.236 0.418 3.7 0.028 3.614 0.13 3.896 0.676 0.742 1.524 1.246 3.154 1.492 4.832 -0.514 0.932 -1.088 1.83 -1.716 2.69 -0.32 1.39 -0.748 2.754 -1.284 4.078 -0.076 0.622 -0.526 0.772 -1.02 0.828 -1.722 0.2 -30.114 2.844 -30.962 2.07 -1.554 -1.418 -0.076 0.06 -13.766 -10.184 -0.508 -0.224 -0.952 -0.574 -1.29 -1.016 -0.338 -0.442 -0.558 -0.962 -0.64 -1.512 -0.544 -7.742 -2.246 -6.634 15.322 -7.052Zm2.774 14.034c-0.334 -0.012 -0.344 0.234 -1.64 4.17 -0.35 1.062 -0.834 0.114 23.464 -1.078 3.062 -0.15 6.296 -0.2 6.336 -0.224 0.502 -0.4 0.122 0.042 1.338 -3.8 0.2 -0.616 0.158 -0.358 -3.2 -0.2 -19.224 0.972 -18.81 1.38 -26.3 1.126l0.002 0.006Zm0.534 -13.066c-17.16 1.066 -18.896 0.318 -17.022 1.68 8.734 6.348 5.656 4.042 10.754 7.572 1.89 1.31 0.72 1.488 2.4 -0.214 5.55 -5.652 3.514 -4.442 11.4 -5.2 7.4 -0.71 9.622 1.032 -0.352 -3.426 -0.588 -0.262 -0.004 -0.18 -7.182 -0.418l0.002 0.006Zm28.2 7.98c1.838 0 1.246 0.012 2.376 -0.024 -0.398 -0.88 -0.748 -1.778 -1.052 -2.694 -0.278 -0.908 0 0.126 -22.978 -0.108 -0.812 0 -1.6 0.166 -2.412 0.138 -0.718 0.038 -1.432 0.14 -2.132 0.3 -0.518 0.072 -0.416 0.2 0.282 2.554 0.268 0.874 7.062 -1.252 25.922 -0.172l-0.006 0.006Zm-45.628 -1.708c-0.044 0.76 0.374 0.708 1.93 1.766 14.876 10.112 11.4 9.8 13 6.34 1.434 -3.092 0.088 -1.048 3.244 -4.83 0.2 -0.23 0.588 -0.74 0.49 -1.024 -0.856 -2.438 -0.816 -2.368 -1.032 -2.14 -1.514 1.57 -3.124 3.042 -4.822 4.412 -0.768 0.63 -0.742 0.666 -1.6 0.16 -3.978 -2.542 -7.71 -5.45 -11.148 -8.684 -0.142 3.074 0.028 2.56 -0.056 3.994l-0.006 0.006Zm34.162 4.926c13.148 -0.46 12.764 0.228 13.32 -1.09 0.502 -1.186 0.554 -1.172 -0.76 -1.154 -29.426 0.428 -26.4 -0.064 -29.21 2.746 -0.412 0.412 -1.054 0.114 16.656 -0.508l-0.006 0.006Z"
                stroke-width="1"></path>
            <path id="vector_4" fill="#111112"
                d="M116.7522 327.296c-8.044 -1.414 -6.166 -1.126 -12.362 -6.866 -7.82 -7.246 -6.152 -5.294 -15.584 -14.116 -0.238 -0.222 -0.286 -0.8 -0.848 -0.556 -1.47 -0.946 -2.789 -2.11 -3.912 -3.448 -0.138 -0.2 -0.814 -0.48 -0.868 -0.6 -0.472 -1.116 -1.694 -1.416 -2.43 -2.248 -0.736 -0.832 -1.858 -1.178 -1.6 -2.632 0.0466 -0.948 0.4146 -1.852 1.043 -2.562 0.6284 -0.712 1.48 -1.188 2.415 -1.35 0.8 -0.158 3.544 2.692 4.064 3.324 0.238 0.29 0.386 0.422 0.8 0.278 0.78 -0.268 0.818 0.044 3.848 3.4 0.468 0.52 1.276 0.6 1.372 1.906 0.052 0.68 0.79 -0.682 16.074 13.6 4.976 4.648 5.834 5.452 8.016 9.216 1.244 2.144 1.75 2.654 -0.028 2.654ZM92.3002 302.4c-0.5478 0.158 -1.0552 0.432 -1.4888 0.804 -0.4334 0.37 -0.783 0.83 -1.0252 1.346 -0.332 0.584 -0.356 0.788 0.142 1.154 4.274 3.134 19.084 17.968 19.812 18.53 0.1492 -1.384 0.8138 -2.662 1.862 -3.578 1.54 -1.234 0.998 0.77 -19.302 -18.256Zm-5.5 -2.776c-1.308 2.158 -1.584 2.266 -1.038 2.786 1.982 1.894 2.02 2.336 2.464 1.78 2.588 -3.256 2.8 -2.372 3.088 -3.112 -0.6 -0.092 -0.844 -0.672 -1.29 -0.976 -2.6 -1.764 -1.67 -1.958 -2.976 -2.324 -0.6494 0.268 -1.2338 0.674 -1.7142 1.186 -0.4804 0.514 -0.8458 1.124 -1.0718 1.79 -0.0144 0.028 -0.0304 0.056 -0.048 0.084 0.0986 0.182 0.2088 0.358 0.33 0.526 0.13 0.17 0.962 -1.216 1.776 -2.014 0.814 -0.798 1.032 -0.628 0.48 0.274Zm-3.386 0.35c0.2418 -1.188 0.9314 -2.238 1.926 -2.932 0.512 -0.312 -0.114 -0.448 -2.4 -2.5 -0.772 -0.692 -1.95 1.078 -2.46 1.982 -0.286 0.51 -0.254 0.538 0.172 0.896 1.0032 0.758 1.9296 1.614 2.766 2.554h-0.004Zm29.648 21.026c-1.118 0.812 -1.686 1.084 -2.058 3.614 -0.04 0.278 0.742 0.488 2.72 1.07 0.8 0.234 0.616 -0.292 1.48 -1.294 0.354 -0.41 0.268 -0.3 -1.906 -3.216 -0.0708 -0.068 -0.1502 -0.128 -0.236 -0.174Z"
                stroke-width="1"></path>
            <path id="vector_5" fill="#111112"
                d="M146.2342 312.4c-0.09 -0.554 3.932 -0.894 26.64 -3.626 4.926 -0.6 9.276 -1.572 9.502 -0.582 0.608 2.648 -35.926 5.568 -36.142 4.208Z"
                stroke-width="1"></path>
            <path id="vector_6" fill="#111112"
                d="M138.6002 307.624c-1.4 0.166 -1.724 -1.354 -2.16 -0.47 -0.1736 0.292 -0.4116 0.538 -0.6958 0.724 -0.2842 0.186 -0.607 0.302 -0.9438 0.344 -0.3366 0.042 -0.6782 0.004 -0.9986 -0.106 -0.3204 -0.112 -0.6112 -0.296 -0.8498 -0.536 -0.62 -0.538 -0.496 -0.628 -1.332 -0.58 -0.3872 0.01 -0.7712 -0.072 -1.1218 -0.236 -0.3504 -0.164 -0.6578 -0.408 -0.8974 -0.714 -0.2396 -0.304 -0.4048 -0.66 -0.4828 -1.038 -0.078 -0.38 -0.0662 -0.772 0.034 -1.146 0.09 -0.286 0.064 -0.388 -0.186 -0.532 -0.4214 -0.262 -0.7436 -0.656 -0.9154 -1.122 -0.1718 -0.464 -0.1832 -0.974 -0.0326 -1.446 0.684 -1.89 2.078 -2.104 2.014 -2.812 -0.156 -1.736 2.38 -3.274 4.334 -2.54 0.888 0.334 0.76 -1.042 2.976 -0.47 2.428 0.626 1.97 1.908 2.846 1.66 1.266 -0.36 2 -0.29 2.6 0.84 1.106 2.066 -0.306 2.482 0.494 3.358 1.064 1.166 0.336 2.182 -0.55 3.312 -1.098 1.418 -1.418 3.55 -4.132 3.51Zm3.71 -8.648c-0.24 -0.652 -0.478 -2.122 -1.78 -1.508 -0.514 0.242 -0.968 0.644 -1.302 0.174 -0.7 -0.986 -3.062 -2.432 -3.708 -1.4 -0.87 1.376 -1.358 -0.65 -3.8 0.892 -1.334 0.838 -0.104 1.578 -1.02 1.97 -0.6098 0.33 -1.104 0.84 -1.416 1.46 -0.564 0.864 -0.542 1.428 0.386 2.058 0.78 0.528 0.926 0.326 0.676 1.098 -0.1608 0.356 -0.2394 0.744 -0.23 1.134 0.0444 0.21 0.1408 0.406 0.2804 0.57 0.1396 0.164 0.318 0.292 0.5188 0.368 0.201 0.078 0.418 0.104 0.6316 0.076 0.2136 -0.028 0.4168 -0.108 0.5912 -0.234 0.974 -0.506 1.054 0.446 1.17 0.632 0.8 1.3 1.96 1.098 2.418 0 0.4 -0.958 1 -1.04 1.486 -0.616 0.231 0.38 0.5858 0.672 1.0054 0.822 0.4194 0.15 0.8778 0.152 1.2986 0.006 0.72 -0.284 1.6 -1.034 1.268 -1.74 -0.678 -1.49 1 -0.2 1.9 -1.83 0.66 -1.2 -0.622 -1.74 -0.8 -1.886 -0.798 -0.704 0.316 -0.662 0.43 -2.046h-0.004Z"
                stroke-width="1"></path>
            <path id="vector_7" fill="#111112"
                d="M155.1322 301.48c-5.054 -0.268 -4.964 -0.164 -5.162 -0.566 -0.268 -0.54 19.624 -2.6 24.69 -2.678 0.578 -0.008 5.564 2.042 -19.528 3.244Z"
                stroke-width="1"></path>
            <path id="vector_8" fill="#111112"
                d="M168.858 319.73c-11.298 0 18.458 -4.298 20.148 -3.6 0.744 0.306 0.328 1.028 -0.48 1.186 -6.4812 1.326 -13.0582 2.134 -19.668 2.414Z"
                stroke-width="1"></path>
            <path id="vector_9" fill="#111112"
                d="M178.8 303.508c0.368 0.248 -0.27 1.028 -1.138 1.25 -6.006 1.024 -12.076 1.63 -18.166 1.812 -0.366 -0.106 -0.326 -0.438 -0.056 -0.522 2.286 -0.708 17.596 -3.726 19.36 -2.54Z"
                stroke-width="1"></path>
            <path id="vector_10" fill="#111112"
                d="M184.072 312.356c1.042 0 1.536 -0.128 1.8 0.442 0.868 1.826 -15.874 2.84 -16.312 2.726 -2.974 -0.78 14.508 -3.442 14.512 -3.168Z"
                stroke-width="1"></path>
            <path id="vector_11" fill="#111112"
                d="M223.694 313.136c-2.264 -0.166 -3.978 0.58 -4.282 -1.016 -0.164 -0.86 0.374 -0.928 2.272 -1.2 4.344 -0.654 4.058 2.366 2.01 2.216Z"
                stroke-width="1"></path>
            <path id="vector_12" fill="#111112"
                d="M212.486 312.61c-0.322 -0.462 -0.29 -0.566 0.24 -0.8 1.096 -0.444 2.284 -0.606 3.458 -0.474 1 0.262 2.054 2.014 1.074 2.178 -3.442 0.582 -3.658 0.686 -4.772 -0.904Z"
                stroke-width="1"></path>
            <path id="vector_13" fill="#111112"
                d="M218.074 316.876c-0.904 -0.424 -0.514 -1.616 -0.108 -1.666 0.978 -0.27 1.986 -0.426 3 -0.462 1.29 0.138 1.978 1.918 0.576 2.18 -1.134 0.342 -2.346 0.324 -3.468 -0.052Z"
                stroke-width="1"></path>
            <path id="vector_14" fill="#111112"
                d="M230.562 310.4c0.34 0.056 0.656 0.214 0.906 0.452 0.25 0.238 0.422 0.546 0.494 0.884 0.108 0.766 -0.37 0.666 -3.6 0.832 -0.31 -0.028 -0.598 -0.168 -0.812 -0.392 -0.216 -0.224 -0.34 -0.52 -0.354 -0.83 -0.026 -0.774 2.466 -1.046 3.366 -0.946Z"
                stroke-width="1"></path>
            <path id="vector_15" fill="#111112"
                d="M139.9562 302.98c-0.9042 0.922 -2.0812 1.53 -3.3572 1.732 -1.276 0.204 -2.5834 -0.01 -3.7288 -0.608 -2.632 -1.674 -1.366 -5.412 2.49 -5.666 5.028 -0.33 6.144 2.602 4.596 4.542Zm-3.474 -3.36c-2.904 -0.222 -5.304 2.242 -2.586 3.412 0.7934 0.488 1.7256 0.7 2.6522 0.606 0.9266 -0.096 1.7962 -0.494 2.4738 -1.132 1.676 -1.452 -0.594 -3.06 -2.54 -2.886Z"
                stroke-width="1"></path>
            <path id="Subtract" fill="#111112" fill-rule="evenodd"
                d="M206.742 283.492c-2.706 0.036 -5.54 0.072 -8.4812 0.11 0.4062 0.494 0.768 1.092 1.0012 1.668 2.764 -0.04 5.572 -0.08 8.424 -0.122 -0.29 -0.462 -0.562 -0.932 -0.816 -1.408 -0.044 -0.08 -0.086 -0.164 -0.128 -0.248Zm78.838 24.47c0.694 -0.282 1.382 -0.582 2.062 -0.9 7.098 4.15 88.752 51.844 89.708 52.294 1.256 0.588 1.258 1.73 1.264 5.386l0 0.65c0.194 3.358 -0.016 6.726 -0.624 10.034 -0.356 1.29 -0.66 1.288 -10.936 1.224 -2.684 -0.018 -6.044 -0.038 -10.264 -0.042 -0.138 0 -0.258 -0.002 -0.364 -0.004 -0.336 -0.008 -0.51 -0.01 -0.598 0.076 -0.096 0.092 -0.09 0.292 -0.076 0.706 0.002 0.086 0.006 0.184 0.008 0.292 0.006 0.254 0.018 0.612 0.032 1.05 0.094 2.856 0.294 9.024 -0.264 10.818 -0.06 0.142 -0.164 0.262 -0.296 0.342 -0.132 0.08 -0.286 0.118 -0.44 0.108 -0.154 -0.012 -0.3 -0.07 -0.42 -0.17 -0.118 -0.098 -0.204 -0.232 -0.244 -0.38 -0.342 -4.118 -0.284 -8.258 0.168 -12.364 0.084 -0.724 -259.6578 -0.66 -259.8218 -0.636 -0.0872 2.932 -0.048 5.204 -0.0158 7.072 0.0418 2.42 0.0718 4.16 -0.2002 5.772 -0.009 0.172 -0.0814 0.336 -0.2032 0.46 -0.1218 0.122 -0.2848 0.196 -0.4576 0.208 -0.173 0.01 -0.3438 -0.042 -0.4802 -0.15 -0.1364 -0.106 -0.2286 -0.26 -0.259 -0.43 -0.3356 -4.312 -0.4104 -8.638 -0.224 -12.958l-12.018 -0.178c-2.7402 -0.032 -9.9812 -8.824 -27.755 -30.404 -2.4376 -2.96 -5.0736 -6.162 -7.923 -9.612 -5.413 -6.558 -9.4684 -11.514 -12.5032 -15.224 -6.7424 -8.242 -8.4466 -10.324 -8.807 -10.114 -0.1218 0.072 -0.09 0.406 -0.0474 0.852 0.027 0.282 0.0582 0.61 0.0576 0.946 -0.0332 20.316 -0.05 34.686 -0.062 44.916 -0.0276 23.414 -0.0296 25.15 -0.142 26.88 -0.009 0.138 -0.0186 0.278 -0.0292 0.428 -0.0054 0.076 -0.011 0.156 -0.0168 0.242 -0.076 1.11 -0.88 1.298 -1.086 0.788 -1.232 -3.064 -0.876 -69.19 -0.302 -76.84 0.06 -0.804 -1.9454 -3.144 -4.07316 -5.626l-0.00002 0c-1.62106 -1.892 -3.31314 -3.866 -4.2169 -5.306 -0.79802 -1.282 -0.5508 -4.64 -0.474 -5.684 0.00712 -0.096 0.01278 -0.174 0.016 -0.226 0.0506 -0.824 0.08322 -1.53 0.11126 -2.138 0.1659 -3.594 0.17112 -3.708 2.78874 -3.832 1.27036 -0.06 5.58488 -0.156 12.17828 -0.274 0.4446 0.506 0.9016 0.99 1.3712 1.452 -1.5832 0.016 -2.9446 0.028 -4.1202 0.038 -6.862 0.064 -7.39908 0.068 -8.80728 0.162 -0.0183 0 -0.0366 0.002 -0.05444 0.002h-0.00002c-0.44856 0.018 -0.61722 0.024 6.52454 7.878 12.5382 13.786 26.117 29.26 36.873 41.516l0.0002 0c11.351 12.936 19.558 22.288 20.0808 22.294l0.1316 0h0.002c7.079 0.014 292.8622 0.558 293.8102 0.068 -3.896 -2.518 -14.3 -8.458 -27.888 -16.214l-0.002 -0.002c-17.342 -9.9 -39.87 -22.76 -60.672 -35.246Zm-112.6912 -24.026c-4.1114 0.054 -8.3202 0.11 -12.5986 0.168 -0.04 0.526 -0.1916 0.528 -0.3926 0.528 -0.0188 0.002 -0.038 0.002 -0.0576 0.002 -3.2474 0.096 -16.0176 0.244 -29.6194 0.4 -18.0724 0.208 -37.6128 0.432 -38.2346 0.58 -1.2868 0.304 -1.858 0.594 -2.6656 1.004l-0.0002 0c-0.1062 0.054 -0.2164 0.11 -0.333 0.168 21.4156 -0.272 49.4638 -0.648 86.2856 -1.172 -0.878 -0.634 -1.6894 -1.206 -2.384 -1.678Zm20.0228 1.426c0.1962 -0.192 0.4574 -0.164 0.7812 -0.012l-0.7812 0.012Zm181.4004 89.522c1.492 0 1.984 0 2.168 -0.238 0.09 -0.118 0.104 -0.292 0.128 -0.552l0.002 -0.03 0.002 -0.086c0.01 -0.846 0.102 -7.774 -0.174 -11.732 -0.072 -1.042 -0.09 -1.042 -114.002 -1.05h-0.006c-42.538 -0.002 -100.9568 -0.006 -181.1918 -0.066 -1.2444 -0.07 -1.2446 -0.068 -1.2874 0.598 -0.01 0.154 -0.0222 0.344 -0.0526 0.576 -0.124 0.944 0.242 11.056 0.31 11.272 0.498 1.584 232.7418 1.73 292.8718 1.312 0.472 -0.004 0.88 -0.004 1.232 -0.004Zm-296.3618 -14.542c0.012 -0.142 -62.25408 -71.43 -62.82808 -71.758 -0.108 0.344 -0.6 8.052 0.244 9.098 6.91248 8.524 42.13068 50.632 53.75428 64.528l0.0208 0.026c2.324 2.778 3.699 4.422 3.707 4.434 0.8268 0.994 1.5232 1.842 2.109 2.556 1.9346 2.354 2.6628 3.24 2.8952 3.124 0.1404 -0.068 0.1002 -0.504 0.0356 -1.2 -0.0528 -0.57 -0.1218 -1.314 -0.1218 -2.176 0 -1.734 0.034 -6.82 0.184 -8.632Z"
                clip-rule="evenodd" stroke-width="1"></path>
        </g>
        <g id="person 1-2">
            <path id="Subtract_2" fill="#111112" fill-rule="evenodd"
                d="M198.996 280.73c-0.3912 0.008 -0.7812 -0.044 -1.156 -0.156 -1.1642 -0.378 -2.0094 -0.706 -2.5672 -0.922 -0.5356 -0.206 -0.806 -0.312 -0.8392 -0.26 -0.0338 0.052 0.1796 0.264 0.6106 0.696 0.6286 0.628 1.7204 1.72 3.1838 3.448 1.26 1.494 2.132 4.008 0.162 3.968 -1.5046 -0.03 -2.7472 -0.888 -3.697 -1.544 -0.8432 -0.582 -1.456 -1.004 -1.817 -0.548 -0.0676 0.084 0.1174 0.356 0.6458 1.134 0.4094 0.602 1.0246 1.508 1.8882 2.866 1.532 2.408 -0.43 3.924 -6.574 -0.572 -0.8416 -0.616 -1.5404 -1.158 -2.0798 -1.578l-0.0004 0c-0.7748 -0.602 -1.22 -0.948 -1.2848 -0.886 -0.0876 0.082 0.5184 0.904 1.9424 2.838l0.0044 0.006 0.564 0.766c0.1648 0.224 0.3382 0.46 0.5202 0.708l0.147 0.2c0.7338 0.994 1.394 1.888 0.927 2.638 -0.884 1.412 -3.072 0.31 -4.43 -0.66 -1.2288 -0.884 -2.8232 -2.07 -4.5056 -3.322 -3.447 -2.564 -7.2634 -5.404 -9.0604 -6.478 -2.0648 -0.438 -3.9672 -1.44 -5.494 -2.898 -1.5266 -1.456 -2.6174 -3.31 -3.15 -5.352 -2.072 -5.486 -3.4544 -11.21 -4.116 -17.036 -0.276 -2.008 -1.042 -7.838 -0.97 -8.172 0.0018 -0.008 0.0218 -0.084 0.0586 -0.224 0.8742 -3.312 11.1936 -42.394 9.9654 -60.1382 -0.114 -1.656 -1.908 -1.786 -2.06 -0.186 -0.0466 0.4908 -0.0906 1.1368 -0.1462 1.9524v0.0014c-0.3772 5.5342 -1.2864 18.8704 -7.1078 44.5184 -1.2984 5.708 -2.0936 8.536 -2.541 10.128 -0.3382 1.204 -0.4774 1.698 -0.4846 2.196 -0.0052 0.348 0.0544 0.696 0.1556 1.288l0.0002 0.002 0.0004 0.002 0.0004 0.002c0.0716 0.42 0.164 0.96 0.269 1.71l0.465 3.314 0.0002 0 0.0002 0.002 0.0002 0.002 0.0002 0c3.8838 27.672 4.2346 30.172 3.6516 30.414 -0.058 0.024 -0.1252 0.024 -0.199 0.026l-0.0344 0.002c-7.562 0.228 -23.69 0.576 -27.67 0.468 -0.902 -0.026 -1.082 -0.714 -1.082 -1.49 0.012 -1.458 0.008 -2.918 0.004 -4.376v-0.002c-0.002 -0.73 -0.004 -1.46 -0.004 -2.188 0 -0.898 -0.0106 -0.9 -0.7896 -1.042l-0.1724 -0.032c-1.843 -0.348 -2.9212 -0.64 -3.5678 -0.816 -0.8002 -0.216 -0.9396 -0.254 -1.0502 0.004 -0.176 0.424 0.7782 1.1 1.862 1.868 1.7978 1.274 3.9524 2.8 1.9 3.85 -1.214 0.622 -3.318 -0.136 -4.66 -0.696 -0.4384 -0.138 -0.869 -0.298 -1.29 -0.482 -0.386 -0.2 -0.592 -0.072 -0.84 0.2 -1.1598 1.126 -2.4062 2.158 -3.728 3.088 -0.964 0.768 -1.43 0.748 -2.324 -0.116 -2.2436 -2.276 -4.3486 -4.684 -6.304 -7.212 -0.1488 1.312 -0.4772 2.596 -0.976 3.818 -0.0798 0.156 -0.1816 0.284 -0.2892 0.422 -0.2512 0.318 -0.5332 0.676 -0.6368 1.496 -0.0162 0.124 -0.0304 0.482 -0.0492 0.954 -0.0298 0.75 -0.0712 1.794 -0.1508 2.668 -0.0118 0.122 -0.0672 0.238 -0.1564 0.324 -0.0892 0.086 -0.206 0.136 -0.3296 0.144 -1.1246 0.07 -4.1144 0.052 -7.1822 0.036h-0.0012c-3.8228 -0.022 -7.766 -0.044 -8.3706 0.1 -1.2856 0.304 -1.857 0.594 -2.6632 1.004 -0.788 0.4 -1.8002 0.914 -3.9228 1.666 -32.2 11.424 -58.544 12.346 -65.60004 -21.084 -6.496 -30.756 0.36004 -59.758 11.65004 -77.1282 6.4598 -9.0386 15.1086 -16.2892 25.136 -21.072 2.361 -1.0076 3.613 -1.6868 4.7706 -2.3148 3.0112 -1.6336 5.3834 -2.9208 24.9694 -8.7352 0.4852 -0.0558 0.9556 -0.2032 1.386 -0.434 0.2134 -0.1912 0.3124 -0.5022 0.4122 -0.8162 0.0516 -0.1626 0.1036 -0.326 0.1718 -0.4738 4.1442 -8.7044 6.7792 -12.6216 8.0142 -14.4576 0.6456 -0.9598 0.9086 -1.3508 0.805 -1.5598 -0.0714 -0.1438 -0.3164 -0.2014 -0.7298 -0.2986l-0.1694 -0.04c-4.66 -1.118 -7.62 -8.56 -3.546 -13.456 0.273 -0.3248 -0.13 -0.9358 -0.7868 -1.9318 -1.4266 -2.1638 -4.0512 -6.1442 -3.5472 -12.9522 0.598 -8.062 7.342 -14.686 15.06 -17.1 6.698 -2.094 11.076 -1.974 18.064 -1.338 7.602 0.6934 10.9734 1.2896 12.4952 1.5586 1.2478 0.2206 1.2518 0.2214 1.3248 -0.1246 0.235 -2.1996 0.9764 -4.315 2.166 -6.18 1.282 -1.684 2.726 -2.434 4.282 -1.032 1.1502 1.0364 1.3758 2.6782 1.551 3.9528 0.0618 0.4496 0.1174 0.8536 0.205 1.1692 0.2448 -0.1568 0.5934 -0.6636 1.0552 -1.3356 0.994 -1.446 2.5136 -3.6566 4.6588 -4.7884 1.464 -0.776 3.618 0.29 2.264 5.842l-0.438 1.8c0.512 -0.322 1.012 -0.64 1.512 -0.966 4.604 -2.994 7.598 0.254 3.264 8.308 -3.4962 6.5028 -7.1122 8.292 -8.9676 9.21 -0.919 0.4548 -1.406 0.6956 -1.2324 1.19 2.0814 5.9128 2.5772 9.2878 2.8504 11.1484 0.2726 1.8564 0.324 2.2054 1.5076 2.0636 1.9588 -0.311 3.9354 -0.498 5.918 -0.56 0.4098 0.3842 0.337 0.8564 0.0566 2.6748l0 0.0002 -0.0002 0.0008c-0.0904 0.5858 -0.2022 1.3112 -0.3264 2.2182 -0.0606 0.4416 -0.118 0.888 -0.1756 1.3358 -0.6132 4.766 -1.2474 9.6958 -5.7904 10.8422 -0.494 0.124 -0.518 0.172 -0.824 2.524 -0.6668 5.3792 -2.3478 10.5832 -4.954 15.336 -0.526 0.778 -0.196 0.868 1.162 1.14 48.09 9.626 63.902 72.8282 45.878 110.5302 -0.1486 0.3 -0.0926 0.338 0.5776 0.786 0.5756 0.386 1.6046 1.074 3.3464 2.494 4.248 3.464 6.104 6.5 4.17 6.5Zm-46.44 -144.5422c0.7902 -2.4026 1.3174 -4.8838 1.572 -7.4 0.0344 -0.3338 -0.0488 -0.3186 -1.6456 -0.0298 -0.9108 0.1648 -2.3138 0.4186 -4.4684 0.7478 -0.8974 0.1378 -1.5782 0.2188 -2.0922 0.28l-0.0004 0.0002 -0.0004 0 -0.0004 0 -0.0002 0c-1.3576 0.1618 -1.5514 0.1848 -1.5064 0.7478 0.1332 1.627 0.7298 4.555 0.9138 5.4578 0.0342 0.168 0.0542 0.2658 0.0542 0.2722 0.812 4.08 5.218 5.042 7.174 -0.076Zm1.97 -9.838c0.044 -0.454 0.016 -0.474 -0.492 -0.474 -3.5228 0.6058 -5.9654 0.9058 -7.5542 1.1008 -1.7784 0.2184 -2.4872 0.3054 -2.4438 0.5432 0.2216 1.2 0.2228 1.1998 0.649 1.1154 0.0966 -0.0192 0.2152 -0.0426 0.363 -0.0574 1.151 -0.1144 2.1604 -0.2118 3.0458 -0.2972 4.8588 -0.469 5.981 -0.5772 6.286 -1.1336 0.0914 -0.167 0.1094 -0.3744 0.1326 -0.6442l0.0002 -0.0026c0.004 -0.0482 0.0084 -0.0982 0.0134 -0.1504ZM108.7534 120.098c-0.154 1.736 -0.3668 4.134 -1.0674 8.1898 -0.06 0.35 0.028 0.406 0.314 0.42 4.8134 0.2692 7.9282 0.4828 10.0122 0.6258l0.0002 0c3.1526 0.2164 3.9468 0.2708 4.6954 0.1108 0.2522 -0.0538 0.499 -0.132 0.8292 -0.2366 1.676 -0.531 5.4964 -1.7412 23.029 -3.894 0.738 -0.0898 0.7128 -0.2216 0.3602 -2.0672 -0.0478 -0.2502 -0.1016 -0.5318 -0.1602 -0.8488 -0.0564 -0.3046 -0.1042 -0.5732 -0.1464 -0.8096 -0.265 -1.4856 -0.3046 -1.7072 -0.7876 -1.6744 -1.0552 -0.0764 -2.1156 0.0272 -3.136 0.306 -0.85 0.358 -1.38 -1.102 0.02 -1.726 1.3228 -0.5952 2.1828 -0.5118 2.6486 -0.4666 0.3574 0.0346 0.483 0.0468 0.4074 -0.2874 -0.26 -1.134 -1.406 -4.966 -1.624 -5.682l-0.012 -0.0394c-0.054 -0.1782 -0.0866 -0.2852 -0.1586 -0.3398 -0.1082 -0.0822 -0.3058 -0.0464 -0.8002 0.0428 -0.5852 0.1058 -1.5862 0.2868 -3.3472 0.4364 -2.686 0.229 -6.5788 -0.2136 -10.6664 -0.6784 -8.0512 -0.9152 -16.8584 -1.9164 -18.6876 1.9584 -1.3938 2.9526 -1.4928 4.0702 -1.7226 6.6602Zm33.1586 9.3874c0.1744 -0.0034 0.3176 -0.006 0.496 0.0024l-0.008 0.008c0.5552 0.027 0.484 -0.4824 0.3306 -1.5788 -0.0162 -0.1158 -0.0332 -0.2382 -0.0506 -0.3672 -0.5006 0.0804 -0.8744 0.1122 -1.1554 0.1362 -0.393 0.0334 -0.604 0.0514 -0.725 0.1652 -0.1402 0.1318 -0.1594 0.3926 -0.2008 0.9554l-0.0002 0.0006c-0.0134 0.1838 -0.0294 0.4 -0.0526 0.6546 0.7222 0.0358 1.0846 0.0288 1.366 0.0236Zm-18.5146 1.917c0.1324 0.632 0.1536 0.7334 0.5686 0.6534v0.008c6.5826 -1.2728 10.2174 -1.6534 12.2664 -1.868 1.6622 -0.174 2.2808 -0.2388 2.5826 -0.582 0.1788 -0.2034 0.2464 -0.5044 0.354 -0.984l0.029 -0.128c0.1156 -0.5238 -0.161 -0.475 -1.6894 -0.2058 -0.5844 0.1028 -1.352 0.238 -2.3506 0.3858 -1.3026 0.1922 -1.9472 0.2744 -2.5328 0.349 -1.1196 0.1428 -2.0228 0.2578 -6.8992 1.063l-0.3332 0.0556 -0.319 0.053c-1.7452 0.2892 -1.8166 0.301 -1.7878 0.6914 0.0464 0.1988 0.0818 0.367 0.1114 0.5086Zm14.9652 0.6102 0.0474 -0.2068v0.008c0.012 -0.0528 0.024 -0.1026 0.0352 -0.1494 0.0542 -0.2244 0.0918 -0.3806 0.0318 -0.475 -0.1376 -0.2168 -0.7904 -0.1064 -2.943 0.2576 -0.4032 0.0682 -0.8592 0.1452 -1.374 0.2308 -5.1176 0.8596 -7.7424 1.1516 -9.0838 1.3008 -1.4022 0.156 -1.4026 0.156 -1.3822 0.4852l0.0076 0.1254c0.0138 0.227 0.0212 0.3488 0.0418 0.4682 0.0238 0.1382 0.065 0.2732 0.1542 0.5646 0.1466 0.4794 0.4226 1.3816 0.9624 3.4158 0.4352 1.2078 1.2182 2.2596 2.2504 3.0232 1.0322 0.7634 2.2672 1.2042 3.5496 1.2668 5.6384 -1.296 6.2668 -4.0418 7.7026 -10.3152Zm-21.8038 -1.5886c-1.7748 -0.126 -11.4254 -0.8112 -13.7368 -0.7202 -0.994 0.04 -0.74 1.258 0.26 1.376 2.719 0.325 4.3058 0.4224 5.774 0.5128 2.236 0.1374 4.1962 0.2578 9.46 1.1392 1.0398 0.174 1.8498 0.3526 2.455 0.4858 1 0.2204 1.4404 0.3174 1.433 0.0682 -0.013 -0.4468 -0.0118 -0.8248 -0.011 -1.1444v-0.0006c0.0024 -0.7932 0.0036 -1.2262 -0.2118 -1.4582 -0.259 -0.279 -0.8312 -0.2674 -2.0916 -0.2416 -0.748 0.0152 -1.7384 0.0354 -3.0496 0.0028 -0.0036 0 -0.099 -0.0068 -0.2712 -0.019l-0.0074 -0.0006 -0.0026 -0.0002ZM90.004 162.5178c-0.5152 -0.7426 -0.867 -1.25 -1.25 -1.574 -0.17 0.626 5.846 28.396 6.008 28.786 3.594 -5.282 10.366 -8.212 16.512 -10.212 -4.2214 -1.4452 -8.15 -3.6344 -11.6 -6.464 -6.1446 -5.4534 -8.4018 -8.7076 -9.67 -10.536Zm33.466 23.792c-1.9264 -1.5802 -3.9542 -3.0326 -6.07 -4.348 -0.4778 2.3118 -1.2332 4.5574 -2.25 6.688 -0.2806 0.4996 -0.2868 0.499 -0.7556 0.4546l-0.1164 -0.0106c-1.4382 -0.1278 -2.1616 0.0426 -2.6106 0.1484 -0.2298 0.0542 -0.3878 0.0914 -0.5328 0.063 -0.3192 -0.0622 -0.5764 -0.4414 -1.3992 -1.654l-0.0002 0 -0.1652 -0.2434c-0.6432 -0.9496 -1.1356 -1.6938 -1.5192 -2.2736 -0.995 -1.5038 -1.2578 -1.9012 -1.521 -1.9014 -0.0946 -0.0002 -0.1892 0.0508 -0.3178 0.1202l-0.042 0.0228c-3.7736 1.7016 -7.216 4.058 -10.168 6.96 -0.232 0.256 -0.4312 0.4004 -0.5878 0.5142 -0.3266 0.237 -0.4686 0.3402 -0.3402 1.0418 7.5252 41.1502 9.0192 54.4382 9.5096 58.7982 0.234 2.082 0.2394 2.13 0.5624 2.202 0.6576 0.046 1.2942 0.252 1.8556 0.598 0.5612 0.346 1.0308 0.822 1.3684 1.388 0.1474 0.304 0.2528 0.548 0.3304 0.726 0.1036 0.24 0.157 0.364 0.1936 0.358 0.0388 -0.004 0.0586 -0.156 0.0994 -0.468 0.0222 -0.17 0.051 -0.39 0.0926 -0.66 1.208 -7.828 1.874 -52.758 1.92 -61.7802 0.004 -0.9 0.728 -1.086 1.692 -1.15 2.9056 -0.2028 2.9998 0.1988 3.2334 1.1962l0.0212 0.0902 0.0274 0.1136c4.4378 18.3682 7.3616 37.0682 8.742 55.9142 0.2668 1.528 0.362 3.308 0.4462 4.882 0.1198 2.238 0.2174 4.062 0.7538 4.168 1.7674 0.344 2.9346 0.612 3.7044 0.788l0.0004 0c1.0156 0.234 1.339 0.308 1.4366 0.192 0.0458 -0.054 0.042 -0.15 0.0368 -0.29 -0.002 -0.054 -0.0042 -0.112 -0.0042 -0.176 0.021 -34.418 -3.1272 -65.162 -3.4064 -67.8874 -0.0122 -0.1196 -0.019 -0.1854 -0.0196 -0.1948 -0.082 -1.058 -0.17 -1.21 -4.2 -4.39Zm-0.2658 -20.081c-0.1356 0.0624 -0.2008 0.2782 -0.3586 0.8016 -0.2098 0.696 -0.5838 1.9358 -1.5056 4.0814 -2.1676 5.0464 -3.8356 6.934 -4.5642 7.7586 -0.431 0.4878 -0.5332 0.6036 -0.2158 0.7814 3.9558 2.291 7.5592 5.1424 10.698 8.466 0.1624 -2.4978 -1.594 -15.5532 -2.1612 -19.7684l-0.0002 -0.001 0 -0.0004c-0.0962 -0.715 -0.1582 -1.1754 -0.1706 -1.2862 -0.0594 -0.529 -0.3156 -0.5828 -0.8602 -0.6972 -0.1164 -0.0244 -0.2462 -0.0516 -0.3898 -0.0868l-0.0252 -0.0062c-0.2214 -0.0544 -0.3514 -0.0864 -0.4466 -0.0428ZM105.418 258.586c-0.0352 0.758 -0.043 0.922 2.922 0.25h0.002c0.1884 -0.034 0.1514 -0.138 0.1038 -0.27l-0.0058 -0.016c-0.2614 -0.762 -0.4506 -1.334 -0.5962 -1.774l-0.0002 -0.002 -0.0002 0c-0.4498 -1.36 -0.4796 -1.45 -0.9194 -1.904 -0.8414 -0.882 -1.3218 2.434 -1.4648 3.42 -0.019 0.132 -0.0322 0.222 -0.0392 0.256l-0.002 0.04Zm-7.786 -4.58c-6.504 10.006 -0.992 28.988 1.468 28.712h0.002c2.16 -0.242 9.24 -1.472 7.712 -3.028 -3.12 -3.194 -3.33 -15.512 -2.854 -20.046 0.2234 -2.098 0.5378 -3.408 0.7382 -4.244 0.1774 -0.738 0.2658 -1.106 0.123 -1.32 -0.1412 -0.212 -0.509 -0.274 -1.241 -0.394 -0.2346 -0.04 -0.5064 -0.084 -0.8202 -0.142 -0.316 -0.058 -0.623 -0.122 -0.92 -0.182l-0.0024 -0.002 -0.0012 0 -0.001 0 -0.0002 0c-1.8666 -0.382 -3.3412 -0.686 -4.2032 0.646Zm10.422 24.332c0.3694 -0.788 0.6148 -1.626 0.728 -2.488h0.002l0.0004 -0.072 0.0012 -0.112c0.009 -0.792 0.0092 -0.81 -1.2816 -0.468 -0.202 0.054 -0.373 0.086 -0.515 0.114 -0.6386 0.126 -0.6956 0.136 -0.383 1.338 0.266 1.026 1.126 2.392 1.448 1.688Zm18.0384 -15.324c0.5854 0.03 1.2286 0.062 1.8276 -0.062h0.002c0.3042 -0.064 3.4114 -0.212 5.214 -0.298l0.0016 0 0.0022 0 0.001 0c0.6714 -0.032 1.1606 -0.056 1.2552 -0.062 0.532 -0.036 1 -0.726 0.37 -1.082 -0.4216 -0.24 -1.4524 -0.438 -3.262 -0.786 -1.9592 -0.378 -4.8314 -0.932 -8.832 -1.902l-0.2262 -0.056c-5.776 -1.4 -5.7828 -1.402 -5.6958 -3.06 0.557 -2.566 1.258 -5.098 2.1 -7.584 0.182 -0.792 -0.542 -2.456 -3.342 1.456 -2.0242 3.17 -3.8672 6.454 -5.52 9.834 -0.1462 0.278 -0.3602 0.516 -0.6224 0.692 -0.262 0.174 -0.5638 0.28 -0.8776 0.308 -0.8982 0.218 -1.834 0.232 -2.738 0.04 -0.462 -0.15 -0.522 -0.036 -0.554 0.518 -0.2296 3.568 -0.0854 7.152 0.43 10.69 0.0388 0.25 0.0736 0.478 0.1056 0.686 0.2674 1.752 0.3244 2.124 0.6944 1.864 1.1908 -0.632 2.4222 -1.186 3.686 -1.656 0.9576 -0.502 2.1164 0.206 4.1422 1.442 2.5778 1.574 6.5594 4.002 13.3158 5.89 0.228 0.062 0.968 0.138 1.066 -0.176 0.0976 -0.308 -0.7502 -0.894 -2.0098 -1.764l-0.0002 0c-1.3218 -0.912 -3.0972 -2.136 -4.71 -3.684 -0.1024 -0.086 -0.1752 -0.2 -0.2084 -0.328 -0.033 -0.13 -0.0244 -0.266 0.0244 -0.388 0.0488 -0.124 0.1354 -0.23 0.2474 -0.3 0.1122 -0.072 0.244 -0.106 0.3766 -0.098 1.5012 0.206 3.4112 0.718 5.196 1.196 3.3894 0.91 6.3272 1.698 5.156 0.034 -0.0512 -0.074 -0.4688 -0.248 -1.0142 -0.478 -0.648 -0.27 -1.4766 -0.618 -2.0858 -0.96l-0.4368 -0.244c-5.153 -2.888 -5.8564 -3.282 -5.8876 -3.724 -0.0048 -0.07 0.007 -0.14 0.0208 -0.222 0.0038 -0.024 0.0078 -0.048 0.0116 -0.072 0.0698 -0.416 0.2936 -0.396 2.8376 -0.16h0.0002c1.2466 0.116 3.0504 0.284 5.6662 0.478 0.284 -0.004 0.5308 -0.004 0.7486 -0.004h0.0014c1.2696 0 1.5482 0 2.434 -0.764l-0.088 -0.098c-0.1554 -0.17 -0.2618 -0.288 -0.3852 -0.384 -0.2668 -0.206 -0.6136 -0.308 -1.7104 -0.632 -1.2904 -0.382 -3.6188 -1.07 -8.0764 -2.594 -0.338 -0.12 -0.7 -0.724 -0.588 -1 0.2394 -0.592 1.0166 -0.552 1.9364 -0.506Zm3.3736 1.594c1.4084 0.5 1.6272 0.578 1.638 -0.016l0.002 0.008c0.0124 -0.644 -0.0348 -0.638 -1.4646 -0.454 -0.185 0.024 -0.3932 0.05 -0.6274 0.08 -0.0612 0.008 -0.1214 0.024 -0.1824 0.04l-0.0324 0.008c-0.0222 0.006 -0.0446 0.012 -0.0672 0.018 0.0774 0.056 0.1606 0.104 0.248 0.144 0.1738 0.06 0.3336 0.118 0.4806 0.17l0.0054 0.002Zm-1.3738 5.396c-1.2916 -0.078 -1.4174 -0.084 2.0418 1.766h0.002c0.111 0.06 0.2094 0.114 0.2966 0.162 0.6554 0.364 0.6762 0.376 0.6674 -0.468 -0.0014 -0.176 0.0024 -0.328 0.0056 -0.462 0.0084 -0.346 0.0134 -0.556 -0.0852 -0.684 -0.1476 -0.192 -0.5266 -0.208 -1.472 -0.244h-0.0006c-0.3532 -0.014 -0.7852 -0.032 -1.3138 -0.062l-0.1418 -0.008ZM115.178 160.3718c4.815 2.822 10.2462 4.4258 15.822 4.672 0.3164 -0.0372 0.6242 -0.07 0.9254 -0.102 2.5988 -0.2768 4.6914 -0.4998 7.4266 -3.018 5.222 -4.832 7.136 -13.082 8.072 -20.138 0.0288 -0.1272 0.009 -0.2604 -0.0554 -0.3736 -0.0644 -0.1132 -0.1688 -0.1982 -0.2926 -0.2384 -3.3994 -1.6812 -3.6746 -5.8318 -3.8434 -8.3756 -0.0846 -1.2786 -0.1426 -2.1514 -0.5566 -2.1004 -0.3594 0.034 -0.7162 0.0914 -1.068 0.172 -0.1606 0.0422 -0.3406 0.0252 -0.5192 0.0082 -0.3284 -0.031 -0.6518 -0.0616 -0.8408 0.2778 -0.1896 0.4528 -0.3142 0.9302 -0.37 1.418 -0.3076 1.9466 -0.7758 3.8646 -1.4 5.734 -0.6132 1.8672 -1.8728 3.454 -3.5522 4.4748s-3.668 1.4086 -5.6078 1.0932c-4.732 -1.012 -6.094 -4.382 -6.782 -8.844 -0.0826 -0.534 -0.1304 -0.5392 -1.6382 -0.7082 -0.537 -0.0602 -1.259 -0.141 -2.2338 -0.2738 -2.5022 -0.3406 -3.6226 -0.5054 -4.2424 -0.5964l-0.0002 -0.0002 -0.0006 0c-0.353 -0.0518 -0.5436 -0.0798 -0.7346 -0.103 -0.2238 -0.027 -0.4482 -0.0472 -0.9356 -0.091 -0.6596 -0.0594 -1.8006 -0.162 -4.0726 -0.3834 -0.805 -0.079 -1.3392 -0.1692 -1.7138 -0.2326 -0.7656 -0.1294 -0.8662 -0.1464 -1.2542 0.2766 -1.508 1.634 -3.852 2.32 -4.274 0.234 -1.59 -7.866 -7.482 -8.118 -8.76 -3.666 -0.413 1.448 -0.385 2.986 0.0802 4.4182 0.4654 1.432 1.3468 2.6928 2.5318 3.6218 1.0572 0.6036 2.2526 0.9232 3.47 0.928 1.2194 0.1402 0.9762 0.562 -1.0988 4.1596 -1.5934 2.7626 -4.2668 7.398 -8.1872 15.2164l-0.004 0.0078c-0.0544 0.1092 -0.0976 0.1958 -0.1142 0.2872 -0.0636 0.3482 0.2574 0.7668 1.803 2.7816l0.3292 0.4294c9.2446 12.0596 15.2734 14.5504 21.5972 17.163 0.3074 0.127 0.6156 0.2542 0.9248 0.383 0.298 0.126 0.44 0.12 0.64 -0.162 3.2074 -3.7624 5.5736 -8.1668 6.94 -12.918 0.0062 -0.0182 0.013 -0.0356 0.0194 -0.052 0.039 -0.0992 0.0662 -0.1682 -0.1054 -0.23 -7.124 -2.636 -10.22 -7.368 -6.324 -5.15Zm75.5592 117.0702c-0.1294 -0.128 -0.2056 -0.204 -0.2172 -0.216 -0.2642 -0.282 -0.1036 -0.502 0.045 -0.706l0.0002 0 0.0352 -0.048c0.0096 -0.014 0.0192 -0.028 0.0284 -0.042 0.0146 -0.02 0.0282 -0.042 0.0404 -0.064l0.0128 -0.022c0.2066 -0.378 0.7112 -0.11 2.0178 0.584 1.1084 0.588 2.7938 1.484 5.3642 2.552 2.392 1 -7.072 -8.12 -17.18 -12 -0.0026 0.118 0.0094 0.238 0.036 0.354 0.4392 1.308 0.5744 2.698 0.3952 4.068 -0.1792 1.368 -0.668 2.676 -1.4292 3.828 0.0018 0.094 0.132 0.3 0.3156 0.592l0.0004 0c0.5902 0.936 1.7314 2.748 0.94 4.49 -0.032 0.072 -0.234 0.088 -0.35 0.072 -0.164 -0.022 -0.161 -0.272 -0.1576 -0.562 0.0026 -0.216 0.0054 -0.454 -0.0604 -0.638 -0.2588 -1.132 -0.8394 -2.164 -1.672 -2.972 -0.8326 -0.808 -1.8816 -1.358 -3.02 -1.584 -0.499 -0.166 -1.037 -0.172 -1.54 -0.02 -0.12 0.052 -0.2722 0.024 -0.4256 -0.004 -0.0716 -0.014 -0.1436 -0.028 -0.2124 -0.032 0.1434 -0.176 0.3034 -0.338 0.478 -0.482 0.6764 -0.298 1.41 -0.442 2.1486 -0.424 0.7384 0.018 1.464 0.198 2.1254 0.528l0.0922 0.038c0.4886 0.2 0.5184 0.212 0.7318 -0.332 0.6828 -1.432 0.8788 -3.048 0.558 -4.6 -0.4762 -1.828 -0.9376 -2.626 -1.2162 -3.108 -0.1398 -0.242 -0.2336 -0.404 -0.2602 -0.578 -0.0542 -0.352 0.171 -0.748 0.8558 -1.95l0.0002 0c0.5704 -1 1.46 -2.562 2.7724 -5.124 1.678 -3.284 0.168 -3.474 -1.122 -2.508 -8.4054 6.304 -9.0908 10.524 -9.5394 13.286 -0.1016 0.624 -0.1908 1.174 -0.3546 1.658 -1.394 4.118 -1.452 6.212 1.438 9.882 1.1504 1.46 1.1558 1.464 4.239 3.606 0.915 0.636 2.1012 1.46 3.669 2.566 1.952 1.378 3.4812 2.52 4.6576 3.4 2.3478 1.754 3.2898 2.458 3.3804 1.882 0.0348 -0.22 -0.8322 -1.394 -1.865 -2.794 -1.3358 -1.81 -2.9484 -3.996 -3.245 -4.974 -0.8076 -2.664 3.2712 0.242 6.7004 2.684 4.4186 3.146 7.7586 5.526 -1.8244 -5.766 -0.534 -0.628 -0.988 -1.268 -0.554 -1.682 0.362 -0.346 0.4526 -0.288 2.6534 1.128l0.0006 0c0.4372 0.282 0.9576 0.616 1.58 1.012 2.2862 1.454 3.4808 2.308 4.232 2.846 0.9736 0.698 1.2018 0.862 2.096 1.102 2.274 0.614 -5.9328 -7.484 -7.3944 -8.926l-0.0002 0 -0.0002 0ZM138.9218 146.0394c-1.516 0.528 -2.7698 1.044 -1.432 1.76 1.344 0.004 2.6728 -0.282 3.896 -0.838 1.5442 -0.642 1.704 -1.23 1.6 -2.042 -0.0586 -0.461 -0.1224 -1.081 -0.1948 -1.7832 -0.3644 -3.5374 -0.9436 -9.1578 -2.1452 -7.0168 -0.3626 0.6398 0.6874 6.8062 0.9154 8.1446l0 0.0006 0.0002 0c0.027 0.1594 0.0424 0.2502 0.0424 0.2548 0.126 0.7238 -0.0928 0.7812 -1.0374 1.029 -0.4048 0.1062 -0.943 0.2474 -1.6446 0.491Zm-10.0998 10.5782c-4.962 -0.43 -5.714 -5.132 -3.686 -5.086 0.4342 0.0104 0.4754 0.2632 0.5376 0.6444 0.092 0.564 0.23 1.4096 1.7524 2.1696 0.9426 0.4716 1.6748 0.7624 2.196 0.9694 0.9726 0.3862 1.2094 0.4802 0.704 0.9126 -0.4376 0.3074 -0.972 0.446 -1.504 0.39Zm6.606 -35.9994c-0.0316 -0.185 -0.0902 -0.3642 -0.174 -0.532 -0.966 -1.336 -5.672 -0.854 -7.766 1.73 -0.54 0.668 -1.25 2.042 -0.33 2.484 0.6 0.2872 0.996 -0.4722 1.102 -0.6758 0.0114 -0.0218 0.0194 -0.0372 0.024 -0.0442 1.5854 -2.4858 4.9078 -2.7542 6.429 -2.877l0.0002 0c0.344 -0.0278 0.596 -0.0482 0.7148 -0.085ZM100.984 277.028c-0.0474 0.176 -0.1404 0.338 -0.2696 0.466 -0.1294 0.13 -0.2904 0.224 -0.467 0.27 -0.1766 0.048 -0.3626 0.048 -0.5394 0.002s-0.3382 -0.14 -0.468 -0.268c-1.08 -0.926 -1.272 -3.576 0.2 -3.698 1.282 -0.104 1.934 1.978 1.544 3.228Zm32.704 -142.84c-0.662 1.032 -0.714 2.936 0.512 3.212 1.036 0.244 1.372 -1.734 1.23 -2.812 -0.0124 -0.2006 -0.0894 -0.3918 -0.2196 -0.5452 -0.13 -0.1532 -0.3062 -0.2604 -0.502 -0.3052 -0.196 -0.045 -0.4012 -0.0256 -0.585 0.0556 -0.184 0.0812 -0.3366 0.2198 -0.4354 0.3948Zm15.402 -2.052c1.254 0.344 1.2 2.248 0.534 3.366 -0.102 0.1478 -0.2424 0.2648 -0.4062 0.3382 -0.1638 0.0734 -0.3444 0.1006 -0.5226 0.0786 -0.1782 -0.022 -0.3468 -0.0926 -0.4878 -0.2038 -0.1408 -0.1112 -0.2486 -0.2588 -0.3114 -0.427 -0.512 -1.688 0.43 -3.362 1.194 -3.152ZM68.498 179.0316c1.0876 -3.4284 2.7656 -6.6408 4.958 -9.492 6.574 -8.858 7.944 -7.768 6.544 -5.984 -3.44 4.4 -8.438 11 -10.066 16.356 -0.3642 1.1954 -0.1356 1.3202 2.6428 2.8366 0.8378 0.4574 1.9078 1.0414 3.2632 1.8194 0.7036 0.4038 1.3308 0.7552 1.8844 1.0652 2.2228 1.245 3.2618 1.827 3.3172 2.4908 0.0484 0.5828 -0.6606 1.2286 -1.9922 2.4412 -0.7142 0.6506 -1.6078 1.4642 -2.6594 2.5188 -4.2826 4.2942 -4.2804 4.2998 -4.0832 4.786l0.0152 0.0374 0.008 0.0206c6.5352 16.7124 18.0882 37.8624 22.1846 45.3604 0.9458 1.732 1.494 2.736 1.4914 2.79 -0.326 6.382 -25.606 -43.056 -25.824 -48.3704 -0.0626 -1.536 2.876 -4.1734 4.0846 -5.2582l0.0734 -0.0658c2.0632 -1.8458 3.3384 -2.8078 4.0466 -3.3418 0.8224 -0.6206 0.8796 -0.6636 0.5174 -0.8442 -10.678 -5.358 -11.384 -6.252 -10.406 -9.166Zm-4.374 27.3364c3.438 0.526 12.81 39.624 10.722 40.096 -0.4634 0.106 -0.5646 -0.358 -1.2068 -3.3 -0.9622 -4.406 -3.1394 -14.378 -9.5712 -36.342 -0.0122 -0.154 0.007 -0.308 0.056 -0.454Zm75.3028 31.19c-1.6784 6.26 -2.7804 10.372 -2.2508 10.522 1.762 0.502 16.056 -56.3 11.306 -59.83 -1.7438 -1.2944 -4.3054 -2.4936 -6.3302 -3.4414 -1.9512 -0.9134 -3.404 -1.5934 -3.1458 -1.9006 1.7816 -2.0286 3.3874 -4.205 4.8 -6.506 0.1182 -0.16 0.1836 -0.3528 0.1872 -0.5518 0.0036 -0.1988 -0.055 -0.394 -0.1672 -0.5582 -0.886 -1.498 -4.992 -7.846 -6.364 -6.83 -0.2374 0.1762 0.4318 0.9676 1.3716 2.0792 1.206 1.4262 2.8572 3.3792 3.6104 5.2348 0.0082 0.0204 0.0164 0.0394 0.0242 0.0576 0.0234 0.0542 0.0434 0.1006 0.0522 0.149 0.0516 0.2788 -0.2628 0.625 -2.3892 2.9682l-0.7592 0.8372c-0.8774 0.966 -1.8076 1.9442 -2.4474 2.617l-0.0014 0.0014 -0.0006 0.0008 -0.0008 0.0006c-0.4846 0.5096 -0.8018 0.8432 -0.8018 0.8622 -0.05 0.472 0.7262 0.8204 2.3246 1.5378 1.8626 0.8358 4.8416 2.1728 8.9314 4.7902 0.6638 0.4232 0.6584 0.5936 0.6174 1.8932 -0.0058 0.1806 -0.012 0.383 -0.0174 0.6108 -0.3406 14.838 -5.436 33.844 -8.5492 45.456Zm-70.1248 12.15c-9.794 -0.938 -15.2872 -1.234 -18.2614 -1.394 -2.5722 -0.138 -3.2602 -0.176 -3.2166 -0.438 0.156 -0.942 8.672 -1.05 8.676 -0.966 14.498 0 38.774 4.464 39.916 5.634 -0.7048 0.602 -8.0466 -0.388 -15.5304 -1.398 -4.1988 -0.566 -8.4424 -1.138 -11.5836 -1.438Z"
                clip-rule="evenodd" stroke-width="1"></path>
        </g>
        <g id="person 2-2">
            <path id="Subtract_3" fill="#111112" fill-rule="evenodd"
                d="M205.506 247.96c-0.522 0.384 -1.162 0.856 -1.506 1.978 -2.296 7.542 -0.714 27.098 2.814 33.786 4.504 8.452 14.466 14.776 31.666 11.946 0.628 -0.104 1.612 0.958 3.104 2.566 3.978 4.29 11.57 12.48 25.696 12.892 11.088 0.318 20.336 -2.996 28.192 -8.838 -0.318 -0.83 -0.634 -1.678 -0.948 -2.544 -8.366 5.974 -18.854 9.53 -29.008 8.612 -23.564 -2.128 -35.852 -32.104 -37.504 -40.104 -0.182 -0.576 -0.198 -1.192 -0.046 -1.778 0.152 -0.584 0.466 -1.114 0.906 -1.528 5.436 -6.686 20.924 -14.536 27.454 -17.646 1.548 -0.732 1.868 -0.744 2.286 -0.4 2.676 2.196 7.708 8.858 11.74 14.194 4.588 6.072 7.88 10.43 4.934 4.55 -3.162 -6.31 -6.268 -10.164 -8.206 -12.566 -1.37 -1.698 -2.154 -2.672 -1.962 -3.278 8.098 -25.42 20.22 -43.762 26.204 -52.815 1.836 -2.7774 3.094 -4.6804 3.48 -5.6454 0.032 -0.0812 0.034 -0.1706 0.01 -0.254 -0.026 -0.0834 -0.078 -0.1556 -0.15 -0.2052 -0.072 -0.0498 -0.158 -0.0738 -0.246 -0.0686 -0.086 0.0054 -0.168 0.0398 -0.234 0.0978 -0.486 0.4612 -0.94 0.9558 -1.358 1.48 -16.182 19.8224 -25.068 42.8824 -28.496 51.7764 -0.964 2.502 -1.498 3.884 -1.638 3.756 -0.452 -0.41 -0.846 -0.774 -1.196 -1.094 -2.128 -1.96 -2.558 -2.356 -3.87 -2.066 -0.242 0.058 -0.364 0.09 -0.448 0.048 -0.09 -0.046 -0.136 -0.176 -0.24 -0.448 -3.286 -9.084 -7.758 -17.352 -12.04 -25.27 -2.46 -4.55 -4.86 -8.986 -6.936 -13.396 -0.26 -0.556 -0.072 -0.734 0.71 -1.48 0.598 -0.572 1.546 -1.476 2.908 -3.136 2.224 -2.5892 3.628 -5.7814 4.032 -9.1704 0.048 -0.3024 -0.01 -0.612 -0.164 -0.877s-0.392 -0.4696 -0.678 -0.5796c-0.286 -0.1102 -0.6 -0.119 -0.892 -0.0254 -0.292 0.0936 -0.542 0.2842 -0.71 0.54 -0.342 0.3664 -0.634 0.7138 -0.872 0.9982 -0.524 0.6268 -0.792 0.9478 -0.8 0.4938 -0.022 -1.1534 -0.156 -2.3022 -0.4 -3.43 -0.278 -1.314 7.404 -7.122 6.906 -6.17 -0.782 6.1806 -0.71 12.4396 0.218 18.6004 0.082 1.334 0.348 2.652 0.788 3.916 0.046 0.108 0.12 0.204 0.212 0.28 0.092 0.074 0.202 0.124 0.318 0.146 0.118 0.024 0.238 0.016 0.352 -0.018 0.114 -0.036 0.216 -0.098 0.3 -0.182 1.332 -1.408 3.032 -2.416 4.908 -2.908 1.046 -0.338 1.228 0.476 1.658 2.396 0.374 1.682 0.94 4.216 2.444 7.572 1.912 4.266 2.632 3.168 4.894 -0.286 0.506 -0.772 1.088 -1.664 1.78 -2.638 1.848 -2.606 3.254 -5.114 4.378 -7.118 0.37 -0.658 0.708 -1.264 1.022 -1.798 0.11 0.052 0.214 0.092 0.322 0.134 0.528 0.206 1.088 0.426 2.314 2.008 0.762 0.984 1.324 2.314 1.808 3.456 0.748 1.772 1.306 3.09 2.12 1.964 18.29 -25.3628 16.896 -33.9566 16.554 -36.07 -0.074 -0.455 -0.098 -0.6096 0.132 -0.5664 0.286 0.0538 0.654 0.1186 1.09 0.1958 0.3 0.0532 0.634 0.1126 1 0.178 -0.124 -0.5906 -0.226 -1.1192 -0.31 -1.593 -1.67 -0.2026 -2.66 -0.3504 -2.778 -0.6468 -0.216 -0.5324 -0.66 -0.8324 -1.094 -1.1256 -0.11 -0.0746 -0.218 -0.1488 -0.324 -0.2264 -1.704 -1.2608 -3.032 -1.4158 -3.954 -1.5232 -0.67 -0.0782 -1.126 -0.1314 -1.354 -0.5668 -1.618 -3.3264 -3.6 -6.463 -5.91 -9.352 -0.236 -0.248 -0.08 -0.3626 0.474 -0.7726 0.804 -0.5948 2.452 -1.8118 4.966 -4.9614 5.518 -6.914 10.518 -19.648 5.078 -25.96 -0.178 -0.2078 -0.18 -0.5498 -0.186 -1.1256 -0.004 -0.532 -0.01 -1.2638 -0.156 -2.2744 -3.63 -25 -52.072 -25.706 -63.81 -3.4 -0.312 0.5944 0.14 1.3276 0.226 1.4648 0.006 0.011 0.01 0.0182 0.012 0.0212 0.84 1.7284 1.77 2.653 2.45 3.3308 0.7 0.6956 1.138 1.1314 0.95 1.9092 -0.316 1.7554 -0.45 3.539 -0.4 5.322 -0.308 4.5024 -0.266 5.3344 -0.62 5.572 -0.106 0.0702 -0.244 0.0884 -0.438 0.134 -0.848 0.2 -0.94 0.67 -0.752 1.2 0.232 0.6568 0.602 0.77 0.874 0.8542 0.238 0.0728 0.404 0.1238 0.348 0.4878 -0.108 0.7058 -0.198 1.343 -0.282 1.9268 -0.372 2.6258 -0.592 4.17 -1.556 5.9992 -1.372 2.608 -3.662 7.53 -2.8 10.352 0.38 1.2548 1.128 2.3668 2.146 3.1918 1.018 0.8252 2.262 1.3254 3.568 1.4362 0.498 0.139 0.518 0.2882 0.624 1.1276 0.05 0.393 0.118 0.9372 0.264 1.7024 0.382 2.8666 1.074 5.6832 2.066 8.4 3.12 7.3022 9.558 6.869 13.136 6.628 1.092 -0.0734 1.916 -0.1288 2.3 0.058 -0.032 0.0476 -0.07 0.0906 -0.114 0.128 -8.022 4.8784 -8.764 6.7136 -9.026 6.6474 -0.082 -0.0212 -0.118 -0.2368 -0.324 -0.6094 -1.14 -2.062 -3.676 -4.018 -6.076 -2.834 -0.284 0.1348 -0.526 0.3444 -0.7 0.6066 -0.174 0.2622 -0.274 0.567 -0.288 0.8814 -0.144 0.2976 -0.402 -0.001 -0.784 -0.4452 -0.866 -1.0062 -2.378 -2.7588 -4.668 -0.0128 -0.294 0.3522 -0.546 0.32 -0.872 0.2782 -0.384 -0.0492 -0.87 -0.1114 -1.648 0.4298 -0.78 0.5448 -0.994 1.1278 -1.156 1.5716 -0.16 0.4424 -0.272 0.7464 -0.844 0.7364 -0.548 0.03 -1.08 0.2066 -1.536 0.5112 -0.458 0.3046 -0.824 0.7262 -1.064 1.2208 -0.378 0.8602 -0.374 1.327 -0.372 1.5902 0.004 0.2872 0.004 0.3318 -0.496 0.3798 -4.864 0.468 -2.38 10.5944 0.43 14.0844 0.394 0.49 -0.906 3.548 -2.846 8.116 -3.57 8.402 -9.31 21.912 -10.662 33.918 -0.056 0.488 -0.398 0.74 -0.818 1.048Zm50.276 -117.2962c0.684 -0.196 0.924 -0.265 0.91 0.1538h0.006c-0.298 8.918 1.95 18.798 6.824 21.762 1.042 0.6316 1.364 0.0712 1.962 -0.9704 0.446 -0.7792 1.048 -1.8274 2.222 -2.8476 6.674 -5.8 11.342 8.31 -0.168 12.4 -0.676 0.248 -0.518 0.752 0 0.848 1.314 0.0586 2.622 -0.2162 3.802 -0.7988 1.178 -0.5826 2.192 -1.454 2.944 -2.5332 0.824 -1.054 1.018 -1.134 1.4 -1.11 1.114 0.2246 2.262 0.2354 3.38 0.032 0.498 -0.134 0.718 0.17 1 0.68 1.658 2.995 2.932 5.2524 3.904 6.9742 3.116 5.5226 3.122 5.5344 2.696 6.7038 -3.422 7.7998 -7.7 15.1956 -12.754 22.052 -3.568 4.7208 -3.648 4.8884 -4.192 6.0404 -0.578 1.226 -1.684 3.568 -8.086 13.706 -0.03 0.048 -0.056 0.098 -0.082 0.148 -0.02 0.034 -0.038 0.07 -0.058 0.104 -0.024 -0.026 -0.05 -0.05 -0.078 -0.074 -0.048 -0.042 -0.096 -0.084 -0.122 -0.138 -4.208 -8.89 -5.724 -23.1952 -6.724 -32.628 -0.034 -0.3136 -0.066 -0.6218 -0.098 -0.9244 -0.178 -1.6802 -0.132 -1.696 1.194 -2.1404l0.076 -0.0256c0.684 -0.209 1.342 -0.4942 1.962 -0.85 0.786 -0.856 -0.992 -0.5826 -3.78 -0.154 -3.896 0.599 -9.764 1.5014 -13.368 0.05 -3.578 -1.442 -4.952 -4.572 -5.818 -8.262 -1.628 -6.9176 -1.62 -6.9576 -1.554 -7.3424 0.004 -0.0182 0.006 -0.0372 0.01 -0.0576 0.18 -1.1118 -0.394 -1.2414 -1.61 -1.5152 -0.482 -0.1084 -1.064 -0.2394 -1.738 -0.4628 -1.074 -0.3654 -1.962 -1.1396 -2.47 -2.1548 -0.508 -1.0154 -0.596 -2.1898 -0.244 -3.2692 0.824 -2.894 1.54 -4.2766 2.172 -5.4934 1.098 -2.1198 1.936 -3.7366 2.628 -11.9666 0.232 -2.7736 0.222 -4.7618 0.21 -6.648 -0.008 -1.412 -0.016 -2.7672 0.08 -4.352 5.864 4.2022 13.022 6.206 20.216 5.66 1.632 -0.1036 2.692 -0.408 3.346 -0.5958Zm33.682 -8.1822c0.222 1.4142 0.594 2.8008 1.11 4.136l0.006 -0.002c1.98 3.878 1.488 8.508 -0.89 14.53 -3.116 7.93 -9.096 15.358 -12.582 14.776 -0.96 -0.16 -1.238 -0.218 -1.092 -0.776 2.62 -9.99 -7.586 -13.126 -11.616 -4.748 -0.022 0.049 -0.04 0.1034 -0.06 0.158 -0.074 0.2148 -0.148 0.4334 -0.45 0.344 -0.04 -0.012 -5.97 -7.016 -5.698 -20.922 0.024 -1.214 -0.372 -1.1588 -3.43 -0.7324l-0.06 0.0084c-0.654 0.092 -4.704 0.056 -5.464 0.032 -0.714 -0.024 -3.662 -0.494 -4.184 -0.578 -5.602 -0.6148 -10.806 -3.188 -14.696 -7.266 -1.884 -2.1658 -1.816 -2.269 -1.634 -2.546 0.01 -0.0172 0.022 -0.035 0.034 -0.054 10.844 -18.478 55.38 -20.298 60.706 3.64Zm-60.998 140.2564c5.078 -6.448 19.306 -13.53 26.752 -16.976 0.36 -0.172 0.306 -0.294 0.236 -0.454 -0.012 -0.026 -0.024 -0.054 -0.036 -0.084 -5.856 -14.142 -8.704 -19.364 -11.57 -24.624 -2.07 -3.796 -4.148 -7.608 -7.374 -14.802 -0.348 -0.778 0.548 -1.716 1.878 -3.106 1.952 -2.044 4.838 -5.063 6.086 -9.9844 0.114 -0.454 0.064 -1.142 -0.302 -0.852 -0.83 0.8864 -1.602 1.8264 -2.308 2.814 -0.438 0.4914 -0.616 1.35 -0.774 2.1152 -0.196 0.9414 -0.362 1.7414 -0.946 1.5428 -0.378 -0.1282 -0.27 -1.0046 -0.112 -2.3068 0.32 -2.6396 0.852 -7.0284 -2.002 -10.4772 -1.584 -1.914 -3.852 -2.252 -3.844 -0.082 0 0.4012 0.064 0.7276 0.114 0.9936 0.084 0.425 0.136 0.6968 -0.146 0.8764 -0.336 0.2144 -0.538 0.0154 -0.87 -0.3144 -0.152 -0.1502 -0.33 -0.3278 -0.562 -0.5056 -1.34 -1.028 -2.2 -0.582 -2.328 0.47 -0.01 0.0844 -0.02 0.1704 -0.03 0.2566 -0.112 0.9872 -0.23 2.016 -1.18 1.4494 -0.11 -0.064 -0.212 -0.1396 -0.312 -0.2148 -0.112 -0.082 -0.222 -0.1634 -0.34 -0.2292 -0.176 -0.1242 -0.384 -0.1948 -0.598 -0.2028 -0.216 -0.008 -0.428 0.047 -0.612 0.158s-0.332 0.2732 -0.426 0.467c-0.094 0.1938 -0.128 0.4106 -0.1 0.6238 0.004 0.1542 0.046 0.3566 0.092 0.5744 0.16 0.7766 0.36 1.749 -0.952 1.4256 -1.218 -0.306 -1.746 0 -2.144 1.2 -0.578 1.746 1.05 4.8 1.636 3.6l0.062 -0.13c0.642 -1.3278 0.848 -1.7552 1.076 -1.67 0.082 0.0524 0.146 0.1254 0.19 0.2114 0.044 0.0862 0.062 0.1824 0.056 0.2786 0.078 7.4844 2.364 10.3104 3.424 11.6204 0.364 0.45 0.582 0.72 0.52 0.94 -0.044 0.152 -0.502 0.2 -0.788 0.178 -0.33 -0.02 -0.336 0.068 -0.386 0.848 -0.026 0.434 -0.066 1.082 -0.184 2.042 -2.522 20.634 -3.476 30.838 -0.896 52.33Zm1.546 31.894c-8 -0.086 -16.78 -3.55 -20.834 -10.446l0.006 -0.002c-4.422 -7.522 -4.774 -27.616 -3.808 -32.796 0.102 -0.776 0.446 -1.502 0.986 -2.068 0.378 1.81 1.854 3.614 7.012 4.556 3.354 0.676 6.786 0.89 10.2 0.636 0.968 -0.076 1.424 -0.178 1.658 0.006 0.418 0.326 0.12 1.564 0.77 5.494 0.306 1.856 0.564 2.88 0.722 3.504 0.202 0.806 0.238 0.95 -0.002 1.36 -0.556 0.706 -0.872 1.57 -0.904 2.468 0.44 7.194 9.814 23.562 11.252 25.498 0.078 0.104 0.148 0.198 0.214 0.286 0.574 0.766 0.65 0.866 0.128 0.928 -3.762 0.432 -6.954 0.576 -7.4 0.576Zm-4.884 -43.108c0.072 0.884 0.08 1.17 -0.502 1.222l0.006 -0.002c-3.702 0.11 -7.404 -0.182 -11.042 -0.874 -6.282 -1.1 -5.922 -2.744 -4.632 -8.638 0.154 -0.698 0.318 -1.454 0.488 -2.274 1.854 -8.014 4.374 -15.858 7.53 -23.452 1.968 -5.168 3.508 -9.788 3.808 -10.684 0.032 -0.1 0.05 -0.152 0.052 -0.156 0.166 -0.42 0.404 -0.306 0.8 -0.112 0.244 0.118 0.55 0.268 0.936 0.338 1.436 0.262 1.798 -0.516 0.848 -0.96 -0.066 -0.032 -0.138 -0.062 -0.214 -0.096 -1.248 -0.548 -3.746 -1.646 -4.986 -8.8224 -0.318 -1.838 -0.474 -4.272 1.364 -4.588 1.102 -0.19 2.392 1.262 2.722 2.34 0.63 2.0484 1.382 2.6462 1.762 2.947 0.206 0.163 0.302 0.2388 0.208 0.411 -0.842 1.5524 -2.274 0.0106 -3.328 -1.1236 -0.702 -0.7552 -1.236 -1.3298 -1.316 -0.6904 -0.178 1.424 3.264 6.1844 5.652 2.71 0.218 2.6644 1.206 5.2084 2.842 7.3224 0.198 0.248 0.21 0.61 0.07 1.458 -2.41 14.704 -4.124 30.644 -3.068 43.724Zm-3.554 -59.858c-0.122 -0.1312 -0.208 -0.292 -0.248 -0.4664 -0.144 -0.3352 -0.194 -0.7032 -0.144 -1.0644 0.05 -0.3614 0.198 -0.702 0.428 -0.9852 0.23 -0.2832 0.534 -0.4982 0.876 -0.6216 0.344 -0.1234 0.714 -0.1506 1.072 -0.0788 0.438 0.084 1.476 0.928 0.876 1.19 -0.894 0.3802 -1.624 1.0676 -2.058 1.938 -0.072 0.156 -0.258 0.386 -0.354 0.37 -0.172 -0.0534 -0.326 -0.1504 -0.448 -0.2816Zm4.126 -3.5704c-0.224 0.41 -0.56 0.262 -0.76 -0.108v-0.006c-0.19 -0.3894 -0.234 -0.834 -0.124 -1.2532 0.108 -0.4192 0.364 -0.7854 0.72 -1.0328 0.224 -0.1472 0.476 -0.245 0.74 -0.2872 0.264 -0.0422 0.534 -0.0276 0.792 0.0428 0.26 0.0704 0.5 0.195 0.706 0.3654 0.206 0.1704 0.374 0.3828 0.492 0.623 -0.136 0.2598 -0.434 0.3324 -0.798 0.4206 -0.554 0.1348 -1.26 0.3064 -1.768 1.2354Zm5.56 -3.4194c-0.402 -0.4948 -1.096 -1.3446 -2.09 -0.8146 -0.148 0.061 -0.28 0.156 -0.386 0.2774 -0.104 0.1214 -0.18 0.2658 -0.218 0.4216 -0.04 0.1556 -0.042 0.3184 -0.006 0.4748 0.036 0.1566 0.108 0.3026 0.21 0.4262 0.494 0.5304 0.682 0.3318 0.986 0.011 0.122 -0.1304 0.264 -0.281 0.454 -0.411 0.316 -0.2056 0.676 -0.3372 1.05 -0.3854Z"
                clip-rule="evenodd" stroke-width="1"></path>
            <path id="vector_16" fill="#111112"
                d="M239.636 137.416c8 1.6 8.012 3.692 6.79 3.826 -0.736 0.08 -0.242 0.2 -9.6 -1.978 -0.358 -0.0268 -0.702 -0.1522 -0.992 -0.3622 -0.292 -0.21 -0.52 -0.4964 -0.658 -0.8278 -0.362 -0.9 1.638 -1.218 4.46 -0.658Z"
                stroke-width="1"></path>
            <path id="vector_17" fill="#111112"
                d="M237.754 168.2714c0.046 -0.1244 0.134 -0.229 0.248 -0.2954 0.116 -0.0664 0.25 -0.0908 0.38 -0.0686 1.346 -0.0068 2.666 -0.369 3.826 -1.05 2.114 -1.136 2.08 -2.38 2.726 -3.378 0.612 -0.948 1.782 0.088 1.214 1.682 -1.848 5.182 -8.896 4.592 -8.394 3.11Z"
                stroke-width="1"></path>
            <path id="vector_18" fill="#111112"
                d="M238.682 146.1438c-0.094 0.1472 -0.22 0.2704 -0.37 0.3592 -0.152 0.089 -0.32 0.1412 -0.494 0.1524 -0.174 0.0114 -0.348 -0.0186 -0.51 -0.0874 -0.16 -0.0686 -0.302 -0.1744 -0.414 -0.3082 -1.4 -1.32 0.2 -4.494 1.724 -2.636 0.234 0.3764 0.362 0.8084 0.374 1.2512 0.012 0.443 -0.096 0.8808 -0.31 1.2688Z"
                stroke-width="1"></path>
            <path id="vector_19" fill="#111112"
                d="M241.868 125.1396c-0.278 -0.116 -1 -0.336 -0.91 -0.618 0.148 -0.454 0.53 -0.466 1.5 -0.342 8.1 0.953 16.31 0.246 24.128 -2.078 1.616 -0.516 7 -2.65 6.922 -3.538 -0.078 -0.888 -8.236 -0.4 -8.716 -1.348 -0.386 -0.76 0.344 -1.03 0.978 -1.43 3.216 -2.022 4.094 -2.26 2.974 -3.526 -0.84 -0.946 -1.216 -1.014 -1.094 -1.524 0.122 -0.51 3 0.51 3.278 2.312 0.224 1.43 -1.866 2.696 -3.076 3.424 2.26 -0.126 4.524 0.1858 6.666 0.918 1.7 0.788 0.6 2.3 -0.962 3.324 -8.716 5.686 -26.12 6.718 -31.688 4.426Z"
                stroke-width="1"></path>
            <path id="vector_20" fill="#111112"
                d="M262.066 130.3074c3.964 -0.1638 7.826 -1.2992 11.246 -3.306 2.32 -1.2 2.71 1.778 10.372 1.262 1.83 -0.1058 3.642 -0.3994 5.412 -0.876 0.56 -0.216 0.346 0.55 0.1 0.872 -1.528 1.988 -9.376 2.588 -14.076 0.342 -1.142 -0.546 -1.374 0.4 -5.5 1.934 -7.79 2.892 -12.87 -0.148 -7.554 -0.228Z"
                stroke-width="1"></path>
            <path id="vector_21" fill="#111112"
                d="M262.3 135.7142c-0.19 -0.4 0 -0.494 1.134 -0.626 17.524 -2.018 21.158 -3.078 23.852 -3.4 0.266 -0.032 3.174 1.112 -7.638 2.948 -2.83 0.488 -16.824 2.164 -17.348 1.078Z"
                stroke-width="1"></path>
            <path id="vector_22" fill="#111112"
                d="M262.436 140.3694c-2.738 -1 7.726 -0.35 24.554 -4.648 0.126 -0.036 0.258 -0.0494 0.39 -0.04 0.37 0.032 0.92 -0.2 1.032 0.314 0.556 2.546 -23.524 5.264 -25.976 4.374Z"
                stroke-width="1"></path>
            <path id="vector_23" fill="#111112"
                d="M265.632 144.2414c0 -1 2.542 0.234 14.908 -2 5.304 -0.96 5.52 -1.262 6.092 -0.736 0.288 0.262 0.306 0.42 -0.044 0.572 -7.606 3.298 -20.964 2.96 -20.956 2.164Z"
                stroke-width="1"></path>
            <path id="vector_24" fill="#111112"
                d="M277.118 148.504c-0.092 -0.812 0.4 -0.66 3.044 -1.094 1.398 -0.3286 2.824 -0.5222 4.258 -0.578 0.6 0 0.104 0.788 -0.4 0.988 -1.022 0.4146 -2.086 0.7208 -3.172 0.914 -0.564 0.108 -3.626 0.706 -3.73 -0.23Z"
                stroke-width="1"></path>
            <path id="vector_25" fill="#111112"
                d="M280.826 152.272c0.02 0.1142 -0.004 0.2318 -0.066 0.3292 -0.062 0.0976 -0.16 0.1678 -0.272 0.1968 -0.232 0.1168 -0.474 0.2112 -0.724 0.282 -1.8 0.348 -2.038 0.328 -2.234 -0.02 -0.23 -0.412 0.344 -1.176 1.112 -1.122 1.232 0.088 2.118 -0.258 2.184 0.334Z"
                stroke-width="1"></path>
        </g>
        <g id="person 3">
            <path id="Subtract_4" fill="#111112" fill-rule="evenodd"
                d="M296.656 257.528c-5.384 -5.36 -6.146 -6.116 -5.596 -9.514 0.252 -1.564 0.518 -2.88 0.75 -4.036 0.654 -3.252 1.058 -5.258 0.244 -8.076 -0.322 -1.11 -2.074 -1.306 -3.016 0.836 -0.202 0.46 -0.31 0.768 -0.372 0.952 -0.052 0.148 -0.076 0.214 -0.098 0.214 -0.018 0 -0.036 -0.046 -0.068 -0.13 -0.066 -0.168 -0.19 -0.49 -0.496 -0.9 -0.286 -0.522 -0.714 -0.954 -1.234 -1.246 -0.252 -0.148 -0.53 -0.244 -0.82 -0.28 -0.29 -0.038 -0.584 -0.014 -0.864 0.066 -0.282 0.08 -0.542 0.218 -0.768 0.402 -0.226 0.184 -0.414 0.414 -0.548 0.672 -0.338 0.522 -0.714 0.576 -1.204 0.648 -0.096 0.014 -0.196 0.028 -0.302 0.048 -1.828 0.332 -2.222 1.29 -2.55 2.086 -0.24 0.582 -0.444 1.076 -1.146 1.176 -0.408 0.33 -0.744 0.738 -0.988 1.204 -0.244 0.464 -0.39 0.972 -0.43 1.496 -0.018 0.422 -0.218 0.714 -0.454 1.058 -0.36 0.526 -0.802 1.17 -0.79 2.574 0.21 2.928 1.374 5.704 3.314 7.908 0.884 0.95 1.642 1.388 2.216 1.72 0.612 0.354 1.01 0.584 1.12 1.182 0.078 0.43 0.218 0.906 0.406 1.554 0.36 1.222 0.898 3.064 1.552 6.396 1.37 6.91 10.236 39.762 16.738 48.8 0.23 0.32 0.318 0.428 0.478 0.62 0.328 0.398 0.96 1.166 3.792 4.964 6.256 8.38 19.83 10.38 21.79 9.78 4.224 0.156 8.454 -0.078 12.636 -0.702 1.09 -0.232 20.216 10.614 22.294 11.794l0.168 0.094c2.398 1.358 4.266 2.464 5.666 3.292 2.866 1.698 3.758 2.226 3.188 1.352 -1.506 -1.434 -3.128 -2.74 -4.854 -3.9 -7.342 -4.962 -14.938 -9.538 -22.756 -13.71 0.008 -0.158 0.606 -0.42 1.584 -0.846 2.628 -1.148 8.01 -3.496 12.178 -8.304l0.01 -0.012c0.04 -0.048 0.074 -0.086 0.118 -0.112 0.194 -0.112 0.568 0.082 2.664 1.172l0 0.002c0.292 0.15 0.616 0.318 0.976 0.506 4.786 2.484 8.346 4.384 10.898 5.746 5.3 2.826 6.242 3.33 4.746 1.908 -3.834 -3.182 -8.006 -5.932 -12.444 -8.2 -2.984 -1.576 -4.44 -2.118 -5.084 -2.358 -0.32 -0.12 -0.44 -0.166 -0.448 -0.224 -0.006 -0.036 0.03 -0.076 0.088 -0.142 0.024 -0.026 0.05 -0.058 0.08 -0.094 3.934 -4.808 7.032 -10.24 9.168 -16.074 0.696 0.724 2.606 1.656 4.942 2.794l0.002 0.002c2.526 1.23 5.55 2.704 8.078 4.424l0.014 0.01c0.03 0.02 0.058 0.038 0.082 0.06 0.39 0.33 0.262 1.27 -1.844 16.686l0 0.002 0 0.006c-0.544 3.984 -1.22 8.932 -2.052 15.084 -0.292 2.152 -0.548 3.904 -0.758 5.328 -0.716 4.882 -0.868 5.92 0.092 6.016 0.586 0.06 15.174 -73.46 8.242 -109.97 -0.472 -2.85 -1.27 -5.636 -2.378 -8.304 -1.192 -3.738 -2.448 -5.72 -3.186 -6.884 -0.624 -0.984 -0.878 -1.386 -0.414 -1.772 2.234 -1.866 3.996 -4.234 5.14 -6.91 1.144 -2.676 1.64 -5.586 1.444 -8.49 -0.446 -4.896 -2.89 -6.512 -6.638 -8.991l-0.316 -0.209c-0.862 -0.4946 -1.606 -1.1712 -2.18 -1.9828 -0.574 -0.8118 -0.964 -1.7388 -1.144 -2.7166 -0.18 -0.9778 -0.144 -1.983 0.106 -2.9454 0.25 -0.9624 0.704 -1.859 1.336 -2.6272 3.024 -3.636 5.794 -8.15 4.824 -12.778 -1.088 -5.1858 -5.328 -6.3716 -9.69 -7.592 -2.054 -0.5742 -4.134 -1.1562 -5.926 -2.166 -2.874 -1.6224 -1.612 -4.1046 0.234 -7.7368 2.514 -4.9424 6.11 -12.0146 1.838 -21.9472 -2.472 -5.8808 -6.968 -10.6824 -12.674 -13.536 -5.556 -3.1382 -11.152 -2.9664 -16.612 -2.7988 -3.436 0.1056 -6.82 0.2096 -10.104 -0.5152 -1.354 -0.2992 -2.426 -0.7206 -3.52 -1.1514 -1.754 -0.69 -3.568 -1.404 -6.704 -1.6786 -1.596 -0.1612 -3.206 0.009 -4.734 0.5002 -1.526 0.4912 -2.934 1.2924 -4.136 2.3538 -1.472 1.9422 -2.352 4.269 -2.532 6.7 -0.116 0.454 -1.5 1.702 -1.728 -0.56 -0.106 -1.311 0.04 -2.6302 0.432 -3.886 0.844 -2.332 -8.132 2.76 -4.318 9.648 0.874 1.576 1.738 2.207 2.252 2.583 0.432 0.3158 0.618 0.4518 0.358 0.817 -2.756 3.8794 -5.524 11.8742 -7.262 16.896 -0.734 2.121 -1.286 3.7118 -1.574 4.238 -0.422 0.77 -1.068 1.3246 -1.742 1.9026 -0.618 0.53 -1.26 1.0796 -1.772 1.8334 -0.218 0.3726 -0.352 0.7876 -0.396 1.2168 -0.042 0.4292 0.006 0.8626 0.146 1.2712 0.138 0.4084 0.362 0.7826 0.658 1.0968 0.296 0.3144 0.654 0.5616 1.054 0.7252 0.722 0.4022 1.242 0.646 1.62 0.8234 0.478 0.2238 0.73 0.342 0.876 0.539 0.166 0.2208 0.198 0.5408 0.264 1.2198 0.102 1.0294 0.286 2.8846 1.14 6.4718 2.014 8.472 7.468 15.642 16.308 16.416 0.394 0.034 0.458 0.124 0.326 0.514 -1.38 4.0904 -3.474 6.706 -5.462 9.188 -2.544 3.178 -4.914 6.134 -5.374 11.688 -0.034 2.438 0.468 4.854 1.472 7.076 0.954 2.388 2.632 4.416 4.8 5.8 0.354 0.252 -0.15 1.146 -1.04 2.724 -2.338 4.144 -7.34 13.006 -6.456 27.37 0.208 3.38 0.516 5.568 0.698 6.864 0.142 1.02 0.208 1.484 0.086 1.54 -0.102 0.046 -0.336 -0.194 -0.768 -0.638 -0.066 -0.07 -0.138 -0.144 -0.216 -0.224 -1.882 -1.928 -3.448 -3.488 -4.746 -4.78Zm36.658 43.916c-0.552 -0.842 -1.216 -1.854 -2.22 -3.352 -1.786 -2.666 -7.372 -5.204 11.658 19.632 1.894 2.47 3.086 3.868 3.782 4.682l0 0.002c0.658 0.77 0.872 1.02 0.816 1.168 -0.028 0.07 -0.118 0.116 -0.252 0.186 -0.038 0.018 -0.08 0.04 -0.124 0.064 -3.606 1.966 -7.516 3.314 -11.568 3.986 -0.398 0.092 -0.486 -0.054 -0.964 -0.93 -4.934 -9.048 -6.58 -22.876 -7.218 -28.25 -0.066 -0.552 -0.122 -1.014 -0.168 -1.372 -1.49 -11.4 2.308 -48.086 13.642 -66.862 0.172 -0.284 0.016 -0.416 -0.15 -0.554 -0.034 -0.028 -0.068 -0.056 -0.1 -0.086 -1.04 -0.992 -5.12 7.024 -5.442 7.656l-0.018 0.036c-0.3 0.578 -0.306 0.574 -0.846 0.326l-0.026 -0.012c-7.726 -3.324 -15.238 -7.126 -22.49 -11.386 -0.584 -0.354 -0.6 -0.41 -0.262 -0.986 0.652 -1.112 9.452 -15.68 9.738 -14.386 1.428 6.438 7.832 10.14 16.926 6.94 0.292 -0.102 0.464 0.262 0.752 0.876 0.606 1.294 1.734 3.696 5.616 5.188 0.454 0.176 0.458 0.188 0.12 0.566 -0.266 0.302 -0.448 0.48 -0.572 0.6 -0.4 0.386 -0.912 1.894 1.702 0.094 0.288 -0.2 0.59 -0.422 0.91 -0.656l0 -0.002c2.086 -1.53 4.884 -3.586 9.074 -3.342 10.822 0.632 13.818 11.936 13.73 12.068 -0.028 0.044 -0.49 -0.176 -1.282 -0.554 -3.544 -1.688 -13.714 -6.536 -21.592 -5.178 -0.698 0.12 -1.098 0.946 0.102 1.146 0.47 0.084 1.038 0.132 1.748 0.194 3.078 0.266 8.804 0.762 20.586 5.25 0.354 0.108 0.67 0.312 0.912 0.592 0.242 0.28 0.398 0.622 0.454 0.988 1.162 4.004 1.82 8.138 1.958 12.306 0.026 0.418 -0.046 0.376 -0.85 -0.092 -1.11 -0.644 -3.612 -2.096 -9.168 -4.266 -20.148 -7.864 -24.048 -4.98 -22.086 -4.2 9.75 1.508 19.258 4.288 28.284 8.27 0.618 0.27 1.142 0.496 1.584 0.686l0.002 0 0.004 0.002c2.33 1.004 2.41 1.038 2.436 1.596 0.308 4.768 0.262 9.552 -0.142 14.314 -17.472 -9.682 -35.846 -15.206 -36.272 -12.694 -0.098 0.582 0.614 0.754 2.798 1.284 3.428 0.83 10.48 2.538 23.704 8.084 9.954 4.174 9.946 4.418 9.918 5.324l-0.002 0.044c-0.028 0.944 -1.098 12.01 -1.698 12.68 -7.698 -4.582 -15.798 -8.452 -24.2 -11.558 -14.45 -5.332 -13.106 -2.332 -12.706 -2.066 0.498 0.328 1.688 0.672 3.596 1.222 5.238 1.51 15.892 4.58 32.52 13.21 0.746 0.38 0.744 0.39 0.61 1.136l-0.01 0.054c-2.24 12.484 -2.362 12.392 -2.958 11.948 -0.052 -0.04 -0.108 -0.082 -0.17 -0.118 -15.584 -9.218 -30.894 -15.286 -33.848 -15.372 -1.366 -0.04 -1.616 0.914 -0.4 1.432 0.092 0.04 0.434 0.168 0.986 0.378 4.35 1.64 21.742 8.204 33.014 14.728 0.544 0.316 0.556 0.328 0.366 0.928 -1.514 5.882 -3.988 11.476 -7.324 16.552l-0.048 0.082c-0.168 0.288 -0.274 0.468 -0.41 0.498 -0.226 0.048 -0.536 -0.304 -1.352 -1.232 -0.908 -1.026 -2.438 -2.762 -5.166 -5.442 -18.578 -18.248 -24.946 -18.87 -23.524 -16.686 0.246 0.38 0.87 0.814 2.07 1.646 3.282 2.28 10.866 7.546 26.73 22.852 0.272 0.264 0.236 0.306 -0.944 1.776 -0.308 0.384 -0.692 0.862 -1.17 1.468 -2.158 2.326 -4.624 4.344 -7.33 6l-0.02 0.014c-0.466 0.336 -0.488 0.352 -3.356 -3.614 -9.854 -13.63 -10.4 -14.462 -12.4 -17.506Zm-11.02 -91.884c-0.834 -5.794 -1.234 -11.641 -1.2 -17.494h-0.002c-0.008 -0.6494 0.002 -1.1866 0.01 -1.6308 0.02 -1.0448 0.03 -1.5744 -0.23 -1.835 -0.268 -0.2678 -0.818 -0.252 -1.938 -0.2198 -0.81 0.0232 -1.918 0.055 -3.432 -0.0064 -9.528 -0.362 -13.858 -6.2 -16.484 -15.2 -0.85 -2.9144 -1.156 -4.6714 -1.356 -5.826 -0.162 -0.939 -0.256 -1.4796 -0.518 -1.9202 -0.356 -0.5976 -1.02 -1.0114 -2.586 -1.9864 -0.174 -0.1072 -0.356 -0.2214 -0.552 -0.3434 -1.208 -0.756 -1.258 -1.24 -0.258 -2.21 0.25 -0.2652 0.522 -0.51 0.812 -0.732 2.27 -1.5542 2.876 -3.4564 3.912 -6.7106 0.38 -1.193 0.818 -2.5676 1.416 -4.1734 0.12 -0.3218 0.244 -0.6544 0.37 -0.9962 2.55 -6.867 6.468 -17.4242 13.094 -17.3898 0.08 0.0004 0.154 -0.0036 0.224 -0.0072 0.65 -0.0348 0.878 -0.047 1.734 3.7312 0.324 1.4264 0.572 2.624 0.794 3.6816 0.72 3.461 1.13 5.423 2.776 8.9984 2.864 6.22 5.614 11.012 10.836 14.722 0.376 0.2668 0.796 0.4702 1.218 0.6742l0.002 0 0 0.0002 0 0.0002c0.292 0.1416 0.586 0.2836 0.866 0.4474 0.416 0.236 0.876 -0.0982 1.548 -0.5862 1.082 -0.7858 2.712 -1.9706 5.592 -1.8138 4.456 0.242 3.358 6.406 -0.088 7.756 -2.294 0.8992 -3.55 1.1128 -4.378 1.2536 -0.58 0.0984 -0.95 0.1614 -1.32 0.3984 -0.816 0.522 0.134 1.006 1.03 1.15 0.41 0.0658 0.768 0.0376 1.034 0.0166 0.444 -0.0352 0.63 -0.0498 0.366 0.4294 -0.802 1.5014 -1.26 3.1628 -1.34 4.8632 -0.078 1.7006 0.222 3.3974 0.882 4.9668 0.602 1.3532 1.232 1.932 1.61 2.2788 0.332 0.3036 0.468 0.4294 0.222 0.7412 -4.94 6.242 -4.36 14.802 2.152 18.982 1.114 0.716 1.768 0.894 2.15 1 0.444 0.122 0.524 0.144 0.536 0.788 -0.158 1.548 -0.7 3.03 -1.578 4.314 -1.9 3.468 -1.974 5 -2.008 5.738 -0.018 0.378 -0.026 0.548 -0.266 0.662 -6.206 2.974 -14.324 0.508 -15.652 -6.512Zm2.198 81.006c-0.296 11.506 2.116 28.806 8.468 37.234 -2.448 0.638 -16.026 -0.27 -23.006 -6.224 -9 -7.67 -12.554 -19.118 -15.438 -28.406 -0.47 -1.518 -0.924 -2.978 -1.38 -4.354 -2.216 -6.702 -9.334 -31.786 -9.4 -32.052 -0.14 -0.56 -0.608 -0.884 -1.254 -1.332 -1.422 -0.986 -3.71 -2.568 -5.282 -8.586 -0.078 -0.302 -0.008 -0.496 0.468 -1.81l0.022 -0.06c0.076 -0.208 0.192 -0.398 0.31 -0.59 0.244 -0.394 0.484 -0.786 0.35 -1.312 0.042 -0.084 0.082 -0.17 0.124 -0.256 0.358 -0.744 0.72 -1.496 1.552 -1.854 0.322 -0.136 0.388 -0.26 0.586 -0.636 0.14 -0.262 0.346 -0.648 0.748 -1.246 0.434 -0.648 0.882 -0.688 1.372 -0.73 0.524 -0.046 1.094 -0.098 1.748 -0.894 1.29 -1.58 3.108 -0.43 3.2 1.456 0.08 1.318 -0.018 2.64 -0.292 3.932 -0.116 -0.308 -0.272 -0.944 -0.442 -1.638 -0.372 -1.512 -0.81 -3.298 -1.034 -2.54 -0.276 1.018 -0.302 2.086 -0.072 3.116 0.182 0.666 0.258 1.192 0.32 1.636 0.122 0.85 0.2 1.394 0.906 2.026 0.932 0.832 1.322 -0.996 1.822 -3.358 0.4 -1.882 0.872 -4.102 1.748 -5.586 0.472 -0.814 1.048 2.636 0.072 6.91 -0.194 0.846 -0.382 1.594 -0.55 2.264 -1.108 4.39 -1.406 5.572 2.962 10.722 1.052 1.24 4.33 4.57 8.396 8.7 9.41 9.558 23.03 23.392 22.976 25.468Zm-0.252 -17.326c-4.426 -2.476 -19.628 -10.984 -19.822 -13.174v0.004l-0.03 -0.344c-0.738 -8.254 -1.156 -12.928 1.2 -21.508 0.116 -0.426 0.302 -0.282 1.218 0.43 1.674 1.302 5.794 4.504 16.416 9.598 2.608 1.25 4.202 1.89 5.158 2.272 1.316 0.528 1.422 0.57 1.3 1.06 -1.288 5.162 -1.78 7.824 -2.026 9.162 -0.174 0.942 -0.226 1.226 -0.35 1.262 -0.054 0.016 -0.12 -0.014 -0.216 -0.058 -0.026 -0.012 -0.056 -0.024 -0.086 -0.038 -6.404 -2.762 -14.972 -7.552 -19.488 -10.076 -1.784 -0.998 -2.936 -1.64 -3.068 -1.664 1.202 3.148 15.168 11.46 21.98 13.86l0.022 0.008c0.128 0.044 0.226 0.08 0.294 0.144 0.222 0.212 0.132 0.75 -0.25 3.034 -0.232 1.4 -0.574 3.454 -1.022 6.488 -0.028 0.188 -0.084 0.188 -0.242 0.096 -0.2 -0.114 -0.538 -0.304 -0.988 -0.556Zm3.184 -25.082 -0.002 0c-6.398 -2.906 -21.938 -9.966 -21.25 -11.806v0.004c2.588 -6.914 3.072 -7.52 3.698 -8.308 0.154 -0.194 0.318 -0.4 0.524 -0.714 6.782 5.612 14.636 9.784 23.084 12.258l0.032 0.004 0.034 0.004c0.074 0.008 0.128 0.014 0.156 0.044 0.072 0.074 -0.016 0.302 -0.326 1.098 -0.45 1.15 -1.36 3.488 -2.922 8.272l-0.012 0.038 -0.008 0.028 0 0.002c-0.068 0.222 -0.128 0.418 -0.492 0.236 -0.36 -0.18 -1.262 -0.59 -2.512 -1.158l-0.002 0 -0.002 -0.002Zm48.294 37.188c0.628 0.238 0.812 0.308 7.04 2.834v0.004l0.056 0.022c0.1 0.04 0.19 0.076 0.266 0.13 0.592 0.412 0.432 1.898 -0.95 14.844l0 0.002 -0.002 0 0 0.002 -0.094 0.886c-0.104 0.968 -0.154 1.65 -0.188 2.12l0 0.002c-0.072 0.982 -0.074 1.028 -0.374 0.796 -4.988 -3.862 -8.526 -5.612 -10.564 -6.622 -1.496 -0.74 -2.18 -1.078 -2.036 -1.558 2.57 -8.506 3.184 -12.174 3.436 -13.682 0.116 -0.682 0.156 -0.92 0.27 -0.964 0.06 -0.024 0.144 0.01 0.27 0.06l0.024 0.01c1.96 0.776 2.48 0.974 2.846 1.114Zm8.61 -13.424c0.038 0.09 0.036 0.198 0.032 0.344 0 0.046 -0.002 0.096 -0.002 0.15v0.004c0 0.04 -0.224 6.562 -0.402 9.404 -0.074 1.122 -0.128 2.036 -0.174 2.782 -0.148 2.414 -0.184 3.034 -0.36 3.076 -0.06 0.014 -0.136 -0.042 -0.24 -0.116l-0.026 -0.02c-3.1 -2.058 -6.398 -3.804 -9.842 -5.214 -0.574 -0.258 -0.516 -0.426 -0.408 -0.73 0.058 -0.162 0.13 -0.364 0.126 -0.638 0 0 1.314 -9.082 1.4 -11.23 0.004 -0.11 0 -0.208 -0.002 -0.298 -0.006 -0.19 -0.01 -0.33 0.058 -0.412 0.186 -0.226 0.922 -0.002 3.702 0.846l0.002 0c0.91 0.276 2.04 0.622 3.44 1.038 0.238 0.072 0.456 0.136 0.656 0.194 1.528 0.452 1.936 0.572 2.04 0.82Zm-9.708 -5.23c0.016 -0.43 0.008 -0.862 -0.02 -1.292 0.41 -5.372 0.296 -8.54 0.23 -10.344 -0.072 -1.996 -0.082 -2.318 0.744 -2.102 2.014 0.524 3.468 0.906 4.552 1.19l0.01 0.002c2.25 0.59 2.896 0.76 3.612 0.914 0.618 0.132 0.618 0.166 0.618 1.288 0 0.352 0 0.81 0.02 1.41 0.166 2.27 0.18 4.55 0.044 6.822 -0.028 1.854 -0.026 3.144 -0.024 4.032 0.004 1.422 0.004 1.818 -0.126 1.866 -0.05 0.018 -0.118 -0.014 -0.214 -0.058l-0.046 -0.022c-3.99 -1.838 -6.43 -2.476 -7.822 -2.838 -1.154 -0.302 -1.584 -0.414 -1.578 -0.868Zm7.58 -26.934c0.394 2.204 1.92 10.806 1.978 13.042h-0.004c0.002 0.054 0.006 0.106 0.008 0.158 0.026 0.504 0.044 0.842 -0.39 0.626 -4.072 -1.984 -6.254 -2.26 -7.466 -2.412 -0.582 -0.074 -0.942 -0.12 -1.178 -0.314 -0.376 -0.308 -0.442 -0.994 -0.612 -2.776 -0.066 -0.68 -0.146 -1.518 -0.266 -2.558 -0.376 -3.276 -0.808 -5.172 -1.052 -6.256 -0.306 -1.344 -0.326 -1.434 0.398 -1.356 2.52 0.266 4.278 0.402 5.508 0.498 1.994 0.154 2.61 0.2 2.854 0.526 0.108 0.146 0.142 0.348 0.19 0.638l0.014 0.076 0.018 0.108Zm-77.068 25.11c-0.034 -0.252 -0.074 -0.548 -0.142 -0.91l-0.004 0.004c-0.016 -0.18 -0.034 -0.338 -0.048 -0.472 -0.042 -0.372 -0.064 -0.572 0.002 -0.606 0.076 -0.04 0.27 0.142 0.692 0.536 0.92 0.864 2.92 2.742 7.132 5.522 2.152 1.424 9.784 6.272 12.094 6.654 0.45 0.072 0.424 0.242 0.29 1.068 -0.066 0.42 -0.162 1.01 -0.234 1.84 -0.124 1.408 -0.2 2.898 -0.264 4.154 -0.078 1.546 -0.14 2.742 -0.25 3.014 -0.316 -0.206 -0.884 -0.824 -2.068 -2.112 -2.274 -2.478 -6.826 -7.434 -16.23 -16.688 -0.81 -0.796 -0.86 -1.17 -0.97 -2.004Zm72.464 -38.494c1.778 3.536 3.18 7.248 4.182 11.076l-0.004 0.004c-0.23 0.028 -1.098 -0.15 -2.216 -0.378 -2.246 -0.458 -5.5 -1.122 -6.634 -0.748 -0.31 0.104 -0.43 -0.088 -0.51 -0.414 -0.552 -1.956 -1.27 -3.86 -2.148 -5.692 -0.256 -0.612 -0.228 -0.62 0.448 -0.82 0.594 -0.172 1.686 -0.494 3.524 -1.496 1.062 -0.58 1.756 -1.038 2.226 -1.348 0.78 -0.516 0.938 -0.622 1.132 -0.184Zm-65.968 -50.084c-9.148 -0.676 -8.544 -7.27 -6.688 -5.572 0.726 0.9832 1.646 1.807 2.704 2.4204 1.058 0.6132 2.23 1.0032 3.444 1.1456 1.81 0.4148 3.706 0.2032 5.38 -0.6 0.564 -0.326 0.744 -0.018 0.542 0.246 -0.66 0.775 -1.488 1.39 -2.42 1.7988 -0.932 0.4088 -1.944 0.6006 -2.962 0.5612Zm0.41 -31.9358c0.622 0.382 0.546 -0.614 0.534 -0.382 0.092 -2.882 -4.736 -4.252 -7.172 -2.72 -1.548 0.976 -1.038 1.904 -0.334 1.8 0.46 -0.068 0.854 -0.1404 1.206 -0.2048 1.892 -0.3474 2.562 -0.47 5.766 1.5068Zm-6.618 5.4794c0.788 -0.144 1.938 1.388 0.844 3.68 -0.088 0.1604 -0.216 0.2942 -0.372 0.3874 -0.158 0.0932 -0.336 0.1426 -0.518 0.1426 -0.184 0 -0.362 -0.0494 -0.52 -0.1426 -0.156 -0.0932 -0.284 -0.227 -0.372 -0.3874 -0.646 -1.24 -0.482 -3.42 0.938 -3.68Zm14.048 -24.8854c-0.506 0.3794 -0.25 0.572 0.46 1.1062 0.93 0.6994 2.64 1.9846 4.436 5.0418 2.692 4.5822 3.894 8.6256 4.862 11.8756 1.068 3.593 1.848 6.216 4.032 7.5244 2.17 1.3 3.406 1.9174 4.384 2.4064 0.756 0.377 1.356 0.6776 2.116 1.1556 1.834 1.116 3.526 2.4496 5.038 3.972 0.218 0.09 0.584 0.028 0.442 -0.35 -0.916 -1.3776 -2.048 -2.5992 -3.352 -3.618 -2.658 -1.9188 -5.428 -3.6798 -8.294 -5.274 -1.21 -0.8336 -2.06 -3.54 -3.11 -6.876 -1.908 -6.0596 -4.468 -14.1972 -11.014 -16.964Zm28.152 19.0372c2.908 1.3784 5.102 2.419 7.034 4.5624 7.32 8.124 -2.314 22.016 -1.884 19.178 0.016 -0.1086 0.15 -0.4138 0.352 -0.8758l0 -0.0004 0 -0.0002c1.266 -2.894 5.224 -11.9398 0.02 -17.3976 -1.962 -2.0584 -4.192 -3.18 -6.278 -4.2286 -3.802 -1.9124 -7.122 -3.5816 -7.448 -10.2454 -0.002 -0.0466 0.036 -0.0966 0.076 -0.1468 0.018 -0.0232 0.036 -0.0464 0.05 -0.0692 0.13 0.1044 0.294 0.5438 0.53 1.1722l0 0.0002c0.684 1.8374 1.972 5.2904 4.804 6.7196 0.984 0.4968 1.894 0.9286 2.744 1.3316Zm23.374 69.9026 -0.002 0.004 0 0.002c-0.3 1.956 -0.482 3.146 -2.442 4.94 -0.388 0.356 -0.718 0.62 -0.978 0.83 -0.584 0.47 -0.822 0.66 -0.602 0.97 0.552 0.776 5.27 -1.962 5.676 -7.056 0.3 -3.756 -1.798 -6.04 -3.77 -8.186 -1.69 -1.838 -3.29 -3.578 -3.206 -6.0582 0.02 -0.616 -0.876 -0.6 -1.024 0.8682 -0.25 2.51 1.362 4.314 3.042 6.194 1.666 1.864 3.4 3.804 3.45 6.582 -0.054 0.322 -0.1 0.624 -0.144 0.91Zm-26.524 -84.3c-1.596 -0.1282 -3.182 -0.3674 -4.744 -0.716 -0.824 -0.742 5.662 -1.354 11.366 1.404 6.706 3.248 12.118 13.448 10.168 12.048 -0.69 -0.4946 -1.36 -1.3988 -2.19 -2.5192 -2.32 -3.1286 -5.89 -7.9414 -14.6 -10.2168Zm19.552 58.7964c-0.12 -1.6606 -0.734 -3.2472 -1.764 -4.556 -1.24 -1.5082 -3.192 -1.8534 -5.19 -2.2066 -2.71 -0.479 -5.502 -0.9728 -6.712 -4.4034 -0.072 -0.2048 -0.126 -0.3654 -0.17 -0.492 -0.12 -0.3518 -0.15 -0.4408 -0.212 -0.4884 -0.022 -0.0162 -0.046 -0.0276 -0.08 -0.0428 -0.04 -0.0184 -0.092 -0.0422 -0.164 -0.0868 -0.028 0.0518 -0.056 0.0868 -0.078 0.1172 -0.11 0.14 -0.146 0.1864 0.106 1.3508 0.866 4.0082 3.884 4.6952 6.792 5.3566 2.916 0.6638 5.72 1.3018 6.122 5.2434 0.098 0.9522 -0.02 1.9142 -0.346 2.8144 -0.324 0.9004 -0.848 1.7158 -1.532 2.3856 -0.808 1.118 3.12 -0.08 3.228 -4.992Zm-13.324 7.45c2.988 2.8576 4.982 4.7656 5.066 9.2296 -0.18 2.098 -0.93 4.108 -2.166 5.814 -0.534 0.866 -2.216 1.71 -0.382 -1.866 0.864 -1.894 1.142 -4.002 0.8 -6.054 -0.76 -2.3 -1.46 -3.1532 -3.07 -5.1158 -0.472 -0.5736 -1.02 -1.2416 -1.67 -2.0684 -0.688 -0.878 -0.086 -1.396 0.24 -1.078 0.408 0.3996 0.802 0.7766 1.182 1.1386Zm22.254 -14.5868c-2.426 -7.448 -13.152 -8.682 -9.352 -6.736 3.948 2.02 6.864 3.768 8.31 8.022 0.074 0.2174 0.132 0.4124 0.184 0.5836l0 0.0002c0.168 0.5658 0.26 0.8734 0.592 0.8842 0.768 0.026 0.514 -2.02 0.266 -2.754Zm-61.724 28.7304c-0.036 -0.314 -0.066 -0.592 -0.1 -0.808 0.184 -2.892 1.158 -5.676 2.818 -8.05 0.754 -1.2542 1.304 -0.784 0.354 1.026 -0.63 1.398 -1.09 2.866 -1.366 4.374 -0.388 2.006 -0.51 4.054 -0.366 6.092 0.006 0.308 0.084 0.548 0.16 0.78 0.084 0.258 0.166 0.504 0.138 0.82 -1.192 -0.214 -1.466 -2.674 -1.638 -4.234Z"
                clip-rule="evenodd" stroke-width="1"></path>
        </g> 
    </g>
</svg>