<svg xmlns="http://www.w3.org/2000/svg" fill="none" viewBox="0 0 599 599"
    id="Team-Building-5--Streamline-Milano" height="599" width="599">
    <g id="Team-Building-5--Streamline-Milano">
        <g id="elements">
            <path id="vector" fill="#111112"
                d="M345.29954000000004 25.216881700000002c-0.44326 -1.5184650000000002 -2.16838 -0.5780350000000001 -1.81497 1.0782 0.90449 4.2500248 10.473515 52.089159800000004 14.38798 49.615289800000006 1.5753700000000002 -0.97038 0.66489 -5.44491 -12.570015000000001 -50.69648480000001l-0.0029950000000000003 0.0029950000000000003Z"
                stroke-width="1"></path>
            <path id="vector_2" fill="#111112"
                d="M404.86709500000006 29.0099893c-0.07787 -0.25158 -0.35041500000000003 -0.380365 -0.5900150000000001 -0.28752 -2.3960000000000004 0.913475 -21.965329999999998 44.0323702 -21.701770000000003 45.5238802 0.37138 1.8958350000000002 2.0455850000000004 1.9108100000000001 2.806315 0.8565699999999999 1.7041549999999999 -2.357065 20.087465 -44.12234 19.485470000000003 -46.092930200000005Z"
                stroke-width="1"></path>
            <path id="vector_3" fill="#111112"
                d="M442.580135 77.749002c-0.362395 -0.49118000000000006 -0.709815 -0.52712 -10.323765 3.85157 -25.00825 11.383995 -30.845505 13.441560000000003 -27.113735000000002 15.621920000000001 2.6895100000000003 1.54542 35.69441 -16.894795000000002 37.3177 -18.706770000000002 0.33843500000000004 -0.37737000000000004 0.19467500000000001 -0.661895 0.1198 -0.7667200000000001Z"
                stroke-width="1"></path>
            <path id="vector_4" fill="#111112"
                d="M336.62901500000004 85.0343395c-0.58103 -0.781695 -5.927105 -5.262215 -9.101805 -8.18833 -20.111425 -18.577985 -23.280135 -23.328055 -24.454175 -22.62423 -0.40133 0.2396 -0.24858500000000003 0.7547400000000001 -0.19767 0.925455 0.48519 1.6322750000000001 22.78596 26.688444999999998 32.633520000000004 32.121375 1.464555 0.8116450000000001 2.087515 -0.91647 1.12013 -2.23427Z"
                stroke-width="1"></path>
        </g>
        <g id="box 1">
            <path id="vector_5" fill="#111112"
                d="M293.267405 565.081625c0.176705 -0.7876850000000001 0.374375 -1.6442550000000002 0.584025 -2.5757 -14.343055 0.12878499999999998 -34.822865 0.31148 -54.820479999999996 0.48519 -0.34442500000000004 1.10815 -0.649915 2.051575 -0.9314450000000001 2.85723 21.35435 -0.260565 41.082415000000005 -0.52712 55.16790000000001 -0.7667200000000001Z"
                stroke-width="1"></path>
            <path id="vector_6" fill="#111112"
                d="M312.42642 445.25766500000003c0.15873500000000001 4.24691 0.314475 9.071855 0.46123000000000003 14.56768 0.8356050000000002 0.0059900000000000005 1.758065 0.020965 2.7823550000000004 0.047920000000000004l0.02995 0c-0.14675500000000002 -5.05556 -0.31747000000000003 -9.958375 -0.518135 -14.624585 -0.86256 0 -1.782025 0.0059900000000000005 -2.7554000000000003 0.008985Z"
                stroke-width="1"></path>
            <path id="vector_7" fill="#111112"
                d="M316.191135 483.132435c-0.062895 -4.387675000000001 -0.140765 -8.76337 -0.23361 -13.07617 -0.7757050000000001 0.0029950000000000003 -1.7041549999999999 0.008985 -2.824285 0.011980000000000001 0.056905 2.674535 0.11381 5.48085 0.164725 8.42194 0.6768700000000001 1.6232900000000001 1.45557 3.561055 2.3390950000000004 5.87619 0.10782 -0.12279500000000002 0.302495 -0.572045 0.55108 -1.236935l0.0029950000000000003 0.0029950000000000003Z"
                stroke-width="1"></path>
            <path id="vector_8" fill="#111112"
                d="M309.817775 410.17124c0.023960000000000002 0.05091500000000001 0.02995 0.242595 0.038935 0.45524 0.13777 3.1327700000000003 1.159065 4.88784 2.147415 24.822560000000003 0.89251 -0.014975 1.79101 -0.02995 2.692505 -0.044925 -0.661895 -11.647555 -1.54542 -21.04287 -2.704485 -26.403920000000003 -0.16772 -0.74875 -0.68286 -1.10815 -1.3207950000000002 -1.1650550000000002 -1.88086 -0.296505 -4.12711 -0.5570700000000001 -6.681845 -0.7876850000000001 -9.314749500000001 0.6559050000000001 -21.2108895 1.2189649999999999 -34.493714499999996 1.710145 12.579 0.22762 23.974975000000004 0.673875 39.833799500000005 1.356735 0.39833500000000005 0.014975 0.48818500000000004 0.056905 0.48818500000000004 0.056905Z"
                stroke-width="1"></path>
            <path id="vector_9" fill="#111112"
                d="M315.771835 521.71702c-0.77271 2.6236200000000003 -1.5004950000000001 5.112465 -2.18635 7.481510000000001 -0.224625 13.348715 -0.7008300000000001 17.523745 -0.46123000000000003 28.961650000000002 0.044925 2.2192950000000002 0.07787 3.8455800000000004 -0.1198 4.16904 -0.5780350000000001 0.0059900000000000005 -3.680855 0.03594 -8.592655 0.080865 -0.22762 0.89251 -0.43727 1.716135 -0.62895 2.47387 6.4662049999999995 -0.13777 10.395645 -0.26356 10.87185 -0.368385 0.5990000000000001 -0.12878499999999998 0.9584 -0.5900150000000001 0.9883500000000001 -1.260895 0.39833500000000005 -8.412955 0.6978350000000001 -24.714740000000003 0.751745 -43.79289 -0.170715 0.64093 -0.37138 1.404655 -0.62296 2.255235Z"
                stroke-width="1"></path>
            <path id="vector_10" fill="#111112"
                d="M226.34413 563.098935c-26.817230000000002 0.22762 -50.040459999999996 0.41031500000000004 -52.4125 0.380365 -2.9261150000000002 -4.962715 -3.579025 -98.197065 -3.56405 -106.493215 0.062895 -37.716035 -0.649915 -43.065105 -0.90449 -45.820505 -0.751745 0.011980000000000001 -1.5004950000000001 0.026955 -2.243255 0.038935 0.110815 15.96335 -0.28452500000000003 132.813275 3.998325 152.39159 -4.7201200000000005 0.09584000000000001 -63.395165000000006 0.7457550000000001 -63.395165000000006 0.7457550000000001 -0.026955 -0.04193 -0.068885 -0.20366000000000004 -0.10782 -0.35041500000000003 -0.43427499999999997 -1.638265 -0.242595 -2.46189 -0.37138 -4.0612200000000005 -3.6688750000000003 -45.766595 -5.196325000000001 -140.28580000000002 -2.9920050000000002 -144.29011500000001 6.3074699999999995 -1.530445 16.34072 -2.806315 26.55966 -3.7946649999999997 -4.03127 0.080865 -7.418615 0.15574 -10.021270000000001 0.23061500000000001 -0.7996650000000001 0.023960000000000002 -1.428615 -0.056905 -2.0965 -1.5004950000000001 -4.53443 0.68286 -9.392320000000002 1.52745 -14.54971 2.578695 -3.513135 0.7128099999999999 -2.52778 3.357395 -2.7733700000000003 6.505140000000001 -0.15873500000000001 2.0575650000000003 -0.50316 4.1570599999999995 -0.58103 6.19965 -0.326455 8.365035 -0.6589 59.423795000000005 -0.098835 66.10564 0.422295 4.992665000000001 2.081525 67.1479 4.860885000000001 74.314935 0.28153 0.7337750000000001 0.362395 0.9434250000000001 3.009975 0.9434250000000001 0.16772 0 61.38252500000001 -0.5780350000000001 117.03561499999999 -1.23394 0.18868500000000002 -0.91048 0.40432500000000005 -1.87487 0.643925 -2.89916l0.0029950000000000003 0.008985Z"
                stroke-width="1"></path>
        </g>
        <g id="box 2">
            <path id="vector_11" fill="#111112"
                d="M267.16598 406.66110000000003c-8.41595 0.33843500000000004 -18.248535 0.721795 -29.731365 1.159065 -1.033275 -5.082515000000001 -1.278865 -107.008355 -7.2568850000000005 -147.6759625 -0.21564 -1.470545 -1.03627 -6.160715 -1.03627 -6.160715 1.3956700000000002 0.044925 4.537425 0.092845 8.760375 0.152745 -5.09749 -0.8146400000000001 -11.01561 -1.799995 -17.87416 -2.995 -20.360010000000003 0.07188 -41.621515 0.542095 -60.310315 1.6232900000000001 -44.146300000000004 2.55773 -43.798880000000004 2.4319400000000004 -44.317015000000005 7.736085000000001 -2.35407 23.977970000000003 -2.52179 62.5580625 -1.5753700000000002 94.6195375l2.836265 -0.45524c-1.12013 -37.09008 -0.91048 -81.4894575 1.488515 -93.91571250000001 0.25756999999999997 -1.34775 0.40133 -2.09051 3.3484100000000003 -2.482855 28.66215 -3.8216200000000002 89.9698 -4.992665000000001 103.23166000000002 -4.106145 1.3777000000000001 0.08985 1.8449200000000001 0.1198 2.183355 2.560725 0.709815 5.1064750000000005 1.6682150000000002 10.395645 1.98269 15.687810000000002 3.7227850000000005 61.578697500000004 4.99566 130.30196750000002 4.39666 135.45935749999998 -25.66116 0.49717000000000006 -80.969825 0.72479 -111.88721 1.6712100000000003 -1.6861849999999998 -0.470215 -3.1207900000000004 -16.116095 -4.08518 -37.20988l-2.79733 1.224955c0.86256 18.22757 2.093505 32.067465000000006 3.411305 36.032845 0.8146400000000001 2.452905 1.5753700000000002 2.94109 2.830275 2.94109 0.7667200000000001 0 0.01797 -0.092845 37.488414999999996 -0.7337750000000001 32.510725 -0.5570700000000001 75.363185 -1.290845 109.47923000000002 -2.5158 -0.170715 -0.7966700000000001 -0.35640499999999997 -1.6682150000000002 -0.56306 -2.620625l-0.0029950000000000003 0.0029950000000000003Z"
                stroke-width="1"></path>
            <path id="vector_12" fill="#111112"
                d="M315.05603 367.231925c0.48219500000000004 14.699460000000002 0.715805 27.718725000000003 0.69484 36.60489 -0.4792 0.43427499999999997 -4.809970000000001 0.87454 -22.447525000000002 1.70116 -0.080865 0.91647 -0.15574 1.797 -0.22762 2.6326050000000003 9.42826 -0.5091500000000001 17.284145 -1.08419 22.836875 -1.7370999999999999 2.3361 -0.272545 2.530775 -1.5334400000000001 2.56971 -8.502805 0.04193 -7.412625 -0.05391 -16.80195 -0.314475 -27.305415000000004 -1.123125 -1.1710450000000001 -2.159395 -2.30615 -3.1148000000000002 -3.39633l0.0029950000000000003 0.0029950000000000003Z"
                stroke-width="1"></path>
        </g>
        <g id="stairs">
            <path id="vector_13" fill="#111112"
                d="M401.00055 566.7139c-0.94642 -3.4532350000000003 -32.0465 -98.64931000000001 -44.287065000000005 -122.744085 0.29351000000000005 -2.25224 0.691845 -8.640575 -1.58136 -8.736415 -26.071475 -1.0153050000000001 -60.552910000000004 0.12579 -77.12724 0.67088 -14.079495 0.46722 -11.485825 -1.111145 -11.057540000000001 8.412955 0.047920000000000004 1.00632 -0.11381 1.8628900000000002 -0.518135 2.776365 -9.706795000000001 22.145030000000002 -35.913045 93.56979000000001 -41.339985000000006 119.65923500000001 -0.34442500000000004 1.6562350000000001 -0.58103 2.55174 1.06023 3.237595 1.782025 0.7457550000000001 6.708800000000001 0.889515 7.532425000000001 0.8685499999999999 3.9773600000000005 -0.044925 3.98335 -2.0395950000000003 8.33209 -16.0532 0.88652 -2.8422549999999998 16.721085000000002 1.254905 48.791545000000006 1.10815 1.021295 0 3.896495 -0.19467500000000001 4.1390899999999995 -0.314475 0.05091500000000001 0.182695 -0.566055 2.482855 -0.8595649999999999 3.80365 -3.7766949999999997 17.146375 -4.195995 15.013935 6.541080000000001 15.061855 1.23993 0 1.260895 -0.08985 2.656565 -5.717455 5.24125 -21.153685 13.905785 -50.510675 14.028580000000002 -50.81317000000001 0.925455 1.578365 15.678825000000002 46.787890000000004 15.77167 47.09338 0.374375 1.26389 1.0153050000000001 1.72512 2.5397600000000002 1.82695 0.8356050000000002 0.05091500000000001 7.34374 0.10782 8.191324999999999 0.008985 0.41930000000000006 -0.047920000000000004 0.93444 -0.16173 1.224955 -0.61098 0.5570700000000001 -0.8685499999999999 -0.10183000000000002 -2.25224 -1.1650550000000002 -5.8791850000000005 -0.76073 -2.602655 -2.95906 -9.67984 -3.8096400000000004 -11.563695000000001 0.58103 -0.1198 42.654790000000006 -1.925785 43.023175 -1.752075 0.12579 0.50316 5.414960000000001 16.32874 5.6156250000000005 16.924745 0.7996650000000001 2.39001 1.6232900000000001 4.872865 3.4412550000000004 4.863880000000001 6.568035 -0.03594 8.15239 0.26356 8.79332 -0.566055 0.33843500000000004 -0.440265 0.212645 -1.0392649999999999 0.06589 -1.5663850000000001h-0.0029950000000000003Zm-21.986295000000002 -30.785605c-23.825225 1.195005 -34.55631 1.80898 -39.129675 2.24026 -3.5670450000000002 0.33544 -3.57004 0.326455 -3.73177 -0.10183000000000002l-6.2385850000000005 -17.17333c-0.6858550000000001 -1.9108100000000001 8.55372 -0.25457500000000005 43.307700000000004 -2.73144 0.43427499999999997 0.44925 0.7457550000000001 1.52146 4.088175000000001 11.366025 2.4379299999999997 7.188 2.12645 6.382345 1.7041549999999999 6.40331v-0.0029950000000000003Zm-54.64677 -40.375595000000004c0.6768700000000001 -2.207315 0.70682 -2.3121400000000003 1.20998 -2.3121400000000003 0 0 33.379275 -0.8146400000000001 34.57428 -0.88053 5.130435 -0.28452500000000003 3.9234500000000003 -0.28452500000000003 5.49882 4.091170000000001 1.6292800000000003 4.501485 3.8216200000000002 10.323765 4.0133 11.08749 -5.364045 0.152745 -22.91175 0.9584 -37.67111 1.95873 -6.058885000000001 0.41031500000000004 -6.067869999999999 0.37138 -6.22361 -0.06589 -3.7048150000000004 -10.52443 -3.7437500000000004 -6.202645 -1.4016600000000001 -13.87883Zm-24.202595 76.669005c-0.170715 0.086855 -2.4169650000000003 -0.14975000000000002 -4.172035 -0.26955 -1.398665 -0.08985 -1.859895 0 -2.159395 -0.0599 -1.4915100000000001 -4.154065 27.99127 -99.69756 36.607885 -125.451565 0.22762 -0.68286 0.15574 -0.709815 1.4915100000000001 -0.709815 4.66621 0 5.99599 -0.062895 6.142745000000001 0.152745 0.140765 0.20665500000000003 -0.332445 1.380695 -0.8326100000000001 2.6236200000000003 -5.64857 13.959695 -31.714055000000002 94.84566 -37.075105 123.71746l-0.0029950000000000003 -0.0029950000000000003Zm19.584305 -101.69822c-0.625955 2.13244 -3.04292 10.042235000000002 -4.064215 12.707785000000001 -3.4232850000000004 -8.844235 -5.11546 -11.743395 -5.304145 -12.689815000000001 0.27853500000000003 -0.026955 9.017945000000001 -0.04193 9.371355000000001 -0.014975l-0.0029950000000000003 -0.0029950000000000003ZM242.95440000000002 551.753875c0.8595649999999999 -2.776365 1.86888 -6.586005 2.0276150000000004 -6.708800000000001 0.062895 -0.011980000000000001 0.29351000000000005 0.038935 0.41930000000000006 0.068885 1.9707100000000002 0.464225 38.76728000000001 0.84459 51.58588 2.428945 -0.715805 2.830275 -1.08419 3.980355 -1.326785 5.184345 -1.5184650000000002 2.470875 -42.526005 -2.0575650000000003 -52.70601 -0.9733750000000001Zm32.780275 -106.00503c-0.5001650000000001 4.082185 -20.374985 50.690375 -38.38392 115.26557 -2.3510750000000002 8.424935000000001 -1.98269 7.67319 -4.40864 7.57136 -0.757735 -0.032945 -5.543745 -0.40432500000000005 -5.82827 -0.7787000000000001 -0.07787 -0.29950000000000004 0.13777 0.026955 5.010635000000001 -16.727075 4.8249450000000005 -16.589305 9.38034 -32.259145000000004 35.439835 -100.35047 2.135435 -5.600650000000001 -0.302495 -4.980685 8.17036 -4.980685Zm-6.118785000000001 24.708750000000002c0.308485 -0.889515 0.39234500000000005 -1.0302799999999999 0.967385 -0.979365 0.10482500000000002 0.008985 17.70644 0.9853550000000001 25.472475000000003 1.051245 3.5341 0.04193 1.89284 0.362395 8.58966 15.457194999999999 0.6019950000000001 1.3537400000000002 1.05424 2.37204 1.123125 2.758395 -0.098835 0.0059900000000000005 -38.08442 -2.15041 -41.843145 -1.94076 0.164725 -0.89251 1.05424 -2.986015 5.6905 -16.34671Zm-6.2206150000000004 18.83855c20.0066 1.075205 32.354985000000006 1.638265 39.74365 1.77304 11.383995 0.20665500000000003 10.641235 0.20965000000000003 9.371355000000001 3.2585600000000006 -0.308485 0.739765 -0.6858550000000001 1.6532400000000003 -1.04825 2.7434200000000004 -2.3690450000000003 1.464555 -45.275415 -0.50316 -50.699360000000006 -1.428615 2.117465 -6.334425000000001 2.08452 -6.373360000000001 2.6326050000000003 -6.346405000000001Zm7.49948 -22.333715c0.18868500000000002 -0.6978350000000001 1.1560700000000002 -3.159725 1.782025 -4.950735 1.782025 -1.5693800000000002 36.847485000000006 -0.5780350000000001 49.714005 0.35341 -1.12612 3.40232 -1.428615 4.279855 -1.6322750000000001 5.12744 -3.0189600000000003 1.5094800000000002 -49.540295 -0.542095 -49.863755000000005 -0.530115Zm3.0549 -8.35605c0.10482500000000002 -0.302495 4.16904 -10.88982 4.4475750000000005 -12.378335 0.13178 -0.691845 -0.03594 -0.28153 8.847230000000001 -0.542095 0.9733750000000001 -0.026955 0.6978350000000001 0.41331000000000007 6.0978200000000005 13.02226 -0.29950000000000004 0.01797 -18.77865 0.08386 -19.392625 -0.10183000000000002Zm-15.8735 66.168535v-0.062895c-3.6898400000000002 0 -6.3494 0.07787 -7.014290000000001 -0.011980000000000001 2.3301100000000003 -7.155055 1.9617250000000002 -6.75672 2.41996 -6.51113 0 0 40.315695000000005 0.673875 51.109675 1.46156 -0.260565 1.045255 -0.50316 1.5903450000000001 -1.6682150000000002 5.981015 -3.1986600000000003 0.89251 -42.7686 -1.16805 -44.84713 -0.8565699999999999Zm-4.112135 -8.964034999999999c0.11381 -0.7996650000000001 0.661895 -2.111475 5.93609 -17.559685 0.29950000000000004 -0.19767 22.818905 1.063225 23.118405000000003 1.0782 3.0339349999999996 0.16772 26.541690000000003 0.9613950000000001 27.30242 0.89251 0.20665500000000003 0.49417500000000003 -0.907485 3.37836 -4.85789 16.394630000000003 -0.422295 1.392675 -0.20366000000000004 0.49118000000000006 -8.616615 0.18868500000000002 -32.328030000000005 -1.159065 -26.598595000000003 -1.00632 -42.88241 -0.9943400000000001Zm-8.275185 26.604584999999997c4.112135 -14.882155000000001 4.32478 -15.624915 5.2712 -15.48415 4.18701 0.62296 47.10536 0.8985 50.99287 2.04259 -1.03627 3.7916700000000003 -2.710475 10.108125000000001 -4.279855 15.756695 -4.166045 0.12279500000000002 -43.741975000000004 -2.165385 -46.02716 -1.799995v-0.07188c-7.107135000000001 0 -6.139749999999999 0.224625 -5.957055 -0.440265v-0.0029950000000000003Zm64.66205000000001 -83.042365c-6.735755 0.011980000000000001 -4.9746950000000005 0.032945 -8.916115 -8.403970000000001 -1.482525 -3.1747 -2.17437 -4.615295 -2.398995 -5.2382550000000005 31.881775 -0.07787 29.120385000000002 -0.17371 28.886775 0.5001650000000001 -1.2698800000000001 3.5400899999999997 -3.2046500000000004 8.667530000000001 -4.537425 13.1181 -0.25158 0.8086500000000001 -0.727785 0.0029950000000000003 -13.034240000000002 0.023960000000000002Zm29.542680000000004 -11.491815c0.913475 -2.997995 0.57504 -1.9647200000000002 5.22328 -2.18635 2.0695449999999997 -0.10482500000000002 1.476535 -0.34742 5.486840000000001 10.212950000000001 0.314475 0.8266200000000001 0.56306 1.4675500000000001 0.643925 1.782025 -12.935405000000001 0.631945 -14.411940000000001 0.691845 -14.507780000000002 0.67088 -0.38336000000000003 -0.0029950000000000003 -0.5690500000000001 0.518135 0.8326100000000001 -3.5251150000000004 1.0153050000000001 -2.92911 1.692175 -4.878855000000001 2.3211250000000003 -6.95439Zm14.41793 -10.383665c0.24858500000000003 0.242595 0.26356 2.117465 0.27554 3.770705 0.008985 1.506485 -0.18569 1.5244550000000001 -1.2698800000000001 1.6232900000000001 -10.898805 1.0003300000000002 -22.75601 0.36539 -83.40775500000001 0.5870200000000001 -0.50316 0 -0.73677 -0.21564 -0.7966700000000001 -0.73677 -0.242595 -2.177365 -0.452245 -4.055230000000001 -0.37737000000000004 -4.27686l85.57613500000001 -0.967385Zm-25.795935 44.957945c0.044925 -0.66489 1.0093150000000002 -3.3394250000000003 2.4259500000000003 -7.6701950000000005 2.518795 -7.69715 -0.781695 -5.286175 14.873170000000002 -5.998985 9.407295 -0.43427499999999997 9.293485 -1.105155 9.670855000000001 -0.086855 4.375695 11.77634 4.657225 12.264524999999999 4.88185 13.103125 -31.863805 -0.032945 -21.800605 0.40732000000000007 -31.851825 0.65291Z"
                stroke-width="1"></path>
        </g>
        <g id="person 1">
            <path id="vector_14" fill="#111112"
                d="M64.62611 286.1593715c-1.897033 -3.1947665 -3.07287 -4.8557935 -3.52811 -4.98368 -0.97038 -0.26955 -1.56339 0.25756999999999997 -1.4585650000000001 1.3118100000000001 0.038935 0.42828499999999997 2.38402 4.082185 2.440925 4.405645000000001 -0.12579 0.19767 -1.069215 0.57504 -2.61763 1.794005 -1.0183000000000002 0.8056550000000001 0.05391 2.12645 0.9823600000000001 1.8569 3.02495 -0.85058 3.6898400000000002 -1.8119750000000001 4.35473 -3.1806900000000002 0.07487500000000001 -0.14675500000000002 -0.0029950000000000003 -0.925455 -0.17371 -1.2039900000000001Z"
                stroke-width="1"></path>
            <path id="vector_15" fill="#111112"
                d="M63.33227 294.14374200000003c-1.596335 0.8565699999999999 -4.219955000000001 -2.063555 -5.423945 0.76073 -1.40765 3.2945 4.3727 7.123308000000001 5.42694 4.321785 0.18868500000000002 -0.47620500000000004 -0.25457500000000005 -0.739765 -1.578365 -1.52146 -0.7128099999999999 -0.422295 -0.6768700000000001 -0.31747000000000003 -1.29983 -1.392675 0.308485 0.05091500000000001 0.781695 0.176705 1.266885 0.302495 0.10782 0.03594 0.22762 0.02995 0.32346 -0.008985 1.4016600000000001 -0.42529 1.907815 -0.440265 2.297165 -1.1980000000000002 0.380365 -0.7337750000000001 -0.39534 -1.58735 -1.01231 -1.26389Z"
                stroke-width="1"></path>
            <path id="vector_16" fill="#111112"
                d="M55.9858345 277.50352200000003c-0.07487500000000001 -0.212645 -0.236605 -0.24858500000000003 -0.42828499999999997 -0.362395 -0.19467500000000001 -0.110815 -0.41630500000000004 -0.23361 -0.691845 -0.25158 -0.7966700000000001 -0.056905 -2.28219 0.464225 -3.129775 1.488515 -0.548085 0.661895 -0.73677 1.440595 -0.54509 2.255235 0.068885 0.28153 0.30549 0.43128 0.49417500000000003 0.554075 0.09584000000000001 0.0599 0.2396 0.170715 0.2396 0.170715 0.14975000000000002 0.07487500000000001 0.32945 0.062895 0.46722 -0.03594 0.691845 -0.52113 3.8935000000000004 -3.0009900000000003 3.596995 -3.81563l-0.0029950000000000003 -0.0029950000000000003Z"
                stroke-width="1"></path>
            <path id="vector_17" fill="#111112"
                d="M58.59717500000001 276.7179335c0.35341 0 0.5391 -0.12279500000000002 1.290845 -0.43427499999999997 1.572375 -0.6559050000000001 2.225285 -0.9224600000000001 2.24625 -1.52146 0.01797 -0.52712 -0.554075 -0.8595649999999999 -1.195005 -1.1800300000000001 -0.40732000000000007 -0.20665500000000003 -2.243255 -0.08386 -3.2166300000000003 0.9763700000000001 -0.88053 0.9524100000000001 -0.15873500000000001 2.159395 0.87454 2.159395Z"
                stroke-width="1"></path>
            <path id="vector_18" fill="#111112"
                d="M63.979189999999996 279.1085425c-1.32379 -0.823625 -2.225285 0.8116450000000001 -1.596335 2.075535 0.5690500000000001 1.14409 1.89284 1.404655 2.524785 0.266555 0.45524 -0.8116450000000001 -0.23361 -1.9108100000000001 -0.92845 -2.3420900000000002Z"
                stroke-width="1"></path>
            <path id="vector_19" fill="#111112"
                d="M57.848425000000006 283.3464675c-0.218635 -1.24592 -1.5004950000000001 -1.5663850000000001 -2.177365 -0.8386000000000001 -0.72479 0.781695 -0.26955 2.4558999999999997 0.6768700000000001 2.8003250000000004 0.8206300000000001 0.290515 1.776035 -0.42828499999999997 1.4975 -1.9617250000000002h0.0029950000000000003Z"
                stroke-width="1"></path>
            <path id="vector_20" fill="#111112"
                d="M151.67878 353.23629c2.10249 -1.34775 4.073200000000001 -3.854565 1.72512 -4.789005 0.086855 -0.09584000000000001 0.18868500000000002 -0.20665500000000003 0.30549 -0.33843500000000004 1.0003300000000002 -1.141095 0.54509 -2.52778 -0.92845 -2.6146350000000003 -1.817965 -0.08985 -2.22229 0.37138 -6.603975 1.56339 2.572705 -3.549075 2.626615 -3.579025 2.8422549999999998 -4.44458 0.380365 -1.536435 -0.757735 -2.225285 -1.70715 -1.8868500000000001 -2.608645 0.925455 -6.3613800000000005 3.968375 -8.01462 5.346075 0.10183000000000002 -0.40432500000000005 0.182695 -1.0272850000000002 0.068885 -2.18036 -0.080865 -0.8415950000000001 -0.52712 -1.446585 -1.195005 -1.614305 -2.2192950000000002 -0.5690500000000001 -2.76738 2.7284450000000002 -7.91279 9.140740000000001 -0.865555 1.081195 -1.09617 1.01231 -1.6412600000000002 0.8565699999999999 -1.183025 -0.34442500000000004 -1.488515 -0.296505 -9.383335 1.051245 -1.740095 0.296505 -3.0009900000000003 0.506155 -3.2046500000000004 0.386355 -0.04193 -0.0599 -0.062895 -0.326455 -0.080865 -0.55108 -0.5690500000000001 -6.933425 -0.79068 -6.58301 -0.37138 -6.978350000000001 0.368385 -0.34742 0.62296 -0.781695 0 -1.5903450000000001 -4.453565 -5.7504 -20.01858 -19.608265 -34.271785 -28.236860000000004 -8.760375 -5.30115 -13.93873 -5.388005 -16.721085000000002 -5.435925 -1.4016600000000001 -0.023960000000000002 -1.76705 -0.06589 -1.8539050000000001 -0.41331000000000007 -1.1800300000000001 -4.78002 -1.794005 -4.633265 -1.2189649999999999 -4.794995 4.38468 -1.242925 8.52976 -3.357395 9.15871 -10.3665935 0.88652 -9.823599999999999 -3.3064800000000005 -22.902765000000002 -11.623595 -26.90708 -3.6209550000000004 -1.74309 -9.467195 -2.35407 -16.75403 4.624280000000001 -3.3544000000000005 3.213635 -4.076195 8.242239999999999 -2.09051 14.546715 0.13777 0.440265 0.116805 0.46123000000000003 -0.28752 0.7547400000000001 -3.7257800000000003 2.7374300000000003 -1.3687150000000001 8.703470000000001 3.5011550000000002 8.847230000000001 0.73078 0.026955 -0.326455 0.0029950000000000003 -0.31747000000000003 12.0108485 -1.7700449999999999 1.530445 -23.63055 3.9294400000000005 -27.11673 37.853805 -4.160055 40.489405000000005 6.148735 64.17686 7.325770000000001 66.68666999999999 0.218635 1.24592 0.28452500000000003 2.6625550000000002 0.65291 3.8336 0.01797 2.31813 -13.917765000000001 45.946295 -7.92477 125.68817000000001 0.65291 8.67951 0.41930000000000006 9.50613 3.7467449999999998 9.437244999999999 1.35973 -0.02995 1.135105 0.020965 1.9227900000000002 -0.02995 1.123125 -0.08386 1.0302799999999999 0.044925 0.8266200000000001 0.6139749999999999 -0.2396 0.6768700000000001 -0.047920000000000004 0.386355 -0.584025 4.38468 -0.73677 5.46288 -1.0183000000000002 9.69781 4.6123 10.458540000000001 1.43161 0.19467500000000001 21.64786 1.9557350000000002 24.214575000000004 0.5361049999999999 2.554735 -1.40765 2.3211250000000003 -3.8246149999999997 -0.086855 -5.19932 -14.130410000000001 -8.047565 -15.3943 -6.660880000000001 -15.96335 -11.569685 -0.01797 -0.15873500000000001 -0.0599 -0.48818500000000004 -0.10183000000000002 -0.49118000000000006 0.062895 -0.032945 0.31747000000000003 -0.0599 0.61098 -0.09584000000000001 8.215285 -0.94043 6.657885 -0.8356050000000002 8.125435000000001 -4.747075 1.29983 -3.477195 11.455875 -43.202875000000006 14.474835 -50.906015000000004 0.7667200000000001 7.679180000000001 4.639255 50.348945 4.669205 50.7353 0.080865 3.55806 2.00665 3.1806900000000002 6.556055000000001 2.6955 0.43128 -0.047920000000000004 0.85058 -0.092845 1.0242900000000001 -0.080865 0.008985 0.08985 0.008985 0.23361 0.008985 0.368385 0.0599 8.664534999999999 -0.170715 7.622275 0.679865 11.216275000000001 1.6682150000000002 7.050230000000001 18.961345 3.3394250000000003 21.590955 4.0133 2.11447 0.548085 4.02528 -0.19467500000000001 5.99 -0.26955 1.536435 -0.056905 2.88119 -1.051245 3.123785 -2.31813 0.13178 -0.69484 0.080865 -2.476865 -3.267545 -3.9534000000000002 -12.102795000000002 -5.3430800000000005 -15.576995 -5.226275 -16.607275 -10.0632 0.66489 -0.25158 2.6356 0.04193 7.822940000000001 -1.36572 4.285845 -1.1650550000000002 7.933755000000001 -64.80581000000001 8.317115000000001 -70.804795 1.6592300000000002 -26.023555 2.2192950000000002 -34.78992 -1.614305 -60.09767 -0.10782 -0.7188 -0.008985 -0.8475849999999999 0.152745 -1.06023 0.9823600000000001 -1.266885 0.19467500000000001 -1.9946700000000002 0.77271 -7.63126 0.584025 -5.741415 0.374375 -24.91241 0.266555 -25.688115 -0.212645 -1.572375 13.809944999999999 -3.86355 26.850175 -10.94373 0.46722 -0.24858500000000003 1.27587 -0.33544 1.5334400000000001 -0.9224600000000001 0.38935000000000003 -0.89251 0.15873500000000001 -1.5184650000000002 0.0029950000000000003 -1.93477 -0.152745 -0.41031500000000004 -0.15574 -0.41930000000000006 0.31148 -0.6678850000000001 4.72611 -2.5158 4.90581 -2.626615 5.01962 -3.3124700000000002 0.10782 -0.64692 0.07787 -0.52712 4.225945 -1.350745 6.43925 -1.27587 5.154395 -1.0153050000000001 10.494480000000001 -1.045255 6.93642 -0.023960000000000002 10.365695 -4.932765 4.016295 -5.4658750000000005 -2.153405 -0.182695 -2.28818 0.047920000000000004 -1.9138050000000002 -0.16772 0.8266200000000001 -0.49118000000000006 2.075535 -1.230945 3.806645 -2.3390950000000004l0.011980000000000001 0.014975Zm-108.39204500000001 -41.100385c0.691845 -0.21564 1.98269 -0.619965 2.0695449999999997 -3.1387600000000004 0.34143 -9.7735835 2.434935 -15.7216535 -1.1800300000000001 -14.4697435 -1.829945 0.643925 -4.27686 -1.1710450000000001 -3.2945 -3.64791 0.7757050000000001 -1.95873 2.470875 1.578365 4.12711 1.05424 0.524125 -0.170715 0.8266200000000001 -0.727785 0.9763700000000001 -1.2579 1.6232900000000001 -5.543745 1.3717100000000002 -9.29648 1.236935 -11.312115 -0.03594 -0.5151399999999999 -0.068885 -1.051245 -0.080865 -1.093175 0.31148 -0.33843500000000004 5.564710000000001 -4.489505 9.512120000000001 -6.97236 0.87454 -0.5531765000000001 1.7649535000000003 -0.5232265 2.6715400000000002 0.08985 4.387675000000001 2.97104 9.467195 13.133075 9.13475 20.758345000000002 -0.54509 12.6547735 -7.957715 9.8724185 -10.91977 12.322328500000001 -0.20366000000000004 0.170715 -0.21564 0.4792 -0.032945 0.661895 1.314805 1.3447550000000001 1.0392649999999999 -0.260565 3.1028200000000004 5.95406 0.91647 2.74941 3.680855 2.2163 4.85789 2.3361 -4.968705 9.317445000000001 -16.469504999999998 7.7750200000000005 -22.171985 -0.86256 -0.11381 -0.176705 -0.17371 -0.28752 -0.200665 -0.35640499999999997 0.0599 -0.020965 0.13178 -0.047920000000000004 0.19168000000000002 -0.06589Zm-3.806645 248.70480000000003c6.915455000000001 3.51014 9.60197 4.669205 10.132085 5.3430800000000005 -1.6202950000000003 0.85058 -16.834895000000003 -0.5001650000000001 -19.43755 -0.6858550000000001 -9.140740000000001 -0.6559050000000001 -4.96571 -0.20366000000000004 -5.322115 -11.29115 -0.07487500000000001 -2.44392 -0.056905 -1.5603950000000002 7.071195000000001 -2.4558999999999997 0.152745 -0.020965 0.2396 -0.01797 0.26955 -0.02995 0.06589 0.48219500000000004 -0.296505 1.9048200000000002 0.7188 4.0791900000000005 1.045255 2.243255 2.6625550000000002 3.06089 6.568035 5.040585Zm29.24318 -106.07092c-0.368385 1.7460849999999999 -7.487500000000001 35.5207 -9.934415000000001 35.5207 -1.452575 0 -0.9524100000000001 -3.3364300000000005 -0.524125 -4.303815 0.9883500000000001 -2.22229 4.22295 -16.565345 7.077185 -29.216225000000005 4.8429150000000005 -21.465165 5.034595 -22.657175000000002 6.094825000000001 -22.142035 0.5570700000000001 0.25756999999999997 1.4016600000000001 0.64692 -2.710475 20.141375h-0.0029950000000000003Zm21.614915 103.25262500000001c2.11447 0.8206300000000001 6.765705 2.590675 8.00863 3.40232 -0.218635 0.140765 -0.58103 0.224625 -0.895505 0.236605 -20.17432 0.7337750000000001 -23.804260000000003 0.57504 -24.09777 -2.8512399999999998 -0.18569 -2.17437 -0.34143 -1.9707100000000002 -0.61098 -9.45821 -0.0059900000000000005 -0.18569 -0.020965 -0.530115 -0.038935 -0.560065 0.0599 -0.02995 6.328435 -0.5121450000000001 6.394324999999999 -0.5151399999999999 0.10482500000000002 5.42095 4.78002 7.2389149999999995 11.240235 9.74573Zm33.085765 -189.50263500000003c-22.30676 8.730425 -23.004595000000002 8.70946 -35.4608 11.905125 -1.03627 0.266555 -1.1650550000000002 0.10782 -1.8868500000000001 -0.7787000000000001 -1.00632 -1.23993 -2.878195 -3.5430850000000005 -9.284500000000001 -6.40331 -7.748065 -3.46821 -14.42991 -0.026955 -17.356025 4.63027 -0.20366000000000004 0.320465 -0.200665 0.32346 -0.5900150000000001 0.10782 -21.794615 -12.15371 -18.57499 -12.845555 -29.246175000000004 -19.04221 -0.925455 -0.530115 -1.698165 0.53311 -1.20998 1.248915 2.08452 3.06089 25.62522 21.692785 41.18724 24.21158 9.916445 1.6083150000000002 24.729715 -2.74941 25.029214999999997 -2.8033200000000003 0 0 0.12279500000000002 3.4053150000000003 0.17371 4.699155 0.37737000000000004 9.592985 -0.464225 22.255845 -0.542095 22.555345l-67.86071000000001 3.22861c-1.25191 0.14675500000000002 -1.254905 0.14675500000000002 -1.4975 -0.596005 -6.945405 -21.29445 -6.921445 -31.65715 -6.8885 -52.301685000000006 0.008985 -5.59466 -0.080865 -5.54075 0.33544 -8.844235 0.77271 -6.21762 0.6019950000000001 -12.05787 4.54641 -20.40793 3.67187 -7.787000000000001 10.174014999999999 -13.983654999999999 17.39496 -16.583315 0.44925 -0.15574 0.44925 -0.176705 0.86256 0.5690500000000001 2.8422549999999998 5.136425 10.686160000000001 10.129090000000001 17.883145000000003 8.275185 3.7257800000000003 -0.9613950000000001 6.7297649999999996 -3.52212 8.6855 -7.400645000000001 0.170715 -0.32945 0.20665500000000003 -0.62895 0.32945 -0.919465 1.9437550000000001 -0.06589 9.15272 3.0189600000000003 12.366354999999999 4.97769 10.36869 6.322445000000001 20.61159 14.666515 32.229195 26.260160000000003 1.2039900000000001 1.2039900000000001 0.6139749999999999 1.4915100000000001 1.0183000000000002 6.813625 0.10183000000000002 1.32978 -0.1985685 2.0485800000000003 -0.901495 2.159395 -18.22158 2.8422549999999998 -17.631565 3.03094 -18.859515 3.1537349999999997 -0.5091500000000001 -1.129115 -1.38369 -6.99632 -5.4658750000000005 -16.589305 -1.2189649999999999 -2.86322 -10.168025 -20.291125 -12.815605 -18.23356 -2.0216250000000002 1.5574000000000001 9.353385000000001 9.35039 15.502120000000001 34.74799 0.34143 1.416635 0.0599 0.176705 -6.771695 2.27021 -0.25457500000000005 0.07487500000000001 -0.58103 0.25158 -0.8206300000000001 0.362395 -8.317115000000001 -10.44656 -16.798955 -20.973985000000003 -28.88378 -30.324375 -6.589 -5.0915 -17.080485000000003 -8.688495 -19.236885 -7.286835 -1.278865 0.8475849999999999 -0.9823600000000001 1.9138050000000002 0.13777 2.111475 16.59829 2.890175 25.831875 13.663190000000002 44.227165 35.131350000000005 1.6712100000000003 1.9527400000000001 2.932105 3.1806900000000002 5.184345 2.512805 6.705805 -2.0186300000000004 35.7603 -6.0499 36.062795 -6.004975 0.08985 2.8033200000000003 0.40732000000000007 4.255895000000001 1.111145 7.298814999999999 0.85058 3.68385 0.5990000000000001 3.327445 1.236935 4.555395 0.11381 0.21564 0.28153 0.5391 0.26955 0.625955 0 0 -0.032945 0.047920000000000004 -0.19168000000000002 0.110815l-0.0029950000000000003 -0.0029950000000000003Zm-39.776595 12.653875c-9.32643 1.698165 -14.139395 0.763725 -20.878145 -1.482525 -0.464225 -0.15574 -0.9434250000000001 -0.314475 -1.1381000000000001 -0.422295 0.1198 -0.19168000000000002 0.46722 -0.566055 0.8086500000000001 -0.9314450000000001 1.9437550000000001 -2.093505 3.60598 -2.78535 6.586005 -3.56405 4.681185 -1.22196 13.516435 4.339755 14.62159 6.400315Zm44.64347 -18.362345c-1.28186 0.49717000000000006 -2.494835 1.23993 -3.1028200000000004 1.54542 -0.200665 -0.302495 0.07487500000000001 -0.55108 -1.272875 -6.25955 -0.332445 -1.4016600000000001 -0.55108 -2.3301100000000003 -0.35640499999999997 -2.6146350000000003 0.23361 -0.34143 1.5244550000000001 -0.39833500000000005 3.6209550000000004 -0.715805 0.29950000000000004 0.619965 -0.15574 0.84459 1.3866850000000002 7.406635 0.09584000000000001 0.41930000000000006 0.0599 0.506155 -0.27554 0.637935Zm14.56768 -6.286505000000001c0.22163 0.8326100000000001 1.332775 1.3207950000000002 2.01264 1.38968 1.1890150000000002 0.1198 2.7284450000000002 0.218635 3.88152 0.27853500000000003 -2.0306100000000002 0.566055 -3.4712050000000003 0.572045 -5.208305 0.57504 -7.424605000000001 0.01797 -11.977005 1.8119750000000001 -12.617935000000001 1.82096 0 0 -0.04193 -0.07487500000000001 -0.07188 -0.2396 -1.88086 -9.73375 -1.422625 -1.5993300000000001 5.5976550000000005 -13.588315 -0.27554 0.703825 -0.6139749999999999 1.428615 -0.877535 2.6326050000000003 -0.23361 1.069215 0.8685499999999999 2.24026 2.117465 1.23394 2.8752 -2.35407 4.986675 -3.9953300000000005 6.33143 -4.980685 -1.380695 1.5424250000000002 -3.48618 3.549075 -2.88718 4.57636 0.7188 1.236935 1.338765 0.9883500000000001 4.33077 -0.23061500000000001 9.38034 -3.818625 -1.85091 0.8985 -2.183355 2.536765 -0.07487500000000001 0.37737000000000004 0.134775 0.6559050000000001 0.200665 0.74875 0.72479 0.9733750000000001 1.38369 0.39534 2.13843 0.110815 1.5514100000000002 -0.5900150000000001 1.3627250000000002 -1.111145 4.45057 -2.0395950000000003 -5.564710000000001 3.57004 -7.61329 3.7167950000000003 -7.220945 5.17536h0.0059900000000000005Z"
                stroke-width="1"></path>
        </g>
        <path id="person 3" fill="#111112"
            d="M584.2765800000001 259.14207550000003c-0.25457500000000005 -0.46722 -0.72479 -0.709815 -1.296835 -0.703825 -1.4585650000000001 -6.304475 -0.290515 -91.009065 -8.880175 -149.01622500000002 -1.093175 -7.340745 -2.4648849999999998 -5.99 -6.1098 -5.867205 -14.936065000000001 0.50316 -189.508625 11.725425000000001 -187.555885 25.984620000000003 0.200665 1.47354 7.99665 105.19638 20.43788 144.91906500000002 0.85058 2.7284450000000002 1.3777000000000001 2.3480800000000004 9.09282 2.2851850000000002 2.50981 0 0.5870200000000001 0.7008300000000001 2.94109 1.5753700000000002 3.297495 1.230945 6.40331 2.09051 6.951395000000001 2.602655 -1.73111 1.308815 -1.6951699999999998 1.4376 -1.2039900000000001 3.39633 0.14376 0.57504 0.1797 1.2159700000000002 0.440265 1.805985 0.34442500000000004 0.7876850000000001 0.110815 0.9733750000000001 -0.40133 1.380695 -0.52113 0.41331000000000007 -1.236935 0.979365 -0.9434250000000001 2.3031550000000003 1.58136 7.262874999999999 4.5434149999999995 16.1313695 7.188 24.0561395 8.083505 24.151680000000002 10.988655000000001 27.976295 25.894770000000005 34.10107 22.723065 9.33242 23.50476 4.33676 22.255845 11.83624 -1.111145 6.612960000000001 -6.01396 45.95528 -5.8522300000000005 53.00551 0.06589 3.15673 -0.2396 3.79766 3.9893400000000003 5.2202850000000005 0.13777 0.047920000000000004 4.747075 1.5514100000000002 4.866875 1.638265 -2.920125 49.666084999999995 5.687505000000001 129.782335 8.107465 130.584995 3.9414200000000004 1.308815 6.364375 0.919465 6.79266 1.087185 0 0 0.008985 0.03594 -0.0059900000000000005 0.13178 -0.625955 4.091170000000001 -17.278155 6.732760000000001 -16.361685 11.021600000000001 0.6079850000000001 2.836265 6.2655400000000006 2.9171300000000002 9.293485 2.9171300000000002 6.268535 0 14.163355000000001 -1.0272850000000002 17.45486 -1.9856850000000001 2.2941700000000003 -0.661895 3.49816 -2.27021 3.680855 -4.914795 0.17371 -2.4558999999999997 0.39534 -7.4665349999999995 0.39534 -7.4665349999999995 0.07787 -0.02995 1.446585 -0.182695 1.530445 -0.19168000000000002 7.622275 -0.865555 4.53443 -1.1470850000000001 7.322775 -34.66413 2.914135 -34.996575 -2.3600600000000003 -22.435545 12.977335000000002 30.82454 0.32346 1.12013 1.09018 1.6831900000000002 2.3480800000000004 1.72512 3.55806 0.14376 4.94175 -0.45524 5.564710000000001 -0.5361049999999999 0.062895 0.24559000000000003 0.272545 1.44359 0.24559000000000003 1.8119750000000001 -0.20366000000000004 2.4469149999999997 -5.564710000000001 3.8126349999999998 -10.629255 8.077515 -1.8718750000000002 1.5843550000000002 -1.4585650000000001 3.67786 0.949415 4.4655450000000005 5.55273 1.82695 20.83921 -2.18036 23.92406 -2.944085 1.89284 -0.46722 2.884185 -1.74908 2.9261150000000002 -3.9234500000000003 0.200665 -11.899135 -3.159725 -10.964695 1.889845 -12.210615 4.441585000000001 -1.09617 3.261555 -1.093175 0.11381 -29.111400000000003 -6.8525599999999995 -61.03510500000001 -1.230945 -47.982895000000006 -1.3447550000000001 -95.85797000000001 0 -0.7457550000000001 -0.10183000000000002 -1.24592 -0.170715 -1.5753700000000002 -0.023960000000000002 -0.13178 -0.056905 -0.302495 -0.08386 -0.28153 0 0 0.03594 -0.032945 0.164725 -0.08386l0.584025 -0.236605c1.734105 -0.6888500000000001 2.878195 -1.1470850000000001 2.830275 -2.4469149999999997 -0.41331000000000007 -12.000964999999999 -4.5524000000000004 -48.99221 -9.81761 -64.964545 -0.53311 -1.6113100000000002 0.04193 -0.29950000000000004 10.491485 -5.867205 17.931065 -9.55405 20.70743 -26.074469999999998 20.422905 -61.8949695 -0.0059900000000000005 -0.86256 -0.326455 -1.799995 -0.25158 -2.542755 0.16173 -1.7041549999999999 -1.28785 -1.9527400000000001 -2.063555 -2.08452 -0.212645 -0.03594 -0.52712 -0.086855 -0.56306 -0.056905 1.404655 -7.70314 -1.200995 -3.27653 7.065205000000001 -11.902130000000001 2.141425 -2.2372650000000003 3.04292 -4.26488 2.410975 -5.42694h-0.008985Zm-4.03127 0.566055c-0.20965000000000003 0.48519 -1.1890150000000002 1.159065 -1.716135 1.44359 0.77271 -1.003325 1.290845 -1.9467500000000002 1.6682150000000002 -2.91114 0.0599 0.625955 0.10482500000000002 1.290845 0.047920000000000004 1.4675500000000001Zm-9.76969 -154.02686c3.2585600000000006 0 10.629255 126.3291 9.25455 148.33336500000001 -1.236935 -0.43727 -2.36605 -0.056905 -3.279525 1.105155 -0.7757050000000001 0.9823600000000001 -1.404655 1.79101 -1.9048200000000002 2.440925 0.446255 -1.380695 0.9613950000000001 -3.3124700000000002 0.87454 -4.660220000000001 -0.098835 -1.5244550000000001 -1.9048200000000002 -1.841925 -3.01297 -0.763725 -2.39001 2.315135 -4.31879 7.736085000000001 -6.028935 11.042565 -1.79101 -2.938095 -2.213305 -3.9294400000000005 -2.9920050000000002 -4.405645000000001 -1.36572 -0.84459 -2.8512399999999998 -0.28452500000000003 -2.758395 1.284855 0.01797 0.29950000000000004 0.24559000000000003 3.890505 0.35640499999999997 4.190005 -0.326455 0.14376 -1.752075 0.24858500000000003 -4.243915 0.43128 -3.477195 0.25158 -9.92543 0.7188 -21.06683 1.83294 -2.363055 -6.933425 -13.210944999999999 -148.85749 -16.828905 -156.958965 0.302495 -0.200665 0.853575 -0.1198 51.630805 -3.872535Zm-156.32103 168.52865000000003c-1.847915 -0.07787 -4.22894 0.06589 -7.179015 0.21564 -3.85157 0.20366000000000004 -3.6329350000000002 0.212645 -3.8455800000000004 -0.61098 -11.372015000000001 -43.954620000000006 -20.500775 -142.864495 -19.35369 -144.79627 0.266555 -0.452245 -0.302495 -0.43727 0.596005 -1.0003300000000002 10.209954999999999 -6.41529 127.080845 -19.686135 132.42392500000003 -17.92208 2.32412 16.193965000000002 15.780655000000001 156.054475 15.780655000000001 156.054475 0.026955 1.01231 -0.062895 0.6888500000000001 -6.06188 1.34176 -3.7916700000000003 0.41630500000000004 -0.93444 0.140765 -4.866875 -5.2981549999999995 -2.7643850000000003 -3.8246149999999997 -11.665525 -3.327445 -12.674840000000001 -3.2525700000000004 -5.909135000000001 0.41331000000000007 -5.549735 -0.703825 -9.760705 -1.2279499999999999 -4.735095 -0.5990000000000001 -10.92576 2.644585 -12.573010000000002 8.42194 -0.584025 2.04259 0.014975 3.411305 -0.5391 3.4352650000000002 -12.180665000000001 0.56306 -57.605830000000005 4.94774 -57.90533 4.9567250000000005 0.062895 -0.74276 0.7188 -2.554735 0.596005 -6.112795 -0.047920000000000004 -1.45557 -2.081525 -2.207315 -2.97703 -0.8386000000000001 -0.9823600000000001 1.5094800000000002 -1.5574000000000001 3.06089 -2.0216250000000002 4.30681 -0.29351000000000005 0.7876850000000001 -0.7337750000000001 1.9767000000000001 -0.9823600000000001 1.991675 -6.696820000000001 0.422295 -7.694155 0.380365 -8.652555 0.332445l-0.0029950000000000003 0.0029950000000000003Zm95.19907 27.9616195c-4.920785 0.464225 -7.70913 2.135435 -10.413615 3.39633 0.542095 -2.974035 0.967385 -2.4229550000000004 2.77936 -4.18102 1.350745 -1.314805 2.363055 -2.1237545 4.4385900000000005 -1.829945 2.2941700000000003 0 3.243585 1.01231 7.208965 -1.7523745 0.10782 0.30549 1.35973 3.8967945 1.38968 4.4029495 -1.8539050000000001 -0.41031500000000004 -3.4891750000000004 -0.21564 -5.40298 -0.03594Zm10.20696 4.944745c-4.2019850000000005 0.470215 -4.405645000000001 -0.308485 -20.309095 0.9973350000000001 4.627275 -3.37836 16.409605 -5.603645 20.309095 -0.9973350000000001Zm-18.323410000000003 -19.7014095c0.41031500000000004 -1.10815 0.89251 -2.19833 1.4585650000000001 -3.2346000000000004 1.398665 -2.56372 4.5434149999999995 -1.847915 4.58235 0.6139749999999999 0.04193 2.620625 -2.8003250000000004 4.243915 -4.80398 4.073200000000001 -1.5903450000000001 0.026955 -1.73111 -0.110815 -1.236935 -1.452575Zm-4.100155 -8.436915c-0.757735 3.081855 -1.8449200000000001 6.2206150000000004 -4.46255 8.472855000000001 -1.123125 0.9584 -2.3600600000000003 0.9524100000000001 -3.0878449999999997 1.3178 -0.176705 -0.302495 -0.116805 -4.231935 -0.45524 -4.6722 -0.6589 -0.8595649999999999 -0.200665 -1.6951699999999998 0.110815 -2.824285 0.368385 -1.34775 1.057235 -4.28285 1.081195 -4.5883400000000005 0.29950000000000004 0 -0.014975 0.062895 3.4412550000000004 1.0093150000000002 1.52745 0.41930000000000006 2.7643850000000003 0.751745 3.3723699999999996 1.284855Zm-81.50293500000001 -2.4049850000000004c1.5334400000000001 -0.09584000000000001 4.190005 -0.11381 5.67852 -0.12279500000000002 3.788675 -0.026955 4.106145 -2.49184 5.36704 -5.645575 0.026955 0.542095 0.182695 -0.200665 -1.0093150000000002 4.56438 -0.26955 1.0722099999999999 -0.5121450000000001 1.75507 -0.170715 3.147745 -0.7547400000000001 0.314475 -0.39234500000000005 0.152745 -1.22196 0.4792 -0.6589 0.266555 -1.38369 0.757735 -1.907815 0.727785 -0.326455 -0.02995 -0.84459 -0.8266200000000001 -1.470545 -1.1470850000000001 -1.6682150000000002 -0.85058 -3.5370950000000003 -1.4376 -5.265210000000001 -2.003655Zm12.47118 6.55905c-1.6202950000000003 0.272545 -5.2981549999999995 1.83294 -6.178685000000001 2.3361 -0.77271 0.440265 -0.643925 0.24858500000000003 -0.7128099999999999 -0.12579 -0.308485 -1.823955 -1.4675500000000001 -1.89883 0.48818500000000004 -2.584685 1.278865 -0.446255 4.642250000000001 -1.967715 5.64258 -1.967715 0.62296 0 0.5570700000000001 0.560065 1.1141400000000001 2.25224 -0.110815 0.047920000000000004 -0.200665 0.062895 -0.35341 0.08985Zm25.97863 32.687729499999996c-1.692175 -3.2046500000000004 -3.6449150000000006 -6.004975 -6.59499 -10.23691 -14.672505000000001 -21.0281945 -14.241225 -22.4478245 -16.349705 -22.8311845 -0.548085 -0.49417500000000003 -1.123125 -5.208305 -3.3064800000000005 -4.41463 0 0 0.01797 -1.200995 -0.01797 -1.5753700000000002 0.29950000000000004 -0.16772 33.127695 -1.9227900000000002 58.752915 -4.902815 0.36539 -0.011980000000000001 0.8415950000000001 1.9976650000000002 1.9377650000000002 3.3124700000000002 -0.326455 1.434605 -2.71347 7.09216 -2.093505 8.70946 0.5780350000000001 1.52146 0.01797 3.291505 0.596005 5.00764 0.37737000000000004 1.12013 -2.602655 0.464225 -0.9943400000000001 9.796645 0.73677 4.2741645 4.213965 6.9516945 9.30247 5.9843095 0.566055 -0.110815 1.15008 -0.212645 1.2579 -0.18868500000000002 0.15873500000000001 0.302495 -0.296505 2.4229550000000004 -0.34742 2.722455 -0.07487500000000001 0.43128 -1.10815 1.266885 -1.6262850000000002 1.3178 -23.375975 2.20432 -38.92901 8.203305 -40.516360000000006 7.298814999999999Zm22.6422 35.94c-0.29351000000000005 0.062895 -0.7337750000000001 -0.07487500000000001 -0.8296150000000001 -0.362395 -0.937435 -2.8003250000000004 7.867864999999999 -13.528415 4.18102 -30.186605000000004 -0.218635 -0.9883500000000001 0.224625 -1.4975 0.7128099999999999 -1.64725 0.61697 -0.18569 1.380695 0.200665 1.6232900000000001 0.8326100000000001 4.106145 10.77002 -2.884185 30.791595000000004 -5.687505000000001 31.36364Zm73.99447 65.827105c-0.07787 51.64578 -6.8615450000000004 34.433515 3.01297 114.12148 0.35341 2.86322 0.65291 4.827940000000001 0.85058 6.12777 0.30549 2.0006600000000003 0.37737000000000004 2.530775 0.18569 2.668545 -0.877535 0.52712 -19.368665 5.0915 -24.858500000000003 5.6156250000000005 -0.7996650000000001 0.07487500000000001 -0.4792 -0.02995 -1.2698800000000001 -3.3693750000000002 -0.12279500000000002 -0.50316 -12.138735 -50.62149 -11.95604 -54.75459 0.0029950000000000003 -0.09584000000000001 0.907485 -12.558034999999999 1.5663850000000001 -18.742710000000002 0 0 2.0695449999999997 -32.289095 2.19234 -33.59791 0.29950000000000004 -3.2405900000000005 0.35341 -3.8246149999999997 -0.5990000000000001 -3.992335 -1.859895 -0.302495 -1.81497 2.24625 -2.566715 13.57334 -0.5361049999999999 8.03259 -7.346735 98.69124 -7.502475 101.629335 -0.047920000000000004 0.85058 -0.23061500000000001 0.93444 -2.440925 1.10216 -5.6306 0.42828499999999997 -11.55471 1.153075 -21.78563 -0.09584000000000001 -0.13178 -0.014975 -0.1797 -0.032945 -0.1797 -0.032945 -0.080865 -0.110815 -0.10782 -0.691845 -0.134775 -1.3687150000000001 -0.13178 -2.932105 -0.17371 -3.2705400000000004 -1.9467500000000002 -19.21592 -2.21031 -19.88081 -2.95307 -26.580625 -5.61862 -81.42207 0.33544 -15.822585000000002 0.458235 -25.66116 0.7876850000000001 -25.586285 45.802535 10.150055 72.00579 -4.860885000000001 72.266355 -2.656565l-0.0029950000000000003 -0.0029950000000000003Zm-15.181655000000001 -100.778755c1.9767000000000001 -3.7048150000000004 8.96104 24.241529999999997 8.886165 27.38029 -0.02995 1.23394 -1.4675500000000001 1.4675500000000001 -1.9048200000000002 -0.554075 -1.7700449999999999 -8.16437 -8.035585 -24.84053 -6.981345 -26.826215000000005Zm26.538695000000004 -45.4584095c-0.42828499999999997 1.512475 -0.57504 2.56372 -0.673875 3.2585600000000006 -0.05391 0.380365 -0.11381 0.8146400000000001 -0.266555 0.90449 -1.6322750000000001 0.14675500000000002 -8.970025000000001 30.4684345 -10.30879 33.5263295 -0.302495 0.0059900000000000005 -17.51476 -1.81497 -27.610905 -1.841925 -1.47953 0 -0.769715 -3.243585 -4.86987 -4.303815 -1.10815 -0.290515 -0.8146400000000001 -0.709815 -2.6715400000000002 -6.077154500000001 -0.28452500000000003 -0.8206300000000001 -0.086855 -0.43128 2.650575 -4.926775 3.0339349999999996 -4.98368 2.37204 -8.778345 4.097160000000001 -12.204625000000002 3.944415 -7.822940000000001 0.949415 -10.221935 2.89916 -10.150055 3.49816 0.07787 31.48943 -2.1444199999999998 35.445825000000006 -2.8512399999999998 0.31747000000000003 -0.056905 0.62296 -0.110815 0.769715 -0.116805 0.020965 0.06589 0.044925 0.16173 0.06589 0.25158 0.7128099999999999 2.91114 1.087185 2.381025 0.47620500000000004 4.52844l-0.0029950000000000003 0.0029950000000000003Zm10.57834 3.189675c-0.1797 0.8985 -0.08985 0.781695 -0.1797 1.5574000000000001 -1.6083150000000002 -0.31747000000000003 -8.39798 -0.40432500000000005 -8.730425 -0.85058 -0.09584000000000001 -0.12878499999999998 0.6978350000000001 -3.207645 0.77271 -3.3693750000000002 1.9796950000000002 0.38935000000000003 7.36171 1.4975 8.233255 1.83294 0.03594 0.1797 -0.047920000000000004 0.59301 -0.09584000000000001 0.8296150000000001Zm5.585675 -9.548060000000001c-5.9840100000000005 5.4748600000000005 -4.5254449999999995 6.36737 -6.96637 5.73842 -5.16937 -1.3178 -6.48717 -0.7787000000000001 -6.753725 -1.7460849999999999 -0.57504 -2.063555 -1.200995 -4.783015 -1.464555 -6.382345 0.88053 1.5514100000000002 1.9197950000000001 3.9054800000000003 3.1507400000000003 3.9534000000000002 0.4792 0.02995 0.9224600000000001 -0.272545 1.314805 -0.871545 2.74941 -4.15107 7.682175 -16.721085000000002 4.96571 -8.93708 -1.488515 4.261885 -3.00698 6.9483999999999995 -2.07254 7.57735 0.44326 0.296505 1.129115 0.47620500000000004 1.8718750000000002 -0.362395 2.7943350000000002 -3.111805 4.21696 -5.184345 5.06754 -6.42128 1.9168 -2.77936 1.506485 -0.93444 -0.42828499999999997 1.8539050000000001 -0.72479 1.05424 -1.6292800000000003 2.087515 -2.452905 3.0878449999999997 -0.55108 0.6678850000000001 0.07787 1.6742050000000002 1.04226 1.764055 2.494835 0.218635 4.351735000000001 -1.3118100000000001 5.70847 -2.434935l0.176705 -0.14376c-0.703825 0.877535 -1.8449200000000001 2.12046 -3.165715 3.327445l0.0059900000000000005 -0.0029950000000000003Z"
            stroke-width="1"></path>
        <g id="person 2">
            <path id="vector_21" fill="#111112"
                d="M270.83515450000004 102.98816649999999c-0.15873500000000001 -0.044925 -0.43128 0.047920000000000004 -0.54509 0.170715 -2.3870150000000003 2.55174 -18.7849395 94.72586 -18.1260395 96.57677000000001 0.242595 0.6888500000000001 0.5361049999999999 0.8326100000000001 0.8386000000000001 0.8116450000000001 1.9737050000000003 -0.134775 3.7769945000000003 -16.391635 16.7453445 -86.62139 1.596335 -8.64357 2.081525 -10.63824 1.087185 -10.937740000000002Z"
                stroke-width="1"></path>
            <path id="vector_22" fill="#111112"
                d="M246.45256 237.87997150000004c-0.715805 0.46722 -0.901495 1.925785 -2.1444199999999998 11.422930000000001 -0.116805 0.895505 1.536435 1.82096 1.788015 0.6139749999999999 0.8326100000000001 -3.9713700000000003 1.817965 -10.9617 1.82695 -11.05155 0.044925 -0.73677 -0.7757050000000001 -1.4376 -1.470545 -0.9853550000000001Z"
                stroke-width="1"></path>
            <path id="vector_23" fill="#111112"
                d="M375.70178500000003 391.56031c-0.865555 -3.219625 -3.39633 -2.7524050000000004 -8.430925 -3.483185 -1.5004950000000001 -0.218635 -1.5603950000000002 -0.22762 -1.470545 -2.3960000000000004 0.140765 -3.4532350000000003 -1.051245 -5.2202850000000005 -3.932435 -9.485165 -8.158380000000001 -12.093810000000001 -10.11711 -15.82558 -24.22955 -29.05749 -2.033605 -2.17437 1.6951699999999998 -51.14262 -16.97566 -69.69365 -4.717125 -4.687175 -5.5796850000000004 -3.80365 -5.30115 -4.872865 1.47953 -5.66055 3.2346000000000004 -11.935075 3.8935000000000004 -17.66451 0.086855 -0.727785 0.04193 -0.46123000000000003 2.31813 -1.08419 2.087515 -0.5690500000000001 2.5158 -0.446255 2.962055 -1.117135 0.7787000000000001 -1.1650550000000002 -0.266555 -3.483185 -0.26955 -5.11546 0.8386000000000001 0.7876850000000001 2.2941700000000003 2.2941700000000003 3.093835 3.1207900000000004 2.500825 2.590675 12.510114999999999 -5.61862 8.73342 -8.67352 -4.66621 -3.7766949999999997 -1.2698800000000001 -0.6349400000000001 9.29648 -18.943375 7.301810000000001 -12.653875 7.29582 -24.708750000000002 4.914795 -40.058125000000004 -3.2885100000000005 -21.195615 -5.01363 -12.147720000000001 -3.2405900000000005 -22.30676 2.111475 -12.072845 4.88185 -28.07513 5.468870000000001 -40.327675 0.33843500000000004 -7.107135000000001 0.452245 -9.50014 -2.4079800000000002 -11.090485 -3.225615 -1.788015 -158.73200500000002 -30.306405 -187.166535 -29.527705 -3.411305 0.092845 -4.34874 3.9294400000000005 -4.9717 6.469200000000001 -7.373690000000001 30.030865 -10.129090000000001 40.752964999999996 -15.20262 69.618775 -2.995 17.044545 -9.497145 58.085029999999996 -8.20031 75.34222 0.32346 4.321785 0.43128 4.24691 46.772915000000005 13.228915 53.101350000000004 10.293815 74.434735 12.85454 82.46433 13.812940000000001 1.93477 0.23361 3.213635 0.386355 3.4053150000000003 0.470215 0.39534 0.29351000000000005 0.84459 1.74908 1.6173000000000002 3.1357649999999997 1.4675500000000001 2.650575 -0.43128 0.008985 0.3594 19.47948 0.05391 1.183025 0.9853550000000001 1.183025 0.12279500000000002 3.177695 -13.52542 31.33369 -11.306125 82.79378 -3.10881 119.892845 3.2046500000000004 14.516765000000001 2.177365 13.564355 7.885835 14.82525 2.65357 0.584025 1.404655 0.2396 2.0605599999999997 6.14574 0.13178 1.153075 0.40133 1.6023250000000002 -11.20729 6.040915 -2.3690450000000003 0.907485 -4.59433 1.692175 -3.58202 4.0791900000000005 0.703825 1.6592300000000002 2.25224 2.08452 3.3544000000000005 2.261225 6.789665 1.093175 14.849210000000001 0.566055 19.536385 -0.56306 4.142085 -0.865555 2.512805 -9.035915 3.351405 -16.418590000000002 4.285845 -0.751745 4.7021500000000005 -0.5361049999999999 5.154395 -2.638595 0.200665 -0.925455 2.273205 -43.68507 10.509455 -65.731265 4.375695 4.45057 12.318435000000001 25.235870000000002 55.823805 48.189550000000004 0.94043 0.49417500000000003 1.6742050000000002 0.19767 2.267215 -0.15574 1.52146 -0.90449 1.8778650000000001 -3.2705400000000004 2.26422 -3.3364300000000005 0 0 0.23061500000000001 -0.026955 0.87454 0.6858550000000001 3.141755 3.495165 8.57169 18.65885 12.689815000000001 18.58697 0.757735 -0.011980000000000001 1.6322750000000001 -0.42828499999999997 2.36605 -2.255235 1.081195 -2.692505 -1.5004950000000001 -13.738064999999999 -3.86355 -22.561335000000003v-0.0059900000000000005Zm-26.634535000000003 -194.013105c-0.07487500000000001 17.87416 -6.301480000000001 25.30176 -16.912765 40.13899 -6.6429100000000005 -8.70946 -2.333105 -12.725755 -1.44958 -19.35968 0.20366000000000004 -1.5244550000000001 0.59301 -3.075865 0.15574 -4.72611 -0.15574 -0.57504 0.014975 -1.03627 0.59301 -1.5843550000000002 2.944085 -2.776365 8.42793 -7.94873 8.703470000000001 -12.510114999999999 0.10782 -1.829945 4.12711 -22.759005000000002 5.30115 -28.4525 1.46156 4.962715 3.64791 17.41892 3.6089750000000005 26.49377ZM137.69812 232.61266500000002c-7.226935 -1.488515 18.179650000000002 -138.090465 24.316405 -149.48045 1.1381000000000001 -2.10249 5.184345 -0.332445 28.728040000000004 1.83294 28.009240000000002 2.56971 154.431185 24.759665 158.923685 27.083785 2.740425 3.48019 -5.76238 52.858755 -11.162365 81.526895 -1.2159700000000002 6.45123 -0.047920000000000004 6.780679999999999 -2.00665 9.0449 -3.848575 4.44458 -5.831265 6.735755 -6.496155000000001 7.298814999999999 -3.04292 -5.72644 -7.253890000000001 -6.38534 -12.189650000000002 -8.69748 -8.78733 -4.118125 5.310135 -14.86119 -7.5893299999999995 -26.341025000000002 -6.831595000000001 -6.073860000000001 -18.71875 -8.230260000000001 -26.784285 -1.32379 -2.201325 1.889845 -3.77969 4.23493 -5.208305 6.47519 -0.8206300000000001 1.28186 -1.260895 2.82728 -1.740095 4.142085 -3.309475 9.125765000000001 -6.589 21.752685 3.2046500000000004 26.047514999999997 0.092845 0.038935 0.20665500000000003 0.07787 0.20665500000000003 0.07787 0.08386 0.33544 -0.8985 2.686515 -1.83893 5.14541 -0.16772 0.440265 -1.1470850000000001 0.67088 -3.045915 1.003325 -0.044925 -0.01797 -0.10183000000000002 -0.0599 -0.19767 -0.1198 -5.471865 -3.429275 -26.58362 -12.279499999999999 -34.481435 -15.29247 -6.9064700000000006 -2.6356 -4.345745 -1.6262850000000002 -8.970025000000001 -9.548060000000001 -6.142745000000001 -10.530420000000001 -9.059875 -13.998630000000002 -21.78563 -30.081780000000002 -1.16206 -1.4675500000000001 -0.044925 -2.560725 -1.6023250000000002 -10.25488 -0.110815 -0.5690500000000001 -0.29950000000000004 -1.52146 -1.314805 -1.6592300000000002 -1.797 -0.27853500000000003 -1.7131399999999999 2.333105 -2.07254 5.1064750000000005 -0.026955 -0.02995 -4.100155 -5.064545000000001 -5.11546 -6.271529999999999 -0.763725 -0.91048 -1.9796950000000002 -1.6083150000000002 -2.71347 -1.10815 -0.87454 0.5990000000000001 -0.5151399999999999 2.4229550000000004 1.12612 5.61862 -1.440595 -0.895505 -4.3727 -2.94109 -5.70847 -2.129445 -0.48818500000000004 0.29351000000000005 -0.7008300000000001 0.8685499999999999 -0.637935 1.710145 0.04193 0.560065 0.5001650000000001 1.0302799999999999 0.991345 1.530445 1.8778650000000001 1.9227900000000002 0.5121450000000001 1.9287800000000002 2.83327 4.854895 0.18569 0.23361 0.39234500000000005 0.49118000000000006 0.625955 0.8086500000000001 -0.35041500000000003 -0.020965 -0.49118000000000006 -0.07787 -0.5990000000000001 -0.12279500000000002 -0.79068 -0.31148 -2.3690450000000003 0.1797 -2.524785 1.28186 -0.170715 1.23993 1.3118100000000001 2.590675 2.7943350000000002 3.231605 6.633925 2.86921 6.31346 1.28785 7.3677 2.2762000000000002 0.48818500000000004 0.566055 1.907815 6.394324999999999 2.105485 7.502475 4.375695 24.298434999999998 11.72842 34.403565 21.626895 44.185235 20.61159 20.37199 30.018885 24.505090000000003 33.558975000000004 26.065485 1.1381000000000001 0.5001650000000001 1.5993300000000001 0.715805 1.6412600000000002 1.003325 0.5780350000000001 3.9114700000000004 1.925785 6.142745000000001 4.028275 10.77601 -5.18135 0.88652 -68.65738 -10.54839 -128.29382 -23.190285000000003v-0.008985ZM287.6997 215.69989999999999c-3.7916700000000003 0.20665500000000003 -1.75507 0.01797 -4.621285 0.047920000000000004 -0.80266 0.0059900000000000005 -1.46156 0.011980000000000001 -1.752075 -0.02995 0.023960000000000002 -0.07787 0.05391 -0.164725 0.068885 -0.20366000000000004 2.7254500000000004 -7.861875 1.79101 -5.15739 -1.9108100000000001 -8.278179999999999 -6.5201150000000005 -5.489835 -2.3870150000000003 -19.77898 -0.24559000000000003 -22.818905 0.9643900000000001 -1.3777000000000001 6.31346 0.88652 7.2029749999999995 3.3663800000000004 1.847915 5.13343 0.8146400000000001 6.0888349999999996 1.58136 6.672860000000001 0.73078 0.5570700000000001 2.49783 -0.7787000000000001 3.4532350000000003 0.5780350000000001 0.42529 0.5990000000000001 0.39234500000000005 1.554405 -0.07487500000000001 2.31813 -2.105485 3.44425 -5.89416 2.8512399999999998 -6.400315 5.36704 -1.284855 6.42727 0.88053 9.27252 2.6984950000000003 12.980329999999999ZM199.943205 160.648805c-0.853575 -1.117135 -1.5603950000000002 -1.8539050000000001 -2.111475 -2.40199 0.5690500000000001 0.374375 1.2189649999999999 0.727785 2.04259 0.793675 0.26356 0.03594 0.530115 -0.218635 0.4792 -0.52113 -0.14376 -0.8296150000000001 0.35341 -0.7966700000000001 -1.8539050000000001 -2.41996 -6.897485 -5.076525 -4.54042 -3.3723699999999996 1.9617250000000002 0.68286 1.28186 0.8116450000000001 2.06655 -0.37737000000000004 1.40765 -1.434605 -3.0549 -4.9387550000000005 -2.67753 -4.25889 -0.967385 -2.189345 1.3687150000000001 1.6562350000000001 2.65956 3.219625 3.273535 3.7347650000000003 0.39833500000000005 0.33544 1.0003300000000002 0.757735 1.5514100000000002 0.52712 0.8116450000000001 -0.33544 0.80266 -1.78502 0.901495 -2.7374300000000003 0 10.05122 1.883855 8.55372 18.655855000000003 31.878780000000003 13.917765000000001 19.371660000000002 -2.4379299999999997 9.545065 34.46047 25.394605 10.329755 4.435595 19.25186 8.2662 19.350695 16.960685 0 6.169700000000001 -2.4229550000000004 9.802635 -7.053225 14.115435000000002 -2.6625550000000002 2.488845 -10.725095 1.2189649999999999 -34.143 -18.715754999999998 -8.496815000000002 -7.22993 -16.373665 -13.372675 -20.884135 -22.66616 -6.376355 -13.139064999999999 -6.8615450000000004 -19.898780000000002 -11.863195 -36.48509 -0.76073 -2.536765 -2.8033200000000003 -0.5361049999999999 -8.40996 -3.2166300000000003 -0.296505 -0.72479 0.9434250000000001 -0.41331000000000007 1.452575 -0.35041500000000003 0.55108 0.068885 2.21031 -0.34143 1.74908 -0.949415Zm85.072975 260.376315c-0.5391 2.12046 -0.314475 4.30681 -0.362395 6.298485000000001 -0.05091500000000001 2.099495 0.10782 2.0485800000000003 -2.79733 2.015635 -4.1331 -0.0599 -3.48019 -0.011980000000000001 -5.247240000000001 -0.02995 2.7554000000000003 -1.51547 2.49783 -4.321785 2.20432 -7.54141 -0.16173 -1.75507 -0.11381 -1.45557 -0.14675500000000002 -1.75507 0.506155 -0.10183000000000002 2.71347 0.22762 6.298485000000001 0.64093 0.038935 0.05391 0.10183000000000002 0.1797 0.05391 0.374375l-0.0029950000000000003 -0.0029950000000000003Zm25.562325 -113.59436c-1.2189649999999999 14.190310000000002 -1.10216 14.402955 -2.704485 23.906090000000003 -1.58735 9.41029 -2.30615 13.486485 -3.86355 13.13607 -2.6326050000000003 -0.6139749999999999 2.986015 -16.34072 3.55207 -37.566285 0.07188 -2.82728 -0.6559050000000001 -7.12211 -0.68286 -7.469530000000001 -0.03594 -0.47321 0.302495 -0.89251 0.43427499999999997 -1.19201 0.152745 -0.35341 0.6019950000000001 -0.46722 0.91048 -0.236605 0.302495 0.23061500000000001 0.7337750000000001 0.35640499999999997 0.907485 0.8326100000000001 1.272875 3.5910050000000004 1.0183000000000002 3.231605 1.43161 8.394985 0.014975 0.062895 0.020965 0.12878499999999998 0.014975 0.19467500000000001Zm-16.247875 -34.607225c-5.432930000000001 0.40732000000000007 -16.394630000000003 3.7347650000000003 -22.573315 7.4665349999999995 -0.011980000000000001 -0.308485 0.34742 -13.399630000000002 0.4792 -14.864185 0.26356 -2.9261150000000002 0.224625 -1.859895 -7.077185 -19.5274 0.6019950000000001 0.11381 1.53943 0.38935000000000003 2.49184 0.44925 12.995305000000002 0.68286 17.967005 -19.272825 10.06919 -27.167645 1.86888 -0.43427499999999997 8.386 -0.853575 8.84124 -0.8356050000000002 0.047920000000000004 -0.52712 0.032945 -0.452245 0.032945 0 2.71946 0 2.692505 -0.13178 2.90515 0.34143 4.54042 10.11711 1.48552 16.703115 -3.88152 26.607580000000002 -0.8266200000000001 1.5424250000000002 -0.7337750000000001 1.9557350000000002 0.68286 2.9351000000000003 8.703470000000001 6.040915 11.863195 4.0612200000000005 16.032235 0.09584000000000001 0.03594 -0.03594 0.068885 -0.06589 0.098835 -0.08985 0.236605 0.596005 0.649915 2.12046 1.949745 4.501485 1.6951699999999998 3.1058149999999998 1.200995 2.4079800000000002 11.845225000000001 2.30615 -0.23361 2.4469149999999997 -2.584685 15.106779999999999 -3.0878449999999997 17.451865 -10.359705 -0.8266200000000001 -4.633265 -0.73677 -18.802609999999998 0.33544l-0.0059900000000000005 -0.0059900000000000005Zm71.02942 119.46156500000001c-0.14376 2.30016 -0.092845 2.3390950000000004 -0.12279500000000002 2.638595 -0.13178 -0.06589 -0.314475 -0.17371 -0.458235 -0.260565 -4.992665000000001 -2.97104 -5.28917 -2.710475 -5.06155 -3.64791 0.703825 -2.908145 0.452245 -2.758395 0.72479 -3.057895 1.6083150000000002 0.6559050000000001 2.78535 1.1650550000000002 3.57603 1.410645 1.6532400000000003 0.518135 1.46156 1.03627 1.34176 2.9171300000000002Zm11.43491 18.77266c-2.2762000000000002 -2.47986 -6.53509 -14.933069999999999 -6.334425000000001 -17.919085 0.080865 -1.248915 1.95873 -2.21031 2.44392 -0.9973350000000001 0.61098 1.5184650000000002 4.106145 15.642885 3.890505 18.91642Z"
                stroke-width="1"></path>
        </g>
    </g>
</svg>