<svg xmlns="http://www.w3.org/2000/svg" viewBox="0 0 500 500"><g id="freepik--Floor--inject-61"><ellipse id="freepik--floor--inject-61" cx="250" cy="335.21" rx="222.46" ry="128.44" style="fill:#f5f5f5"></ellipse></g><g id="freepik--Shadow--inject-61"><path id="freepik--shadow--inject-61" d="M186,345.44l23,13.27a5.49,5.49,0,0,0,5,0l92.81-53.64c1.37-.79,1.36-2.06,0-2.85L283.62,289a5.51,5.51,0,0,0-5,0L186,342.58C184.67,343.37,184.67,344.65,186,345.44Z" style="fill:#e0e0e0"></path><ellipse id="freepik--shadow--inject-61" cx="390.39" cy="351.26" rx="50.29" ry="29.04" style="fill:#e0e0e0"></ellipse><ellipse id="freepik--shadow--inject-61" cx="110.94" cy="351.26" rx="50.29" ry="29.04" style="fill:#e0e0e0"></ellipse></g><g id="freepik--Plants--inject-61"><g id="freepik--plants--inject-61"><path d="M93.83,323.69s-1.43-12.6-7.69-22.38S71.26,285.44,63.23,284.8s-14.52,6.76-5.93,11.83,23.87,10.26,30.9,29.24Z" style="fill:#CDC7FF"></path><path d="M93.83,323.69s-1.43-12.6-7.69-22.38S71.26,285.44,63.23,284.8s-14.52,6.76-5.93,11.83,23.87,10.26,30.9,29.24Z" style="opacity:0.15"></path><path d="M91.48,320.41l.08,0a.43.43,0,0,0,.24-.56c-8.48-20.88-24.62-29.59-32-31.29a.43.43,0,0,0-.51.32.43.43,0,0,0,.32.52c7.2,1.66,23,10.22,31.37,30.77A.4.4,0,0,0,91.48,320.41Z" style="fill:#fff"></path><path d="M48.57,320.66c.73,1.64,2.52,2.49,4.18,3.17s3.47,1.39,4.37,2.94c1.82,3.13-1.16,7.53.79,10.58a5.58,5.58,0,0,0,3.83,2.22c1.24.23,2.5.23,3.76.34a15.07,15.07,0,0,0,1.79-.14,8.15,8.15,0,0,1,5.18.55c2.49,1.4,3.25,4.54,4.77,7a11.81,11.81,0,0,0,8.38,5.26c1.12.14,3.2.35,4.34-.29l.23-.15,0,0c.15-.18.35-.4.43-.52a.22.22,0,0,0,0-.08c.44-1.62-.28-3.31-.31-5,0-.1,0-.2,0-.3.07-1.95.13-3.89.17-5.84q.14-5.37.11-10.74c0-2.33.25-4.88-.73-7.07-1.09-2.41-3.8-2.46-4.83-4.83-.41-.94-.62-2-1-2.9a8.34,8.34,0,0,0-7.1-5c-4.73-.24-9,3.59-13.7,3.24a32.24,32.24,0,0,1-3.63-.69c-3.83-.71-8.26.38-10.41,3.62A5,5,0,0,0,48.57,320.66Z" style="fill:#CDC7FF"></path><path d="M91.08,344h0a.4.4,0,0,0,.28-.49C84.86,319,59,315.46,53,315.9a.4.4,0,0,0-.37.43.4.4,0,0,0,.43.37c5.91-.42,31.2,3,37.59,27.05A.41.41,0,0,0,91.08,344Z" style="fill:#fff"></path><path d="M62.37,331.61a.43.43,0,0,0,.21-.11,21.47,21.47,0,0,1,17.59-5,.4.4,0,0,0,.12-.8A22.28,22.28,0,0,0,62,330.93a.4.4,0,0,0,0,.57A.44.44,0,0,0,62.37,331.61Z" style="fill:#fff"></path></g><g id="freepik--plants--inject-61"><path d="M411.27,328.11c-.17-6,1.5-16.07,7.42-26.12,6.33-10.76,14.69-18,21.71-15.77,6.55,2,5.11,10.91-4.73,20.58-6.9,6.79-13.89,15.4-17.08,25.23l-5.53,12.67Z" style="fill:#CDC7FF"></path><path d="M411.27,328.11c-.17-6,1.5-16.07,7.42-26.12,6.33-10.76,14.69-18,21.71-15.77,6.55,2,5.11,10.91-4.73,20.58-6.9,6.79-13.89,15.4-17.08,25.23l-5.53,12.67Z" style="fill:#CDC7FF"></path><g style="opacity:0.15"><path d="M411.27,328.11c-.17-6,1.5-16.07,7.42-26.12,6.33-10.76,14.69-18,21.71-15.77,6.55,2,5.11,10.91-4.73,20.58-6.9,6.79-13.89,15.4-17.08,25.23l-5.53,12.67Z"></path></g><path d="M412.36,332.59a.44.44,0,0,0,.37-.32c4.21-17.15,14.89-35.2,24.84-42a.43.43,0,0,0,.11-.59.41.41,0,0,0-.59-.11c-10.1,6.88-20.93,25.14-25.19,42.47a.44.44,0,0,0,.31.52Z" style="fill:#fff"></path><path d="M411.21,347.56a25.33,25.33,0,0,0,11.68,5.85c7.49,1.65,11-1.77,11-1.77s-2.56-7.26-6.73-9.5A42,42,0,0,1,440,348.3s4.61.34,6.87-6.59c0,0-2.48-4.4-11.52-7.24,0,0,5.67-1.07,13.58,1.46.59.28,3.7-8.67,4.73-12.83s-.66-4.2-3.88-5.27-14.34-2.29-16.5-.61-3.56,7.77-3.56,7.77-1.76-3.6-1.1-6.68a11.75,11.75,0,0,0-7-.25c-3.75,1.07-3.62,2.87-3.78,5.55a28.26,28.26,0,0,0,.62,8s-2.41-2.35-2-10.45c0,0-5.23,4-7.44,7.49S406.74,341.82,411.21,347.56Z" style="fill:#CDC7FF"></path><path d="M411.18,348a.43.43,0,0,0,.4-.21C418.43,335.46,442,322.1,450.19,321a.42.42,0,0,0,.36-.47.42.42,0,0,0-.48-.37c-8.34,1.11-32.27,14.69-39.23,27.19a.42.42,0,0,0,.16.58A.41.41,0,0,0,411.18,348Z" style="fill:#fff"></path></g></g><g id="freepik--foam-finger--inject-61"><g id="freepik--foam-finger--inject-61"><path d="M305.18,170a10.12,10.12,0,0,0-4-4.69h0l-5.13-3c-.35-3.28-1.69-9.21-6.64-12.76a10.16,10.16,0,0,0-1-.63l-18-10.4h0c-4.47-3-9.19-1.13-12.19.78l-7-4h0A8.66,8.66,0,0,0,246.3,134V101.63c0-6.59-2.18-11.24-5.62-13.27h0L222,77.55h0c-2.91-1.78-6.74-1.67-10.94.76h0c-9.1,5.25-16.47,19.34-16.47,31.46v76.1c0,33.43-8.05,60.69-7.87,88.75.09,14.46,6.41,33.22,6.41,39.05V344l18.82,10.85,88.6-51.15V271c0-10.1,1.17-18.54,4.67-46.21S308.67,177.34,305.18,170Z" style="fill:#CDC7FF"></path><path d="M305.18,170a10.12,10.12,0,0,0-4-4.69h0l-5.13-3c-.35-3.28-1.69-9.21-6.64-12.76a10.16,10.16,0,0,0-1-.63l-18-10.4h0c-4.47-3-9.19-1.13-12.19.78l-7-4h0A8.66,8.66,0,0,0,246.3,134V101.63c0-6.59-2.18-11.24-5.62-13.27h0L222,77.55h0c-2.91-1.78-6.74-1.67-10.94.76h0c-9.1,5.25-16.47,19.34-16.47,31.46v76.1c0,33.43-8.05,60.69-7.87,88.75.09,14.46,6.41,33.22,6.41,39.05V344l18.82,10.85,88.6-51.15V271c0-10.1,1.17-18.54,4.67-46.21S308.67,177.34,305.18,170Z" style="opacity:0.15"></path><path d="M300.94,165.23a6.4,6.4,0,0,0-4.79-.47,19.31,19.31,0,0,0-.12-2.37Z" style="opacity:0.15"></path><path d="M254.59,149.32a46.48,46.48,0,0,0-8.29,8.85V144.54Z" style="opacity:0.15"></path><path d="M258.11,139.39,269.62,146a8.16,8.16,0,0,1,2.8,2.83,11.14,11.14,0,0,1,1.39,3.86,20.25,20.25,0,0,1,5.31-3.68l-18.79-10.85A18.42,18.42,0,0,0,258.11,139.39Z" style="opacity:0.15"></path><path d="M211.91,354.84V324.53c0-5.83-6.32-24.59-6.41-39-.18-28.07,7.87-55.33,7.87-88.75v-76.1c0-12.13,7.37-26.21,16.47-31.46h0c9.09-5.25,16.46.32,16.46,12.45v56.54s8.46-12.26,17.49-13.21,10,7.75,10,7.75,8.18-8.37,15.57-3.08c7.12,5.11,6.76,15.13,6.76,15.13s5.54-2,9,5.27,3.49,27.13,0,54.8-4.67,36.11-4.67,46.21v32.65Z" style="fill:#CDC7FF"></path><path d="M217.52,345.05a.93.93,0,0,1-.92-.93V321.29c0-3-.8-6.67-2.33-13.39-1.7-7.5-4-17.77-4.08-25.71-.09-12.88,1.69-25.81,3.57-39.5,2.11-15.38,4.29-31.27,4.29-49.19V117.82c0-8.24,4.72-17.73,10.74-21.6,3.05-2,6.06-2.32,8.47-1,2.77,1.51,4.36,5,4.36,9.65l1.57,72.51a65,65,0,0,1,5.21-14.25c1.86-3.71,7-10.08,12.87-11.34,2.28-.5,4.63.68,5.82,1.42a12.83,12.83,0,0,1,2.13,1.8A12.26,12.26,0,0,0,271,156.5c1.74,1.14,4.35.32,6.86-.48a10.52,10.52,0,0,1,8.39.61,9.81,9.81,0,0,1,4.43,5.43,18.3,18.3,0,0,1,.74,3.27,16.17,16.17,0,0,0,.72,3.09,4.82,4.82,0,0,0,3.8,3.29c2.2.28,3.91,1.69,5.1,4.17,2.3,4.81,3.4,20.71-.42,50.91l-.69,5.52c-3,23.91-4.05,32-4.05,42v25.16a.93.93,0,0,1-1.85,0V274.29c0-10.14,1-18.21,4.06-42.19l.7-5.54c3.76-29.81,2.77-45.31.58-49.88-.91-1.91-2.11-2.93-3.67-3.13a6.58,6.58,0,0,1-5.28-4.45,17.25,17.25,0,0,1-.82-3.47,17.65,17.65,0,0,0-.66-2.94,8,8,0,0,0-3.58-4.44,8.7,8.7,0,0,0-6.94-.46c-2.79.88-6,1.88-8.44.26a13.23,13.23,0,0,1-2-1.72,11,11,0,0,0-1.82-1.54c-.77-.48-2.74-1.56-4.45-1.19-5,1.06-9.77,6.7-11.6,10.36-3.25,6.52-5.07,12.42-6.71,21.78a.94.94,0,0,1-1,.77.93.93,0,0,1-.86-.91l-1.75-80.71c0-4-1.23-6.87-3.38-8-1.8-1-4.14-.65-6.59.93-5.45,3.51-9.88,12.5-9.88,20V193.5c0,18.05-2.19,34-4.31,49.42-1.88,13.64-3.64,26.51-3.56,39.26.05,7.74,2.35,17.9,4,25.31,1.56,6.85,2.37,10.58,2.37,13.8v22.83A.93.93,0,0,1,217.52,345.05Z" style="fill:#fff"></path><path d="M211.54,270.91h-.09a.94.94,0,0,1-.84-1c.87-9,6.33-24.58,10.31-35.94,1.26-3.59,2.35-6.69,3.05-8.92,3-9.59,5.77-11.84,13.95-17.51s20.63-16.93,20.76-17a.93.93,0,0,1,1.05-.13c.29.15,6.94,3.82,4.1,16.33-2.64,11.6-15.7,26.36-30.38,34.32a.92.92,0,0,1-1.25-.38.91.91,0,0,1,.37-1.25c14.26-7.73,26.92-22,29.45-33.1,2.08-9.14-1.29-12.85-2.64-13.93-2.5,2.24-13.09,11.63-20.4,16.7-8.13,5.63-10.37,7.48-13.24,16.55-.72,2.26-1.81,5.37-3.07,9-3.95,11.26-9.36,26.68-10.21,35.49A.93.93,0,0,1,211.54,270.91Z" style="fill:#fff"></path><path d="M235,263.79a.92.92,0,0,1-.45-.12.93.93,0,0,1-.36-1.26,52.77,52.77,0,0,0,6.2-27.47.92.92,0,0,1,.83-1,.93.93,0,0,1,1,.83,53.57,53.57,0,0,1-6.42,28.55A.93.93,0,0,1,235,263.79Z" style="fill:#fff"></path><path d="M240.26,207.92h-.06a.93.93,0,0,1-.86-1c0-.1.69-9.54,2.18-21.46a.93.93,0,0,1,1.84.23c-1.49,11.86-2.17,21.26-2.17,21.36A.93.93,0,0,1,240.26,207.92Z" style="fill:#fff"></path><path d="M242.25,248.63a11.16,11.16,0,0,1-2-.18.93.93,0,0,1,.34-1.82c5.85,1.09,12-3.73,13.74-10.74.55-2.25,2-9.35,4.24-21.09a.92.92,0,1,1,1.81.35c-2.26,11.77-3.69,18.9-4.25,21.19C254.37,243.51,248.4,248.63,242.25,248.63Z" style="fill:#fff"></path><path d="M263.08,197l-.17,0a.92.92,0,0,1-.74-1.08c2.37-12.56,4.24-22.64,4.24-22.64a.91.91,0,0,1,1.07-.74.92.92,0,0,1,.75,1.08s-1.87,10.08-4.24,22.64A.93.93,0,0,1,263.08,197Z" style="fill:#fff"></path><path d="M259.23,245.25a5.41,5.41,0,0,1-3.73-1.41,6.42,6.42,0,0,1-1.74-6.05.92.92,0,0,1,1.08-.74,1,1,0,0,1,.74,1.09,4.61,4.61,0,0,0,1.17,4.34,3.94,3.94,0,0,0,3.85.72c7-2,9.48-7.44,10.74-11.37,2.38-7.46,10.79-38.1,13.32-51.17a1,1,0,0,1,1.09-.74.93.93,0,0,1,.73,1.09c-2.54,13.13-11,43.9-13.38,51.38-2.17,6.8-6.1,10.92-12,12.59A6.94,6.94,0,0,1,259.23,245.25Z" style="fill:#fff"></path><path d="M276.47,239.88a4.54,4.54,0,0,1-3.54-1.54c-1.59-1.79-2-5-1.08-8.18a.93.93,0,0,1,1.78.52c-.74,2.5-.46,5.15.68,6.43a3,3,0,0,0,2.94.85c3-.49,6.89-3.16,9-8,2.2-5.14,9.3-32,9.37-32.31a.93.93,0,1,1,1.79.47c-.29,1.11-7.21,27.31-9.46,32.57-2.5,5.86-7.15,8.56-10.36,9.1A7,7,0,0,1,276.47,239.88Z" style="fill:#fff"></path><path d="M249.79,299.44l-.67,6.4a3.25,3.25,0,0,1-.37,1.1,2,2,0,0,1-.73.78l-3.5,2a.58.58,0,0,1-.68,0,.87.87,0,0,1-.29-.75v-.12l.66-6.22-4.47,2.58-.66,6.4a3.06,3.06,0,0,1-.38,1.1,1.91,1.91,0,0,1-.73.78l-3.49,2a.6.6,0,0,1-.69,0,.9.9,0,0,1-.28-.75v-.12l.66-6.22-3,1.71a.7.7,0,0,1-.84,0,1.07,1.07,0,0,1-.35-.91v-3.72a3,3,0,0,1,.35-1.33,2.27,2.27,0,0,1,.84-1l3.72-2.15.93-8.62-3.5,2a.7.7,0,0,1-.84,0,1.07,1.07,0,0,1-.35-.91V289.9a2.9,2.9,0,0,1,.35-1.32,2.37,2.37,0,0,1,.84-1l4.25-2.45.71-6.37a4.12,4.12,0,0,1,.35-1.06,1.84,1.84,0,0,1,.71-.79l3.54-2.05a.6.6,0,0,1,.69,0,.9.9,0,0,1,.29.75v.18l-.67,6.1,4.43-2.55.7-6.37a3.8,3.8,0,0,1,.36-1.06,1.72,1.72,0,0,1,.71-.79l3.54-2a.58.58,0,0,1,.68,0,.9.9,0,0,1,.29.75V270l-.66,6.1,3-1.71a.7.7,0,0,1,.84,0,1.06,1.06,0,0,1,.35.91V279a2.81,2.81,0,0,1-.35,1.33,2.27,2.27,0,0,1-.84.95l-3.76,2.17-.89,8.6,3.5-2a.7.7,0,0,1,.84,0,1.06,1.06,0,0,1,.35.91v3.72a2.81,2.81,0,0,1-.35,1.33,2.27,2.27,0,0,1-.84.95Zm-9.25-1.56,4.42-2.56.93-8.62-4.47,2.58Z" style="fill:#fff"></path><path d="M259.48,275.44a1.32,1.32,0,0,1-.25-1,3.09,3.09,0,0,1,.47-1.33l9.6-15.63c.24-.37.48-.74.73-1.1a2.58,2.58,0,0,1,.82-.8l3.45-2a.7.7,0,0,1,.84,0,1.06,1.06,0,0,1,.35.91v38.11a2.79,2.79,0,0,1-.35,1.33,2.37,2.37,0,0,1-.84,1l-3.58,2.06a.7.7,0,0,1-.84,0,1.08,1.08,0,0,1-.36-.92V266.87L263.24,277a1.92,1.92,0,0,1-.86.83.73.73,0,0,1-.82-.15Z" style="fill:#fff"></path></g></g><g id="freepik--character-2--inject-61"><path d="M412.3,344.58a40.1,40.1,0,0,1,.62,6.57c.08,4,.81,5.41.91,8.68.11,3.75-.54,5.15-2.05,7.25s-5.51,4-7.19.46-1.47-5.89-.93-9.56.63-5.89.95-8.79c.28-2.55.62-4.48.62-4.48Z" style="fill:#263238"></path><path d="M401,313.2l13.14-.24c-.19,8.78-1.59,23.38-1.81,31.62-.05,1.55,0,12-.55,15.23-.88,4.79-6.56,4.14-6.87,1.28s.37-15.12.35-16.38c0-5.28-2.42-19.07-3.72-28.54C401.45,315.7,401,313.65,401,313.2Z" style="fill:#ffa8a7"></path><path d="M381.65,337.75s.68,0,.79.59a27.72,27.72,0,0,0,.43,2.78,16,16,0,0,1,.47,5.21c-.23,1.22-3,3.05-4.94,3.37s-4.61,2.21-6.11,3.62a14.67,14.67,0,0,1-8.5,3.34c-3.2,0-5.42-1.06-6.47-2.77s1-1.92,4.61-4.29l2.83-1.83c5.78-3.78,7.9-5.8,9.53-9.58Z" style="fill:#263238"></path><path d="M374.25,335.69C374.34,333,373,313,373,313l11.31,1.27c-2.67,16-2.89,21.4-2.59,23.72h0a2.07,2.07,0,0,1,.07.67c0,3.1-3.5,4.77-6.23,6.84-1.08.81-3.85,3.33-7.1,4.43-2.1.72-6,1-6.48-.29,3.32-2.53,7.84-5.85,10.48-8.74C373.67,339.48,374.15,338.41,374.25,335.69Z" style="fill:#ffa8a7"></path><path d="M411,223.62c6.17,13.47-.17,59.77-.17,59.77.19,2.18,2.69,6.49,3.62,16.11,1.1,11.37-2,41.8-2,41.8s-3,2.25-7.36.16c0,0-8-44.72-9.39-56-1.24-9.86-3.63-31.55-3.63-31.55l-6.79,31.5a59,59,0,0,1,2.15,9.74c.65,6.65-5.83,40-5.83,40a9.14,9.14,0,0,1-7.33-.14s-2.87-43.12-3.47-51.13c-1-13.45,3-55,4.66-63.84Z" style="fill:#455a64"></path><path d="M392.05,253.88l-2-12.52s-8.47-1.75-12.32-5.36a21.9,21.9,0,0,0,10,6.65l2.25,9.64-3.93,29.17Z" style="fill:#37474f"></path><path d="M329.37,179c3.24-4.66,4.92-3.37,6.18.89A19.82,19.82,0,0,0,337.8,185a9.66,9.66,0,0,1,.28-2.75,2,2,0,0,1,2.13-1.57c.41.1.1,1.1.46,2.78.46,2.14,1.36,3.21,1.26,5.59a3.74,3.74,0,0,0,.83,2.46c2.82,3.56,10.88,9.64,16.58,14,3.55-4.56,11.49-14.76,15.3-19.63,5.22-6.68,6.91-9.27,13-9.92a12.41,12.41,0,0,0-4.68,3.68c-2.36,2.84.67,16.18.67,16.18s-18,18.43-19.91,20.22c-.28.26-.56.5-.85.72a5.15,5.15,0,0,1-6.39-.09c-5.29-4.27-13.46-13-18.08-17.54a64.44,64.44,0,0,1-5.86-7C327.55,185.51,327.34,181.93,329.37,179Z" style="fill:#ffa8a7"></path><path d="M400,176.36h0c8,.55,8.55,4.4,10.55,8.62a13.67,13.67,0,0,1,.38,10.29l-5.57,16.1s2.61,6.3,5.63,12.25c-14,7.79-31.4,3.7-35.6-2-.18-1.21.9-10.64,1.57-16.8-2.46-6.17-3.11-10.08-2.08-14.16,1.93-7.57,9.41-14.94,12.72-14.68Z" style="fill:#CDC7FF"></path><path d="M396.45,225.13a8.44,8.44,0,0,0,6.29-10.28c-.05-.17-.1-.32-.14-.44a2.75,2.75,0,0,0-2.83-1.88h0a8.17,8.17,0,0,0,3.49-5.2l.73-2.24a26.23,26.23,0,0,0,.25-15.71l0-.14,5.94-3.38,1,.72a14,14,0,0,1-.22,8.69l-5.57,16.1s2.61,6.3,5.63,12.25a36.12,36.12,0,0,1-29.84,2A40.78,40.78,0,0,0,396.45,225.13Z" style="opacity:0.15"></path><path d="M430.32,161.7c-6.62,15.59-15.66,24.86-19.82,34.86-5.46-.37-9.71-13.54-5.65-19.17,0,0,15.61-18,17.06-24.77,1.28-6,4.06-15.64,3.91-20.73a3.5,3.5,0,0,0-1-2.26c-1.68-1.81-1.68-3.26-2.76-5.25-.84-1.55-1.75-2.13-1.49-2.48a2,2,0,0,1,2.72-.2,10.44,10.44,0,0,1,2.06,2,20.3,20.3,0,0,0-1.64-5.5c-1.85-4.19-1.4-6.33,4.26-4.84,3.55.94,5.77,3.89,6.3,12.41a81.48,81.48,0,0,1,.06,10.65c-.61,6.56-1.28,12.84-2.09,18.28A29,29,0,0,1,430.32,161.7Z" style="fill:#ffa8a7"></path><path d="M444.06,113.45a6.89,6.89,0,0,0-1.88-3.28,10.41,10.41,0,0,0-1.42-4.79c-1.54-2.89-3.25-3.12-3.25-3.12a7.55,7.55,0,0,0-2.1-4c-1.88-2-3.65-1.47-3.65-1.47V85a8.25,8.25,0,0,0-3.44-6.58h0a2.19,2.19,0,0,0-2.28-.16h0l-3.83,2.21-.15.08h0A3.1,3.1,0,0,0,421,83.24V99.15c0,7-1.69,10.74-1.65,16.65,0,3,1.34,8.49,1.34,9.7v6.34l18.52,10.69,3.93-2.27v-6.82c0-2.11.24-3.6,1-8.53S444.79,115.82,444.06,113.45Z" style="fill:#CDC7FF"></path><path d="M444.06,113.45a6.89,6.89,0,0,0-1.88-3.28,10.41,10.41,0,0,0-1.42-4.79c-1.54-2.89-3.25-3.12-3.25-3.12a7.55,7.55,0,0,0-2.1-4c-1.88-2-3.65-1.47-3.65-1.47V85a8.25,8.25,0,0,0-3.44-6.58h0a2.19,2.19,0,0,0-2.28-.16h0l-3.83,2.21-.15.08h0A3.1,3.1,0,0,0,421,83.24V99.15c0,7-1.69,10.74-1.65,16.65,0,3,1.34,8.49,1.34,9.7v6.34l18.52,10.69,3.93-2.27v-6.82c0-2.11.24-3.6,1-8.53S444.79,115.82,444.06,113.45Z" style="opacity:0.15"></path><path d="M435.8,139.55l3.36,3,3.93-2.27v-6.82c0-2.11.24-3.6,1-8.53s.73-9.09,0-11.46a.14.14,0,0,0,0-.06l-7.28,4.21Z" style="opacity:0.15"></path><path d="M442.18,110.16a10.17,10.17,0,0,0-1.09-4.14l-4.29,2.48-2.1,2.35,3.55,1.59,3.93-2.27Z" style="opacity:0.15"></path><path d="M431.3,102.6l2.28,1.93,3.93-2.27a6.86,6.86,0,0,0-1-2.66Z" style="opacity:0.15"></path><polygon points="431.76 96.77 427.83 99.03 427.83 87.22 431.76 84.95 431.76 96.77" style="opacity:0.15"></polygon><path d="M420.64,131.84V125.5c0-1.21-1.32-6.66-1.34-9.7,0-5.91,1.65-9.67,1.65-16.65V83.24c0-2.53,1.54-3.7,3.44-2.6h0a8.25,8.25,0,0,1,3.44,6.58V99s1.77-.52,3.65,1.46a7.59,7.59,0,0,1,2.1,4s1.71.23,3.25,3.12a10.41,10.41,0,0,1,1.42,4.79,6.89,6.89,0,0,1,1.88,3.28c.74,2.37.74,6.52,0,11.46s-1,6.42-1,8.53v6.82Z" style="fill:#CDC7FF"></path><path d="M438,140.48a.19.19,0,0,1-.2-.19V135a50.42,50.42,0,0,1,.85-7.84l.15-1c.79-5.32.57-8.83.11-10.33a5.69,5.69,0,0,0-.88-1.76,5.63,5.63,0,0,1-1-2,7.25,7.25,0,0,1-.16-.89,8,8,0,0,0-.15-.8,7.55,7.55,0,0,0-.81-2,7.8,7.8,0,0,0-1.56-1.91,6.4,6.4,0,0,1-1.65-1.82c-.14-.26-.27-.54-.39-.8s-.26-.55-.41-.81a6.75,6.75,0,0,0-1-1.47c-1.1-1-2-.9-2.3-.68a4.73,4.73,0,0,0-1.36,2.86.19.19,0,0,1-.21.15.18.18,0,0,1-.17-.18l-.37-17.3a5.19,5.19,0,0,0-2.27-4.23,1.19,1.19,0,0,0-1.18,0,2,2,0,0,0-.7,1.74V99.82a53.53,53.53,0,0,1-.9,9.3,41.66,41.66,0,0,0-.74,7.34,45.6,45.6,0,0,0,.84,6.28,23,23,0,0,1,.5,3.44V131a.2.2,0,1,1-.39,0v-4.77a23.86,23.86,0,0,0-.49-3.37,46.22,46.22,0,0,1-.85-6.35,42.14,42.14,0,0,1,.75-7.4,53,53,0,0,0,.9-9.24V84a2.33,2.33,0,0,1,.88-2.07,1.54,1.54,0,0,1,1.55,0,5.59,5.59,0,0,1,2.49,4.57l.34,15.95a3.72,3.72,0,0,1,1.13-1.77c.42-.36,1.56-.49,2.81.69a7.26,7.26,0,0,1,1.11,1.56c.15.27.29.56.42.83s.25.53.38.78a6,6,0,0,0,1.56,1.71,7.66,7.66,0,0,1,1.64,2,7.94,7.94,0,0,1,.86,2c.07.29.11.57.15.84a6.07,6.07,0,0,0,.16.85,5.24,5.24,0,0,0,.91,1.83,5.89,5.89,0,0,1,.95,1.89c.48,1.54.7,5.11-.1,10.5l-.14,1a48.94,48.94,0,0,0-.85,7.79v5.26A.19.19,0,0,1,438,140.48Z" style="fill:#fafafa"></path><path d="M429.23,114.61a8.67,8.67,0,0,1-4.28-1.48.18.18,0,0,1-.06-.26.19.19,0,0,1,.26-.07c2,1.21,3.9,1.7,5,1.27a1.49,1.49,0,0,0,.93-1,5.67,5.67,0,0,0-.7-3.85,30.36,30.36,0,0,1-4.31-1.45c-1.75-.81-2.07-.86-2.59.19-.15.3-.38.69-.65,1.14a14,14,0,0,0-2.11,4.91.2.2,0,1,1-.39,0,14.23,14.23,0,0,1,2.17-5.06c.26-.45.49-.83.63-1.12.7-1.41,1.41-1.15,3.1-.37a30.55,30.55,0,0,0,4.32,1.44.19.19,0,0,1,.12.09c.06.09,1.37,2.33.78,4.23a1.85,1.85,0,0,1-1.16,1.23A3.13,3.13,0,0,1,429.23,114.61Z" style="fill:#fafafa"></path><path d="M425.47,118.38a.2.2,0,0,1-.11-.36c1.49-1,1.23-4.12,1.23-4.15a.2.2,0,1,1,.39,0c0,.14.28,3.4-1.41,4.51A.19.19,0,0,1,425.47,118.38Z" style="fill:#fafafa"></path><path d="M426.57,108h0a.2.2,0,0,1-.18-.2s.15-1.83.46-4a.19.19,0,0,1,.22-.16.18.18,0,0,1,.16.22c-.31,2.12-.45,3.92-.45,3.94A.19.19,0,0,1,426.57,108Z" style="fill:#fafafa"></path><path d="M429,118.26c-.72,0-1.64-.68-2.51-1.85a.18.18,0,0,1,0-.27.19.19,0,0,1,.27,0c1,1.35,1.87,1.75,2.3,1.68a.57.57,0,0,0,.45-.44c.12-.34.42-1.47.89-3.38a.19.19,0,0,1,.23-.14.19.19,0,0,1,.14.23c-.47,1.92-.77,3.07-.89,3.41a1,1,0,0,1-.76.71Z" style="fill:#fafafa"></path><path d="M431.34,111.2h0a.19.19,0,0,1-.14-.23l.88-3.71a.2.2,0,0,1,.24-.14.19.19,0,0,1,.14.23s-.39,1.65-.89,3.71A.19.19,0,0,1,431.34,111.2Z" style="fill:#fafafa"></path><path d="M432.44,121.53a2.85,2.85,0,0,1-1.7-.88,3.8,3.8,0,0,1-1.35-3,.2.2,0,0,1,.23-.14.2.2,0,0,1,.15.24,3.49,3.49,0,0,0,1.23,2.58c.66.57,1.2.84,1.56.77a.74.74,0,0,0,.51-.48,56.38,56.38,0,0,0,2.78-7.45.2.2,0,0,1,.23-.14.19.19,0,0,1,.14.24,57.75,57.75,0,0,1-2.8,7.53,1.16,1.16,0,0,1-.79.68Z" style="fill:#fafafa"></path><path d="M435.79,124.4a2.72,2.72,0,0,1-1.6-.86,3.26,3.26,0,0,1-1-3.1.19.19,0,1,1,.35.15,2.91,2.91,0,0,0,.93,2.68,2.18,2.18,0,0,0,1.37.74.53.53,0,0,0,.37-.18,36.43,36.43,0,0,0,1.94-4.45.19.19,0,0,1,.24-.12.2.2,0,0,1,.12.25,37.71,37.71,0,0,1-2,4.57,1,1,0,0,1-.66.32Z" style="fill:#fafafa"></path><path d="M428.56,129.4l-.14,1.18a.2.2,0,0,1-.08.14.14.14,0,0,1-.15,0l-.73-.42a.34.34,0,0,1-.15-.16.49.49,0,0,1-.06-.23v0l.14-1.14-.93-.54-.14,1.18a.22.22,0,0,1-.08.14.14.14,0,0,1-.15,0l-.73-.42a.39.39,0,0,1-.15-.16.49.49,0,0,1-.06-.23v0l.14-1.14-.62-.36a.58.58,0,0,1-.17-.2.63.63,0,0,1-.08-.28v-.77a.23.23,0,0,1,.08-.2.15.15,0,0,1,.17,0l.78.44.19-1.57-.73-.42a.58.58,0,0,1-.17-.2.63.63,0,0,1-.08-.28v-.78a.23.23,0,0,1,.08-.19.14.14,0,0,1,.17,0l.89.52.15-1.16a.26.26,0,0,1,.07-.14.12.12,0,0,1,.15,0l.74.42a.35.35,0,0,1,.14.17.46.46,0,0,1,.06.22v0l-.13,1.11.92.54.15-1.16a.26.26,0,0,1,.07-.14.12.12,0,0,1,.15,0l.74.42a.4.4,0,0,1,.14.17.46.46,0,0,1,.06.22v0l-.13,1.12.62.35a.58.58,0,0,1,.17.2.61.61,0,0,1,.07.28v.78a.22.22,0,0,1-.07.19.14.14,0,0,1-.17,0l-.79-.46-.19,1.59.73.42a.45.45,0,0,1,.18.2.54.54,0,0,1,.07.27v.78a.21.21,0,0,1-.07.19.15.15,0,0,1-.18,0Zm-1.94-2.56.93.54.19-1.58-.93-.54Z" style="fill:#fafafa"></path><path d="M430.58,126.72a.54.54,0,0,1-.05-.27.19.19,0,0,1,.1-.17l2-1,.15,0a.18.18,0,0,1,.17,0l.72.42a.45.45,0,0,1,.18.2.54.54,0,0,1,.07.27v8a.22.22,0,0,1-.07.19.15.15,0,0,1-.18,0l-.75-.44a.39.39,0,0,1-.17-.2.56.56,0,0,1-.08-.27v-6.09l-1.31.61a.18.18,0,0,1-.18,0,.6.6,0,0,1-.17-.23Z" style="fill:#fafafa"></path><path d="M375.23,173.78h17.53a16.92,16.92,0,0,0,16.92-16.92v-3.54a17.87,17.87,0,0,0-17.87-17.87h0A16.58,16.58,0,0,0,375.23,152Z" style="fill:#263238"></path><path d="M381,145.08c-.89.47-3.28,5-3,15,.19,8.44,2.92,10.52,4.3,11.12s4,.24,6.59-.19V176s-3.55,4.13-3.33,6.45,5.14,2.87,8.47.61a21.71,21.71,0,0,0,5.46-5.72V165.14a3.23,3.23,0,0,0,4.58.43c2.84-1.89,2.95-6.56,1.3-8.24s-5.22-1.14-5.88,1.18c0,0-4.17.73-9.76-2.87C383.6,151.76,381.74,148.66,381,145.08Z" style="fill:#ffa8a7"></path><path d="M379.57,154.52l2.36-1.13a1.25,1.25,0,0,0-1.7-.65A1.38,1.38,0,0,0,379.57,154.52Z" style="fill:#263238"></path><path d="M389.33,153.77l2.21,1.39a1.25,1.25,0,0,0-.36-1.78A1.37,1.37,0,0,0,389.33,153.77Z" style="fill:#263238"></path><path d="M399.5,156.18l-.15,5.16a2.51,2.51,0,0,1-2.56-2.57A2.72,2.72,0,0,1,399.5,156.18Z" style="fill:#263238"></path><path d="M402,139.62l2.22-4.66a2.5,2.5,0,0,1,1.3,3.39A2.71,2.71,0,0,1,402,139.62Z" style="fill:#263238"></path><path d="M403.14,139.33l5.14-.45a2.5,2.5,0,0,1-2.25,2.84A2.71,2.71,0,0,1,403.14,139.33Z" style="fill:#263238"></path><path d="M388.27,157.61a1.06,1.06,0,1,0,1.11-1.05A1.08,1.08,0,0,0,388.27,157.61Z" style="fill:#263238"></path><path d="M387,165.08l-2.46.79a1.27,1.27,0,0,0,1.6.88A1.35,1.35,0,0,0,387,165.08Z" style="fill:#f28f8f"></path><path d="M380.07,157.16a1.07,1.07,0,0,0,1,1.16,1.09,1.09,0,0,0,1.11-1,1.08,1.08,0,0,0-1-1.16A1.09,1.09,0,0,0,380.07,157.16Z" style="fill:#263238"></path><polygon points="385.25 156.56 385.08 162.94 381.72 161.9 385.25 156.56" style="fill:#f28f8f"></polygon><path d="M388.8,171c2.72-.36,8.3-2,9.17-4.17a5.71,5.71,0,0,1-2,2.82c-1.67,1.43-7.21,3-7.21,3Z" style="fill:#f28f8f"></path></g><g id="freepik--character-1--inject-61"><path d="M147.65,167.2c2.7-3.91,3.21-11,4.42-36.32.15-3-7.89,2.3-8.53,4.27-.52,1.58-2.54,23.68-4.21,25.86-3.51,3.47-16.66,10.68-22.07,11.53s-6.19,4.68-6.19,4.68,6,13,14.09,8.49C130.53,182.73,145.8,169.89,147.65,167.2Z" style="fill:#b16668"></path><path d="M112.63,173.06c2.7-.81,4.82-2,8.48-3.36,4.89-1.88,10.46-4.14,10.46-4.14s8.69,4.09,5.82,12.41l-13.24,8.7Z" style="fill:#455a64"></path><path d="M158.38,101.15a2.11,2.11,0,0,0-.84-1h0l-1.07-.62a3.79,3.79,0,0,0-1.39-2.66l-.22-.13-3.77-2.18h0a2.27,2.27,0,0,0-2.55.16l-1.45-.84h0a1.75,1.75,0,0,0-1-.28V86.86a3.08,3.08,0,0,0-1.18-2.78h0L141,81.83h0a2.19,2.19,0,0,0-2.29.16h0c-1.9,1.09-3.44,4-3.44,6.57v15.9c0,7-1.68,12.69-1.64,18.55,0,3,1.34,6.94,1.34,8.16v6.33l3.93,2.27,18.52-10.69v-6.82a80.2,80.2,0,0,1,1-9.66C159.11,106.82,159.11,102.68,158.38,101.15Z" style="fill:#CDC7FF"></path><path d="M158.38,101.15a2.11,2.11,0,0,0-.84-1h0l-1.07-.62a3.79,3.79,0,0,0-1.39-2.66l-.22-.13-3.77-2.18h0a2.27,2.27,0,0,0-2.55.16l-1.45-.84h0a1.75,1.75,0,0,0-1-.28V86.86a3.08,3.08,0,0,0-1.18-2.78h0L141,81.83h0a2.19,2.19,0,0,0-2.29.16h0c-1.9,1.09-3.44,4-3.44,6.57v15.9c0,7-1.68,12.69-1.64,18.55,0,3,1.34,6.94,1.34,8.16v6.33l3.93,2.27,18.52-10.69v-6.82a80.2,80.2,0,0,1,1-9.66C159.11,106.82,159.11,102.68,158.38,101.15Z" style="opacity:0.15"></path><path d="M157.49,100.15a1.35,1.35,0,0,0-1-.1,3.72,3.72,0,0,0,0-.5Z" style="opacity:0.15"></path><path d="M147.81,96.82a10,10,0,0,0-1.73,1.85V95.83Z" style="opacity:0.15"></path><path d="M148.54,94.75,151,96.13a1.59,1.59,0,0,1,.58.6,2.11,2.11,0,0,1,.29.8,4.24,4.24,0,0,1,1.12-.77L149,94.5A3,3,0,0,0,148.54,94.75Z" style="opacity:0.15"></path><path d="M138.89,139.77v-6.33c0-1.22-1.32-5.14-1.34-8.16,0-5.87,1.64-11.56,1.64-18.55V90.83c0-2.53,1.54-5.48,3.45-6.57h0c1.9-1.1,3.44.06,3.44,2.6V98.67s1.76-2.56,3.65-2.76a1.83,1.83,0,0,1,2.09,1.62s1.71-1.75,3.26-.64a4,4,0,0,1,1.41,3.16s1.16-.43,1.89,1.1.73,5.67,0,11.45a80.2,80.2,0,0,0-1,9.66v6.82Z" style="fill:#CDC7FF"></path><path d="M140.06,137.72a.19.19,0,0,1-.19-.19v-4.77a14.23,14.23,0,0,0-.49-2.8,28.1,28.1,0,0,1-.85-5.37,57.09,57.09,0,0,1,.75-8.26,73.17,73.17,0,0,0,.89-10.27V90.24a5.79,5.79,0,0,1,2.25-4.51,1.69,1.69,0,0,1,1.77-.21,2.16,2.16,0,0,1,.91,2l.33,15.16a12.88,12.88,0,0,1,1.09-3,4.67,4.67,0,0,1,2.68-2.37,1.7,1.7,0,0,1,1.22.3,2.69,2.69,0,0,1,.45.37,2,2,0,0,0,.36.31c.36.24.91.07,1.43-.1a2.23,2.23,0,0,1,1.75.13,2,2,0,0,1,.93,1.14,3.75,3.75,0,0,1,.16.68,2.31,2.31,0,0,0,.15.64,1,1,0,0,0,.79.69,1.38,1.38,0,0,1,1.07.87c.48,1,.71,4.33-.09,10.64l-.15,1.16a69.22,69.22,0,0,0-.84,8.77v5.26a.2.2,0,0,1-.2.19.2.2,0,0,1-.19-.19v-5.26a68.31,68.31,0,0,1,.85-8.82L157,113c.79-6.22.58-9.46.13-10.42a1,1,0,0,0-.77-.65,1.38,1.38,0,0,1-1.1-.93,3.39,3.39,0,0,1-.18-.73,3.65,3.65,0,0,0-.13-.61,1.72,1.72,0,0,0-.75-.93,1.85,1.85,0,0,0-1.45-.1,2.08,2.08,0,0,1-1.77.06,2.35,2.35,0,0,1-.41-.36,2.69,2.69,0,0,0-.38-.32,1.41,1.41,0,0,0-.93-.25,4.34,4.34,0,0,0-2.43,2.16,15.15,15.15,0,0,0-1.4,4.56.2.2,0,0,1-.21.15.17.17,0,0,1-.17-.18l-.37-16.87a1.81,1.81,0,0,0-.71-1.68,1.32,1.32,0,0,0-1.37.19,5.46,5.46,0,0,0-2.07,4.19v15.82a73.58,73.58,0,0,1-.9,10.32,57.81,57.81,0,0,0-.74,8.21,27.64,27.64,0,0,0,.84,5.29,14,14,0,0,1,.5,2.88v4.77A.19.19,0,0,1,140.06,137.72Z" style="fill:#fff"></path><path d="M138.81,122.23h0a.19.19,0,0,1-.17-.21,41.21,41.21,0,0,1,2.15-7.51c.27-.75.49-1.4.64-1.86.63-2,1.21-2.48,2.92-3.66s4.31-3.54,4.33-3.56a.18.18,0,0,1,.22,0c.06,0,1.45.8.86,3.41-.55,2.43-3.28,5.51-6.35,7.17a.19.19,0,0,1-.26-.07.2.2,0,0,1,.08-.27c3-1.61,5.62-4.59,6.15-6.91.44-1.91-.27-2.69-.55-2.91-.52.46-2.74,2.43-4.26,3.49-1.7,1.17-2.17,1.56-2.77,3.45-.15.48-.38,1.13-.64,1.88a41.06,41.06,0,0,0-2.14,7.42A.19.19,0,0,1,138.81,122.23Z" style="fill:#fff"></path><path d="M143.71,120.74a.15.15,0,0,1-.09,0,.2.2,0,0,1-.08-.26,11.07,11.07,0,0,0,1.3-5.74.21.21,0,0,1,.17-.22.2.2,0,0,1,.21.18,11.06,11.06,0,0,1-1.34,6A.18.18,0,0,1,143.71,120.74Z" style="fill:#fff"></path><path d="M144.81,109.07h0a.19.19,0,0,1-.18-.21s.15-2,.46-4.48a.19.19,0,0,1,.21-.17.19.19,0,0,1,.17.22c-.31,2.47-.45,4.44-.45,4.46A.2.2,0,0,1,144.81,109.07Z" style="fill:#fff"></path><path d="M145.23,117.58a3,3,0,0,1-.42,0,.2.2,0,0,1-.15-.23.19.19,0,0,1,.22-.15,2.72,2.72,0,0,0,2.88-2.24c.11-.48.41-2,.88-4.41a.19.19,0,1,1,.38.07c-.47,2.46-.77,4-.89,4.43A3.21,3.21,0,0,1,145.23,117.58Z" style="fill:#fff"></path><path d="M149.58,106.79h0a.19.19,0,0,1-.16-.22c.5-2.63.89-4.73.89-4.73a.19.19,0,0,1,.22-.16.2.2,0,0,1,.16.23s-.39,2.1-.89,4.73A.2.2,0,0,1,149.58,106.79Z" style="fill:#fff"></path><path d="M148.78,116.87a1.14,1.14,0,0,1-.78-.29,1.35,1.35,0,0,1-.37-1.27.2.2,0,0,1,.23-.15.18.18,0,0,1,.15.22,1,1,0,0,0,.25.91.8.8,0,0,0,.8.15,3.24,3.24,0,0,0,2.25-2.38c.5-1.55,2.25-8,2.78-10.69a.2.2,0,0,1,.23-.15.2.2,0,0,1,.15.23c-.53,2.74-2.29,9.17-2.79,10.73a3.64,3.64,0,0,1-2.51,2.63A1.37,1.37,0,0,1,148.78,116.87Z" style="fill:#fff"></path><path d="M152.38,115.75a1,1,0,0,1-.74-.32,1.86,1.86,0,0,1-.22-1.71.18.18,0,0,1,.24-.13.19.19,0,0,1,.13.24,1.49,1.49,0,0,0,.14,1.34.64.64,0,0,0,.61.18,2.76,2.76,0,0,0,1.88-1.67c.45-1.08,1.94-6.7,2-6.76a.21.21,0,0,1,.24-.14.2.2,0,0,1,.14.24c-.06.23-1.51,5.71-2,6.81a3.06,3.06,0,0,1-2.16,1.9Z" style="fill:#fff"></path><path d="M146.8,128.19l-.13,1.34a.9.9,0,0,1-.08.23.35.35,0,0,1-.16.16l-.73.43a.12.12,0,0,1-.14,0,.18.18,0,0,1-.06-.16v0l.14-1.3-.93.54-.14,1.33a.78.78,0,0,1-.08.23.42.42,0,0,1-.15.17l-.73.42a.14.14,0,0,1-.15,0,.18.18,0,0,1-.06-.16v0l.14-1.3-.62.36c-.07,0-.13,0-.17,0a.23.23,0,0,1-.08-.19v-.78a.63.63,0,0,1,.08-.28.42.42,0,0,1,.17-.2l.78-.44.19-1.81-.73.43a.13.13,0,0,1-.17,0,.23.23,0,0,1-.08-.19v-.78a.63.63,0,0,1,.08-.28.49.49,0,0,1,.17-.2l.89-.51.15-1.33a.63.63,0,0,1,.07-.22.42.42,0,0,1,.15-.17l.74-.42a.11.11,0,0,1,.14,0,.2.2,0,0,1,.06.16v0l-.14,1.27.93-.53.15-1.33a.63.63,0,0,1,.07-.22.42.42,0,0,1,.15-.17l.74-.42a.11.11,0,0,1,.14,0,.2.2,0,0,1,.06.16v0l-.14,1.27.62-.36a.17.17,0,0,1,.18,0,.22.22,0,0,1,.07.19v.78a.61.61,0,0,1-.07.28.51.51,0,0,1-.18.2l-.78.45-.19,1.8.73-.43a.17.17,0,0,1,.18,0,.22.22,0,0,1,.07.19v.78a.61.61,0,0,1-.07.28.51.51,0,0,1-.18.2Zm-1.93-.32.93-.54.19-1.8-.93.54Z" style="fill:#fff"></path><path d="M148.83,123.18a.29.29,0,0,1-.05-.22.63.63,0,0,1,.1-.28l2-3.26.15-.23a.57.57,0,0,1,.18-.17l.72-.42a.15.15,0,0,1,.17,0,.23.23,0,0,1,.08.19v8a.56.56,0,0,1-.08.27.44.44,0,0,1-.17.2l-.75.44a.15.15,0,0,1-.18,0,.22.22,0,0,1-.07-.19v-6.09l-1.31,2.12a.51.51,0,0,1-.18.18.19.19,0,0,1-.18,0Z" style="fill:#fff"></path><rect x="90.61" y="337.91" width="8.1" height="13.86" transform="translate(189.31 689.68) rotate(180)" style="fill:#b16668"></rect><path d="M98.71,347.77v-1.15c.77.33,2.57,7.2,5.78,10.13,2.56,2.33,6,5,6.93,7.62s-4.85,4.19-7.24,3.77c-2.77-.49-7.58-2.44-8.78-4.25s-1.78-4.48-2.76-5.81-3.24-2.81-3.77-4.34c-.29-.84.06-2.69.47-4.25s.78-3,1.27-2.87v.88a6.41,6.41,0,0,0,4,1.37C95.84,348.91,98.72,348.68,98.71,347.77Z" style="fill:#263238"></path><polygon points="113.02 341.4 121.11 341.68 121.51 327.01 113.02 326.73 113.02 341.4" style="fill:#b16668"></polygon><path d="M121.19,339.18c.42,0,.77.61,1.69,1.61a17.45,17.45,0,0,0,4.77,3.43c3,1.52,8.92,3.85,11.59,5.06,1.67.75,1.59,2.76-.13,3.9s-5.88,2-10.88.86c-2.72-.61-6.26-3.12-8.5-3s-6.44.11-8.09-1-1-3.58-.53-5.67c.51-2.29,1.15-5.85,1.91-5.69v.78c1,1.48,6,2.08,8.13,1Z" style="fill:#263238"></path><path d="M87.16,234.4c0,7.74,1.37,52.71,1.37,52.71-.19,2.23-2.33,6.18-2.5,14.2-.24,11.62,4.23,43.53,4.23,43.53a10.65,10.65,0,0,0,9,.18s3.67-43.26,5.12-54.76c1.27-10,3.42-37.32,3.42-37.32l3.81,32.78a46.1,46.1,0,0,0-1,12.87c.37,5.32,1.87,38.27,1.87,38.27a11.07,11.07,0,0,0,9.35.71s5.71-47,5.81-51.85c.1-5.57-2.12-62.39-2.12-62.39Z" style="fill:#37474f"></path><path d="M107.82,252.94a29.94,29.94,0,0,0,11.27-6.46s-2.17,4.07-8.64,7.86l.86,28.62Z" style="fill:#263238"></path><path d="M82.19,163.24c-.8-.45-4.61,1.23-7,4.34s-2.8,7.57-2.11,8.54,10-2.77,10-2.77Z" style="fill:#37474f"></path><path d="M92.48,177.52a7.46,7.46,0,0,0-3.9,4.06c-.64,1.62-2.56,4.24-2.56,7.33l1.37,15.54-.23,30c11.62,6.13,26.4,6.54,38.8-2.51,0,0-.7-38.57-.7-44.87,0-.29,0-.58,0-.87a14.2,14.2,0,0,0-11.19-13.05c-2.19-.49-14.2,2-14.2,2l-7.37,2.43Z" style="fill:#CDC7FF"></path><path d="M67.08,165c1.38,3.12,17.74,25,21.67,30.24,10.22-4.95,2.69-16.88,2.69-16.88s-11.8-17.24-13.72-20.15a6.77,6.77,0,0,1-.9-2.43c-.29-1.58-2-21-1.31-26.86a4.35,4.35,0,0,1,1.43-2.71c2.11-1.88,2.8-3.56,4.25-5.74,1.14-1.69,2.27-2.26,2-2.69a2.32,2.32,0,0,0-3.11-.54,16.19,16.19,0,0,0-3,2.4,21.43,21.43,0,0,1,2.41-6.49c2.61-4.63,2.32-7.15-4.38-6-4.19.69-8.15,4.15-9.7,13.93A85.65,85.65,0,0,0,65,131.7c-.08,8.22.22,21.22.65,26.9C65.81,161.47,65.69,161.89,67.08,165Z" style="fill:#b16668"></path><path d="M94,177,82.19,163.24s.64,10.35-9.13,12.88L86.56,195c1.52,2.85,6.24-.54,7.55-6.72C95.94,179.64,94,177,94,177Z" style="fill:#455a64"></path><path d="M98.93,175.4l-1.37.45a12.31,12.31,0,0,0,6.9,4.54c4.53,1.06,7.86-.07,8.75-1.59s-.59-4.15-2.14-5.21Z" style="fill:#455a64"></path><path d="M102.14,148a11.13,11.13,0,1,0,11.13-11.13A11.13,11.13,0,0,0,102.14,148Z" style="fill:#263238"></path><path d="M94,155.92s1.81,8.48,2.53,9.87a3.85,3.85,0,0,0,2.22,1.79l-.13-6Z" style="fill:#263238"></path><path d="M96.3,143.79A4.16,4.16,0,0,0,92.84,145c-1.48,1.52-.65,6.27,1.19,10.92l3.4.39Z" style="fill:#263238"></path><path d="M98.45,156.32c-.68.4-1.65-.9-2.49-1.78s-3.58-2.08-4.95.8,1.2,6.82,3.36,7.5c3.72,1.16,4.28-1.22,4.28-1.22l.28,13.78h0c4.62,5.93,17.46,5.48,12.11-.72V170.6a23.19,23.19,0,0,0,5,.25c2.74-.42,4.46-2.58,5.29-5.54,1.33-4.76,1.84-8.6.71-17.95-1.24-10.25-13.17-10.36-19.61-6.31S98.45,156.32,98.45,156.32Z" style="fill:#b16668"></path><path d="M98.45,157.46c-.34,0-1.65-2.15-2.49-2.92-1.18-1.07.34-10.75.34-10.75a4.59,4.59,0,0,1,1.13-4.9c1.61-1.77,3.36-2.89,8-3.14,2.72-.14,7.07.29,9.51.45,4.58.31,6.27-.82,8.9-1.56,2-.56,2.24,6.71-2.84,9.12,0,0-1.66,1.07-6,1.6a65,65,0,0,1-12.07-.23c-1.26-.18-1.53,1.05-2.21,4.4C100.1,152.46,99.6,157.44,98.45,157.46Z" style="fill:#263238"></path><path d="M96.3,144.54l-4.11-2.21a2.26,2.26,0,0,1,3.11-1A2.45,2.45,0,0,1,96.3,144.54Z" style="fill:#263238"></path><path d="M111,170.6s-6.11-1.23-8.24-2.37a7,7,0,0,1-3-2.92,9.73,9.73,0,0,0,1.67,3.45c1.56,2,9.52,3.46,9.52,3.46Z" style="fill:#9a4a4d"></path><path d="M110.73,154.79a1.23,1.23,0,1,1-2.45,0,1.24,1.24,0,0,1,1.23-1.26A1.25,1.25,0,0,1,110.73,154.79Z" style="fill:#263238"></path><path d="M109.43,150.17l-2.61,1.44a1.55,1.55,0,0,1,.61-2.08A1.45,1.45,0,0,1,109.43,150.17Z" style="fill:#263238"></path><path d="M110.48,163.24l2.79,1a1.47,1.47,0,0,1-1.9.93A1.56,1.56,0,0,1,110.48,163.24Z" style="fill:#9a4a4d"></path><path d="M121.29,151.19l-2.39-1.84A1.45,1.45,0,0,1,121,149,1.58,1.58,0,0,1,121.29,151.19Z" style="fill:#263238"></path><path d="M120.56,154.44a1.23,1.23,0,1,1-1.23-1.27A1.25,1.25,0,0,1,120.56,154.44Z" style="fill:#263238"></path><polygon points="114.32 153.28 114.72 160.64 118.56 159.33 114.32 153.28" style="fill:#9a4a4d"></polygon></g></svg>