<?xml version="1.0" encoding="UTF-8" standalone="no"?>
<svg xmlns="http://www.w3.org/2000/svg" xmlns:xlink="http://www.w3.org/1999/xlink" version="1.1"
	width="1200" height="700" viewBox="0 210 1180 500" xml:space="preserve">

<g transform="matrix(1 0 0 1 540 540)" id="0e58eaf9-395a-4263-b0d6-ec67f851c679"  >
<rect style="stroke: none; stroke-width: 1; stroke-dasharray: none; stroke-linecap: butt; stroke-dashoffset: 0; stroke-linejoin: miter; stroke-miterlimit: 4; fill: rgb(255,255,255); fill-rule: nonzero; opacity: 1; visibility: hidden;" vector-effect="non-scaling-stroke"  x="-540" y="-540" rx="0" ry="0" width="1080" height="1080" />
</g>
<g transform="matrix(1 0 0 1 540 540)" id="0c764ea4-e5a1-46d2-82c0-6ff11278ac98"  >
</g>
<g transform="matrix(1.7 0 0 1.7 201.51 436.07)"  >
<path style="stroke: none; stroke-width: 1; stroke-dasharray: none; stroke-linecap: butt; stroke-dashoffset: 0; stroke-linejoin: miter; stroke-miterlimit: 4; fill: rgb(0,0,0); fill-rule: nonzero; opacity: 1;" vector-effect="non-scaling-stroke"  transform=" translate(-172.67, -157.16)" d="M 289.06 85.21 L 262.07 81.77999999999999 C 261.83 80.32 261.4 78.93999999999998 260.8 77.63999999999999 L 291.23 41.22999999999999 L 253.05 69.82999999999998 C 251.86 69.26999999999998 250.60000000000002 68.83999999999999 249.28 68.58999999999999 L 245.65 38.639999999999986 L 243.31 68.57 C 241.89000000000001 68.83 240.54 69.27999999999999 239.28 69.88999999999999 L 201.8 39.94999999999999 L 231.8 77.28999999999999 C 231.22 78.47 230.77 79.72 230.49 81.03999999999999 L 204.3 85.61999999999999 L 230.39000000000001 87.08999999999999 C 230.39000000000001 87.08999999999999 230.39000000000001 87.13 230.39000000000001 87.14999999999999 L 217.93 100.47 L 196.34 123.56 L 176.67000000000002 144.59 L 145.87 177.53 L 54.10000000000001 275.67 L 145.87 190.93 L 176.67000000000002 162.49 L 196.34000000000003 144.32 L 227.14000000000004 115.88 L 243.97000000000003 100.34 L 246.96000000000004 128.08 L 249.96000000000004 100.02000000000001 C 251.10000000000002 99.75000000000001 252.20000000000005 99.35000000000001 253.23000000000005 98.85000000000001 L 288.43000000000006 128.20000000000002 L 260.49000000000007 91.79000000000002 C 261.00000000000006 90.82000000000002 261.4000000000001 89.79000000000002 261.70000000000005 88.71000000000002 L 289.07000000000005 85.20000000000002 Z" stroke-linecap="round" />
</g>
<g transform="matrix(1.7 0 0 1.7 502.11 492.92)"  >
<path style="stroke: none; stroke-width: 1; stroke-dasharray: none; stroke-linecap: butt; stroke-dashoffset: 0; stroke-linejoin: miter; stroke-miterlimit: 4; fill: rgb(0,0,0); fill-rule: nonzero; opacity: 1;" vector-effect="non-scaling-stroke"  transform=" translate(-349.67, -190.67)" d="M 391.79 240.12 L 391.79 240.41 C 391.79 241.57 390.63 242.15 388.89000000000004 242.15 L 368.73 242.15 C 366.99 242.15 365.83000000000004 241.57 365.83000000000004 240.41 L 365.83000000000004 240.12 C 365.83000000000004 237.37 372.06000000000006 237.37 368.73 232 L 346.98 201.98 C 345.82 202.11999999999998 344.66 202.11999999999998 343.35 202.11999999999998 L 325.95000000000005 202.40999999999997 L 325.95000000000005 231.98999999999995 C 325.95000000000005 237.20999999999995 331.61000000000007 237.35999999999996 331.61000000000007 240.10999999999996 L 331.61000000000007 240.39999999999995 C 331.61000000000007 241.55999999999995 330.45000000000005 242.13999999999996 328.7100000000001 242.13999999999996 L 310.4400000000001 242.13999999999996 C 308.7000000000001 242.13999999999996 307.54000000000013 241.55999999999995 307.54000000000013 240.39999999999995 L 307.54000000000013 240.10999999999996 C 307.54000000000013 237.35999999999996 312.76000000000016 237.20999999999995 312.76000000000016 231.98999999999995 L 312.76000000000016 149.33999999999995 C 312.76000000000016 144.11999999999995 307.54000000000013 143.96999999999994 307.54000000000013 141.21999999999994 L 307.54000000000013 140.92999999999995 C 307.54000000000013 139.76999999999995 308.70000000000016 139.18999999999994 310.4400000000001 139.18999999999994 L 340.17000000000013 139.18999999999994 C 364.97000000000014 139.18999999999994 383.8200000000001 149.19999999999993 383.96000000000015 171.08999999999995 C 383.96000000000015 184.28999999999994 375.40000000000015 195.44999999999993 359.45000000000016 199.94999999999993 L 382.65000000000015 231.99999999999994 C 386.57000000000016 237.50999999999993 391.79000000000013 237.36999999999995 391.79000000000013 240.11999999999995 Z M 370.47 172.98000000000002 C 370.47 153.84000000000003 355.68 145.14000000000001 339.44000000000005 145.14000000000001 L 329.72 145.14000000000001 C 327.11 145.14000000000001 325.95000000000005 147.02 325.95000000000005 150.07000000000002 L 325.95000000000005 189.51000000000002 C 325.95000000000005 194.3 328.13000000000005 196.33 332.04 196.33 L 342.05 196.33 C 358.87 196.33 370.47 187.63000000000002 370.47 172.98000000000002 Z" stroke-linecap="round" />
</g>
<g transform="matrix(1.7 0 0 1.7 602.08 492.92)"  >
<path style="stroke: none; stroke-width: 1; stroke-dasharray: none; stroke-linecap: butt; stroke-dashoffset: 0; stroke-linejoin: miter; stroke-miterlimit: 4; fill: rgb(0,0,0); fill-rule: nonzero; opacity: 1;" vector-effect="non-scaling-stroke"  transform=" translate(-408.53, -190.68)" d="M 396.57 240.12 C 396.57 237.51 401.79 237.37 401.79 232.15 L 401.79 149.35000000000002 C 401.79 144.13000000000002 396.57 143.98000000000002 396.57 141.23000000000002 L 396.57 140.94000000000003 C 396.57 139.78000000000003 397.73 139.20000000000002 399.46999999999997 139.20000000000002 L 417.59999999999997 139.20000000000002 C 419.34 139.20000000000002 420.49999999999994 139.78000000000003 420.49999999999994 140.94000000000003 L 420.49999999999994 141.23000000000002 C 420.49999999999994 143.98000000000002 414.98999999999995 144.13000000000002 414.98999999999995 149.35000000000002 L 414.98999999999995 232.15000000000003 C 414.98999999999995 237.37000000000003 420.49999999999994 237.51000000000005 420.49999999999994 240.12000000000003 L 420.49999999999994 240.41000000000003 C 420.49999999999994 241.57000000000002 419.3399999999999 242.15000000000003 417.59999999999997 242.15000000000003 L 399.46999999999997 242.15000000000003 C 397.72999999999996 242.15000000000003 396.57 241.57000000000002 396.57 240.41000000000003 L 396.57 240.12000000000003 Z" stroke-linecap="round" />
</g>
<g transform="matrix(1.7 0 0 1.7 719.51 493.04)"  >
<path style="stroke: none; stroke-width: 1; stroke-dasharray: none; stroke-linecap: butt; stroke-dashoffset: 0; stroke-linejoin: miter; stroke-miterlimit: 4; fill: rgb(0,0,0); fill-rule: nonzero; opacity: 1;" vector-effect="non-scaling-stroke"  transform=" translate(-477.63, -190.75)" d="M 429.06 191.11 C 429.06 159.06 450.52 137.89000000000001 477.64 137.89000000000001 C 502.15 137.89000000000001 517.66 153.99 517.66 164.57000000000002 C 517.66 168.34000000000003 515.1999999999999 170.81000000000003 511.41999999999996 170.81000000000003 C 500.53999999999996 170.81000000000003 500.24999999999994 143.84000000000003 473.85999999999996 143.84000000000003 C 456.30999999999995 143.84000000000003 441.96 160.80000000000004 441.96 183.28000000000003 C 441.96 212.72000000000003 461.53999999999996 234.76000000000002 482.71 234.76000000000002 C 491.98999999999995 234.76000000000002 500.26 232.15 505.33 228.52 L 505.33 203.44 C 505.33 197.64 495.46999999999997 197.93 495.46999999999997 195.46 L 495.46999999999997 194.88 C 495.46999999999997 193.57999999999998 496.77 192.85 498.51 192.85 L 523.31 193 C 525.05 193 526.2099999999999 193.72 526.2099999999999 194.88 L 526.2099999999999 195.46 C 526.2099999999999 197.92000000000002 517.65 197.63 517.65 203.44 L 517.65 225.92 C 517.65 228.95999999999998 516.78 230.55999999999997 513.88 232.88 C 506.34 239.12 494.3 243.60999999999999 479.22 243.60999999999999 C 452.54 243.60999999999999 429.05 219.54 429.05 191.11999999999998 Z" stroke-linecap="round" />
</g>
<g transform="matrix(1.7 0 0 1.7 832.9 492.92)"  >
<path style="stroke: none; stroke-width: 1; stroke-dasharray: none; stroke-linecap: butt; stroke-dashoffset: 0; stroke-linejoin: miter; stroke-miterlimit: 4; fill: rgb(0,0,0); fill-rule: nonzero; opacity: 1;" vector-effect="non-scaling-stroke"  transform=" translate(-544.4, -190.68)" d="M 532.44 240.12 C 532.44 237.51 537.6600000000001 237.37 537.6600000000001 232.15 L 537.6600000000001 149.35000000000002 C 537.6600000000001 144.13000000000002 532.44 143.98000000000002 532.44 141.23000000000002 L 532.44 140.94000000000003 C 532.44 139.78000000000003 533.6 139.20000000000002 535.34 139.20000000000002 L 553.46 139.20000000000002 C 555.2 139.20000000000002 556.36 139.78000000000003 556.36 140.94000000000003 L 556.36 141.23000000000002 C 556.36 143.98000000000002 550.85 144.13000000000002 550.85 149.35000000000002 L 550.85 232.15000000000003 C 550.85 237.37000000000003 556.36 237.51000000000005 556.36 240.12000000000003 L 556.36 240.41000000000003 C 556.36 241.57000000000002 555.2 242.15000000000003 553.46 242.15000000000003 L 535.34 242.15000000000003 C 533.6 242.15000000000003 532.44 241.57000000000002 532.44 240.41000000000003 L 532.44 240.12000000000003 Z" stroke-linecap="round" />
</g>
<g transform="matrix(1.7 0 0 1.7 952.29 492.96)"  >
<path style="stroke: none; stroke-width: 1; stroke-dasharray: none; stroke-linecap: butt; stroke-dashoffset: 0; stroke-linejoin: miter; stroke-miterlimit: 4; fill: rgb(0,0,0); fill-rule: nonzero; opacity: 1;" vector-effect="non-scaling-stroke"  transform=" translate(-614.66, -190.7)" d="M 660.91 141.09 L 660.91 141.38 C 660.91 143.99 655.11 144.14 655.11 149.35999999999999 L 655.11 238.25 C 655.11 240.71 653.8000000000001 242.17 651.49 242.17 L 647.87 242.17 C 646.42 242.17 645.11 241.29999999999998 643.23 238.39999999999998 L 581.3100000000001 154.01 L 581.3100000000001 231.58999999999997 C 581.3100000000001 236.95999999999998 587.5500000000001 237.39 587.5500000000001 240.14 L 587.5500000000001 240.42999999999998 C 587.5500000000001 241.58999999999997 586.2500000000001 242.17 584.5100000000001 242.17 L 571.3100000000001 242.17 C 569.4200000000001 242.17 568.4100000000001 241.58999999999997 568.4100000000001 240.42999999999998 L 568.4100000000001 240.14 C 568.4100000000001 237.39 573.9200000000001 236.95 573.9200000000001 231.58999999999997 L 573.9200000000001 149.51999999999998 C 573.9200000000001 144.45 568.4100000000001 144.45 568.4100000000001 141.68999999999997 L 568.4100000000001 141.10999999999996 C 568.4100000000001 139.94999999999996 569.4200000000001 139.22999999999996 571.3100000000001 139.22999999999996 L 582.33 139.22999999999996 C 584.6500000000001 139.22999999999996 586.25 140.23999999999995 587.5500000000001 142.12999999999997 L 647.73 225.35999999999996 L 647.73 149.37999999999994 C 647.73 144.15999999999994 641.78 144.00999999999993 641.78 141.39999999999995 L 641.78 141.10999999999996 C 641.78 139.94999999999996 642.9399999999999 139.22999999999996 644.8199999999999 139.22999999999996 L 658.02 139.22999999999996 C 659.76 139.22999999999996 660.92 139.95999999999995 660.92 141.10999999999996 Z" stroke-linecap="round" />
</g>
<g transform="matrix(1.7 0 0 1.7 1110.18 493.04)"  >
<path style="stroke: none; stroke-width: 1; stroke-dasharray: none; stroke-linecap: butt; stroke-dashoffset: 0; stroke-linejoin: miter; stroke-miterlimit: 4; fill: rgb(0,0,0); fill-rule: nonzero; opacity: 1;" vector-effect="non-scaling-stroke"  transform=" translate(-707.6, -190.75)" d="M 668.6 218.08 C 668.6 214.74 670.48 212.28 674.11 212.28 C 684.5500000000001 212.72 680.9300000000001 237.95 710.07 237.95 C 723.85 237.95 733.2700000000001 229.97 733.2700000000001 218.51999999999998 C 733.2700000000001 182.40999999999997 671.3500000000001 209.67999999999998 671.3500000000001 166.17 C 671.3500000000001 150.07 684.4000000000001 137.89 707.4600000000002 137.89 C 732.1100000000001 137.89 745.0200000000002 151.51999999999998 745.0200000000002 161.52999999999997 C 745.0200000000002 165.00999999999996 742.9900000000002 167.32999999999998 739.0700000000002 167.32999999999998 C 728.1900000000002 167.32999999999998 733.7000000000002 143.54999999999998 707.0200000000002 143.54999999999998 C 692.3700000000002 143.54999999999998 684.5400000000002 152.1 684.5400000000002 163.13 C 684.5400000000002 196.92 746.6000000000001 171.69 746.6000000000001 215.48 C 746.6000000000001 232.88 729.7800000000001 243.60999999999999 709.4800000000001 243.60999999999999 C 681.0600000000002 243.60999999999999 668.5900000000001 226.92999999999998 668.5900000000001 218.08999999999997 Z" stroke-linecap="round" />
</g>
<g transform="matrix(1.7 0 0 1.7 110.4 485.03)"  >
<path style="stroke: none; stroke-width: 1; stroke-dasharray: none; stroke-linecap: butt; stroke-dashoffset: 0; stroke-linejoin: miter; stroke-miterlimit: 4; fill: rgb(0,0,0); fill-rule: nonzero; opacity: 1;" vector-effect="non-scaling-stroke"  transform=" translate(-119.07, -185.99)" d="M 128.45 279.17 L 128.45 290.86 C 89.72 274.03000000000003 62.629999999999995 235.43 62.629999999999995 190.5 C 62.629999999999995 130.09 111.6 81.12 172.01 81.12 C 173.19 81.12 174.35999999999999 81.14 175.51999999999998 81.18 C 132.02999999999997 81.38000000000001 91.45999999999998 109.9 77.24999999999999 154.35000000000002 C 61.319999999999986 204.16000000000003 83.97999999999999 256.89000000000004 128.45 279.17 Z" stroke-linecap="round" />
</g>
<g transform="matrix(1.7 0 0 1.7 354.88 515.19)"  >
<path style="stroke: none; stroke-width: 1; stroke-dasharray: none; stroke-linecap: butt; stroke-dashoffset: 0; stroke-linejoin: miter; stroke-miterlimit: 4; fill: rgb(0,0,0); fill-rule: nonzero; opacity: 1;" vector-effect="non-scaling-stroke"  transform=" translate(-263.01, -203.77)" d="M 281.39 190.5 C 281.39 223.03 267.19 252.25 244.64 272.28 L 244.64 258.59999999999997 C 271.44 235.53999999999996 288.27 182.49999999999997 265.71999999999997 135.25999999999996 C 276.02 151.53999999999996 281.39 169.99999999999997 281.39 190.49999999999997 Z" stroke-linecap="round" />
</g>
<g transform="matrix(1.7 0 0 1.7 182.03 575.97)"  >
<path style="stroke: none; stroke-width: 1; stroke-dasharray: none; stroke-linecap: butt; stroke-dashoffset: 0; stroke-linejoin: miter; stroke-miterlimit: 4; fill: rgb(0,0,0); fill-rule: nonzero; opacity: 1;" vector-effect="non-scaling-stroke"  transform=" translate(-161.27, -239.56)" d="M 145.87 206.91 L 176.67000000000002 178.76999999999998 L 176.67000000000002 300.26 C 175.27 300.32 173.86 300.34999999999997 172.45000000000002 300.34999999999997 C 163.28000000000003 300.34999999999997 154.38000000000002 299.22999999999996 145.87 297.10999999999996 L 145.87 206.90999999999997 Z" stroke-linecap="round" />
</g>
<g transform="matrix(1.7 0 0 1.7 267.77 534.65)"  >
<path style="stroke: none; stroke-width: 1; stroke-dasharray: none; stroke-linecap: butt; stroke-dashoffset: 0; stroke-linejoin: miter; stroke-miterlimit: 4; fill: rgb(0,0,0); fill-rule: nonzero; opacity: 1;" vector-effect="non-scaling-stroke"  transform=" translate(-211.74, -215.21)" d="M 227.14 132.68 L 227.14 285.81 C 217.67999999999998 291.25 207.32 295.32 196.33999999999997 297.74 L 196.33999999999997 160.81 L 227.14 132.68 Z" stroke-linecap="round" />
</g>
<g transform="matrix(3.34 0 0 3.34 662.97 640.67)"  >
<path style="stroke: none; stroke-width: 1; stroke-dasharray: none; stroke-linecap: butt; stroke-dashoffset: 0; stroke-linejoin: miter; stroke-miterlimit: 4; fill: rgb(0,0,0); fill-rule: nonzero; opacity: 1;" vector-effect="non-scaling-stroke"  transform=" translate(-596.88, -273.06)" d="M 590.06 261.11 L 603.7099999999999 261.11 L 603.7099999999999 263.8 L 593.16 263.8 L 593.16 271.87 L 602.28 271.87 L 602.28 274.56 L 593.16 274.56 L 593.16 285.01 L 590.06 285.01 L 590.06 261.11 Z" stroke-linecap="round" />
</g>
<g transform="matrix(3.34 0 0 3.34 700.06 640.67)"  >
<path style="stroke: none; stroke-width: 1; stroke-dasharray: none; stroke-linecap: butt; stroke-dashoffset: 0; stroke-linejoin: miter; stroke-miterlimit: 4; fill: rgb(0,0,0); fill-rule: nonzero; opacity: 1;" vector-effect="non-scaling-stroke"  transform=" translate(-607.99, -273.06)" d="M 606.44 261.11 L 609.5400000000001 261.11 L 609.5400000000001 285.01 L 606.44 285.01 L 606.44 261.11 Z" stroke-linecap="round" />
</g>
<g transform="matrix(3.34 0 0 3.34 752.13 640.67)"  >
<path style="stroke: none; stroke-width: 1; stroke-dasharray: none; stroke-linecap: butt; stroke-dashoffset: 0; stroke-linejoin: miter; stroke-miterlimit: 4; fill: rgb(0,0,0); fill-rule: nonzero; opacity: 1;" vector-effect="non-scaling-stroke"  transform=" translate(-623.58, -273.06)" d="M 632.88 261.11 L 632.88 285.01 L 629.65 285.01 L 617.36 266.15 L 617.36 285.01 L 614.26 285.01 L 614.26 261.11 L 617.6 261.11 L 629.7900000000001 279.97 L 629.7900000000001 261.11 L 632.8900000000001 261.11 Z" stroke-linecap="round" />
</g>
<g transform="matrix(3.34 0 0 3.34 825.1 640.56)"  >
<path style="stroke: none; stroke-width: 1; stroke-dasharray: none; stroke-linecap: butt; stroke-dashoffset: 0; stroke-linejoin: miter; stroke-miterlimit: 4; fill: rgb(0,0,0); fill-rule: nonzero; opacity: 1;" vector-effect="non-scaling-stroke"  transform=" translate(-645.43, -273.02)" d="M 647.15 261.04 L 655.97 285.01 L 652.8000000000001 285.01 L 650.9300000000001 279.84 L 639.9300000000001 279.84 L 638.0600000000001 285.01 L 634.8900000000001 285.01 L 643.7100000000002 261.03999999999996 L 647.1500000000002 261.03999999999996 Z M 645.4499999999999 264.68 L 640.92 277.14 L 649.9399999999999 277.14 L 645.4499999999999 264.68 Z" stroke-linecap="round" />
</g>
<g transform="matrix(3.34 0 0 3.34 898.06 640.67)"  >
<path style="stroke: none; stroke-width: 1; stroke-dasharray: none; stroke-linecap: butt; stroke-dashoffset: 0; stroke-linejoin: miter; stroke-miterlimit: 4; fill: rgb(0,0,0); fill-rule: nonzero; opacity: 1;" vector-effect="non-scaling-stroke"  transform=" translate(-667.29, -273.06)" d="M 676.59 261.11 L 676.59 285.01 L 673.36 285.01 L 661.07 266.15 L 661.07 285.01 L 657.97 285.01 L 657.97 261.11 L 661.3100000000001 261.11 L 673.5000000000001 279.97 L 673.5000000000001 261.11 L 676.6000000000001 261.11 Z" stroke-linecap="round" />
</g>
<g transform="matrix(3.34 0 0 3.34 978.08 640.71)"  >
<path style="stroke: none; stroke-width: 1; stroke-dasharray: none; stroke-linecap: butt; stroke-dashoffset: 0; stroke-linejoin: miter; stroke-miterlimit: 4; fill: rgb(0,0,0); fill-rule: nonzero; opacity: 1;" vector-effect="non-scaling-stroke"  transform=" translate(-691.25, -273.07)" d="M 679.58 273.09 C 679.58 266.21 684.5500000000001 260.77 691.5600000000001 260.77 C 696.5600000000001 260.77 701.5000000000001 263.63 702.9300000000001 269.69 L 699.59 269.69 C 698.36 265.64 695.37 263.6 691.52 263.6 C 686.18 263.6 682.77 267.65000000000003 682.77 273.1 C 682.77 278.82000000000005 686.55 282.53000000000003 691.55 282.53000000000003 C 695.3599999999999 282.53000000000003 698.3199999999999 280.49 699.5799999999999 276.44000000000005 L 702.8799999999999 276.44000000000005 C 701.3799999999999 282.50000000000006 696.5499999999998 285.36000000000007 691.5799999999999 285.36000000000007 C 685.0799999999999 285.36000000000007 679.56 280.49000000000007 679.56 273.1000000000001 Z" stroke-linecap="round" />
</g>
<g transform="matrix(3.34 0 0 3.34 1030.77 640.67)"  >
<path style="stroke: none; stroke-width: 1; stroke-dasharray: none; stroke-linecap: butt; stroke-dashoffset: 0; stroke-linejoin: miter; stroke-miterlimit: 4; fill: rgb(0,0,0); fill-rule: nonzero; opacity: 1;" vector-effect="non-scaling-stroke"  transform=" translate(-707.04, -273.06)" d="M 705.49 261.11 L 708.59 261.11 L 708.59 285.01 L 705.49 285.01 L 705.49 261.11 Z" stroke-linecap="round" />
</g>
<g transform="matrix(3.34 0 0 3.34 1077.71 640.56)"  >
<path style="stroke: none; stroke-width: 1; stroke-dasharray: none; stroke-linecap: butt; stroke-dashoffset: 0; stroke-linejoin: miter; stroke-miterlimit: 4; fill: rgb(0,0,0); fill-rule: nonzero; opacity: 1;" vector-effect="non-scaling-stroke"  transform=" translate(-721.09, -273.02)" d="M 722.81 261.04 L 731.63 285.01 L 728.46 285.01 L 726.59 279.84 L 715.59 279.84 L 713.72 285.01 L 710.5500000000001 285.01 L 719.3700000000001 261.03999999999996 L 722.8100000000002 261.03999999999996 Z M 721.1099999999999 264.68 L 716.5799999999999 277.14 L 725.5999999999999 277.14 L 721.1099999999999 264.68 Z" stroke-linecap="round" />
</g>
<g transform="matrix(3.34 0 0 3.34 1141.26 640.67)"  >
<path style="stroke: none; stroke-width: 1; stroke-dasharray: none; stroke-linecap: butt; stroke-dashoffset: 0; stroke-linejoin: miter; stroke-miterlimit: 4; fill: rgb(0,0,0); fill-rule: nonzero; opacity: 1;" vector-effect="non-scaling-stroke"  transform=" translate(-740.13, -273.06)" d="M 736.74 261.11 L 736.74 282.32 L 746.61 282.32 L 746.61 285.01 L 733.64 285.01 L 733.64 261.11 L 736.74 261.11 Z" stroke-linecap="round" />
</g>
<g transform="matrix(0 0 0 0 553.62 236.34)"  >
<g style=""   >
		<g transform="matrix(1 0 0 1 -71.46 -0.01)"  >
<path style="stroke: none; stroke-width: 1; stroke-dasharray: none; stroke-linecap: butt; stroke-dashoffset: 0; stroke-linejoin: miter; stroke-miterlimit: 4; fill: rgb(0,0,0); fill-rule: nonzero; opacity: 1;" vector-effect="non-scaling-stroke"  transform=" translate(-596.88, -273.06)" d="M 590.06 261.11 L 603.7099999999999 261.11 L 603.7099999999999 263.8 L 593.16 263.8 L 593.16 271.87 L 602.28 271.87 L 602.28 274.56 L 593.16 274.56 L 593.16 285.01 L 590.06 285.01 L 590.06 261.11 Z" stroke-linecap="round" />
</g>
		<g transform="matrix(1 0 0 1 -60.34 -0.01)"  >
<path style="stroke: none; stroke-width: 1; stroke-dasharray: none; stroke-linecap: butt; stroke-dashoffset: 0; stroke-linejoin: miter; stroke-miterlimit: 4; fill: rgb(0,0,0); fill-rule: nonzero; opacity: 1;" vector-effect="non-scaling-stroke"  transform=" translate(-607.99, -273.06)" d="M 606.44 261.11 L 609.5400000000001 261.11 L 609.5400000000001 285.01 L 606.44 285.01 L 606.44 261.11 Z" stroke-linecap="round" />
</g>
		<g transform="matrix(1 0 0 1 -44.76 -0.01)"  >
<path style="stroke: none; stroke-width: 1; stroke-dasharray: none; stroke-linecap: butt; stroke-dashoffset: 0; stroke-linejoin: miter; stroke-miterlimit: 4; fill: rgb(0,0,0); fill-rule: nonzero; opacity: 1;" vector-effect="non-scaling-stroke"  transform=" translate(-623.58, -273.06)" d="M 632.88 261.11 L 632.88 285.01 L 629.65 285.01 L 617.36 266.15 L 617.36 285.01 L 614.26 285.01 L 614.26 261.11 L 617.6 261.11 L 629.7900000000001 279.97 L 629.7900000000001 261.11 L 632.8900000000001 261.11 Z" stroke-linecap="round" />
</g>
		<g transform="matrix(1 0 0 1 -22.9 -0.04)"  >
<path style="stroke: none; stroke-width: 1; stroke-dasharray: none; stroke-linecap: butt; stroke-dashoffset: 0; stroke-linejoin: miter; stroke-miterlimit: 4; fill: rgb(0,0,0); fill-rule: nonzero; opacity: 1;" vector-effect="non-scaling-stroke"  transform=" translate(-645.43, -273.02)" d="M 647.15 261.04 L 655.97 285.01 L 652.8000000000001 285.01 L 650.9300000000001 279.84 L 639.9300000000001 279.84 L 638.0600000000001 285.01 L 634.8900000000001 285.01 L 643.7100000000002 261.03999999999996 L 647.1500000000002 261.03999999999996 Z M 645.4499999999999 264.68 L 640.92 277.14 L 649.9399999999999 277.14 L 645.4499999999999 264.68 Z" stroke-linecap="round" />
</g>
		<g transform="matrix(1 0 0 1 -1.05 -0.01)"  >
<path style="stroke: none; stroke-width: 1; stroke-dasharray: none; stroke-linecap: butt; stroke-dashoffset: 0; stroke-linejoin: miter; stroke-miterlimit: 4; fill: rgb(0,0,0); fill-rule: nonzero; opacity: 1;" vector-effect="non-scaling-stroke"  transform=" translate(-667.29, -273.06)" d="M 676.59 261.11 L 676.59 285.01 L 673.36 285.01 L 661.07 266.15 L 661.07 285.01 L 657.97 285.01 L 657.97 261.11 L 661.3100000000001 261.11 L 673.5000000000001 279.97 L 673.5000000000001 261.11 L 676.6000000000001 261.11 Z" stroke-linecap="round" />
</g>
		<g transform="matrix(1 0 0 1 22.91 0)"  >
<path style="stroke: none; stroke-width: 1; stroke-dasharray: none; stroke-linecap: butt; stroke-dashoffset: 0; stroke-linejoin: miter; stroke-miterlimit: 4; fill: rgb(0,0,0); fill-rule: nonzero; opacity: 1;" vector-effect="non-scaling-stroke"  transform=" translate(-691.25, -273.07)" d="M 679.58 273.09 C 679.58 266.21 684.5500000000001 260.77 691.5600000000001 260.77 C 696.5600000000001 260.77 701.5000000000001 263.63 702.9300000000001 269.69 L 699.59 269.69 C 698.36 265.64 695.37 263.6 691.52 263.6 C 686.18 263.6 682.77 267.65000000000003 682.77 273.1 C 682.77 278.82000000000005 686.55 282.53000000000003 691.55 282.53000000000003 C 695.3599999999999 282.53000000000003 698.3199999999999 280.49 699.5799999999999 276.44000000000005 L 702.8799999999999 276.44000000000005 C 701.3799999999999 282.50000000000006 696.5499999999998 285.36000000000007 691.5799999999999 285.36000000000007 C 685.0799999999999 285.36000000000007 679.56 280.49000000000007 679.56 273.1000000000001 Z" stroke-linecap="round" />
</g>
		<g transform="matrix(1 0 0 1 38.7 -0.01)"  >
<path style="stroke: none; stroke-width: 1; stroke-dasharray: none; stroke-linecap: butt; stroke-dashoffset: 0; stroke-linejoin: miter; stroke-miterlimit: 4; fill: rgb(0,0,0); fill-rule: nonzero; opacity: 1;" vector-effect="non-scaling-stroke"  transform=" translate(-707.04, -273.06)" d="M 705.49 261.11 L 708.59 261.11 L 708.59 285.01 L 705.49 285.01 L 705.49 261.11 Z" stroke-linecap="round" />
</g>
		<g transform="matrix(1 0 0 1 52.76 -0.04)"  >
<path style="stroke: none; stroke-width: 1; stroke-dasharray: none; stroke-linecap: butt; stroke-dashoffset: 0; stroke-linejoin: miter; stroke-miterlimit: 4; fill: rgb(0,0,0); fill-rule: nonzero; opacity: 1;" vector-effect="non-scaling-stroke"  transform=" translate(-721.09, -273.02)" d="M 722.81 261.04 L 731.63 285.01 L 728.46 285.01 L 726.59 279.84 L 715.59 279.84 L 713.72 285.01 L 710.5500000000001 285.01 L 719.3700000000001 261.03999999999996 L 722.8100000000002 261.03999999999996 Z M 721.1099999999999 264.68 L 716.5799999999999 277.14 L 725.5999999999999 277.14 L 721.1099999999999 264.68 Z" stroke-linecap="round" />
</g>
		<g transform="matrix(1 0 0 1 71.79 -0.01)"  >
<path style="stroke: none; stroke-width: 1; stroke-dasharray: none; stroke-linecap: butt; stroke-dashoffset: 0; stroke-linejoin: miter; stroke-miterlimit: 4; fill: rgb(0,0,0); fill-rule: nonzero; opacity: 1;" vector-effect="non-scaling-stroke"  transform=" translate(-740.13, -273.06)" d="M 736.74 261.11 L 736.74 282.32 L 746.61 282.32 L 746.61 285.01 L 733.64 285.01 L 733.64 261.11 L 736.74 261.11 Z" stroke-linecap="round" />
</g>
</g>
</g>
</svg>