<?xml version="1.0" encoding="UTF-8"?>
<svg id="Layer_1" data-name="Layer 1" xmlns="http://www.w3.org/2000/svg" viewBox="60 50 240 250" style="width: 1600px; height: 678px;">
  <defs>
    <style>
      .cls-1 {
        fill:#fff  ; 
      }
    </style>
  </defs>
  <path class="cls-1" d="m289.06,85.21l-26.99-3.43c-.24-1.46-.67-2.84-1.27-4.14l30.43-36.41-38.18,28.6c-1.19-.56-2.45-.99-3.77-1.24l-3.63-29.95-2.34,29.93c-1.42.26-2.77.71-4.03,1.32l-37.48-29.94,30,37.34c-.58,1.18-1.03,2.43-1.31,3.75l-26.19,4.58,26.09,1.47s0,.04,0,.06l-12.46,13.32-21.59,23.09-19.67,21.03-30.8,32.94-91.77,98.14,91.77-84.74,30.8-28.44,19.67-18.17,30.8-28.44,16.83-15.54,2.99,27.74,3-28.06c1.14-.27,2.24-.67,3.27-1.17l35.2,29.35-27.94-36.41c.51-.97.91-2,1.21-3.08l27.37-3.51Z"/>
  <path class="cls-1" d="m128.45,279.17v11.69c-38.73-16.83-65.82-55.43-65.82-100.36,0-60.41,48.97-109.38,109.38-109.38,1.18,0,2.35.02,3.51.06-43.49.2-84.06,28.72-98.27,73.17-15.93,49.81,6.73,102.54,51.2,124.82Z"/>
  <path class="cls-1" d="m281.39,190.5c0,32.53-14.2,61.75-36.75,81.78v-13.68c26.8-23.06,43.63-76.1,21.08-123.34,10.3,16.28,15.67,34.74,15.67,55.24Z"/>
  <path class="cls-1" d="m145.87,206.91l30.8-28.14v121.49c-1.4.06-2.81.09-4.22.09-9.17,0-18.07-1.12-26.58-3.24v-90.2Z"/>
  <path class="cls-1" d="m227.14,132.68v153.13c-9.46,5.44-19.82,9.51-30.8,11.93v-136.93l30.8-28.13Z"/>
</svg>