<svg width="36" height="34" viewBox="0 0 36 34" fill="none" xmlns="http://www.w3.org/2000/svg">
<path d="M18.2238 0.748535C8.71509 0.748535 0.978928 8.03838 0.978928 16.9985C0.978928 25.9587 8.71509 33.2485 18.2238 33.2485C27.7326 33.2485 35.4687 25.9587 35.4687 16.9985C35.4687 8.03838 27.7326 0.748535 18.2238 0.748535ZM14.0602 9.8751C15.1106 8.82588 16.5889 8.24854 18.2238 8.24854C19.8588 8.24854 21.3238 8.82979 22.3784 9.88447C23.447 10.9532 23.9669 12.3892 23.8442 13.9329C23.5988 16.9985 21.0784 19.4985 18.2238 19.4985C15.3693 19.4985 12.8439 16.9985 12.6035 13.9321C12.4816 12.3759 13.0006 10.9353 14.0602 9.8751ZM18.2238 30.7485C16.2759 30.7498 14.3475 30.3824 12.553 29.6681C10.7586 28.9539 9.13461 27.9074 7.7774 26.5907C8.55471 25.5462 9.54513 24.658 10.6908 23.9782C12.8041 22.7017 15.4787 21.9985 18.2238 21.9985C20.9689 21.9985 23.6435 22.7017 25.7544 23.9782C26.901 24.6577 27.8923 25.5459 28.6703 26.5907C27.3132 27.9076 25.6892 28.9542 23.8947 29.6684C22.1003 30.3826 20.1718 30.7499 18.2238 30.7485Z" fill="white"/>
</svg>
