<svg xmlns="http://www.w3.org/2000/svg" viewBox="0 0 300 400">
    <g id="freepik--Pen--inject-188">
        <g id="freepik--pen--inject-188">
            <path
                d="M278.84,311.2a12.38,12.38,0,0,0,5.61,9.71,4.51,4.51,0,0,0,3.22.68,2.81,2.81,0,0,1-.61.48l1.35-.77.07-.05.2-.13a1.79,1.79,0,0,0,.25-.22l.15-.15,0,0c0-.05.09-.1.13-.16a4,4,0,0,0,.46-.84l.1-.27a.74.74,0,0,0,0-.14,2.1,2.1,0,0,0,.06-.24,6.07,6.07,0,0,0,.15-1.4,12.38,12.38,0,0,0-5.6-9.7,5,5,0,0,0-2.51-.77h0l-.35,0-.32.06-.19.05-.12,0a1.09,1.09,0,0,0-.23.09l0,0-.21.11-1.17.67a2.37,2.37,0,0,1,.6-.21A4.46,4.46,0,0,0,278.84,311.2Zm9.23,10.26.1,0Z"
                style="fill:#474973"></path>
            <path
                d="M162.43,375.72l7.91,13.74,1.34-.78,115.38-66.61a2.81,2.81,0,0,0,.61-.48,4.46,4.46,0,0,0,1-3.15,12.42,12.42,0,0,0-5.61-9.71,5.07,5.07,0,0,0-2.51-.76,2.81,2.81,0,0,0-.71.08,2.37,2.37,0,0,0-.6.21l-.1.05,0,0h0Z"
                style="fill:#ebebeb"></path>
            <path
                d="M166.4,376.11c-3.1-1.79-5.61-.34-5.61,3.23a12.38,12.38,0,0,0,5.61,9.71c3.09,1.79,5.6.34,5.6-3.24A12.38,12.38,0,0,0,166.4,376.11Z"
                style="fill:#474973"></path>
            <path
                d="M154.35,384.44a.73.73,0,0,1,.14-.16l7.15-7.87v0l.06-.06.13-.14.07-.08h0c1-1,2.64-1.06,4.48,0a12.38,12.38,0,0,1,5.6,9.7c0,2.08-.85,3.43-2.16,3.86h0l-.08,0a3,3,0,0,1-.41.09l-.09,0h0l-10.36,2.26a2.51,2.51,0,0,1-1.81-.39,7.07,7.07,0,0,1-3.21-5.54A2.6,2.6,0,0,1,154.35,384.44Z"
                style="fill:#e0e0e0"></path>
            <path
                d="M246,333.4l0,0,.19-.11a1.45,1.45,0,0,1,1.3.19,4.4,4.4,0,0,1,2,3.45,1.47,1.47,0,0,1-.47,1.2h0l-.25.14-85.17,49.17-5.6-3.24Z"
                style="fill:#455a64"></path>
            <path d="M171.5,382.86l-7.91,4.57-5.6-3.24L168.7,378A13.57,13.57,0,0,1,171.5,382.86Z"
                style="fill:#37474f"></path>
            <path
                d="M151.53,388.17h0L158,381l.17-.19c.72-.72,1.88-.78,3.2,0a8.74,8.74,0,0,1,4,6.86c0,1.46-.59,2.41-1.51,2.72l-.06,0-.26.06L154,392.55h0a1.53,1.53,0,0,1-1-.22,4,4,0,0,1-1.8-3.13A1.42,1.42,0,0,1,151.53,388.17Z"
                style="fill:#474973"></path>
            <path
                d="M151.53,388.17h0L158,381l.17-.19c.72-.72,1.88-.78,3.2,0a8.74,8.74,0,0,1,4,6.86c0,1.46-.59,2.41-1.51,2.72l-.06,0-.26.06L154,392.55h0a1.53,1.53,0,0,1-1-.22,4,4,0,0,1-1.8-3.13A1.42,1.42,0,0,1,151.53,388.17Z"
                style="opacity:0.1"></path>
            <path
                d="M151.17,389.2a4,4,0,0,0,1.8,3.13,1.45,1.45,0,0,0,1,.21h0l4.8-1.05c.76-.16,1.26-.87,1.26-2a6.37,6.37,0,0,0-2.88-5,1.85,1.85,0,0,0-2.31,0l-.13.14-3.22,3.54h0A1.38,1.38,0,0,0,151.17,389.2Z"
                style="fill:#474973"></path>
            <path
                d="M153,388.16c-1-.57-1.8-.11-1.8,1a4,4,0,0,0,1.8,3.13c1,.57,1.8.1,1.8-1.05A4,4,0,0,0,153,388.16Z"
                style="opacity:0.1"></path>
            <path
                d="M267.17,321.15a1.39,1.39,0,0,1,1.41.14,4.39,4.39,0,0,1,2,3.43A1.37,1.37,0,0,1,270,326h0l-21,12.1a1.47,1.47,0,0,0,.47-1.2,4.4,4.4,0,0,0-2-3.45,1.45,1.45,0,0,0-1.3-.19Z"
                style="fill:#fafafa"></path>
            <path
                d="M266.59,322.43a4.41,4.41,0,0,0,2,3.44,1.21,1.21,0,0,0,2-1.15,4.39,4.39,0,0,0-2-3.43,1.21,1.21,0,0,0-2,1.14Z"
                style="fill:#f5f5f5"></path>
            <path
                d="M271,314h0l.07,0,.08-.05,8.27-4.77.2-.11,0,0h0a3.62,3.62,0,0,1,3.42.43,11.12,11.12,0,0,1,5,8.73,3.55,3.55,0,0,1-1.49,3.28h0l-8.37,4.83,0,0-.05,0h0a3.62,3.62,0,0,1-3.5-.39,11.16,11.16,0,0,1-5-8.74A3.61,3.61,0,0,1,271,314Z"
                style="fill:#474973"></path>
            <path
                d="M271,314h0l.07,0,.08-.05,8.27-4.77.2-.11,0,0h0a3.62,3.62,0,0,1,3.42.43,11.12,11.12,0,0,1,5,8.73,3.55,3.55,0,0,1-1.49,3.28h0l-8.37,4.83,0,0-.05,0h0a3.62,3.62,0,0,1-3.5-.39,11.16,11.16,0,0,1-5-8.74A3.61,3.61,0,0,1,271,314Z"
                style="opacity:0.05"></path>
            <path
                d="M274.69,314.23c-2.78-1.61-5-.3-5,2.91a11.16,11.16,0,0,0,5,8.74c2.79,1.61,5.05.3,5.05-2.91A11.15,11.15,0,0,0,274.69,314.23Z"
                style="opacity:0.1"></path>
            <path
                d="M148.88,391.18h0l3.42-2.06h0a.62.62,0,0,1,.67.05,2,2,0,0,1,.93,1.6.68.68,0,0,1-.27.6h0l-3.41,2.06h0a1.38,1.38,0,0,1-.64.16,1.31,1.31,0,0,1-1.31-1.31A1.3,1.3,0,0,1,148.88,391.18Z"
                style="fill:#455a64"></path>
            <path
                d="M148.68,391.33h0l.18-.15h0a.69.69,0,0,1,.6.1,2,2,0,0,1,.92,1.6.65.65,0,0,1-.26.59l-.07,0-.07,0a1,1,0,0,1-.42.07,1.31,1.31,0,0,1-1.31-1.31A1.33,1.33,0,0,1,148.68,391.33Z"
                style="fill:#263238"></path>
        </g>
    </g>
    <g id="freepik--Agreement--inject-188">
        <g id="freepik--Contract--inject-188">
            <path
                d="M82.67,400.31l-3.49-2a4.41,4.41,0,0,1-2-3.45V136.29a4.4,4.4,0,0,1,2-3.45l160.4-92.61a4.39,4.39,0,0,1,4,0l3.49,2a4.41,4.41,0,0,1,2,3.45V304.25a4.39,4.39,0,0,1-2,3.45L86.65,400.31A4.37,4.37,0,0,1,82.67,400.31Z"
                style="fill:#FFA589"></path>
            <path
                d="M249,45.37c-.13-1-1-1.41-2-.83L86.65,137.15a4.19,4.19,0,0,0-1.41,1.48l-7.48-4.31a4.19,4.19,0,0,1,1.41-1.48L239.58,40.23a4.37,4.37,0,0,1,4,0l3.5,2A4.43,4.43,0,0,1,249,45.37Z"
                style="fill:#fff;opacity:0.4"></path>
            <path
                d="M86.3,400.47a.31.31,0,0,1-.12,0l-.2.07-.08,0c-.12,0-.24.06-.37.09h0a4.51,4.51,0,0,1-2.37-.19,3.62,3.62,0,0,1-.44-.2l-3.5-2a4.44,4.44,0,0,1-2-3.45V136.29a4.21,4.21,0,0,1,.58-2l7.48,4.31a4,4,0,0,0-.59,2V399.17a1.62,1.62,0,0,0,.31,1.05,1,1,0,0,0,1.06.34A1.31,1.31,0,0,0,86.3,400.47Z"
                style="opacity:0.15"></path>
            <path
                d="M198.94,87.84l-.29-.18-3.31-1.9a12.25,12.25,0,0,0-3.87-1.37c-.57-.13-1.08-.28-1.53-.43a11.62,11.62,0,0,1-1.46-.59l.24-.31h0L185,80.89h0a3.93,3.93,0,0,0-1-.39c-1.41-.35-3.52.47-5.62.23a5.23,5.23,0,0,1-3.82-2.27c-1.28-1.72-2.05-4.73-3.18-7.23l1-1.45a3.07,3.07,0,0,0-.31-.17l-3.43-2a3.76,3.76,0,0,0-1.91-.52,7.32,7.32,0,0,0-3.6,1.17c-8.21,4.75-8.49,16-11.45,23.42s-7.15,9.73-9.43,12.92-2.44,5.55-7.49,12.51-5.25,8.66-5.25,10v10.37l3.74,2.16,67.22-38.83Zm-61.64,40c-.87.49-1.59-.18-1.59-1.53a4.25,4.25,0,0,1,1.59-3.37c.87-.5,1.58.19,1.58,1.54A4.22,4.22,0,0,1,137.3,127.82Zm29.53-29.11a3.38,3.38,0,0,1-5.17-1.58c-2.61.5-4.55-2-4.55-6.34,0-5.1,2.69-10.77,6-12.69a3.38,3.38,0,0,1,5.17,1.59c2.61-.52,4.54,2,4.54,6.33C172.82,91.12,170.15,96.79,166.83,98.71Zm22.33-.84c-.88.51-1.59-.17-1.59-1.52A4.15,4.15,0,0,1,189.16,93c.88-.51,1.59.17,1.59,1.52A4.16,4.16,0,0,1,189.16,97.87Z"
                style="fill:#455a64"></path>
            <path d="M137,129.67l-7.23-4.17a5.16,5.16,0,0,0-.24,1.61v10.37l3.74,2.16,3.73-2.16Z"
                style="fill:#37474f;opacity:0.5"></path>
            <path d="M144.43,116.73l3.74-8.63-5.94-3.48h0c-1.74,2.41-2.25,4.36-4.59,8.19Z"
                style="fill:#37474f;opacity:0.5"></path>
            <path
                d="M159.38,99.48l.48-2.52c-1.65-.69-2.75-2.92-2.75-6.17,0-4.33,1.94-9.06,4.55-11.57l-5.18-3c-2.2,5-3,11-4.82,15.47-.38,1-.79,1.83-1.2,2.63Z"
                style="fill:#37474f;opacity:0.5"></path>
            <path
                d="M198.94,87.84l-.29-.18a15.07,15.07,0,0,0-3.45-1.12A10.72,10.72,0,0,1,189.94,84a7.65,7.65,0,0,0-1.22-.9,3.48,3.48,0,0,0-1-.4c-2.26-.55-6.38,1.92-9.34-1.92a.54.54,0,0,1-.09-.12c-2.07-2.78-2.83-9-5.93-10.83a3.07,3.07,0,0,0-.31-.17c-1.28-.6-2.94-.49-5.22.81-8.21,4.75-8.49,16-11.45,23.42s-7.14,9.73-9.42,12.92-2.43,5.55-7.49,12.51-5.24,8.67-5.24,10v10.38l67.22-38.83V90.45A2.6,2.6,0,0,0,198.94,87.84ZM141,130c-.88.51-1.59-.17-1.59-1.53a4.18,4.18,0,0,1,1.59-3.36c.88-.51,1.58.18,1.58,1.53A4.18,4.18,0,0,1,141,130Zm25.8-31.26a3.38,3.38,0,0,1-5.17-1.58,9.52,9.52,0,0,1-.82-4.19c0-5.09,2.68-10.77,6-12.68a4.74,4.74,0,0,1,1.45-.57c2.61-.52,4.54,2,4.54,6.33C172.82,91.12,170.15,96.79,166.83,98.71ZM192.89,100c-.88.51-1.59-.17-1.59-1.51a4.15,4.15,0,0,1,1.59-3.36c.87-.51,1.58.17,1.58,1.52A4.17,4.17,0,0,1,192.89,100Z"
                style="fill:#37474f"></path>
            <path
                d="M172.82,86c0,5.1-2.67,10.77-6,12.69a3.38,3.38,0,0,1-5.17-1.58,5,5,0,0,0,1.45-.57c3.31-1.92,6-7.59,6-12.69a9.59,9.59,0,0,0-.82-4.18C170.89,79.17,172.82,81.68,172.82,86Z"
                style="fill:#263238"></path>
            <path
                d="M141,130c-.88.5-1.59-.18-1.59-1.52a4.2,4.2,0,0,1,1.59-3.37c.87-.51,1.58.19,1.58,1.53A4.21,4.21,0,0,1,141,130"
                style="fill:#263238"></path>
            <path
                d="M192.89,100c-.88.5-1.59-.17-1.59-1.52a4.2,4.2,0,0,1,1.59-3.37c.87-.5,1.58.19,1.58,1.54a4.2,4.2,0,0,1-1.58,3.35"
                style="fill:#263238"></path>
            <path
                d="M97.06,161.34,236.64,80.75a2.65,2.65,0,0,1,2.39,0l1.35.78a2.64,2.64,0,0,1,1.19,2.07V296.54a2.62,2.62,0,0,1-1.19,2.07L100.8,379.2a2.65,2.65,0,0,1-2.39,0l-1.35-.78a2.63,2.63,0,0,1-1.2-2.07V163.41A2.65,2.65,0,0,1,97.06,161.34Z"
                style="fill:#f5f5f5"></path>
            <path
                d="M241.53,83.24c-.15-.49-.61-.65-1.15-.33L100.8,163.5a2.28,2.28,0,0,0-.85.89l-3.74-2.15a2.46,2.46,0,0,1,.85-.9L236.64,80.75a2.65,2.65,0,0,1,2.39,0l1.35.78A2.65,2.65,0,0,1,241.53,83.24Z"
                style="fill:#fafafa"></path>
            <path
                d="M100.51,379.33a2.83,2.83,0,0,1-.44.12l-.23,0a3.57,3.57,0,0,1-.73,0,3.17,3.17,0,0,1-.44-.12l-.27-.13-1.34-.77a2.65,2.65,0,0,1-1.19-2.07V163.41a2.32,2.32,0,0,1,.34-1.17l3.74,2.15a2.51,2.51,0,0,0-.35,1.18V378.51C99.6,379.16,100,379.48,100.51,379.33Z"
                style="fill:#e0e0e0"></path>
            <path
                d="M210.13,110.91l-3.72-2.15a4,4,0,0,0-3.73.11c-4.34,1.91-6.22,2.78-8.46,3.72l-1.62.65c-.88.35-2.63.05-2.09-3l5.77-15.53-.09,0-3.65-2.11a1.52,1.52,0,0,0-.61-.22c-.11,0-.25,0-.4,0-2.36-.06-3-15.29-3.05-15.76h0l-.17-.09-3.61-2.08a4,4,0,0,0-2.06-.52,7.59,7.59,0,0,0-3.43,1c-5.67,3-11.4,11.81-12.8,19.74-.88,5-5.91,12.7-8.82,15.54s-3.11,5.2-3.11,5.2l-2.26,12.82-.73,4.11c-.53,3.06-3.67,6-3.67,6L136.11,147c-7.33,6.08-9.4,12.23-10.8,19.83v.06c0,.27,0,.45.13.52a.12.12,0,0,0,.13,0h0l1.5-.85,80.56-46.46a1.74,1.74,0,0,0,.73-1.12s0,0,0,0,0,0,0,0c.46-2.77,1.8-8,1.8-8ZM186.84,87.38c-.87,4.87-4.38,10.31-7.87,12.14-2.41,1.26-4.17.48-4.76-1.74a2.77,2.77,0,0,1-2.64-.34c-1.12-.88,9.14-18.5,10-18.11a3,3,0,0,1,1.55,2.1C186,80.56,187.61,83,186.84,87.38Z"
                style="fill:#455a64"></path>
            <path
                d="M137,155.56l-5.87-3.39c-3.4,4.48-4.77,9.19-5.78,14.66v.06c0,.27,0,.45.13.52a.12.12,0,0,0,.13,0h0l4.63-3.66Z"
                style="fill:#37474f;opacity:0.5"></path>
            <path
                d="M151.1,133.53l8.28,4.77,3.73-21.57-7.46-4.31a7.1,7.1,0,0,0-1.17,2.85l-2.26,12.82-.73,4.11A6.5,6.5,0,0,1,151.1,133.53Z"
                style="fill:#37474f;opacity:0.5"></path>
            <path
                d="M170.33,84.23a32.32,32.32,0,0,0-3.92,10.3,25.92,25.92,0,0,1-2.92,7.32l7.09,4.1,3.53-8.15a2.74,2.74,0,0,1-2.54-.36c-.58-.46,1.86-5.33,4.47-9.91Z"
                style="fill:#37474f;opacity:0.5"></path>
            <path
                d="M210.18,110.94l-.05,0a4.08,4.08,0,0,0-3.72.12c-5.32,2.35-6.93,3.12-10.09,4.37-.84.34-2.55.07-2.1-2.81a1.36,1.36,0,0,1,0-.2l.73-4.1,2-11.17s.46-1.76-.7-2.42l-.09,0a2.17,2.17,0,0,0-.93-.2,4.55,4.55,0,0,1-3.33-2.13,8.4,8.4,0,0,1-1.25-6.39c.85-4.79-.08-8.15-2.2-9.4l-.17-.1c-1.37-.73-3.21-.61-5.36.52-5.68,3-11.41,11.81-12.8,19.74-.89,5-5.92,12.71-8.83,15.54s-3.1,5.2-3.1,5.2L156,130.26l-.72,4.1c-.54,3.06-3.68,6-3.68,6l-11.7,8.78a28.23,28.23,0,0,0-9.63,14.57s-4.39,3.41-4.66,3.68h0l1.5-.85,80.79-46.44s.92-.51,1.13-.64,3.46-3.2,3.46-3.2C212.31,113.64,211.53,111.75,210.18,110.94ZM186.84,87.38c-.87,4.87-4.38,10.31-7.87,12.14-2.41,1.26-4.17.48-4.76-1.74a9.14,9.14,0,0,1,0-3.78c.87-4.88,4.39-10.31,7.88-12.13a6.28,6.28,0,0,1,1-.44C186,80.56,187.61,83,186.84,87.38Z"
                style="fill:#37474f"></path>
            <path
                d="M186.84,87.38c-.87,4.87-4.38,10.31-7.87,12.14-2.41,1.26-4.17.48-4.76-1.74a6.9,6.9,0,0,0,1-.42c3.5-1.83,7-7.27,7.87-12.15a9.17,9.17,0,0,0,0-3.78C186,80.56,187.61,83,186.84,87.38Z"
                style="fill:#263238"></path>
            <path
                d="M183.47,81.64h0a1.9,1.9,0,0,1,1.68.82c1.45,2.06.06,7.3-.54,9-.83,2.33-6.25,7.81-7.74,7.81a3.68,3.68,0,0,1-2.45-1.57,9.07,9.07,0,0,1,0-3.64c.85-4.82,4.33-10.18,7.76-12a6.64,6.64,0,0,1,.95-.41l.33,0m0-.23-.37,0a6.28,6.28,0,0,0-1,.44c-3.49,1.82-7,7.25-7.88,12.13a9.14,9.14,0,0,0,0,3.78,3.94,3.94,0,0,0,2.65,1.7h0c1.62,0,7.07-5.53,7.94-8s2.76-10.11-1.36-10.11Z"
                style="fill:#CE7F00"></path>
            <path
                d="M125.57,167.42l82.28-47.3,1.14-.63c.2-.12,3.45-3.21,3.45-3.21l-82.22,47.46S125.24,167.6,125.57,167.42Z"
                style="fill:#263238"></path>
            <path
                d="M114.54,200.59v1.87c0,1,.72,1.43,1.6.92L225,140.52a3.54,3.54,0,0,0,1.6-2.76v-1.88c0-1-.72-1.43-1.6-.92L116.14,197.83A3.53,3.53,0,0,0,114.54,200.59Z"
                style="fill:#e0e0e0"></path>
            <path
                d="M114.54,211.9v1.87c0,1,.72,1.43,1.6.92L225,151.82a3.53,3.53,0,0,0,1.6-2.76v-1.88c0-1-.72-1.42-1.6-.92L116.14,209.14A3.53,3.53,0,0,0,114.54,211.9Z"
                style="fill:#e0e0e0"></path>
            <path
                d="M114.54,223.14V225c0,1,.72,1.43,1.6.92L225,163.07a3.54,3.54,0,0,0,1.6-2.76v-1.88c0-1-.72-1.43-1.6-.92L116.14,220.38A3.53,3.53,0,0,0,114.54,223.14Z"
                style="fill:#e0e0e0"></path>
            <path
                d="M114.54,248.05v1.87c0,1,.72,1.43,1.6.92L225,188a3.53,3.53,0,0,0,1.6-2.76v-1.88c0-1-.72-1.42-1.6-.92L116.14,245.29A3.53,3.53,0,0,0,114.54,248.05Z"
                style="fill:#e0e0e0"></path>
            <path
                d="M114.54,259.35v1.88c0,1,.72,1.42,1.6.92L225,199.28a3.53,3.53,0,0,0,1.6-2.76v-1.88c0-1-.72-1.43-1.6-.92L116.14,256.59A3.54,3.54,0,0,0,114.54,259.35Z"
                style="fill:#e0e0e0"></path>
            <path
                d="M114.54,270.6v1.87c0,1,.72,1.43,1.6.92L225,210.52a3.53,3.53,0,0,0,1.6-2.76v-1.88c0-1-.72-1.42-1.6-.92L116.14,267.84A3.53,3.53,0,0,0,114.54,270.6Z"
                style="fill:#e0e0e0"></path>
            <path
                d="M114.54,295.5v1.88c0,1,.72,1.42,1.6.92L225,235.43a3.53,3.53,0,0,0,1.6-2.76v-1.88c0-1-.72-1.43-1.6-.92L116.14,292.74A3.54,3.54,0,0,0,114.54,295.5Z"
                style="fill:#e0e0e0"></path>
            <path
                d="M114.54,306.81v1.87c0,1,.72,1.43,1.6.92L225,246.73a3.51,3.51,0,0,0,1.6-2.75V242.1c0-1-.72-1.43-1.6-.92L116.14,304.05A3.53,3.53,0,0,0,114.54,306.81Z"
                style="fill:#e0e0e0"></path>
            <path
                d="M114.54,318.05v1.88c0,1,.72,1.42,1.6.92L225,258a3.53,3.53,0,0,0,1.6-2.76v-1.88c0-1-.72-1.43-1.6-.92L116.14,315.29A3.54,3.54,0,0,0,114.54,318.05Z"
                style="fill:#e0e0e0"></path>
            <polygon points="170.58 319.56 226.63 287.21 226.63 288.29 170.58 320.64 170.58 319.56"
                style="fill:#e0e0e0"></polygon>
            <path
                d="M183.62,302.76c2.33-1.56,4.93-4.19,4.51-7.3-.25-1.89-1.79-2.62-3.53-1.95-3.41,1.31-5.56,6.44-6.75,9.54-1,2.71-2.37,7.82,1.7,8.69,4.77,1,8.46-6,9.54-9.64.15-.51-.68-.79-.92-.33-.42.83-3.23,6.31-.14,5.62,1.1-.24,1.73-1.95,2.13-2.82.7-1.56,1.05-3.73,2.15-5.07l-.81-.37c.05,1.44,0,2.42,1,3.54a.49.49,0,0,0,.68.11c1.58-1.47,1.69-3.86,3.43-5.19l-.71-.34c0,.46-.21,1.77-.24,2.38,0,.29.39.48.62.39a1.36,1.36,0,0,0,1-.86l-.76-.28c.66,3.53,3.67,0,4.7-1.34,3-4,5.14-8.29,5.22-13.41,0-.41-.77-.62-.78-.13-.07,3.94-1.79,7.55-2.9,11.27-1.19,4-2.18,8.09-3,12.21l.71.26a24.52,24.52,0,0,1,2.2-8.42,16.65,16.65,0,0,1,3.79-6.32l-.66-.25a7.14,7.14,0,0,1-1.6,5.82c-.21.27.26.78.47.51,1.1-1.38,2.91-1.82,4.09-3.16a35,35,0,0,0,2.95-4.76l-.54-.27c-.07,3.36,3.1-1.88,3.53-2.44l-.52-.2c.21.69.49,1.15,1.27,1.16,1.55,0,2.13-2.26,3.3-2.52,0,0,.51.43.69.45a2.93,2.93,0,0,0,1.87-.35,8.7,8.7,0,0,0,3.06-3.42c.18-.32-.43-.72-.63-.37-.77,1.3-3.17,4.75-4.91,3.06-.11-.1-.34-.2-.46-.06-.47.58-3.16,3.66-3.66,2-.06-.2-.35-.42-.51-.2-.41.54-.74,1.14-1.12,1.71-.21.31-1.38,2.28-1.34,1.28,0-.24-.37-.52-.54-.27-1.09,1.67-1.89,3.86-3.41,5.22-1.13,1-2.61,1.38-3.59,2.59l.47.51a7.66,7.66,0,0,0,1.83-6.32.42.42,0,0,0-.66-.25c-1.87,1.72-2.92,4.14-3.85,6.46a25.27,25.27,0,0,0-2.24,8.59c0,.31.63.66.71.26a118.83,118.83,0,0,1,3.29-13.16c1.1-3.48,2.59-6.83,2.66-10.53l-.78-.13a19.39,19.39,0,0,1-3.47,10.7c-.56.87-1.15,1.74-1.79,2.56-.28.37-2.76,3.61-3.08,1.73-.05-.27-.58-.65-.76-.28l-.72.64.62.38c.05-.81.21-1.57.25-2.39,0-.31-.48-.51-.71-.33-1.77,1.35-1.9,3.74-3.49,5.21l.68.11a5.41,5.41,0,0,1-.76-3c0-.35-.54-.69-.81-.37-1.22,1.46-1.6,3.79-2.4,5.49-.44.93-2,3.41-1.5.77a13,13,0,0,1,1.41-3.11l-.92-.33c-.94,3.18-3.45,8-6.88,9-4.38,1.31-3.62-4.12-2.82-6.54a26.94,26.94,0,0,1,4.18-7.82,8.71,8.71,0,0,1,1.13-1.3c.89-.8,1.15-1,2.39-.29s1.3,1.1,1,2.44a7.37,7.37,0,0,1-.82,1.89,12.55,12.55,0,0,1-2.94,3.14c-.16.13.07.56.25.43Z"
                style="fill:#CE7F00"></path>
        </g>
    </g>
</svg>