<svg xmlns="http://www.w3.org/2000/svg" viewBox="0 0 500 500"> 
   
    <g id="freepik--characters-2--inject-2">
        <path
            d="M345.16,171.43c.44.89,31.65,20.89,31.65,20.89L407,163.76l9.23,9.35s-16.44,27.8-28.52,39.2c-8.35,7.89-18.43,5.15-29.2-1.92-6.14-4-21.72-15.32-21.72-15.32Z"
            style="fill:#ffbf9d"></path>
        <path d="M271.72,424.23l.82,21.53s-21.61,8.07-21.85,12.06l41.81-.09.1-33.6Z"
            style="fill:#263238"></path>
        <path
            d="M285.47,443.92a1.71,1.71,0,0,1,1.18,1.95,1.64,1.64,0,0,1-1.92,1.19,1.8,1.8,0,0,1-1.24-2.07,1.7,1.7,0,0,1,2.13-1"
            style="fill:#e0e0e0"></path>
        <path d="M292.5,457.73l-.12-3.39-40,1.36s-1.86.81-1.65,2.12Z" style="fill:#455a64"></path>
        <path
            d="M271.86,445.55c0,.2,1,.29,2,.95s1.54,1.51,1.73,1.43-.12-1.26-1.35-2S271.82,445.36,271.86,445.55Z"
            style="fill:#fff"></path>
        <path
            d="M267.48,447.37c-.05.2.84.55,1.53,1.41s.9,1.77,1.1,1.76.34-1.16-.55-2.22S267.48,447.18,267.48,447.37Z"
            style="fill:#fff"></path>
        <path
            d="M265,452.63c.19,0,.47-1-.06-2.1s-1.48-1.56-1.57-1.39.51.77.93,1.69S264.8,452.61,265,452.63Z"
            style="fill:#fff"></path>
        <path
            d="M272.22,440.62c.09.19,1-.1,2.18,0s2.05.44,2.16.26-.76-.9-2.12-1S272.12,440.46,272.22,440.62Z"
            style="fill:#fff"></path>
        <path
            d="M320,424.36l2.27,26-4.14,21.06a2.68,2.68,0,0,0,2.29,3.16h0a2.66,2.66,0,0,0,2.3-.84c3.73-4.06,17.36-19.07,17.09-21-.32-2.19-.57-27.55-.57-27.55Z"
            style="fill:#263238"></path>
        <path
            d="M320.43,474.56,339.7,451l.08,1.1a4,4,0,0,1-.79,2.66c-1.53,2.05-5.87,7.61-16.18,19a2.66,2.66,0,0,1-2.38.84Z"
            style="fill:#455a64"></path>
        <g style="opacity:0.6000000000000001">
            <path
                d="M333.83,443a1.6,1.6,0,0,0-.31,2.13,1.54,1.54,0,0,0,2.11.32,1.71,1.71,0,0,0,.32-2.26,1.62,1.62,0,0,0-2.24-.09"
                style="fill:#fff"></path>
        </g>
        <path
            d="M325.65,462.81a5.75,5.75,0,0,0-5.44-2.26c0-.06.29-.28.89-.41a4.24,4.24,0,0,1,4.21,1.75C325.65,462.4,325.71,462.78,325.65,462.81Z"
            style="fill:#fff"></path>
        <path
            d="M324,466.41a22.68,22.68,0,0,0-2.38-1,21.25,21.25,0,0,0-2.56-.16,3,3,0,0,1,2.69-.4C323.33,465.23,324.15,466.33,324,466.41Z"
            style="fill:#fff"></path>
        <path
            d="M328.81,458.12a26.07,26.07,0,0,0-3.56-1.74,25.17,25.17,0,0,0-3.92-.65,5.85,5.85,0,0,1,4.09.1A5.94,5.94,0,0,1,328.81,458.12Z"
            style="fill:#fff"></path>
        <path
            d="M328.78,450.17c-.06.16-1.53-.35-3.41-.3s-3.32.6-3.39.44a5.24,5.24,0,0,1,3.38-1A5.11,5.11,0,0,1,328.78,450.17Z"
            style="fill:#fff"></path>
        <path
            d="M328.31,442.53a12.68,12.68,0,0,0-3.54-.4,13.14,13.14,0,0,0-3.39,1.08c-.05,0,.21-.39.79-.78a5.69,5.69,0,0,1,2.54-.87,5.6,5.6,0,0,1,2.67.36C328,442.18,328.35,442.47,328.31,442.53Z"
            style="fill:#fff"></path>
        <path
            d="M324.72,440.67a2.4,2.4,0,0,1-.1-1,7,7,0,0,1,.62-2.63,3.07,3.07,0,0,1,1.21-1.53,1.07,1.07,0,0,1,1.22.16,1.78,1.78,0,0,1,.49,1.15,3.79,3.79,0,0,1-3.08,3.7,4.4,4.4,0,0,1-4.44-2,1.49,1.49,0,0,1-.15-1.26,1.05,1.05,0,0,1,1.06-.63,3.76,3.76,0,0,1,1.77.78,7.71,7.71,0,0,1,1.91,1.91,2.68,2.68,0,0,1,.46.87,12.55,12.55,0,0,0-2.59-2.44,3.39,3.39,0,0,0-1.56-.64.55.55,0,0,0-.58.33,1,1,0,0,0,.14.82A3.9,3.9,0,0,0,325,440a3.27,3.27,0,0,0,2.66-3.1,1.23,1.23,0,0,0-.3-.81.59.59,0,0,0-.68-.1,2.7,2.7,0,0,0-1,1.28A10.14,10.14,0,0,0,324.72,440.67Z"
            style="fill:#fff"></path>
        <path
            d="M255.13,282.41h0c.12-2.75.38-5.84.69-8.1a89.4,89.4,0,0,0,8.73,2.05,84.08,84.08,0,0,0,20.64.7l.47,0c14.17-1.2,28.75-5.2,43.4-9.55l2.19,16.66L336.64,364l3.9,81.37H316.31s-8.54-62.59-9.2-71.25c-.74-9.64-12.31-69.48-12.31-69.48l-2.1-.52L294,444.37H268.91s-13.58-150.72-13.79-156.08C255,286.27,255.05,284.3,255.13,282.41Z"
            style="fill:#263238"></path>
        <path
            d="M313.26,131.6a79.24,79.24,0,0,0,3.64-13.31,27.84,27.84,0,0,0-.93-13.66c-.23-.65-2.25-5.07-3-5-.5,0,.73,4.15.48,4.58A23.67,23.67,0,0,0,310.66,118a62,62,0,0,0,2.6,13.61"
            style="fill:#263238"></path>
        <path
            d="M296.6,92.36l-1.07,0a20.66,20.66,0,0,0-19.8,19.83c-.39,10-.7,21.08-.41,26.43.6,11.07,11.75,12.34,11.75,12.34s.05,10.31.05,10.31l11,4.72,14.54-7.23L313.93,114C314.44,102.48,308.16,92.56,296.6,92.36Z"
            style="fill:#ffbf9d"></path>
        <path d="M287.07,151a26.81,26.81,0,0,0,14.25-4.86s-3.12,8.47-14.22,7.93Z"
            style="fill:#ff9a6c"></path>
        <path
            d="M279.82,122.72a1.58,1.58,0,0,0,1.59,1.53,1.51,1.51,0,0,0,1.57-1.49,1.58,1.58,0,0,0-1.59-1.54A1.52,1.52,0,0,0,279.82,122.72Z"
            style="fill:#263238"></path>
        <path
            d="M278.29,117c.21.2,1.37-.74,3.07-.8s3,.73,3.16.51-.13-.46-.69-.83a4.34,4.34,0,0,0-2.54-.67,4.18,4.18,0,0,0-2.43.9C278.35,116.56,278.19,116.94,278.29,117Z"
            style="fill:#263238"></path>
        <path
            d="M295,122.11a1.58,1.58,0,0,0,1.59,1.53,1.51,1.51,0,0,0,1.57-1.49,1.58,1.58,0,0,0-1.59-1.54A1.51,1.51,0,0,0,295,122.11Z"
            style="fill:#263238"></path>
        <path
            d="M295,116.74c.2.19,1.37-.74,3.07-.81s3,.74,3.16.52-.12-.46-.69-.83a4.34,4.34,0,0,0-2.54-.68,4.16,4.16,0,0,0-2.43.9C295.06,116.27,294.9,116.65,295,116.74Z"
            style="fill:#263238"></path>
        <path
            d="M289.43,130.07a11.29,11.29,0,0,0-2.79-.38c-.43,0-.85-.1-.93-.39a2.16,2.16,0,0,1,.23-1.3c.37-1.07.75-2.19,1.15-3.37,1.59-4.79,2.73-8.72,2.53-8.78s-1.64,3.77-3.23,8.56l-1.09,3.38a2.49,2.49,0,0,0-.16,1.72,1.07,1.07,0,0,0,.74.6,2.58,2.58,0,0,0,.75.07A10.47,10.47,0,0,0,289.43,130.07Z"
            style="fill:#263238"></path>
        <path
            d="M294.23,111.43c.25.43,1.88-.1,3.89-.22s3.7.11,3.89-.35c.08-.21-.28-.59-1-.91a6.38,6.38,0,0,0-3-.47,6.54,6.54,0,0,0-2.91.9C294.41,110.8,294.12,111.23,294.23,111.43Z"
            style="fill:#263238"></path>
        <path
            d="M278,112c.36.37,1.74-.06,3.4-.13s3.09.18,3.41-.23c.13-.2-.1-.58-.73-.93a5.32,5.32,0,0,0-2.78-.56,5.19,5.19,0,0,0-2.7.85C278,111.44,277.85,111.84,278,112Z"
            style="fill:#263238"></path>
        <path
            d="M313.36,122.27c.19-.09,7.52-2.57,7.59,5s-7.56,6.09-7.57,5.87S313.36,122.27,313.36,122.27Z"
            style="fill:#ffbf9d"></path>
        <path
            d="M315.67,130.27s.13.09.36.19a1.3,1.3,0,0,0,1,0c.8-.3,1.46-1.58,1.49-3a4.44,4.44,0,0,0-.39-1.89,1.54,1.54,0,0,0-1-1,.67.67,0,0,0-.78.37c-.1.21-.05.36-.09.38s-.16-.13-.1-.44a.83.83,0,0,1,.29-.48,1,1,0,0,1,.73-.2,1.85,1.85,0,0,1,1.39,1.16,4.52,4.52,0,0,1,.48,2.11c0,1.53-.81,3-1.9,3.3a1.45,1.45,0,0,1-1.21-.19C315.68,130.45,315.64,130.28,315.67,130.27Z"
            style="fill:#ff9a6c"></path>
        <path
            d="M280.63,99.66c-1.22-.67,2.46-4.65,5.47-6,4.56-2.07,11.53-3.35,15.73-2.16,5.06,1.43,9.27,4,11.81,8.56A29.7,29.7,0,0,1,317,115.27a9,9,0,0,1-1.07,4.63c-1.05,1.68-3.09,2.74-3,5a3.15,3.15,0,0,1-.78,2.32c-1.39,1.47-3.09.09-3.87-1.3-1.67-3-1.86-6.52-2-9.92a22.4,22.4,0,0,1,.48-7.22c.37-1.26,1-2.46,1.27-3.74a4.57,4.57,0,0,0-.54-3.79,5.1,5.1,0,0,0-.62-.62A7.93,7.93,0,0,0,299,99.19c-4.27,1.51-11.56,3.77-13.47,2.33a11.8,11.8,0,0,1-3.4-3.45Z"
            style="fill:#263238"></path>
        <path
            d="M294.78,131.13c-.26,0-.27,1.72-1.77,3s-3.35,1-3.36,1.28c0,.1.41.34,1.19.36a4.35,4.35,0,0,0,2.81-1,3.8,3.8,0,0,0,1.37-2.48C295.09,131.55,294.9,131.12,294.78,131.13Z"
            style="fill:#263238"></path>
        <path
            d="M250.94,281.45a7.15,7.15,0,0,0,1.93,4.29,17.28,17.28,0,0,1,2.63,5.91s1.32,8.14,1.62,10.78.27,5.05-1.81,4.53-2.68-2.13-2.95-7l-1.17-2.58L250,299.34l-.39,7.74s5.14,5.2,4.74,6.65-1.39,1.18-1.39,1.18l-.88.8-7.94-6-2.72-10.31,1.21-13.16-.49-8.23,10.26.29Z"
            style="fill:#ffbf9d"></path>
        <polygon
            points="247.36 198.14 242.74 237.96 241.68 256.36 242.12 269.89 252.26 279.03 258.14 246.96 264.19 206.98 262.99 202.67 247.36 198.14"
            style="fill:#ffbf9d"></polygon>
        <path
            d="M251.79,281.07a4.56,4.56,0,0,0,1,4.39,16.74,16.74,0,0,1,2.83,5.57s1.67,7.79,2.09,10.32.51,4.86-1.52,4.46-2.69-1.93-3.19-6.58l-1.25-2.43-1,1.92v7.49s5.22,4.76,4.91,6.17-1.29,1.22-1.29,1.22l-.8.81-8-5.37-3.13-9.81.52-12.76-.81-16.77,11.17,1.21Z"
            style="fill:#ffbf9d"></path>
        <path
            d="M334.69,162.4a153.47,153.47,0,0,0-18.91-8l-2-4.18L298.36,163l-11.78-9.6-2.29,4.38L262,165.69c-.2.07-.41.14-.62.23a15,15,0,0,0-8,8.19l-10.23,33.67L258.22,215l-.14,9.79-2.31,40.4s.26.32-1.15,3.83-2,16.43-2,16.43l.33.09a69.6,69.6,0,0,0,8.08,2l.65.12a87.06,87.06,0,0,0,22.15.82l.49-.05c14.9-1.28,31.49-5.19,46.9-9.84l-1.43-7.43c-.24-3.51-.78-7.68-.78-7.68l0-20.8,2.75-28.91Z"
            style="fill:#455a64"></path>
        <path
            d="M298.18,163a10.71,10.71,0,0,1-1.37,1.83c-.91,1.11-2.21,2.65-3.74,4.42l-.21.25-.22-.25-2.06-2.3a63.64,63.64,0,0,1-5-6.16,12.05,12.05,0,0,1-1.65-2.84c.08,0,.76,1,2,2.6s3,3.71,5.09,6l2,2.32h-.43c1.55-1.75,2.91-3.24,3.9-4.28A9.93,9.93,0,0,1,298.18,163Z"
            style="fill:#263238"></path>
        <path
            d="M314.35,156.19A21.16,21.16,0,0,1,312.1,159c-1.45,1.66-3.48,3.91-5.74,6.38l-3.23,3.47-.19.22-.2-.21a42.42,42.42,0,0,1-3.52-4,4.66,4.66,0,0,1-1-1.8c.06,0,.43.62,1.3,1.59s2.11,2.33,3.65,3.85h-.4l3.19-3.5c2.26-2.47,4.34-4.68,5.87-6.26A20.73,20.73,0,0,1,314.35,156.19Z"
            style="fill:#263238"></path>
        <path
            d="M288,280.34a1,1,0,0,1,0-.3c0-.23,0-.52,0-.88,0-.83.05-2,.09-3.4.09-2.95.25-7.22.49-12.5.48-10.55,1.28-25.12,2.59-41.18s2.94-30.57,4.34-41c.7-5.24,1.32-9.47,1.78-12.38.24-1.42.42-2.55.55-3.36.06-.35.12-.64.16-.87a1.48,1.48,0,0,1,.07-.29,1,1,0,0,1,0,.3c0,.23-.06.52-.1.88-.11.82-.25,1.94-.44,3.37-.39,2.93-.94,7.16-1.59,12.4-1.29,10.48-2.85,25-4.17,41s-2.17,30.61-2.76,41.15c-.28,5.24-.52,9.49-.68,12.49-.08,1.44-.15,2.57-.2,3.39,0,.36-.05.65-.07.88A1.4,1.4,0,0,1,288,280.34Z"
            style="fill:#263238"></path>
        <path
            d="M305.51,194.19a8.53,8.53,0,0,1,0,1.07c-.05.74-.11,1.72-.19,2.93-.2,2.57-.46,6.13-.79,10.44l-.09-.21,8.26,6.69-.32,0,8.89-5,1.62-.9-.15.23c.53-5.21,1-10.12,1.48-14.42l.25.29-13.61-.74-3.89-.24c-.9-.06-1.4-.1-1.42-.12a7.57,7.57,0,0,1,1.32,0l3.83.1,13.79.48h.28l0,.28c-.42,4.31-.9,9.21-1.41,14.43v.15l-.14.08-1.62.91-8.91,5-.17.1-.15-.13-8.19-6.76-.1-.08v-.13c.43-4.35.79-8,1.05-10.56.13-1.18.23-2.14.31-2.87A6.15,6.15,0,0,1,305.51,194.19Z"
            style="fill:#263238"></path>
        <path
            d="M256.62,180.26a8.71,8.71,0,0,1,.13,1.46c.08,1,.17,2.36.29,4,.24,3.34.59,8,.87,13.07s.42,9.75.38,13.11c0,1.68-.06,3-.14,4a7.66,7.66,0,0,1-.16,1.46,7.76,7.76,0,0,1-.05-1.46c0-.94,0-2.3,0-4-.06-3.35-.25-8-.54-13.08s-.57-9.73-.71-13.08c-.08-1.68-.11-3-.12-4A6.76,6.76,0,0,1,256.62,180.26Z"
            style="fill:#263238"></path>
        <path
            d="M333.65,161.86s5.82,2.31,8.46,4.56c3.18,2.7,25.27,19.58,25.27,19.58l-15.25,26.31L330.69,200.7l2-32.75Z"
            style="fill:#455a64"></path>
        <path
            d="M335.17,181.17a5.62,5.62,0,0,1-.13,1.29c-.14.93-.32,2.1-.53,3.5-.45,2.95-1,7-1.56,11.55s-.9,8.63-1.14,11.61c-.11,1.4-.21,2.58-.29,3.52a7,7,0,0,1-.16,1.29,5.72,5.72,0,0,1,0-1.3c0-.84,0-2,.11-3.54a37,37,0,0,0,1-11.63c.53-4.54,1.18-8.62,1.73-11.56.27-1.47.51-2.66.69-3.47A7.05,7.05,0,0,1,335.17,181.17Z"
            style="fill:#263238"></path>
        <path
            d="M341.35,124.3c2.09-1.29,4.77-1.7,6.44-3.5s1.87-4.59,2.14-7.09a19.83,19.83,0,0,1,2.2-7.87,9.25,9.25,0,0,1,6.4-4.72c2-.29,4.17.29,6.1-.4,2.19-.8,3.48-3,5.09-4.68A13.75,13.75,0,0,1,381.49,92a9.73,9.73,0,0,1,7.25,4.63c1.4,2.63.84,6.33-1.66,8L395.4,121A18.89,18.89,0,0,1,385,147.62c-2.31.83-4.87,1.26-6.68,2.91-1.38,1.25-2.12,3.05-3.2,4.58s-2.8,2.89-4.64,2.56c-1.4-.25-2.54-1.45-4-1.53s-2.63,1-3.9,1.62a7.48,7.48,0,0,1-9.15-2.24c-1-1.41-1.62-3.27-3.19-4s-3.43-.05-5.18-.13a6,6,0,0,1-5.21-7.35c.39-1.29,1.24-2.49,1.14-3.83s-1.33-2.57-2.18-3.77A8.83,8.83,0,0,1,341.35,124.3Z"
            style="fill:#263238"></path>
        <path
            d="M362.43,137.72a4.93,4.93,0,0,0-2-1.32h.15a3.07,3.07,0,0,0-.42-.07,1.9,1.9,0,0,0-1.53.22h0a3.7,3.7,0,0,0-2,1.82,4.63,4.63,0,0,0,.56,4.59,3.55,3.55,0,0,0,3.58,1.48,3.7,3.7,0,0,0,2.41-2.73A4.36,4.36,0,0,0,362.43,137.72Z"
            style="fill:#455a64"></path>
        <path
            d="M394.13,161l-.06-44.83c.07-2.16,1-5.19-1.07-5.45l-21.09-5.94c-6.77-.86-11.4,7.76-11.94,14.84-.59,7.87-1,17.5-.21,23.4,1.63,11.85,11,13.53,11,13.53s.09,1.74.07,6l-10.92,3.59L383,184.07l29.31-19.27Z"
            style="fill:#ffbf9d"></path>
        <path
            d="M363.82,130.39a1.49,1.49,0,0,0,1.38,1.55,1.41,1.41,0,0,0,1.52-1.34,1.49,1.49,0,0,0-1.38-1.55A1.41,1.41,0,0,0,363.82,130.39Z"
            style="fill:#263238"></path>
        <path
            d="M361.9,124.69c.18.2,1.3-.63,2.86-.6s2.7.87,2.87.67-.09-.45-.58-.83a3.88,3.88,0,0,0-2.3-.78,3.64,3.64,0,0,0-2.28.72C362,124.25,361.82,124.6,361.9,124.69Z"
            style="fill:#263238"></path>
        <path
            d="M377.58,130.39a1.48,1.48,0,0,0,1.38,1.55,1.4,1.4,0,0,0,1.51-1.34,1.48,1.48,0,0,0-1.37-1.55A1.4,1.4,0,0,0,377.58,130.39Z"
            style="fill:#263238"></path>
        <path
            d="M377.28,125.26c.18.2,1.3-.63,2.86-.6s2.7.87,2.87.67-.09-.45-.58-.83a3.93,3.93,0,0,0-2.3-.79,3.72,3.72,0,0,0-2.28.73C377.37,124.82,377.2,125.17,377.28,125.26Z"
            style="fill:#263238"></path>
        <path
            d="M371.42,137.26a9.77,9.77,0,0,0-2.53-.52c-.4-.05-.78-.14-.84-.43a2.19,2.19,0,0,1,.28-1.23c.4-1,.8-2.05,1.23-3.15,1.71-4.49,3-8.18,2.78-8.25s-1.7,3.51-3.41,8c-.41,1.1-.8,2.16-1.18,3.17a2.58,2.58,0,0,0-.23,1.63,1,1,0,0,0,.65.62,2.65,2.65,0,0,0,.68.11A9.72,9.72,0,0,0,371.42,137.26Z"
            style="fill:#263238"></path>
        <path d="M370.74,156.57a26.27,26.27,0,0,0,14.57-4s-3.18,8.83-14.51,7.53Z"
            style="fill:#ff9a6c"></path>
        <path
            d="M374.18,139.14a2.52,2.52,0,0,1,2,1.21,2.61,2.61,0,0,1-.08,2.63,2.33,2.33,0,0,1-2.55.91,2.83,2.83,0,0,1-.41-.14c-2.33-1-1.56-4.72,1-4.61Z"
            style="fill:#ff9a6c"></path>
        <path
            d="M376,138.47c-.25,0-.28,1.75-1.75,3s-3.28,1-3.3,1.25.4.35,1.16.39a4.13,4.13,0,0,0,2.75-1,3.89,3.89,0,0,0,1.37-2.5C376.31,138.9,376.13,138.46,376,138.47Z"
            style="fill:#263238"></path>
        <path
            d="M377.06,118.41c.15.45,1.72.27,3.55.53s3.31.81,3.56.41c.11-.19-.14-.61-.73-1a5.86,5.86,0,0,0-2.63-1,5.71,5.71,0,0,0-2.79.3C377.35,117.86,377,118.2,377.06,118.41Z"
            style="fill:#263238"></path>
        <path
            d="M362.53,118.19c.27.38,1.35,0,2.65,0s2.39.29,2.65-.1c.11-.18-.06-.56-.53-.92a3.66,3.66,0,0,0-2.15-.64,3.59,3.59,0,0,0-2.12.71C362.56,117.63,362.41,118,362.53,118.19Z"
            style="fill:#263238"></path>
        <path d="M393.21,130.17V130C393.13,130.18,393.16,130.2,393.21,130.17Z" style="fill:#263238"></path>
        <path
            d="M418.52,134.72a5.79,5.79,0,0,1-1.63-2.3,6.72,6.72,0,0,1,.42-2.7,5.41,5.41,0,0,0-3.5-6c-1.4-.45-3.19-.46-3.91-1.74s.17-2.77.68-4.13a8.15,8.15,0,0,0-.6-6.9,10.83,10.83,0,0,0-10-7.21,7.43,7.43,0,0,0-6.85-5.83,26.79,26.79,0,0,0-8,2.06c-1.93-1.37-4.09-2.3-6.36-1.83-1.72.36-3.19,1.48-4.88,1.93-2.29.62-4.72,0-7.07.24a9.09,9.09,0,0,0-6.8,4.64c-1.05,1.94-1.43,4.35-3.14,5.76-.79.65-1.78,1-2.63,1.58a8.26,8.26,0,0,0-3.1,4.53c-.54,1.78-.66,6.72-.78,8.58,2.07.57,6.28-.52,7.64-2.2s.38-6,2.45-6.6c2.67-.84,6.12-.5,8.22-2.36,1.46-1.3,1.52-3.8,3.17-4.85s3.59-.11,5.41.19a8.43,8.43,0,0,0,5.9-1.28h0a16.64,16.64,0,0,0,1.91,8.06,23.12,23.12,0,0,0,4.06,4.15c-.88,2.25-.24,10.48,3.77,9.51.54-.13.41.14.32.2l.9,23c1.92,0,3.05-.23,3.75-1.23a5.28,5.28,0,0,0,1.29.62,6,6,0,0,0,6.38-2.1c.74-1,1.2-2.28,2.25-3a8.94,8.94,0,0,1,3.14-.77c2.34-.47,8.06-3.13,8.85-5.38A6.88,6.88,0,0,0,418.52,134.72Z"
            style="fill:#263238"></path>
        <path
            d="M392.66,131.53c.09-2.53,3-3.11,5.18-1.87,1.16.68,2.06,2.07,2,4.76-.2,7.18-7.07,5.49-7.07,5.28S392.55,134.5,392.66,131.53Z"
            style="fill:#ffbf9d"></path>
        <path
            d="M394.93,137.05s.12.09.32.19a1.16,1.16,0,0,0,.9,0,3.13,3.13,0,0,0,1.45-2.73,4.32,4.32,0,0,0-.29-1.8,1.43,1.43,0,0,0-.88-1,.59.59,0,0,0-.71.32c-.1.2-.06.34-.1.35s-.14-.12-.08-.42a.84.84,0,0,1,.28-.44.89.89,0,0,1,.67-.16,1.73,1.73,0,0,1,1.22,1.15,4.38,4.38,0,0,1,.36,2c-.08,1.45-.83,2.78-1.83,3a1.24,1.24,0,0,1-1.09-.23C394.94,137.22,394.91,137.06,394.93,137.05Z"
            style="fill:#ff9a6c"></path>
        <path
            d="M391.83,140.34a3.4,3.4,0,0,1,1.8-1.83,2.85,2.85,0,0,1,1.66-.21l.28.08a5,5,0,0,1,2,1.32,4.36,4.36,0,0,1,.84,4,3.72,3.72,0,0,1-2.42,2.73,3.53,3.53,0,0,1-3.57-1.48A4.61,4.61,0,0,1,391.83,140.34Z"
            style="fill:#455a64"></path>
        <path
            d="M351.19,247.94c-.4.6-9.65,32.18-8.24,42.43S351.19,331,351.19,331s4.23,17.29,3.42,24.13-.48,29.73,1.81,43.44c2.64,15.83,5.46,44.21,5.46,44.21l20.4-1.57-.92-98.75,5-38.82,2.81-38Z"
            style="fill:#263238"></path>
        <path
            d="M409.71,429.28l-2,22.3,3.71,18.07a2.32,2.32,0,0,1-2.05,2.72h0a2.49,2.49,0,0,1-2.07-.72c-3.34-3.49-15.59-16.38-15.34-18,.28-1.88.51-23.65.51-23.65Z"
            style="fill:#263238"></path>
        <path
            d="M409.34,472.37,392,452.14l-.06.95a3.34,3.34,0,0,0,.7,2.29c1.37,1.75,5.27,6.53,14.53,16.26a2.48,2.48,0,0,0,2.14.73Z"
            style="fill:#455a64"></path>
        <g style="opacity:0.6000000000000001">
            <path
                d="M397.31,445.24a1.34,1.34,0,0,1,.27,1.83,1.37,1.37,0,0,1-2.18-1.67,1.5,1.5,0,0,1,2-.08"
                style="fill:#fff"></path>
        </g>
        <path
            d="M404.65,462.28a7.15,7.15,0,0,1,2.17-1.61,7.9,7.9,0,0,1,2.72-.33s-.26-.24-.8-.35a3.91,3.91,0,0,0-2.12.23,3.61,3.61,0,0,0-1.66,1.27C404.65,461.93,404.59,462.26,404.65,462.28Z"
            style="fill:#fff"></path>
        <path
            d="M406.11,465.37c.11.11.91-.57,2.14-.83a22,22,0,0,1,2.3-.14,2.78,2.78,0,0,0-2.42-.34C406.73,464.36,406,465.31,406.11,465.37Z"
            style="fill:#fff"></path>
        <path
            d="M401.81,458.26a24.21,24.21,0,0,1,3.2-1.5,25,25,0,0,1,3.52-.56,5.54,5.54,0,0,0-3.67.09A5.29,5.29,0,0,0,401.81,458.26Z"
            style="fill:#fff"></path>
        <path d="M401.84,451.43c.05.14,1.37-.3,3.06-.25s3,.51,3.05.38a6.2,6.2,0,0,0-6.11-.13Z"
            style="fill:#fff"></path>
        <path
            d="M402.26,444.88a11.71,11.71,0,0,1,3.18-.35,12.39,12.39,0,0,1,3.05.93s-.2-.34-.72-.67a5.43,5.43,0,0,0-4.67-.44C402.52,444.58,402.23,444.82,402.26,444.88Z"
            style="fill:#fff"></path>
        <path
            d="M405.48,443.28a1.72,1.72,0,0,0,.09-.84,5.7,5.7,0,0,0-.55-2.26,2.66,2.66,0,0,0-1.09-1.31,1,1,0,0,0-1.1.14,1.46,1.46,0,0,0-.43,1,3.29,3.29,0,0,0,2.76,3.18,4,4,0,0,0,4-1.73,1.27,1.27,0,0,0,.14-1.08,1,1,0,0,0-1-.54,3.58,3.58,0,0,0-1.59.67,6.59,6.59,0,0,0-1.71,1.64,2,2,0,0,0-.41.75,10.61,10.61,0,0,1,2.32-2.1,3.27,3.27,0,0,1,1.4-.55.52.52,0,0,1,.53.29.88.88,0,0,1-.14.71,3.57,3.57,0,0,1-3.47,1.45,2.84,2.84,0,0,1-2.39-2.66,1.13,1.13,0,0,1,.27-.7.55.55,0,0,1,.61-.08,2.38,2.38,0,0,1,.94,1.09A8.32,8.32,0,0,1,405.48,443.28Z"
            style="fill:#fff"></path>
        <path
            d="M421.25,249.68c.4.6,9.65,32.18,8.25,42.43s-8.25,40.63-8.25,40.63S417,350,417.83,356.87s-.6,29.59-1.81,43.44c-1.36,15.57-4.78,42.65-4.78,42.65l-21.19-1.39,1-97.37-5-38.81-2.82-38Z"
            style="fill:#263238"></path>
        <path d="M362.81,430l1.06,18.47s-19.29,7.23-19.44,10.66l37.54-.67-.41-28.84Z"
            style="fill:#263238"></path>
        <path d="M375.44,446.69a1.38,1.38,0,1,1-.61,2.7,1.39,1.39,0,1,1,.75-2.66"
            style="fill:#e0e0e0"></path>
        <path d="M382,458.44l-.16-2.91-35.94,1.74s-1.65.72-1.44,1.84Z" style="fill:#455a64"></path>
        <path
            d="M363.25,448.28c0,.17.93.24,1.84.78s1.41,1.28,1.58,1.21-.13-1.08-1.24-1.73S363.21,448.12,363.25,448.28Z"
            style="fill:#fff"></path>
        <path
            d="M359.35,449.91c0,.17.76.45,1.4,1.18s.83,1.51,1,1.5.28-1-.53-1.9S359.35,449.74,359.35,449.91Z"
            style="fill:#fff"></path>
        <path
            d="M357.2,454.45c.17,0,.4-.84-.08-1.8s-1.36-1.31-1.43-1.17.46.66.85,1.44S357,454.44,357.2,454.45Z"
            style="fill:#fff"></path>
        <path
            d="M363.5,444.05c.08.15.92-.1,2-.05s1.85.34,1.94.19-.7-.76-1.92-.8S363.41,443.91,363.5,444.05Z"
            style="fill:#fff"></path>
        <path
            d="M429.12,277.25A7,7,0,0,1,427,281.3a16.54,16.54,0,0,0-2.82,5.57s-1.68,7.79-2.09,10.32-.52,4.86,1.52,4.45,2.69-1.92,3.18-6.58l1.26-2.43,1,1.93v7.49s-5.22,4.75-4.9,6.17,1.28,1.22,1.28,1.22l.81.8,7.95-5.36,3.14-9.82-.52-12.75.37-14.5-9.08,2.34Z"
            style="fill:#ffbf9d"></path>
        <path
            d="M412.27,164.8s12.86,6,14.51,14.71,3.56,35.24,4,38.89a118.12,118.12,0,0,0,4.25,20.44c3,10.29,2,37.44,2,37.44h-8s-7.92-23.22-9.52-35.17-4.66-17.08-3.92-21.92S413.61,202,413.61,202Z"
            style="fill:#ffbf9d"></path>
        <path
            d="M412.27,190.17c.44.85,0,17.16,1.27,17.64s17.71-.65,17.71-.65-2-25.15-4.8-30.23-9.79-11.26-11.18-11.24-5.66,21.12-5.66,21.12Z"
            style="fill:#B2ADF4"></path>
        <path
            d="M364.77,164.7c-5.11,1-18,7.12-18,7.12l5.43,37.61,2.51,15.45-9.38,38.39s12.48,15.22,40.23,13,39.2-14.54,39.2-14.54l-11.92-38,1.54-17.24s-1.7-9.29-1.7-14.66c0-1,2.62-26.14,2.62-26.14l-13.79-3.48s-1.5,9.31-18.19,9.31S364.77,164.7,364.77,164.7Z"
            style="fill:#B2ADF4"></path>
        <path
            d="M410.9,187.11a4.31,4.31,0,0,1,.53.87,23.82,23.82,0,0,1,1.14,2.52,31.6,31.6,0,0,1,1.48,18,23.52,23.52,0,0,1-.72,2.67,3.58,3.58,0,0,1-.38.94c-.09,0,.34-1.41.74-3.68a35.19,35.19,0,0,0-1.47-17.78C411.46,188.44,410.82,187.15,410.9,187.11Z"
            style="fill:#263238"></path>
        <polygon
            points="335.65 201.55 331.02 241.36 329.96 259.76 330.41 273.3 340.54 282.44 346.42 250.37 352.47 210.39 351.27 206.08 335.65 201.55"
            style="fill:#ffbf9d"></polygon>
        <path d="M334.81,201.31c0-.81,4.59-24.51,9.82-27.92l2.41-1.81,5.43,32.57v2.22Z"
            style="fill:#B2ADF4"></path>
        <path
            d="M352.47,210.39a15.72,15.72,0,0,1-.87-2.95c-.46-1.84-1-4.41-1.48-7.27s-.78-5.46-.93-7.36a15.89,15.89,0,0,1-.12-3.07,21.62,21.62,0,0,1,.48,3c.26,1.88.62,4.47,1.08,7.32s1,5.41,1.33,7.27A20.94,20.94,0,0,1,352.47,210.39Z"
            style="fill:#263238"></path>
        <path
            d="M340.07,284.48a4.55,4.55,0,0,0,1,4.39,16.54,16.54,0,0,1,2.82,5.57s1.68,7.79,2.09,10.32.52,4.86-1.52,4.45-2.69-1.92-3.18-6.57L340,300.21l-1,1.92v7.49s5.22,4.76,4.9,6.17-1.28,1.22-1.28,1.22l-.81.81-7.95-5.37-3.14-9.81.52-12.76-.81-16.78,11.18,1.22Z"
            style="fill:#ffbf9d"></path>
        <path
            d="M405.11,162.86s3.25-3.66,5.62-4.07,11.19,1.27,13.85,1.8c3.69.74,3.52,3.49,1.07,3.69a43.28,43.28,0,0,1-6.8-.16,7.07,7.07,0,0,1-5.9,3.28C409,167.31,405.11,162.86,405.11,162.86Z"
            style="fill:#ffbf9d"></path>
        <path
            d="M410.73,158.79a53.9,53.9,0,0,1,6.16-2.09c3-.77,5-.77,5.79.28s3.14,6.66,2.47,7.78-8.26,6.5-9.43,6.65-2.06-.38-1.54-1.87,4.67-5.42,4.67-5.42l-.86-3.46Z"
            style="fill:#ffbf9d"></path>
        <path
            d="M423.06,157.71s4.26,9.39,4.37,10.16-2.08,2.63-3.79,3.56-7,2.65-7.64,1.76a3.1,3.1,0,0,1-.53-1.76l8-5.11Z"
            style="fill:#ffbf9d"></path>
        <path
            d="M426.89,168s-.06,4.32,0,5-.95,2.61-2.13,2.13-1.06-.51-1.18-1.7a22.28,22.28,0,0,1,0-3l3-2"
            style="fill:#ffbf9d"></path>
        <path
            d="M412.32,167.37a19.36,19.36,0,0,0,2-.34,6.34,6.34,0,0,0,3.73-2.92l.08-.15.18,0,.67.1a26.1,26.1,0,0,0,5.41.42c1.38-.09,2.21-.36,2.24-.28a5,5,0,0,1-2.21.65,20.11,20.11,0,0,1-5.52-.28l-.66-.09.26-.13a6.24,6.24,0,0,1-4.09,3A3.58,3.58,0,0,1,412.32,167.37Z"
            style="fill:#ff9a6c"></path>
        <path
            d="M412.78,158.68a39.59,39.59,0,0,1,6.46.79,40.25,40.25,0,0,1,6.37,1.32,41.77,41.77,0,0,1-6.46-.8A40.64,40.64,0,0,1,412.78,158.68Z"
            style="fill:#ff9a6c"></path>
        <path
            d="M424.67,164.7a2.9,2.9,0,0,1-.48,1.74,9,9,0,0,1-3.11,3.05,11.18,11.18,0,0,1-5.74,2,28.63,28.63,0,0,0,5.46-2.43,10.14,10.14,0,0,0,3.07-2.8C424.46,165.36,424.57,164.68,424.67,164.7Z"
            style="fill:#ff9a6c"></path>
        <path
            d="M423.16,171.89c-.07-.14,1.06-.76,2.2-1.83s1.85-2.13,2-2.06a4.72,4.72,0,0,1-1.64,2.44A4.63,4.63,0,0,1,423.16,171.89Z"
            style="fill:#ff9a6c"></path>
    </g>
    <g id="freepik--characters-1--inject-2">
        <path
            d="M171.19,223.56A14.32,14.32,0,0,1,173.43,205l11.19-5.31c2.29-6.56,10.6-4.41,13.29-2.52a11,11,0,0,1,4.23,8.54c.09,2-.17,4.12.94,5.75s2.94,2.13,4.36,3.28a7.09,7.09,0,0,1,.57,10,6.56,6.56,0,0,1,1.43,11.64,12.13,12.13,0,0,1,2.26,6.41,7.17,7.17,0,0,1-2.79,6,5.11,5.11,0,0,1-6.34-.36,7,7,0,0,1-13.11,3.05,8.18,8.18,0,0,1-13.79-7c-1.31,1.71-4.11,1.65-5.82.33a8.77,8.77,0,0,1-2.85-5.66A20,20,0,0,1,171.19,223.56Z"
            style="fill:#263238"></path>
        <path
            d="M183.68,199.3a3.32,3.32,0,0,1,3.59-.52,8.33,8.33,0,0,1,3,2.41,21.1,21.1,0,0,1,3.92,6.29l0,.1a6.66,6.66,0,0,1-4,8.4c-.42.17-.84.36-1.25.56a96.51,96.51,0,0,1-6.92-17Z"
            style="fill:#455a64"></path>
        <path
            d="M191,219a6.5,6.5,0,0,0-.28-8.35c1.24-1.46.9-3.78-.26-5.3a12.7,12.7,0,0,0-4.63-3.3,8.78,8.78,0,0,0-10-6.76c-2.15-3.42-7-4.11-10.87-3.12a10.43,10.43,0,0,1-2.9.53,17.74,17.74,0,0,1-2.14-.37c-3.92-.67-7.92,2-9.59,5.57a7.3,7.3,0,0,1-.89,1.68,10.51,10.51,0,0,1-2,1.49,6.28,6.28,0,0,0-2.58,4.56c-.11,1.53.32,3.17-.38,4.54a21.85,21.85,0,0,0-1.23,1.94c-.8,2.07,1.46,4.3.95,6.47-.11.44-.32.85-.46,1.28a3.92,3.92,0,0,0,.14,2.72,5.67,5.67,0,0,1,.79,2,6.35,6.35,0,0,1-.38,1.59c-.31,1.29,2.32,6.41,3.42,7.16l33.62,1.48a6.27,6.27,0,0,0,5.05-5.24,2.36,2.36,0,0,1,.36-1.23,2.7,2.7,0,0,1,.94-.56c2.21-1.09,2.57-4,2.43-6.5a3,3,0,0,1,.06-1A3.62,3.62,0,0,1,191,219Z"
            style="fill:#263238"></path>
        <path
            d="M181.36,218.71a18,18,0,0,0-9-16,22.26,22.26,0,0,0-8.53-2.38,13.62,13.62,0,0,0-8,1.39c-1.87.37-8.88,6.35-9.48,13.08-.65,7.49-1.13,15.17-.56,20.81,1,9.93,10.48,11.46,10.48,11.46.11-1.08-1.69,21.55-1.69,21.55l21.88-9.41Z"
            style="fill:#ffbf9d"></path>
        <path
            d="M162.38,234.2a2.19,2.19,0,0,0-.93-1.25,2.26,2.26,0,0,0-2.73.21,2.48,2.48,0,0,0-.43,2.71h0c.55.57,1,1.16,1.76,1.12a2.73,2.73,0,0,0,1.93-.91A2.19,2.19,0,0,0,162.38,234.2Z"
            style="fill:#ff9a6c"></path>
        <path
            d="M151.7,224.3a1.45,1.45,0,0,0,1.36,1.49,1.38,1.38,0,0,0,1.52-1.26,1.45,1.45,0,0,0-1.36-1.49A1.38,1.38,0,0,0,151.7,224.3Z"
            style="fill:#263238"></path>
        <path
            d="M148.86,219.08c.18.19,1.29-.59,2.84-.55s2.67.85,2.84.66-.09-.42-.57-.8a4,4,0,0,0-2.27-.76,3.83,3.83,0,0,0-2.27.67C149,218.66,148.78,219,148.86,219.08Z"
            style="fill:#263238"></path>
        <path
            d="M157.64,231.63a11.23,11.23,0,0,0-2.51-.49c-.4,0-.77-.13-.83-.38a1.74,1.74,0,0,1,.29-1.08l1.23-2.75c1.7-3.92,2.26-5.48,2.09-5.54s-1,1.39-2.72,5.31c-.41,1-.8,1.89-1.18,2.77a1.91,1.91,0,0,0-.23,1.43,1,1,0,0,0,.64.55,3,3,0,0,0,.67.11A10.93,10.93,0,0,0,157.64,231.63Z"
            style="fill:#263238"></path>
        <path d="M156.34,247a28.68,28.68,0,0,0,15.2-3.64s-4.2,7.83-15.43,6.5Z" style="fill:#ff9a6c"></path>
        <path
            d="M149.36,213.63c.28.43,1.62.18,3.18.35s2.83.61,3.18.23c.16-.18,0-.6-.53-1a4.69,4.69,0,0,0-2.5-.95,4.58,4.58,0,0,0-2.62.48C149.47,213,149.24,213.42,149.36,213.63Z"
            style="fill:#263238"></path>
        <path
            d="M168.19,225.2a1.44,1.44,0,0,1-1.48,1.37,1.38,1.38,0,0,1-1.4-1.39,1.44,1.44,0,0,1,1.47-1.37A1.39,1.39,0,0,1,168.19,225.2Z"
            style="fill:#263238"></path>
        <path
            d="M170.08,220.12c-.19.18-1.23-.7-2.78-.79s-2.73.61-2.89.41.13-.41.64-.74a4,4,0,0,1,2.33-.57,3.76,3.76,0,0,1,2.2.87C170,219.69,170.17,220,170.08,220.12Z"
            style="fill:#263238"></path>
        <path
            d="M172.2,214.93c-.43.43-1.95-.14-3.82-.28s-3.47.09-3.81-.41c-.14-.24.13-.68.85-1.07a5.82,5.82,0,0,1,3.16-.56,5.74,5.74,0,0,1,3,1.11C172.2,214.23,172.39,214.72,172.2,214.93Z"
            style="fill:#263238"></path>
        <path
            d="M179.23,229.57c0-.75.94-2.51,1.69-2.61,2-.26,5.6,0,5.51,5-.13,6.93-7.68,4.72-7.69,4.52S179.16,232.19,179.23,229.57Z"
            style="fill:#ffbf9d"></path>
        <path
            d="M181.32,234.69s.12.09.32.18a1.17,1.17,0,0,0,.9,0,3,3,0,0,0,1.43-2.66,4,4,0,0,0-.3-1.73,1.42,1.42,0,0,0-.89-.94.61.61,0,0,0-.72.32c-.1.19-.06.33-.09.34s-.15-.12-.09-.41a.82.82,0,0,1,.28-.43.93.93,0,0,1,.67-.16,1.7,1.7,0,0,1,1.24,1.1,4.06,4.06,0,0,1,.39,1.94,3.15,3.15,0,0,1-1.82,3,1.31,1.31,0,0,1-1.1-.21C181.33,234.86,181.3,234.7,181.32,234.69Z"
            style="fill:#ff9a6c"></path>
        <path
            d="M144.68,214.83a4.47,4.47,0,0,0,2.55-4.05c1,.33,2.09-1,2.71-1.84s1.37-1.3,1.35-2.37a1.27,1.27,0,0,1,.09-.62,1.32,1.32,0,0,1,.85-.47A5.13,5.13,0,0,0,155.7,202a10.89,10.89,0,0,0,5.24,1,4.15,4.15,0,0,0,7-.13,3.7,3.7,0,0,0,2.45,1.9,11.21,11.21,0,0,0,3.17.26,4.4,4.4,0,0,0,2.77,5c.27.09.59.18.71.44a1.13,1.13,0,0,1-.14.85,3.46,3.46,0,0,0,2.2,4.47,2.59,2.59,0,0,0,.13,4c.28.17.64.38.59.7a.72.72,0,0,1-.18.33,5,5,0,0,0-1.27,2.5,1.85,1.85,0,0,0,1.46,2.09,2.49,2.49,0,0,0-1,1.65c0,.67.63,1.37,1.25,1.14a43.14,43.14,0,0,0,4.28-1c2.25-2.89-.4-6.22-.52-9.87A23.78,23.78,0,0,0,180.8,207a17.34,17.34,0,0,0-2.63-3.77A23.44,23.44,0,0,0,174,200,21.25,21.25,0,0,0,168,197c-4.11-1.08-8.45.31-12.36,2a17.8,17.8,0,0,0-4.22,2.35,16.3,16.3,0,0,0-3.63,4.49,20.37,20.37,0,0,0-3,7.78"
            style="fill:#263238"></path>
        <path
            d="M143.24,212.11a3,3,0,0,1,.44-.81c.17-.25.41-.54.63-.92a3.5,3.5,0,0,0,.47-1.42,10.79,10.79,0,0,0,0-1.9,8.08,8.08,0,0,1,.12-2.27A6.29,6.29,0,0,1,146,202.4a6,6,0,0,1,1-1.06,9.06,9.06,0,0,1,1.23-.87,4.69,4.69,0,0,0,1.2-1,6.61,6.61,0,0,0,.76-1.42,10.33,10.33,0,0,1,5-5.12,9.61,9.61,0,0,1,1.87-.65,8.44,8.44,0,0,1,2-.17,9.25,9.25,0,0,1,1,.11c.34.06.68.14,1,.21a5.06,5.06,0,0,0,2,.06c.69-.12,1.37-.35,2.08-.51a13.29,13.29,0,0,1,2.19-.32,13,13,0,0,1,2.25,0,11.5,11.5,0,0,1,2.23.47,7.55,7.55,0,0,1,3.79,2.65l.28.38-.12-.05a8.61,8.61,0,0,1,6.56,1.51,8.52,8.52,0,0,1,3.56,5.35l-.06-.08a23.49,23.49,0,0,1,2.65,1.49,8.13,8.13,0,0,1,2.15,2,5.29,5.29,0,0,1,.92,2.68,3.57,3.57,0,0,1-.8,2.57v-.13a6.38,6.38,0,0,1,1.66,4,6.55,6.55,0,0,1-.9,3.79,6.73,6.73,0,0,1-.53.75,8.49,8.49,0,0,0-.55.67,1.74,1.74,0,0,0-.29.74,5.34,5.34,0,0,0,0,.8,12.88,12.88,0,0,1-.16,2.91,6.21,6.21,0,0,1-.81,2.19,3.78,3.78,0,0,1-1.23,1.21c-.4.25-.75.34-.95.48a3.54,3.54,0,0,0-.29.22.94.94,0,0,1,.27-.24c.2-.15.55-.25.94-.51a3.6,3.6,0,0,0,1.18-1.21,5.79,5.79,0,0,0,.78-2.16,12.73,12.73,0,0,0,.14-2.89,4.46,4.46,0,0,1,0-.82,1.83,1.83,0,0,1,.31-.8c.17-.25.37-.47.55-.69a6.41,6.41,0,0,0,.52-.73,6.33,6.33,0,0,0,.85-3.7,6.16,6.16,0,0,0-1.62-3.86l-.06-.06.06-.07a3.4,3.4,0,0,0,.74-2.43,5.06,5.06,0,0,0-.89-2.57,7.88,7.88,0,0,0-2.1-2,23.63,23.63,0,0,0-2.62-1.47l-.05,0v-.05a8.69,8.69,0,0,0-9.87-6.67h-.07l-.05-.06c-.08-.13-.17-.25-.26-.37a7.28,7.28,0,0,0-3.68-2.57,11.11,11.11,0,0,0-2.19-.47,13.62,13.62,0,0,0-2.21,0,13.93,13.93,0,0,0-2.15.32c-.7.15-1.38.39-2.09.51a5.61,5.61,0,0,1-1.08.08,7.18,7.18,0,0,1-1.05-.15l-1-.21c-.34,0-.67-.1-1-.11a8.08,8.08,0,0,0-2,.17,9.29,9.29,0,0,0-1.82.62,10.2,10.2,0,0,0-4.9,5,6.06,6.06,0,0,1-.79,1.46,5.14,5.14,0,0,1-1.24,1,8.51,8.51,0,0,0-1.22.85,5.75,5.75,0,0,0-.95,1,6.28,6.28,0,0,0-1.07,2.33,8.22,8.22,0,0,0-.13,2.24,11.86,11.86,0,0,1,0,1.91,3.65,3.65,0,0,1-.5,1.45c-.24.37-.48.66-.65.9a4.58,4.58,0,0,0-.37.58A1.22,1.22,0,0,1,143.24,212.11Z"
            style="fill:#455a64"></path>
        <path
            d="M162.36,232.74c-.2-.08-.68,1.32-2.22,1.9s-3-.07-3,.12.24.39.87.62a3.68,3.68,0,0,0,2.52,0,3.18,3.18,0,0,0,1.77-1.63C162.5,233.17,162.46,232.77,162.36,232.74Z"
            style="fill:#263238"></path>
        <path
            d="M189.25,250.26a.6.6,0,0,0,.18.11,3.73,3.73,0,0,0,.57.25,5.26,5.26,0,0,0,5.63-1.64,5.45,5.45,0,0,0,1-4.78l-.22.31a4.51,4.51,0,0,0,4-3.67c.46-2.06-.22-4.22-1-6.22l-.15.38a7,7,0,0,0,.89-12.08l0,.48a7.18,7.18,0,0,0-2.07-12.18l.12.31a5.33,5.33,0,0,0-.09-4.57,5,5,0,0,0-2.53-2.38,4.88,4.88,0,0,0-2.16-.43,2.26,2.26,0,0,0-.75.11,6.28,6.28,0,0,1,2.8.56,4.83,4.83,0,0,1,2.31,2.3,5,5,0,0,1,0,4.22l-.11.22.24.09a6.68,6.68,0,0,1,1.85,11.29l-.3.26.33.22a6.38,6.38,0,0,1-.81,11l-.25.12.11.27c.83,2,1.46,4,1.06,5.87a4,4,0,0,1-3.44,3.3h-.31l.08.3a5,5,0,0,1-.88,4.41,4.86,4.86,0,0,1-3,1.8,5.38,5.38,0,0,1-2.29-.06A7.7,7.7,0,0,0,189.25,250.26Z"
            style="fill:#455a64"></path>
        <path
            d="M176.5,209.44c0,.06.73.44,2,.19a4.11,4.11,0,0,0,2-1.07,4.29,4.29,0,0,0,1.24-2.49,4.21,4.21,0,0,0,0-1.33l-.37.35a4,4,0,0,0,3.82-1.35c.67-.82.71-1.49.66-1.49s-.27.56-1,1.22a3.86,3.86,0,0,1-3.39,1l-.44-.1.07.45a3.87,3.87,0,0,1,0,1.13,4,4,0,0,1-1,2.18,3.92,3.92,0,0,1-1.71,1A10.09,10.09,0,0,1,176.5,209.44Z"
            style="fill:#455a64"></path>
        <path
            d="M161,192.45s-.53-.28-1.45,0a2.79,2.79,0,0,0-1.35,1,3,3,0,0,0-.54,2.09l.32-.34a3.93,3.93,0,0,0-2.42.62,3.74,3.74,0,0,0-1.39,4.9c.65,1.27,1.57,1.58,1.57,1.52a6.68,6.68,0,0,1-1.17-1.7,3.65,3.65,0,0,1-.18-2.13,3.53,3.53,0,0,1,3.54-2.62l.37,0-.06-.35a2.62,2.62,0,0,1,.37-1.73,2.49,2.49,0,0,1,1.08-.94A9,9,0,0,1,161,192.45Z"
            style="fill:#455a64"></path>
        <path
            d="M169.61,210.36s.17-.25.2-.75a3.24,3.24,0,0,0-.6-2,3.35,3.35,0,0,0-2.82-1.39,2.68,2.68,0,0,0-1.84.67,1.44,1.44,0,0,0-.48,1.07,1.27,1.27,0,0,0,.68,1,2.56,2.56,0,0,0,2.11.09,4,4,0,0,0,1.61-1,3.68,3.68,0,0,0,1-3,3.78,3.78,0,0,0-.86-1.94c-.34-.37-.59-.5-.61-.47a4.8,4.8,0,0,1,1,2.45,3.31,3.31,0,0,1-1,2.56,3.37,3.37,0,0,1-1.38.86,2.06,2.06,0,0,1-1.62,0,.66.66,0,0,1-.08-1.13,2.14,2.14,0,0,1,1.44-.54,3,3,0,0,1,2.45,1.09,3.38,3.38,0,0,1,.71,1.77C169.61,210.08,169.56,210.34,169.61,210.36Z"
            style="fill:#263238"></path>
        <path
            d="M144.39,220.25a3.36,3.36,0,0,1-1.41-.6,1.91,1.91,0,0,1-.68-1.44,2,2,0,0,1,1-1.7l.36-.19-.31-.27a4.69,4.69,0,0,1-1.7-2.83,2.63,2.63,0,0,1,.31-1.63,3.7,3.7,0,0,1,1.18-1.11,7.15,7.15,0,0,0,1.29-1,4.07,4.07,0,0,0,.81-1.21,3.25,3.25,0,0,0,.18-2.77,6.36,6.36,0,0,1-.57,2.58,4.78,4.78,0,0,1-2,1.94,4.33,4.33,0,0,0-1.38,1.27,3.28,3.28,0,0,0-.41,2,5.12,5.12,0,0,0,2,3.19l0-.47a2.46,2.46,0,0,0-1.19,2.21,2.24,2.24,0,0,0,1,1.7C143.71,220.55,144.42,220.28,144.39,220.25Z"
            style="fill:#263238"></path>
        <polyline
            points="189.89 256.74 175.93 251.37 158.57 254.11 148.39 259.13 165.88 267.46 174.95 268.06 189.96 257.27"
            style="fill:#ffbf9d"></polyline>
        <path
            d="M93,331.39s0,.1,0,.31,0,.52,0,.9c0,.81.06,2,.1,3.48.07,3,.18,7.4.31,12.78.22,10.81.53,25.71.87,42.18,0,1.32,0,2.63.08,3.86l0,.84L94,395l-16.72-35.9-5-10.78L71,345.37c-.14-.33-.25-.58-.34-.77a1.42,1.42,0,0,1-.1-.26,1.57,1.57,0,0,1,.14.25l.37.75c.32.68.79,1.65,1.39,2.9L77.53,359c4.28,9.11,10.2,21.74,16.82,35.85l-.34.08c0-1.22-.05-2.53-.08-3.86-.3-16.46-.57-31.36-.77-42.17-.08-5.39-.15-9.75-.19-12.79,0-1.5,0-2.66,0-3.48v-.9A1.77,1.77,0,0,1,93,331.39Z"
            style="fill:#e0e0e0"></path>
        <path
            d="M118.41,351.18a3.51,3.51,0,0,1-.2.46c-.15.33-.36.75-.61,1.29-.55,1.11-1.35,2.72-2.36,4.7-2,3.95-4.86,9.38-8.14,15.31s-6.36,11.23-8.64,15c-1.14,1.91-2.07,3.44-2.73,4.49L95,393.68a2.8,2.8,0,0,1-.29.41,3.1,3.1,0,0,1,.22-.45c.18-.31.42-.72.71-1.24.64-1.11,1.54-2.65,2.63-4.55,2.22-3.84,5.27-9.16,8.55-15.08S113,361.44,115,357.51l2.45-4.65.68-1.25A2.36,2.36,0,0,1,118.41,351.18Z"
            style="fill:#e0e0e0"></path>
        <path
            d="M130.54,387.45c0,.1-8.22,1.86-18.39,3.94S93.7,395.07,93.68,395s8.22-1.86,18.4-3.93S130.52,387.36,130.54,387.45Z"
            style="fill:#e0e0e0"></path>
        <path
            d="M129.38,413.09c0,.09-8-3.68-17.83-8.42S93.82,396,93.86,395.92s8,3.68,17.84,8.42S129.43,413,129.38,413.09Z"
            style="fill:#e0e0e0"></path>
        <path
            d="M122.14,432.33a2.38,2.38,0,0,1-.34-.31l-.93-.94c-.8-.81-1.94-2-3.33-3.53-2.78-3-6.51-7.3-10.41-12.2s-7.22-9.5-9.53-12.89c-1.16-1.69-2.08-3.07-2.7-4l-.71-1.12a3.5,3.5,0,0,1-.22-.4,2,2,0,0,1,.28.36l.77,1.08c.68,1,1.63,2.32,2.78,4,2.37,3.34,5.72,7.91,9.61,12.81s7.59,9.18,10.32,12.25L121,431c.37.4.66.73.88,1A2.76,2.76,0,0,1,122.14,432.33Z"
            style="fill:#e0e0e0"></path>
        <path
            d="M106.93,450.93a5.17,5.17,0,0,1-.15-.58q-.14-.6-.36-1.65c-.31-1.46-.76-3.53-1.31-6.07-1.12-5.13-2.74-12.19-4.74-19.94s-4-14.73-5.48-19.76c-.74-2.49-1.35-4.51-1.78-5.95l-.48-1.62a2.28,2.28,0,0,1-.14-.57,3.67,3.67,0,0,1,.21.55l.54,1.6c.47,1.39,1.12,3.41,1.9,5.92,1.55,5,3.58,12,5.58,19.74s3.58,14.83,4.64,20c.53,2.57.94,4.65,1.2,6.1.12.69.22,1.25.3,1.66A2.55,2.55,0,0,1,106.93,450.93Z"
            style="fill:#e0e0e0"></path>
        <path
            d="M81.05,456.26l0-.16.1-.46q.15-.66.42-1.77c.38-1.57.91-3.78,1.56-6.51,1.3-5.49,3-13.11,4.62-21.57s2.84-16.18,3.66-21.76c.4-2.78.72-5,.94-6.63.11-.75.2-1.35.26-1.8l.08-.46c0-.11,0-.16,0-.16v.16c0,.13,0,.28-.05.47,0,.45-.11,1.05-.19,1.81-.17,1.57-.45,3.84-.83,6.64-.75,5.6-1.94,13.32-3.56,21.8s-3.35,16.08-4.72,21.56c-.68,2.75-1.25,5-1.67,6.48-.21.74-.37,1.33-.49,1.76-.06.18-.1.33-.14.45S81.06,456.26,81.05,456.26Z"
            style="fill:#e0e0e0"></path>
        <path
            d="M56.14,413.09a1.76,1.76,0,0,1,.37-.19l1.08-.5,4-1.78,13.17-5.93c5.14-2.33,9.81-4.39,13.21-5.84,1.71-.72,3.09-1.29,4-1.67l1.11-.44.39-.13a1.7,1.7,0,0,1-.36.2l-1.09.5-4,1.78L74.91,405c-5.14,2.32-9.81,4.39-13.22,5.83-1.7.72-3.08,1.29-4,1.68l-1.11.43A1.66,1.66,0,0,1,56.14,413.09Z"
            style="fill:#e0e0e0"></path>
        <path
            d="M96.69,394.27a2.15,2.15,0,0,1-.43-.12l-1.21-.41c-1-.36-2.55-.91-4.41-1.61-3.7-1.39-8.78-3.44-14.29-5.91s-10.41-4.92-13.91-6.77c-1.75-.92-3.16-1.68-4.12-2.23l-1.11-.63a2,2,0,0,1-.37-.24,2.29,2.29,0,0,1,.4.18l1.14.57,4.18,2.13c3.53,1.78,8.44,4.18,13.94,6.66s10.56,4.55,14.24,6l4.36,1.71,1.18.47A1.67,1.67,0,0,1,96.69,394.27Z"
            style="fill:#e0e0e0"></path>
        <path
            d="M97.25,394.9c0,2.93-1.37,5.31-3.06,5.31s-3.06-2.38-3.06-5.31,1.37-5.32,3.06-5.32S97.25,392,97.25,394.9Z"
            style="fill:#e0e0e0"></path>
        <path
            d="M65.42,438.28c-.08,0,6.29-9.81,14.23-21.79s14.46-21.65,14.54-21.59S87.9,404.71,80,416.69,65.5,438.33,65.42,438.28Z"
            style="fill:#e0e0e0"></path>
        <path
            d="M125.81,372.54a1.51,1.51,0,0,1-.32.22l-.94.57c-.82.48-2,1.19-3.46,2.07-2.91,1.77-6.87,4.31-11.1,7.32s-7.92,5.95-10.53,8.12c-1.31,1.09-2.37,2-3.09,2.6l-.84.7a1.62,1.62,0,0,1-.31.23s.08-.1.26-.28l.8-.75c.69-.66,1.72-1.58,3-2.69,2.58-2.23,6.25-5.19,10.49-8.22S118,376.9,121,375.18c1.48-.85,2.68-1.53,3.52-2l1-.51A1.77,1.77,0,0,1,125.81,372.54Z"
            style="fill:#e0e0e0"></path>
        <path
            d="M95.79,458.74a2.92,2.92,0,0,1-.05-.61c0-.43,0-1-.07-1.73,0-1.54-.12-3.71-.2-6.38-.17-5.42-.4-12.84-.65-21s-.56-15.63-.76-21c-.09-2.67-.17-4.84-.23-6.38,0-.73,0-1.31,0-1.74a4.58,4.58,0,0,1,0-.6,2.53,2.53,0,0,1,.07.6c0,.43.06,1,.11,1.73.09,1.54.2,3.71.35,6.37.26,5.39.58,12.83.86,21s.45,15.66.54,21.05c0,2.67.07,4.84.09,6.38v1.74A4.09,4.09,0,0,1,95.79,458.74Z"
            style="fill:#e0e0e0"></path>
        <path
            d="M131.4,399.61h-.19l-.54,0-2.08-.1c-1.81-.1-4.44-.28-7.71-.55-6.55-.54-15.69-1.53-26-3.21h-.06l0-.05-5-5.47L69,367l-6.29-7L61,358l-.44-.51-.14-.18.17.16.46.48,1.75,1.89,6.37,7L90.11,390l4.94,5.48-.1-.06c10.28,1.69,19.41,2.72,26,3.33,3.27.3,5.9.51,7.7.65l2.08.16.53.05Z"
            style="fill:#e0e0e0"></path>
        <path
            d="M81.05,334.35a4.8,4.8,0,0,1,.36,1.16c.19.77.46,1.91.79,3.39.67,3,1.6,7.22,2.72,12.5,2.24,10.58,5.28,25.19,8.57,41.34.1.45.19.9.27,1.31h-.35c3.72-15.75,7.08-29.95,9.5-40.23,1.23-5.11,2.22-9.25,2.91-12.13l.81-3.29c.09-.37.17-.65.22-.86s.08-.28.08-.28a1.28,1.28,0,0,1-.05.29c0,.21-.1.5-.18.86-.17.78-.42,1.89-.74,3.31-.67,2.88-1.62,7-2.8,12.16l-9.4,40.25-.19.8-.16-.81c-.08-.41-.18-.86-.27-1.3-3.3-16.15-6.3-30.76-8.47-41.36-1.1-5.28-2-9.56-2.6-12.53-.32-1.46-.56-2.61-.73-3.4-.09-.38-.16-.67-.2-.88A1.93,1.93,0,0,0,81.05,334.35Z"
            style="fill:#e0e0e0"></path>
        <path
            d="M95.73,394.68c0-.11-8.91-.21-19.9-.21s-19.9.1-19.9.21,8.91.22,19.9.22S95.73,394.8,95.73,394.68Z"
            style="fill:#e0e0e0"></path>
        <path
            d="M124.67,356.24c-4-9.31-10.21-18.38-19.06-23.67a29,29,0,0,0-13-4.1,27.63,27.63,0,0,0-13.29,2.7c-9,4.18-15.64,12.72-20,21.42-5.67,11.29-8.41,23.91-9,36.49a97.72,97.72,0,0,0,5.55,38.36c3.75,10.08,9.44,19.73,18.19,26.23,7.27,5.42,16.8,7.47,25.5,4.55,9.49-3.18,16.66-10.91,21.58-19.36,6.2-10.66,9.36-22.91,10.51-35.11q.47-4.86.46-9.75A95.7,95.7,0,0,0,124.67,356.24Zm-13-9.28ZM125,403.75c-.07.76-.15,1.53-.24,2.3,0,.35-.09.71-.14,1.07v.05c0,.22-.07.44-.1.66q-.33,2.3-.78,4.56a85.36,85.36,0,0,1-2.15,8.65c-.4,1.33-.84,2.65-1.31,4-.23.64-.47,1.28-.72,1.91-.13.33-.26.66-.4,1,0,.14-.11.27-.16.41a73.44,73.44,0,0,1-3.55,7.1c-.63,1.09-1.3,2.16-2,3.2l-1,1.39-.56.75-.2.27a44.29,44.29,0,0,1-4.63,5.05c-.4.36-.8.72-1.21,1.06l-.64.54-.17.13c-.85.62-1.69,1.22-2.58,1.76A27.14,27.14,0,0,1,99.77,451l-.62.28-.09,0c-.48.19-1,.37-1.45.53a24.5,24.5,0,0,1-2.8.73l-.75.14-.22,0-.49.05-.85.07a23.55,23.55,0,0,1-2.91,0l-.68-.06-.5-.06-.22,0-.83-.15a23.86,23.86,0,0,1-2.87-.78c-.44-.14-.87-.3-1.29-.47l-.1,0-.77-.35a43.87,43.87,0,0,1-5.24-3.23c.86.57.08.06-.13-.11l-.58-.48c-.43-.36-.86-.74-1.27-1.13-.83-.76-1.63-1.57-2.39-2.41s-1.5-1.72-2.21-2.61l-.17-.23-.55-.75c-.37-.51-.73-1-1.08-1.56a61.42,61.42,0,0,1-3.84-6.68,30.35,30.35,0,0,1-1.64-3.57c.29.84,0-.07-.12-.29l-.39-1c-.27-.67-.52-1.35-.76-2a85.85,85.85,0,0,1-2.51-8.33c-.71-2.92-1.28-5.88-1.72-8.85,0-.2,0-.39-.08-.59,0-.35-.09-.71-.13-1.06-.1-.86-.19-1.72-.27-2.57-.15-1.56-.25-3.13-.32-4.69-.16-3.28-.15-6.57,0-9.85.08-1.61.19-3.22.35-4.82.07-.77.15-1.53.25-2.3,0-.24.05-.48.08-.73,0,.06,0,0,0-.25s.07-.53.11-.8A88.92,88.92,0,0,1,62,362.89c.23-.64.47-1.27.72-1.9l.35-.89.18-.43v0l0,0c.54-1.24,1.1-2.46,1.71-3.66a59.33,59.33,0,0,1,3.8-6.55q.49-.74,1-1.47l.55-.75,0-.06.12-.16.07-.08s0,0,0,0v0c.7-.89,1.43-1.76,2.2-2.59s1.57-1.63,2.4-2.4c.39-.36.79-.71,1.2-1.06l.58-.47.21-.17A31.66,31.66,0,0,1,82.56,337l.56-.25.08,0c.48-.19,1-.36,1.45-.52a23.42,23.42,0,0,1,2.88-.75l.75-.14.11,0-.15,0c.5,0,1-.11,1.52-.14a22.94,22.94,0,0,1,3,0l.68.06.58.09-.54-.1c.51.09,1,.16,1.51.27a25,25,0,0,1,2.79.75c.46.16.91.33,1.37.51h0l0,0,.79.37a26.69,26.69,0,0,1,2.62,1.44c.44.27.86.55,1.28.84.23.15.45.31.67.47l.52.39.27.21.58.48c.43.37.85.75,1.27,1.14.83.77,1.62,1.58,2.39,2.42s1.42,1.85,2.22,2.66l.15.19.49.67q.56.76,1.08,1.56c.72,1.08,1.4,2.19,2,3.31s1.23,2.23,1.79,3.36c.29.59.57,1.17.84,1.76.13.28.26.56.38.85l.24.53,0,.11c0,.07.09.23.12.29l.22.54c.12.3.24.59.35.89.26.67.52,1.35.76,2,.48,1.35.93,2.72,1.34,4.09.84,2.81,1.53,5.67,2.09,8.55.3,1.52.55,3,.77,4.57,0,.17,0,.34.07.52V381c0,.36.09.72.13,1.07.1.81.18,1.63.26,2.44q.43,4.73.43,9.47T125,403.75Z"
            style="fill:#263238"></path>
        <path
            d="M124.67,356.24c-4-9.31-10.21-18.38-19.06-23.67a29,29,0,0,0-13-4.1,27.63,27.63,0,0,0-13.29,2.7c-9,4.18-15.64,12.72-20,21.42-5.67,11.29-8.41,23.91-9,36.49a97.72,97.72,0,0,0,5.55,38.36c3.75,10.08,9.44,19.73,18.19,26.23,7.27,5.42,16.8,7.47,25.5,4.55,9.49-3.18,16.66-10.91,21.58-19.36,6.2-10.66,9.36-22.91,10.51-35.11q.47-4.86.46-9.75A95.7,95.7,0,0,0,124.67,356.24Zm-13-9.28ZM125,403.75c-.07.76-.15,1.53-.24,2.3,0,.35-.09.71-.14,1.07v.05c0,.22-.07.44-.1.66q-.33,2.3-.78,4.56a85.36,85.36,0,0,1-2.15,8.65c-.4,1.33-.84,2.65-1.31,4-.23.64-.47,1.28-.72,1.91-.13.33-.26.66-.4,1,0,.14-.11.27-.16.41a73.44,73.44,0,0,1-3.55,7.1c-.63,1.09-1.3,2.16-2,3.2l-1,1.39-.56.75-.2.27a44.29,44.29,0,0,1-4.63,5.05c-.4.36-.8.72-1.21,1.06l-.64.54-.17.13c-.85.62-1.69,1.22-2.58,1.76A27.14,27.14,0,0,1,99.77,451l-.62.28-.09,0c-.48.19-1,.37-1.45.53a24.5,24.5,0,0,1-2.8.73l-.75.14-.22,0-.49.05-.85.07a23.55,23.55,0,0,1-2.91,0l-.68-.06-.5-.06-.22,0-.83-.15a23.86,23.86,0,0,1-2.87-.78c-.44-.14-.87-.3-1.29-.47l-.1,0-.77-.35a43.87,43.87,0,0,1-5.24-3.23c.86.57.08.06-.13-.11l-.58-.48c-.43-.36-.86-.74-1.27-1.13-.83-.76-1.63-1.57-2.39-2.41s-1.5-1.72-2.21-2.61l-.17-.23-.55-.75c-.37-.51-.73-1-1.08-1.56a61.42,61.42,0,0,1-3.84-6.68,30.35,30.35,0,0,1-1.64-3.57c.29.84,0-.07-.12-.29l-.39-1c-.27-.67-.52-1.35-.76-2a85.85,85.85,0,0,1-2.51-8.33c-.71-2.92-1.28-5.88-1.72-8.85,0-.2,0-.39-.08-.59,0-.35-.09-.71-.13-1.06-.1-.86-.19-1.72-.27-2.57-.15-1.56-.25-3.13-.32-4.69-.16-3.28-.15-6.57,0-9.85.08-1.61.19-3.22.35-4.82.07-.77.15-1.53.25-2.3,0-.24.05-.48.08-.73,0,.06,0,0,0-.25s.07-.53.11-.8A88.92,88.92,0,0,1,62,362.89c.23-.64.47-1.27.72-1.9l.35-.89.18-.43v0l0,0c.54-1.24,1.1-2.46,1.71-3.66a59.33,59.33,0,0,1,3.8-6.55q.49-.74,1-1.47l.55-.75,0-.06.12-.16.07-.08s0,0,0,0v0c.7-.89,1.43-1.76,2.2-2.59s1.57-1.63,2.4-2.4c.39-.36.79-.71,1.2-1.06l.58-.47.21-.17A31.66,31.66,0,0,1,82.56,337l.56-.25.08,0c.48-.19,1-.36,1.45-.52a23.42,23.42,0,0,1,2.88-.75l.75-.14.11,0-.15,0c.5,0,1-.11,1.52-.14a22.94,22.94,0,0,1,3,0l.68.06.58.09-.54-.1c.51.09,1,.16,1.51.27a25,25,0,0,1,2.79.75c.46.16.91.33,1.37.51h0l0,0,.79.37a26.69,26.69,0,0,1,2.62,1.44c.44.27.86.55,1.28.84.23.15.45.31.67.47l.52.39.27.21.58.48c.43.37.85.75,1.27,1.14.83.77,1.62,1.58,2.39,2.42s1.42,1.85,2.22,2.66l.15.19.49.67q.56.76,1.08,1.56c.72,1.08,1.4,2.19,2,3.31s1.23,2.23,1.79,3.36c.29.59.57,1.17.84,1.76.13.28.26.56.38.85l.24.53,0,.11c0,.07.09.23.12.29l.22.54c.12.3.24.59.35.89.26.67.52,1.35.76,2,.48,1.35.93,2.72,1.34,4.09.84,2.81,1.53,5.67,2.09,8.55.3,1.52.55,3,.77,4.57,0,.17,0,.34.07.52V381c0,.36.09.72.13,1.07.1.81.18,1.63.26,2.44q.43,4.73.43,9.47T125,403.75Z"
            style="fill:none"></path>
        <path
            d="M125.44,394s0,.15,0,.43,0,.71,0,1.26c0,1.11-.08,2.75-.22,4.88a91.61,91.61,0,0,1-3,18.13,74.55,74.55,0,0,1-4.49,12.22,56,56,0,0,1-3.59,6.43c-.66,1.08-1.39,2.15-2.18,3.21s-1.66,2.06-2.57,3.06a36.57,36.57,0,0,1-3,2.88,19,19,0,0,1-1.63,1.34l-1.77,1.2a14.92,14.92,0,0,1-1.87,1.08c-.64.34-1.27.72-1.94,1a35.17,35.17,0,0,1-4.27,1.29,15.27,15.27,0,0,1-2.24.3c-.77,0-1.53,0-2.3,0a12.79,12.79,0,0,1-2.31-.19c-.77-.11-1.51-.38-2.28-.57a16.77,16.77,0,0,1-4.42-1.75c-1.4-.78-2.74-1.73-4.12-2.64l-.21.32.31.21.08.05c.12-.13-.26.29.26-.28l0,0h0l0,0-.15-.1a5.09,5.09,0,0,1-.58-.46c-.39-.31-.76-.66-1.14-1-.76-.66-1.43-1.42-2.16-2.13a30,30,0,0,1-2-2.31,23,23,0,0,1-1.89-2.47,61.26,61.26,0,0,1-6.13-11.18l-.39.13.08.25,0,.06v0h0c-.12-.08.71-.27.38-.14,0,0,0,0,0,0l0-.13-.19-.5-.4-1c-.24-.66-.49-1.33-.74-2-.49-1.35-.94-2.71-1.35-4.1a85.35,85.35,0,0,1-2.1-8.55A94.36,94.36,0,0,1,57,394.11c0-2.19,0-4.38.22-6.54l.24-3.24c.11-1.07.23-2.14.34-3.21l-.42-.05v0c-.32.09.56.21.42.06h0V381l0-.15,0-.29L58,380l.18-1.18c.13-.78.26-1.56.41-2.34.29-1.55.62-3.09,1-4.61a85.66,85.66,0,0,1,2.67-8.9,61.93,61.93,0,0,1,8.36-15.71l0,0,.18-.23h0v0l0,0-.37-.14h0l-.84,1.59L70.8,347l1.83-2.14c.59-.72,1.29-1.33,1.93-2a24.73,24.73,0,0,1,4.19-3.49,26.55,26.55,0,0,1,4.66-2.56l1.23-.45L85.9,336a21.16,21.16,0,0,1,2.51-.59l0-.37h-.15l0,.37a21.53,21.53,0,0,1,5.73,0l.06-.36-.53-.1-.07.36,1.48.26,1.44.38,1.41.39,1.37.51c.89.37,1.71.88,2.55,1.33a21.71,21.71,0,0,1,2.39,1.49,20.24,20.24,0,0,1,2.17,1.72,24.93,24.93,0,0,1,2,1.88,25.26,25.26,0,0,1,1.82,1.93c.55.68,1.07,1.39,1.69,2v0A62.31,62.31,0,0,1,121,365.55a77.75,77.75,0,0,1,2.25,8.17c.28,1.27.52,2.49.71,3.66s.38,2.29.56,3.35c.56,4.24.76,7.57.85,9.83,0,1.12.06,2,.07,2.57l0,.87s0-.29,0-.87,0-1.45,0-2.58c-.06-2.25-.23-5.59-.76-9.85-.18-1.06-.36-2.17-.55-3.35s-.41-2.41-.69-3.68a77.53,77.53,0,0,0-2.22-8.19A62.2,62.2,0,0,0,112,347.05h0a25.71,25.71,0,0,1-1.66-2,22.6,22.6,0,0,0-1.84-2,23.65,23.65,0,0,0-2-1.9,20.73,20.73,0,0,0-2.19-1.75,24,24,0,0,0-2.42-1.52c-.85-.45-1.68-1-2.58-1.35l-1.39-.51-1.44-.4L95,335.26,93.51,335l-.07.36.54.1.06-.36a21.79,21.79,0,0,0-5.82,0l0,.37h.16l0-.37a25.16,25.16,0,0,0-2.57.59l-1.28.34-1.25.45a27.38,27.38,0,0,0-4.74,2.6,25,25,0,0,0-4.25,3.53c-.64.67-1.35,1.29-2,2l-1.84,2.16.34.21v0l-.38-.14h0l0,0c-.06.07-.13.17-.2.27l0,0a61.71,61.71,0,0,0-8.45,15.83,81.78,81.78,0,0,0-2.68,8.94c-.37,1.53-.7,3.07-1,4.63-.15.79-.28,1.57-.41,2.36l-.18,1.18-.09.6,0,.29,0,.15v.11h0a2.37,2.37,0,0,0,.41.06s0,0,0,0l-.42-.05c-.12,1.07-.23,2.14-.35,3.22s-.15,2.16-.23,3.25c-.19,2.17-.22,4.37-.23,6.57a95.12,95.12,0,0,0,1.69,18.14c.57,2.93,1.28,5.8,2.11,8.59.42,1.39.88,2.77,1.36,4.12.26.67.51,1.34.76,2l.39,1,.19.49,0,.13,0,.05c-.32.13.5-.07.39-.16h0v0l0-.06-.08-.25-.39.13a61,61,0,0,0,6.19,11.28,26.18,26.18,0,0,0,1.91,2.5c.69.78,1.31,1.62,2.06,2.32s1.42,1.49,2.19,2.16c.38.33.75.68,1.15,1a5.73,5.73,0,0,0,.6.48l.16.1,0,0h0c-.08.07.12-.1,0,0,.52-.57.14-.16.25-.29l-.07-.05-.32-.2-.21.32c1.37.91,2.72,1.86,4.15,2.66a17,17,0,0,0,4.5,1.78c.78.19,1.53.45,2.32.57a12.47,12.47,0,0,0,2.35.18c.79,0,1.57,0,2.34,0a14.5,14.5,0,0,0,2.29-.31,33.93,33.93,0,0,0,4.33-1.31c.7-.29,1.33-.68,2-1a16.07,16.07,0,0,0,1.89-1.1l1.78-1.22a16.8,16.8,0,0,0,1.65-1.36,38.93,38.93,0,0,0,3-2.91c.91-1,1.79-2,2.59-3.1s1.52-2.14,2.18-3.23a54.86,54.86,0,0,0,3.58-6.47,73.4,73.4,0,0,0,4.47-12.28,89,89,0,0,0,2.94-18.18C125.53,396.3,125.44,394,125.44,394Z"
            style="fill:#455a64"></path>
        <path
            d="M111.7,347s0,0,0-.09a.08.08,0,0,1,.08,0s0,0,0,0a.2.2,0,0,0,0-.07v0h0v0l-.15.29-.17,0h0s.06,0,.1,0,0-.12.07-.11.06,0,.08,0,0,.05.06,0,0-.12,0-.16,0-.07,0-.14h0l0,0-.17,0-.15.29,0,0v0h0l0,0h.11a.09.09,0,0,0,.1,0S111.71,347,111.7,347Z"
            style="fill:#455a64"></path>
        <path
            d="M132.08,394s0-1.19,0-3.45a97.6,97.6,0,0,0-.75-9.86,93.47,93.47,0,0,0-3.19-15.32,74.82,74.82,0,0,0-8.46-18.89,49.33,49.33,0,0,0-7.68-9.3,35,35,0,0,0-11-7.05,27.07,27.07,0,0,0-13.84-1.58,31.21,31.21,0,0,0-13.59,5.82A45.63,45.63,0,0,0,63,345.81a70.19,70.19,0,0,0-7.28,14.55A98.11,98.11,0,0,0,50,394a96.3,96.3,0,0,0,5.73,33.63A69.93,69.93,0,0,0,63,442.14a46.73,46.73,0,0,0,10.6,11.43,29.66,29.66,0,0,0,13.58,5.83A26.3,26.3,0,0,0,101,457.87a35.15,35.15,0,0,0,11-7.07,50.1,50.1,0,0,0,7.69-9.3,72.7,72.7,0,0,0,8.5-18.86,96.59,96.59,0,0,0,3.16-15.33c.53-4.26.7-7.6.76-9.86,0-1.13,0-2,0-2.57s0-.88,0-.88,0,.3,0,.88-.05,1.45-.08,2.57c-.08,2.26-.28,5.59-.84,9.84a96.59,96.59,0,0,1-3.22,15.28,73.2,73.2,0,0,1-8.52,18.77,49.94,49.94,0,0,1-7.66,9.22,34.73,34.73,0,0,1-10.88,7A25.93,25.93,0,0,1,87.21,459a29.35,29.35,0,0,1-13.39-5.77,46.68,46.68,0,0,1-10.5-11.34,69.7,69.7,0,0,1-7.25-14.47A96,96,0,0,1,50.38,394a97.87,97.87,0,0,1,5.71-33.46A70,70,0,0,1,63.32,346,45.14,45.14,0,0,1,73.8,334.69a30.65,30.65,0,0,1,13.42-5.77,26.59,26.59,0,0,1,13.65,1.54,34.67,34.67,0,0,1,10.89,7,48.9,48.9,0,0,1,7.65,9.23,74.64,74.64,0,0,1,8.48,18.79,96,96,0,0,1,3.26,15.27c.56,4.26.74,7.59.82,9.85.06,1.13.06,2,.08,2.57S132.08,394,132.08,394Z"
            style="fill:#455a64"></path>
        <path d="M94,335.27Z" style="fill:#263238"></path>
        <path
            d="M94,335.27s.06,0,.06.05-.11.08-.08.1v.06l.08-.42h0l0,0s.09.09,0,.13-.06,0-.08,0-.06,0-.08,0,.06.12.06.13v.06h0l.08-.42s0,0,0,.06-.11,0-.1.1S94,335.26,94,335.27Z"
            style="fill:#455a64"></path>
        <path d="M70.65,346.86h0a1.33,1.33,0,0,1-.19.24C70.37,347.24,70.57,347.05,70.65,346.86Z"
            style="fill:#263238"></path>
        <path
            d="M70.65,346.86s-.06.07-.1,0-.06,0-.08,0l-.1.05,0,0h0a.18.18,0,0,1,.16,0c.15.1.1.12.13.19s0,.07,0,.07h0l0,0c.1-.15.13-.3.07-.36h0s0,0,0,0,0,0-.05,0h0a.34.34,0,0,0-.31.13h0l0,0,0,0s0,0,0,.08,0,.1.13.2a.18.18,0,0,0,.16,0h0l0,0,0,0,0,0,0-.07a1,1,0,0,0,0-.14s0-.06,0-.13S70.65,346.84,70.65,346.86Z"
            style="fill:#455a64"></path>
        <path d="M88.39,335.23c.77-.06.31,0,0,0Z" style="fill:#263238"></path>
        <path
            d="M88.39,335.23s.09,0,.09.06,0,.06,0,.08a.28.28,0,0,0,.13,0h.13l-.17-.12.12-.3a.58.58,0,0,0-.23.08.11.11,0,0,1,0,.13.17.17,0,0,1-.11,0s0,0,0,0a.19.19,0,0,0,.17.1.63.63,0,0,0,.36,0l.12-.3-.17-.12h-.12l-.08,0-.13.06a1,1,0,0,0-.14.1C88.33,335.24,88.37,335.24,88.39,335.23Z"
            style="fill:#455a64"></path>
        <rect x="134.69" y="392.3" width="74.29" height="4.87" style="fill:#263238"></rect>
        <path
            d="M145.28,288.71l-4.13-30.13a24.59,24.59,0,0,0-5.69,8.19c-1.84,4.7-8.09,37.32-8.79,39.74s-16.16,35.17-16.16,35.17l11,.12,21.19-33.27Z"
            style="fill:#ffbf9d"></path>
        <path
            d="M94.64,334.92c-1.26-16.28,2.64-19.5,6.74-21.41l.36-.17c3.23-1.55,6.85-1.47,9.76-1.4,3.63.08,10.18.17,16.51.25s37.7.36,41.36.44l-.12,4.87c-3.63-.08-35-.35-41.3-.44s-12.91-.16-16.57-.25c-2.51-.06-5.35-.12-7.53.92l-.41.2c-2,.93-5,2.34-3.94,16.61Z"
            style="fill:#e0e0e0"></path>
        <path
            d="M94.64,334.91h.29l.89-.06,3.68-.25h.07v-.07c0-.7-.08-1.49-.13-2.36s-.07-1.83-.06-2.86a27.81,27.81,0,0,1,.71-7,6.41,6.41,0,0,1,2.06-3.47,9.8,9.8,0,0,1,2-1.05,9.47,9.47,0,0,1,2.22-.63,26.62,26.62,0,0,1,4.93-.18l5.33.09,11.63.19,12.77.15,28.28.32h.21v-.21c0-1.29.06-2.68.09-4.08,0-.27,0-.54,0-.79v-.22h-.21l-36-.37-15.68-.19-7.1-.1a23.7,23.7,0,0,0-6.54.58,14.17,14.17,0,0,0-2.88,1.09A12,12,0,0,0,98.73,315a9.89,9.89,0,0,0-3,4.35,19.07,19.07,0,0,0-1.06,4.5c-.09.71-.17,1.39-.2,2s-.09,1.27-.08,1.85,0,1.13,0,1.65,0,1,0,1.45c0,.9.06,1.66.11,2.28s.09,1.06.11,1.4,0,.45,0,.45,0-.17,0-.48,0-.8-.06-1.4-.07-1.35-.07-2.25c0-.45,0-.93,0-1.45s0-1.06,0-1.64.06-1.2.11-1.84.11-1.32.21-2a18.72,18.72,0,0,1,1.09-4.45,9.57,9.57,0,0,1,3-4.22,11.46,11.46,0,0,1,2.45-1.47,14,14,0,0,1,2.82-1.06,23.92,23.92,0,0,1,6.47-.55l7.1.13,15.67.23,36,.4-.21-.21c0,.25,0,.52,0,.79,0,1.4-.06,2.79-.09,4.08l.22-.21L141,317l-12.78-.12-11.63-.16-5.32-.07a26.43,26.43,0,0,0-5,.21,9.09,9.09,0,0,0-2.28.66,10.16,10.16,0,0,0-2,1.09,6.61,6.61,0,0,0-2.13,3.62,27.9,27.9,0,0,0-.68,7.08c0,1,.06,2,.1,2.87s.11,1.66.16,2.36l.06-.07-3.64.32-.9.09Z"
            style="fill:#263238"></path>
        <rect x="158.29" y="261.3" width="58.69" height="101.16" rx="9.69" style="fill:#455a64"></rect>
        <path
            d="M211.55,265.24c.11,0,.21,21.61.21,48.27s-.1,48.27-.21,48.27-.22-21.61-.22-48.27S211.43,265.24,211.55,265.24Z"
            style="fill:#263238"></path>
        <rect x="79.59" y="365.03" width="4.87" height="70.32" style="fill:#e0e0e0"></rect>
        <path
            d="M75.71,421.52a19,19,0,1,0,19,19A19,19,0,0,0,75.71,421.52Zm0,30.4a11.41,11.41,0,1,1,11.4-11.41A11.41,11.41,0,0,1,75.71,451.92Z"
            style="fill:#455a64"></path>
        <path
            d="M75.71,421.52a19,19,0,1,0,19,19A19,19,0,0,0,75.71,421.52Zm0,30.4a11.41,11.41,0,1,1,11.4-11.41A11.41,11.41,0,0,1,75.71,451.92Z"
            style="fill:none"></path>
        <path
            d="M87.11,440.51a18.9,18.9,0,0,1-.43,2.77,11.43,11.43,0,0,1-4.16,6.18A11.24,11.24,0,0,1,71.89,451a11.17,11.17,0,0,1-5.2-3.91,11.16,11.16,0,0,1,0-13.24,10.7,10.7,0,0,1,2.37-2.38A10.58,10.58,0,0,1,71.89,430a11.33,11.33,0,0,1,5.89-.5,11.22,11.22,0,0,1,4.74,2.08,11.35,11.35,0,0,1,4.16,6.19,18.9,18.9,0,0,1,.43,2.76,3.69,3.69,0,0,0,0-.73,5,5,0,0,0-.07-.88,7.69,7.69,0,0,0-.21-1.19,11.48,11.48,0,0,0-9-8.58,11.57,11.57,0,0,0-6.09.48,11,11,0,0,0-2.94,1.57,10.83,10.83,0,0,0-2.46,2.46,11.53,11.53,0,0,0,0,13.74,11.59,11.59,0,0,0,5.4,4,11.52,11.52,0,0,0,11-1.71,11.38,11.38,0,0,0,4.14-6.38,7.8,7.8,0,0,0,.21-1.2,5,5,0,0,0,.07-.88A3.69,3.69,0,0,0,87.11,440.51Z"
            style="fill:#263238"></path>
        <path
            d="M94.69,440.51a1.43,1.43,0,0,0,0-.31c0-.22,0-.52,0-.9l0-.67c0-.24-.06-.51-.1-.8a13.46,13.46,0,0,0-.37-2,18.08,18.08,0,0,0-2.07-5.1,19.08,19.08,0,0,0-12.87-9.06,19.17,19.17,0,0,0-10.07.8,20.42,20.42,0,0,0-2.5,1.1,19.56,19.56,0,0,0-2.36,1.5,22.44,22.44,0,0,0-2.18,1.85,20,20,0,0,0-1.88,2.22,18.37,18.37,0,0,0-2.75,5.29,20.51,20.51,0,0,0-1,6.06,20.84,20.84,0,0,0,1,6.06,18.87,18.87,0,0,0,2.75,5.29,17.86,17.86,0,0,0,4.07,4.07,21.77,21.77,0,0,0,2.35,1.51,21.17,21.17,0,0,0,2.51,1.09,19,19,0,0,0,18.12-2.81,18.86,18.86,0,0,0,4.82-5.45,18.08,18.08,0,0,0,2.07-5.1,13.46,13.46,0,0,0,.37-2c0-.29.08-.55.1-.8l0-.67c0-.38,0-.68,0-.9a1.5,1.5,0,0,0,0-.31,2.67,2.67,0,0,0,0,.31c0,.22,0,.52-.07.9,0,.2,0,.42,0,.66s-.08.51-.13.79a13.66,13.66,0,0,1-.4,2,18.31,18.31,0,0,1-2.11,5,18.82,18.82,0,0,1-22.61,8,20.29,20.29,0,0,1-2.45-1.08,18.31,18.31,0,0,1-2.3-1.48,17.09,17.09,0,0,1-4-4,18.07,18.07,0,0,1-2.68-5.18,19.84,19.84,0,0,1-1-5.92,20.28,20.28,0,0,1,1-5.93,18.14,18.14,0,0,1,2.68-5.17,22.78,22.78,0,0,1,1.84-2.18,21.25,21.25,0,0,1,2.13-1.81,20.88,20.88,0,0,1,2.3-1.48,20.29,20.29,0,0,1,2.45-1.08,18.74,18.74,0,0,1,17.8,2.68,18.68,18.68,0,0,1,4.81,5.34,18.14,18.14,0,0,1,2.11,5,13.94,13.94,0,0,1,.4,2c0,.29.1.55.13.79s0,.46,0,.66c0,.38,0,.68.07.9A2.35,2.35,0,0,0,94.69,440.51Z"
            style="fill:#263238"></path>
        <path
            d="M75.68,453A12.36,12.36,0,1,1,88,439.58h0a12.35,12.35,0,0,1-11.27,13.34C76.39,453,76,453,75.68,453Zm0-22.62a8.38,8.38,0,0,0-.86,0,10.26,10.26,0,1,0,8.7,16.85,10.25,10.25,0,0,0,2.38-7.49h0A10.27,10.27,0,0,0,75.71,430.35Z"
            style="fill:#e0e0e0"></path>
        <rect x="74.51" y="429.33" width="2.09" height="22.8"
            transform="translate(-334.26 261.82) rotate(-56.69)" style="fill:#e0e0e0"></rect>
        <path
            d="M68.79,449.68l-1.57-1.38,7.52-8.49L79.91,434l1.72-1.92c.81-.9,1.25-1.39,2-.89l-1.17,1.72.6-.85.72.75C83.35,433.23,74.57,443.13,68.79,449.68Z"
            style="fill:#e0e0e0"></path>
        <rect x="74.43" y="429.83" width="2.09" height="22.12"
            transform="translate(-46.48 10.53) rotate(-6.11)" style="fill:#e0e0e0"></rect>
        <rect x="64.4" y="439.57" width="22.62" height="2.09"
            transform="translate(-36.6 7.88) rotate(-4.8)" style="fill:#e0e0e0"></rect>
        <path d="M65.43,422.18,75.58,440l19.82-3.1S92.63,413.21,65.43,422.18Z" style="fill:#263238"></path>
        <path
            d="M136.39,323.27l66,10c-.12-2.57-5.4-6.5-10.38-22l5.77-42.57-8.56-15.12-11.76-2.47-5.23,2.11a19.68,19.68,0,0,1-16.34-.73h0L149,254.37c-2.94.6-7.36,2-9.3,4-1.06,1.12-1.55,2.8-2.85,4.72-3,4.39-9,25.7-9,25.7l12.78,2.54c1,4.88,2.62,12.39,4.54,22.19Z"
            style="fill:#B2ADF4"></path>
        <path
            d="M143.71,270a4.78,4.78,0,0,0-.49.86c-.29.57-.68,1.41-1.11,2.46a31.45,31.45,0,0,0-2.21,8.58,29.9,29.9,0,0,0,.4,8.82,25.58,25.58,0,0,0,.64,2.61,4.14,4.14,0,0,0,.32.93c.08,0-.29-1.37-.66-3.58a33.07,33.07,0,0,1-.27-8.74,34.84,34.84,0,0,1,2.06-8.52c.39-1.06.74-1.91,1-2.49A3.93,3.93,0,0,0,143.71,270Z"
            style="fill:#263238"></path>
        <path
            d="M187.33,253.14s10.52-.26,14.48,10.09c3.59,9.37,9.1,23.49,9.1,23.49l-22,5.27s-6-17.19-6.11-27.27A18.7,18.7,0,0,1,187.33,253.14Z"
            style="fill:#B2ADF4"></path>
        <path
            d="M210.91,286.72a2.14,2.14,0,0,0-.45.07l-1.27.25-4.65,1-15.29,3.46-.42.1.26.14-2.34-7.91c-.71-2.43-1.43-4.59-1.88-6.44s-.79-3.29-1.05-4.38c-.12-.48-.23-.88-.31-1.19a1.23,1.23,0,0,0-.14-.41,2.16,2.16,0,0,0,.06.42l.23,1.21c.21,1,.49,2.55.92,4.41s1.11,4.05,1.8,6.48,1.48,5.1,2.3,7.91l.06.2.2-.05.41-.1,15.27-3.57,4.61-1.13,1.25-.33A1.25,1.25,0,0,0,210.91,286.72Z"
            style="fill:#263238"></path>
        <polygon
            points="103.66 415.49 104.71 403.43 86.55 399.62 86.94 415.79 92.07 420.91 103.66 415.49"
            style="fill:#ffbf9d"></polygon>
        <path
            d="M86.25,415.28l0,1.17s-19.48,7.61-19.76,11.35l38.37.46-.33-13.07A21.49,21.49,0,0,1,86.25,415.28Z"
            style="fill:#455a64"></path>
        <g style="opacity:0.6000000000000001">
            <path
                d="M100.56,419.32a1.61,1.61,0,0,1,1.06,1.84,1.51,1.51,0,0,1-1.78,1.1,1.71,1.71,0,0,1-1.11-2,1.56,1.56,0,0,1,2-.93"
                style="fill:#fff"></path>
        </g>
        <g style="opacity:0.6000000000000001">
            <path d="M104.84,428.26l-.08-3.14L68,425.83s-1.72.74-1.55,2Z" style="fill:#fff"></path>
        </g>
        <path
            d="M86.09,416.56c0,.19.94.29,1.85.91s1.4,1.44,1.57,1.37-.09-1.18-1.21-1.92S86.05,416.38,86.09,416.56Z"
            style="fill:#263238"></path>
        <path
            d="M82,418.21c0,.19.76.52,1.39,1.34s.79,1.68,1,1.67.32-1.09-.47-2.09S82.05,418,82,418.21Z"
            style="fill:#263238"></path>
        <path
            d="M79.69,423.11c.17,0,.44-.91,0-2s-1.33-1.49-1.41-1.33.45.73.82,1.6S79.5,423.09,79.69,423.11Z"
            style="fill:#263238"></path>
        <polygon
            points="123.05 415.49 124.11 403.43 105.94 399.62 106.33 415.79 111.46 420.91 123.05 415.49"
            style="fill:#ffbf9d"></polygon>
        <path
            d="M105.65,415.28l0,1.17s-19.47,7.61-19.75,11.35l38.37.46-.34-13.07A21.47,21.47,0,0,1,105.65,415.28Z"
            style="fill:#455a64"></path>
        <g style="opacity:0.6000000000000001">
            <path
                d="M120,419.32a1.61,1.61,0,0,1,1.06,1.84,1.52,1.52,0,0,1-1.78,1.1,1.69,1.69,0,0,1-1.11-2,1.55,1.55,0,0,1,2-.93"
                style="fill:#fff"></path>
        </g>
        <g style="opacity:0.6000000000000001">
            <path d="M124.24,428.26l-.08-3.14-36.75.71s-1.72.74-1.54,2Z" style="fill:#fff"></path>
        </g>
        <path
            d="M105.49,416.56c0,.19.94.29,1.85.91s1.39,1.44,1.56,1.37-.09-1.18-1.2-1.92S105.45,416.38,105.49,416.56Z"
            style="fill:#263238"></path>
        <path
            d="M101.44,418.21c0,.19.76.52,1.38,1.34s.8,1.68,1,1.67.32-1.09-.48-2.09S101.44,418,101.44,418.21Z"
            style="fill:#263238"></path>
        <path
            d="M99.08,423.11c.17,0,.45-.91,0-2s-1.34-1.49-1.42-1.33.45.73.82,1.6S98.9,423.09,99.08,423.11Z"
            style="fill:#263238"></path>
        <path
            d="M180.21,333.28l-18-2.46s-37.49-7.63-56.46-10a32.16,32.16,0,0,0-10.31.25c-7,1.42-11.74,8.37-12.66,19.06-.47,5.36,2.85,68.9,2.85,68.9h20.89l5.23-56.9,26,8.88,38-.14C180.52,357.16,180.21,333.28,180.21,333.28Z"
            style="fill:#263238"></path>
        <path
            d="M202.42,333.22l-18.21-2.59s-38-8-57.2-10.51a31.55,31.55,0,0,0-10.45.27c-7.06,1.49-9.43,10.38-10.65,15.9S103.6,409,103.6,409h22.57l6.91-56,24,8h41.11C202.92,357.14,202.42,333.22,202.42,333.22Z"
            style="fill:#263238"></path>
        <path
            d="M134.18,343.05a5.45,5.45,0,0,1,0,1c0,.66-.12,1.62-.24,2.8-.25,2.37-.65,5.62-1.15,9.21s-1,6.83-1.35,9.17c-.19,1.17-.35,2.11-.48,2.77a6,6,0,0,1-.22,1,5.25,5.25,0,0,1,.09-1c.1-.72.22-1.66.37-2.78.33-2.42.77-5.63,1.25-9.18s.92-6.77,1.24-9.19l.35-2.78A9,9,0,0,1,134.18,343.05Z"
            style="fill:#455a64"></path>
        <path
            d="M138.75,346.06a3.66,3.66,0,0,1-.35,1.34,11,11,0,0,1-1.66,2.9,10.59,10.59,0,0,1-2.43,2.22,3.55,3.55,0,0,1-1.2.6,18.72,18.72,0,0,0,3.36-3.06A19,19,0,0,0,138.75,346.06Z"
            style="fill:#455a64"></path>
        <path
            d="M154.52,360.89c0,.1-5-1.48-11.08-3.51s-11-3.76-11-3.85,5,1.48,11.08,3.52S154.55,360.8,154.52,360.89Z"
            style="fill:#455a64"></path>
        <path
            d="M117.89,320.15a13.21,13.21,0,0,0-3.59.88c-2.22.89-4.87,3.43-6.5,7.4a41.39,41.39,0,0,0-2.88,14.66c-.1,5.7-.22,12-.34,18.51-.28,13.11-.54,25-.72,33.62-.12,4.27-.22,7.74-.28,10.19,0,1.17-.08,2.09-.11,2.77,0,.29,0,.52,0,.72a.75.75,0,0,1,0,.24,1.1,1.1,0,0,1,0-.24v-3.5c0-2.45.07-5.92.12-10.19.15-8.64.35-20.51.57-33.62.14-6.56.27-12.81.38-18.5a41.34,41.34,0,0,1,3-14.81,17.17,17.17,0,0,1,3.15-4.91,10.3,10.3,0,0,1,3.61-2.52,9.37,9.37,0,0,1,2.7-.67l.72,0Z"
            style="fill:#455a64"></path>
        <path
            d="M135.39,385a7,7,0,0,1,6.77-4.79h13.16V365h4.88v70.32h-4.88V385.11H142.05a2.06,2.06,0,0,0-2,1.43l0,.08-17,47.79-4.6-1.62Z"
            style="fill:#e0e0e0"></path>
        <polygon points="207.39 366.65 202.77 366.65 203.28 322.37 207.39 322.37 207.39 366.65"
            style="fill:#e0e0e0"></polygon>
        <rect x="193.41" y="371.2" width="4.87" height="35.17" style="fill:#263238"></rect>
        <path
            d="M151.44,421.52a19,19,0,1,0,19,19A19,19,0,0,0,151.44,421.52Zm0,30.4a11.41,11.41,0,1,1,11.41-11.41A11.41,11.41,0,0,1,151.44,451.92Z"
            style="fill:#455a64"></path>
        <path
            d="M151.42,453a12.35,12.35,0,1,1,12.33-13.39h0a12.35,12.35,0,0,1-11.27,13.34C152.12,453,151.77,453,151.42,453Zm0-22.62a8.44,8.44,0,0,0-.87,0,10.26,10.26,0,1,0,11.09,9.36h0A10.28,10.28,0,0,0,151.45,430.35Z"
            style="fill:#e0e0e0"></path>
        <rect x="150.24" y="429.33" width="2.09" height="22.8"
            transform="translate(-300.12 325.12) rotate(-56.69)" style="fill:#e0e0e0"></rect>
        <path
            d="M144.52,449.68,143,448.3s3.75-4.25,7.51-8.49c1.88-2.13,3.77-4.25,5.18-5.84l1.72-1.92c.8-.9,1.25-1.39,2-.89l-1.18,1.72.6-.85.73.75C159.08,433.23,150.31,443.13,144.52,449.68Z"
            style="fill:#e0e0e0"></path>
        <rect x="150.17" y="429.83" width="2.09" height="22.12"
            transform="translate(-46.06 18.59) rotate(-6.11)" style="fill:#e0e0e0"></rect>
        <rect x="140.13" y="439.57" width="22.62" height="2.09"
            transform="translate(-36.31 14.21) rotate(-4.8)" style="fill:#e0e0e0"></rect>
        <path d="M141.16,422.18,151.31,440l19.82-3.1S168.37,413.21,141.16,422.18Z"
            style="fill:#263238"></path>
        <rect x="47.19" y="426.66" width="53.97" height="7.38" style="fill:#455a64"></rect>
        <rect x="79.7" y="426.66" width="42.02" height="7.38" style="fill:#263238"></rect>
        <path
            d="M127,361.12V334.26a15.75,15.75,0,0,1,15.73-15.74h68V324h-68a10.24,10.24,0,0,0-10.23,10.23V361h81.66a2.85,2.85,0,0,1,2.85,2.85v4.46a2.85,2.85,0,0,1-2.85,2.85h-86.3a5.08,5.08,0,0,1-5.09-5.08h0A5.08,5.08,0,0,1,127,361.12Z"
            style="fill:#e0e0e0"></path>
        <path
            d="M127,361.12l-.25,0a4.91,4.91,0,0,0-.72.2,5.05,5.05,0,0,0-2.31,1.75,5.14,5.14,0,0,0,4.23,8.17l41.68.07,29,0h15.15a4.43,4.43,0,0,0,1.08-.07,3,3,0,0,0,1.82-1.21,3.25,3.25,0,0,0,.55-2.11v-4.28a3,3,0,0,0-3.06-2.86h-4.39l-77.24,0,.22.21v-25.8a14.1,14.1,0,0,1,.2-3,11,11,0,0,1,1-2.78,11.36,11.36,0,0,1,1.78-2.35,10,10,0,0,1,5.13-2.7,15,15,0,0,1,2.93-.18h23.38l43.55,0h.2v-5.89h-.2l-48.67,0H144c-.81,0-1.6,0-2.4.06a15.75,15.75,0,0,0-8.44,3.18,16,16,0,0,0-1.64,1.41,17.07,17.07,0,0,0-1.38,1.59,15.39,15.39,0,0,0-3.08,7.22c0,.31-.1.61-.12.92s0,.61,0,.92c0,.6,0,1.19,0,1.78,0,2.33,0,4.52,0,6.56,0,4.09,0,7.56,0,10.39s0,5,0,6.47c0,.73,0,1.28,0,1.67s0,.57,0,.57,0-.19,0-.56,0-.92,0-1.65c0-1.46,0-3.63,0-6.45s0-6.31,0-10.4c0-2.05,0-4.25,0-6.6,0-.58,0-1.18,0-1.78,0-.3,0-.6.05-.9s.08-.61.13-.91a15.32,15.32,0,0,1,1-3.65,15.93,15.93,0,0,1,2-3.45,13.9,13.9,0,0,1,3-2.95,14.79,14.79,0,0,1,3.84-2.13,15.06,15.06,0,0,1,4.47-1c.78,0,1.57-.06,2.38,0h18l48.67,0-.19-.19V324l.19-.2H143.74a14.59,14.59,0,0,0-3,.19,10.5,10.5,0,0,0-5.34,2.81,10.35,10.35,0,0,0-2.92,5.35,15.86,15.86,0,0,0-.21,3.07v26h.21l77.24,0h4.39a2.67,2.67,0,0,1,2.69,2.5c0,1.43,0,2.85,0,4.26a2.94,2.94,0,0,1-.49,1.9,2.68,2.68,0,0,1-1.6,1.07,13.62,13.62,0,0,1-2,.06H198.56l-29,0-41.68.07a5,5,0,0,1-4.17-8A5.12,5.12,0,0,1,126,361.4a4.75,4.75,0,0,1,.71-.22Z"
            style="fill:#263238"></path>
        <path
            d="M208.26,331.39s0,.1,0,.31,0,.52,0,.9c0,.81.06,2,.1,3.48.07,3,.18,7.4.31,12.78.22,10.81.53,25.71.88,42.18,0,1.32,0,2.63.07,3.86l0,.84-.36-.77-16.72-35.9-5-10.78-1.33-2.92-.33-.77a2.69,2.69,0,0,1-.11-.26,1.57,1.57,0,0,1,.14.25l.37.75c.32.68.79,1.65,1.39,2.9L192.84,359c4.28,9.11,10.2,21.74,16.82,35.85l-.34.08c0-1.22,0-2.53-.07-3.86-.31-16.46-.58-31.36-.78-42.17-.08-5.39-.14-9.75-.19-12.79,0-1.5,0-2.66,0-3.48v-.9A1.43,1.43,0,0,1,208.26,331.39Z"
            style="fill:#e0e0e0"></path>
        <path
            d="M233.72,351.18a3.51,3.51,0,0,1-.2.46c-.15.33-.36.75-.61,1.29-.54,1.11-1.35,2.72-2.35,4.7-2,3.95-4.87,9.38-8.15,15.31s-6.36,11.23-8.64,15c-1.14,1.91-2.07,3.44-2.73,4.49l-.76,1.21a2.8,2.8,0,0,1-.29.41,2.73,2.73,0,0,1,.23-.45l.7-1.24c.64-1.11,1.54-2.65,2.63-4.55,2.23-3.84,5.27-9.16,8.55-15.08s6.16-11.33,8.23-15.26l2.45-4.65.68-1.25A2.36,2.36,0,0,1,233.72,351.18Z"
            style="fill:#e0e0e0"></path>
        <path
            d="M245.85,387.45c0,.1-8.21,1.86-18.39,3.94S209,395.07,209,395s8.22-1.86,18.4-3.93S245.83,387.36,245.85,387.45Z"
            style="fill:#e0e0e0"></path>
        <path
            d="M244.7,413.09c0,.09-8-3.68-17.84-8.42s-17.73-8.66-17.68-8.75,8,3.68,17.83,8.42S244.74,413,244.7,413.09Z"
            style="fill:#e0e0e0"></path>
        <path
            d="M237.46,432.33a1.68,1.68,0,0,1-.35-.31l-.93-.94c-.8-.81-1.94-2-3.33-3.53-2.77-3-6.51-7.3-10.41-12.2s-7.22-9.5-9.53-12.89c-1.16-1.69-2.08-3.07-2.7-4l-.7-1.12a3,3,0,0,1-.23-.4,2.23,2.23,0,0,1,.29.36c.19.28.44.64.76,1.08.68,1,1.63,2.32,2.78,4,2.37,3.34,5.72,7.91,9.62,12.81s7.58,9.18,10.31,12.25l3.25,3.61.88,1Z"
            style="fill:#e0e0e0"></path>
        <path
            d="M222.25,450.93a2.5,2.5,0,0,1-.15-.58c-.09-.4-.21-1-.37-1.65-.31-1.46-.76-3.53-1.31-6.07-1.12-5.13-2.74-12.19-4.73-19.94s-4-14.73-5.48-19.76c-.75-2.49-1.36-4.51-1.79-5.95l-.48-1.62a4.69,4.69,0,0,1-.14-.57,3.67,3.67,0,0,1,.21.55c.14.39.32.93.54,1.6.47,1.39,1.12,3.41,1.9,5.92,1.56,5,3.58,12,5.58,19.74s3.58,14.83,4.64,20c.53,2.57.94,4.65,1.2,6.1.12.69.22,1.25.3,1.66A4.67,4.67,0,0,1,222.25,450.93Z"
            style="fill:#e0e0e0"></path>
        <path
            d="M196.36,456.26l0-.16.1-.46q.15-.66.42-1.77l1.57-6.51c1.3-5.49,3-13.11,4.61-21.57s2.85-16.18,3.66-21.76c.4-2.78.72-5,.94-6.63.11-.75.2-1.35.26-1.8l.08-.46c0-.11,0-.16,0-.16v.16c0,.13,0,.28,0,.47-.05.45-.12,1.05-.2,1.81-.17,1.57-.45,3.84-.83,6.64-.75,5.6-1.94,13.32-3.56,21.8s-3.35,16.08-4.72,21.56c-.68,2.75-1.25,5-1.67,6.48-.21.74-.37,1.33-.49,1.76-.06.18-.1.33-.14.45S196.37,456.26,196.36,456.26Z"
            style="fill:#e0e0e0"></path>
        <path
            d="M171.45,413.09a2.19,2.19,0,0,1,.37-.19l1.08-.5,4-1.78,13.17-5.93c5.14-2.33,9.81-4.39,13.22-5.84,1.7-.72,3.08-1.29,4-1.67l1.11-.44.39-.13a1.7,1.7,0,0,1-.36.2l-1.08.5-4,1.78L190.22,405c-5.14,2.32-9.81,4.39-13.22,5.83-1.7.72-3.08,1.29-4,1.68l-1.11.43A1.66,1.66,0,0,1,171.45,413.09Z"
            style="fill:#e0e0e0"></path>
        <path
            d="M212,394.27a2.15,2.15,0,0,1-.43-.12l-1.21-.41c-1.05-.36-2.55-.91-4.4-1.61-3.71-1.39-8.78-3.44-14.3-5.91s-10.41-4.92-13.91-6.77c-1.75-.92-3.16-1.68-4.12-2.23l-1.11-.63a2,2,0,0,1-.37-.24,2.53,2.53,0,0,1,.41.18l1.13.57,4.18,2.13c3.53,1.78,8.44,4.18,13.94,6.66s10.56,4.55,14.24,6l4.36,1.71,1.18.47A1.67,1.67,0,0,1,212,394.27Z"
            style="fill:#e0e0e0"></path>
        <ellipse cx="209.5" cy="394.9" rx="3.06" ry="5.32" style="fill:#e0e0e0"></ellipse>
        <path
            d="M180.73,438.28c-.08,0,6.29-9.81,14.24-21.79s14.45-21.65,14.53-21.59-6.29,9.81-14.23,21.79S180.81,438.33,180.73,438.28Z"
            style="fill:#e0e0e0"></path>
        <path
            d="M241.12,372.54a1.21,1.21,0,0,1-.32.22l-.94.57c-.82.48-2,1.19-3.46,2.07-2.91,1.77-6.87,4.31-11.1,7.32s-7.91,5.95-10.53,8.12c-1.31,1.09-2.37,2-3.09,2.6l-.84.7a1.62,1.62,0,0,1-.31.23s.08-.1.26-.28l.8-.75c.69-.66,1.72-1.58,3-2.69,2.58-2.23,6.25-5.19,10.49-8.22s8.24-5.53,11.18-7.25c1.48-.85,2.68-1.53,3.52-2l1-.51A1.77,1.77,0,0,1,241.12,372.54Z"
            style="fill:#e0e0e0"></path>
        <path
            d="M211.1,458.74a2.92,2.92,0,0,1,0-.61c0-.43,0-1-.07-1.73,0-1.54-.12-3.71-.2-6.38-.17-5.42-.4-12.84-.65-21s-.56-15.63-.76-21c-.09-2.67-.17-4.84-.23-6.38,0-.73,0-1.31,0-1.74a2.52,2.52,0,0,1,0-.6,4.59,4.59,0,0,1,.06.6c0,.43.07,1,.11,1.73.09,1.54.2,3.71.35,6.37.26,5.39.58,12.83.86,21s.45,15.66.55,21.05c0,2.67.06,4.84.08,6.38v1.74A4.09,4.09,0,0,1,211.1,458.74Z"
            style="fill:#e0e0e0"></path>
        <path
            d="M246.71,399.61h-.19l-.54,0-2.07-.1c-1.82-.1-4.44-.28-7.72-.55-6.55-.54-15.69-1.53-26-3.21h-.06l0-.05-4.95-5.47L184.3,367c-2.65-3-4.79-5.37-6.29-7l-1.7-1.93-.44-.51a.75.75,0,0,1-.13-.18,1.83,1.83,0,0,1,.16.16l.46.48,1.75,1.89,6.37,7L205.42,390l4.94,5.48-.1-.06c10.29,1.69,19.41,2.72,26,3.33,3.27.3,5.9.51,7.7.65l2.08.16.54.05Z"
            style="fill:#e0e0e0"></path>
        <path
            d="M196.36,334.35a4.29,4.29,0,0,1,.36,1.16c.19.77.46,1.91.8,3.39.66,3,1.59,7.22,2.71,12.5,2.25,10.58,5.28,25.19,8.58,41.34l.26,1.31h-.35c3.72-15.75,7.08-29.95,9.51-40.23l2.9-12.13.81-3.29c.09-.37.17-.65.22-.86a1.09,1.09,0,0,1,.09-.28s0,.1-.05.29-.11.5-.19.86c-.17.78-.42,1.89-.74,3.31-.67,2.88-1.62,7-2.8,12.16l-9.4,40.25-.19.8-.16-.81c-.08-.41-.17-.86-.27-1.3-3.3-16.15-6.3-30.76-8.47-41.36-1.09-5.28-2-9.56-2.6-12.53-.32-1.46-.56-2.61-.73-3.4-.09-.38-.15-.67-.2-.88A1.93,1.93,0,0,0,196.36,334.35Z"
            style="fill:#e0e0e0"></path>
        <path
            d="M240,356.24c-4-9.31-10.21-18.38-19.06-23.67a29,29,0,0,0-13-4.1,27.63,27.63,0,0,0-13.29,2.7c-9,4.18-15.64,12.72-20,21.42-5.67,11.29-8.4,23.91-9,36.49a97.72,97.72,0,0,0,5.55,38.36c3.75,10.08,9.45,19.73,18.19,26.23,7.27,5.42,16.8,7.47,25.51,4.55,9.48-3.18,16.65-10.91,21.57-19.36,6.2-10.66,9.36-22.91,10.52-35.11q.45-4.86.45-9.75A95.7,95.7,0,0,0,240,356.24ZM227,347Zm13.28,56.79c-.07.76-.15,1.53-.24,2.3,0,.35-.09.71-.13,1.07v.05c0,.22-.06.44-.1.66q-.33,2.3-.78,4.56a85.36,85.36,0,0,1-2.15,8.65c-.4,1.33-.84,2.65-1.31,4-.23.64-.47,1.28-.72,1.91-.13.33-.26.66-.4,1,0,.14-.11.27-.16.41a73.44,73.44,0,0,1-3.55,7.1c-.63,1.09-1.3,2.16-2,3.2-.31.47-.63.93-1,1.39l-.56.75-.2.27a44.29,44.29,0,0,1-4.63,5.05c-.39.36-.8.72-1.2,1.06l-.65.54-.17.13c-.85.62-1.69,1.22-2.58,1.76a27.14,27.14,0,0,1-2.71,1.46l-.61.28-.1,0c-.48.19-1,.37-1.45.53a24.5,24.5,0,0,1-2.8.73l-.75.14-.22,0-.49.05-.85.07a23.55,23.55,0,0,1-2.91,0l-.68-.06-.5-.06-.21,0-.84-.15a23.86,23.86,0,0,1-2.87-.78c-.44-.14-.86-.3-1.29-.47l-.1,0-.77-.35a44.68,44.68,0,0,1-5.24-3.23c.86.57.08.06-.13-.11l-.58-.48c-.43-.36-.85-.74-1.27-1.13-.83-.76-1.63-1.57-2.39-2.41s-1.49-1.72-2.21-2.61c0-.08-.11-.15-.17-.23l-.55-.75c-.37-.51-.73-1-1.08-1.56a61.35,61.35,0,0,1-3.83-6.68,28.87,28.87,0,0,1-1.65-3.57c.29.84,0-.07-.12-.29l-.39-1c-.26-.67-.52-1.35-.76-2a85.85,85.85,0,0,1-2.51-8.33c-.71-2.92-1.28-5.88-1.71-8.85l-.09-.59c0-.35-.09-.71-.13-1.06-.1-.86-.19-1.72-.27-2.57-.14-1.56-.25-3.13-.32-4.69-.15-3.28-.15-6.57,0-9.85.08-1.61.19-3.22.35-4.82.07-.77.16-1.53.25-2.3,0-.24.05-.48.08-.73,0,.06,0,0,0-.25s.08-.53.11-.8a88.92,88.92,0,0,1,4.27-17.15c.23-.64.47-1.27.72-1.9l.35-.89.18-.43v0l0,0c.53-1.24,1.09-2.46,1.7-3.66a59.33,59.33,0,0,1,3.8-6.55q.5-.74,1-1.47l.56-.75,0-.06.13-.16.06-.08,0,0v0c.7-.89,1.43-1.76,2.2-2.59s1.57-1.63,2.4-2.4c.39-.36.8-.71,1.2-1.06l.58-.47.21-.17a31.66,31.66,0,0,1,5.32-3.22l.56-.25.08,0c.48-.19,1-.36,1.45-.52a23.42,23.42,0,0,1,2.88-.75l.75-.14.11,0-.15,0c.51,0,1-.11,1.52-.14a22.94,22.94,0,0,1,3,0l.68.06.58.09-.53-.1c.5.09,1,.16,1.5.27a24.42,24.42,0,0,1,2.79.75c.46.16.92.33,1.37.51h0l.05,0,.79.37a26.84,26.84,0,0,1,2.63,1.44c.43.27.86.55,1.28.84l.66.47.53.39.26.21.58.48c.43.37.85.75,1.27,1.14.83.77,1.62,1.58,2.39,2.42s1.42,1.85,2.23,2.66l.14.19c.16.22.33.44.49.67q.56.76,1.08,1.56c.72,1.08,1.4,2.19,2,3.31s1.23,2.23,1.79,3.36c.29.59.57,1.17.84,1.76l.39.85.23.53,0,.11c0,.07.1.23.12.29s.15.36.22.54.24.59.35.89c.27.67.52,1.35.76,2,.48,1.35.93,2.72,1.34,4.09a86.62,86.62,0,0,1,2.09,8.55c.3,1.52.55,3,.77,4.57,0,.17.05.34.07.52V381c0,.36.09.72.13,1.07.1.81.18,1.63.26,2.44q.44,4.73.43,9.47T240.29,403.75Z"
            style="fill:#263238"></path>
        <path
            d="M240,356.24c-4-9.31-10.21-18.38-19.06-23.67a29,29,0,0,0-13-4.1,27.63,27.63,0,0,0-13.29,2.7c-9,4.18-15.64,12.72-20,21.42-5.67,11.29-8.4,23.91-9,36.49a97.72,97.72,0,0,0,5.55,38.36c3.75,10.08,9.45,19.73,18.19,26.23,7.27,5.42,16.8,7.47,25.51,4.55,9.48-3.18,16.65-10.91,21.57-19.36,6.2-10.66,9.36-22.91,10.52-35.11q.45-4.86.45-9.75A95.7,95.7,0,0,0,240,356.24ZM227,347Zm13.28,56.79c-.07.76-.15,1.53-.24,2.3,0,.35-.09.71-.13,1.07v.05c0,.22-.06.44-.1.66q-.33,2.3-.78,4.56a85.36,85.36,0,0,1-2.15,8.65c-.4,1.33-.84,2.65-1.31,4-.23.64-.47,1.28-.72,1.91-.13.33-.26.66-.4,1,0,.14-.11.27-.16.41a73.44,73.44,0,0,1-3.55,7.1c-.63,1.09-1.3,2.16-2,3.2-.31.47-.63.93-1,1.39l-.56.75-.2.27a44.29,44.29,0,0,1-4.63,5.05c-.39.36-.8.72-1.2,1.06l-.65.54-.17.13c-.85.62-1.69,1.22-2.58,1.76a27.14,27.14,0,0,1-2.71,1.46l-.61.28-.1,0c-.48.19-1,.37-1.45.53a24.5,24.5,0,0,1-2.8.73l-.75.14-.22,0-.49.05-.85.07a23.55,23.55,0,0,1-2.91,0l-.68-.06-.5-.06-.21,0-.84-.15a23.86,23.86,0,0,1-2.87-.78c-.44-.14-.86-.3-1.29-.47l-.1,0-.77-.35a44.68,44.68,0,0,1-5.24-3.23c.86.57.08.06-.13-.11l-.58-.48c-.43-.36-.85-.74-1.27-1.13-.83-.76-1.63-1.57-2.39-2.41s-1.49-1.72-2.21-2.61c0-.08-.11-.15-.17-.23l-.55-.75c-.37-.51-.73-1-1.08-1.56a61.35,61.35,0,0,1-3.83-6.68,28.87,28.87,0,0,1-1.65-3.57c.29.84,0-.07-.12-.29l-.39-1c-.26-.67-.52-1.35-.76-2a85.85,85.85,0,0,1-2.51-8.33c-.71-2.92-1.28-5.88-1.71-8.85l-.09-.59c0-.35-.09-.71-.13-1.06-.1-.86-.19-1.72-.27-2.57-.14-1.56-.25-3.13-.32-4.69-.15-3.28-.15-6.57,0-9.85.08-1.61.19-3.22.35-4.82.07-.77.16-1.53.25-2.3,0-.24.05-.48.08-.73,0,.06,0,0,0-.25s.08-.53.11-.8a88.92,88.92,0,0,1,4.27-17.15c.23-.64.47-1.27.72-1.9l.35-.89.18-.43v0l0,0c.53-1.24,1.09-2.46,1.7-3.66a59.33,59.33,0,0,1,3.8-6.55q.5-.74,1-1.47l.56-.75,0-.06.13-.16.06-.08,0,0v0c.7-.89,1.43-1.76,2.2-2.59s1.57-1.63,2.4-2.4c.39-.36.8-.71,1.2-1.06l.58-.47.21-.17a31.66,31.66,0,0,1,5.32-3.22l.56-.25.08,0c.48-.19,1-.36,1.45-.52a23.42,23.42,0,0,1,2.88-.75l.75-.14.11,0-.15,0c.51,0,1-.11,1.52-.14a22.94,22.94,0,0,1,3,0l.68.06.58.09-.53-.1c.5.09,1,.16,1.5.27a24.42,24.42,0,0,1,2.79.75c.46.16.92.33,1.37.51h0l.05,0,.79.37a26.84,26.84,0,0,1,2.63,1.44c.43.27.86.55,1.28.84l.66.47.53.39.26.21.58.48c.43.37.85.75,1.27,1.14.83.77,1.62,1.58,2.39,2.42s1.42,1.85,2.23,2.66l.14.19c.16.22.33.44.49.67q.56.76,1.08,1.56c.72,1.08,1.4,2.19,2,3.31s1.23,2.23,1.79,3.36c.29.59.57,1.17.84,1.76l.39.85.23.53,0,.11c0,.07.1.23.12.29s.15.36.22.54.24.59.35.89c.27.67.52,1.35.76,2,.48,1.35.93,2.72,1.34,4.09a86.62,86.62,0,0,1,2.09,8.55c.3,1.52.55,3,.77,4.57,0,.17.05.34.07.52V381c0,.36.09.72.13,1.07.1.81.18,1.63.26,2.44q.44,4.73.43,9.47T240.29,403.75Z"
            style="fill:none"></path>
        <path
            d="M240.75,394s0,.15,0,.43,0,.71,0,1.26c0,1.11-.08,2.75-.22,4.88a90.71,90.71,0,0,1-3,18.13,74.64,74.64,0,0,1-4.5,12.22,54.53,54.53,0,0,1-3.59,6.43c-.66,1.08-1.39,2.15-2.18,3.21s-1.66,2.06-2.57,3.06a36.57,36.57,0,0,1-2.95,2.88,19,19,0,0,1-1.63,1.34l-1.77,1.2a14.92,14.92,0,0,1-1.87,1.08c-.64.34-1.27.72-1.94,1a35.17,35.17,0,0,1-4.27,1.29,15.27,15.27,0,0,1-2.24.3c-.76,0-1.53,0-2.3,0a12.79,12.79,0,0,1-2.31-.19c-.77-.11-1.51-.38-2.28-.57a16.77,16.77,0,0,1-4.42-1.75c-1.4-.78-2.73-1.73-4.12-2.64l-.21.32.31.21.08.05c.12-.13-.26.29.27-.28l0,0h0l0,0-.15-.1a6.15,6.15,0,0,1-.58-.46c-.39-.31-.76-.66-1.14-1-.75-.66-1.43-1.42-2.16-2.13a30,30,0,0,1-2-2.31,23,23,0,0,1-1.89-2.47,61.26,61.26,0,0,1-6.13-11.18l-.39.13.08.25,0,.06v0h0c-.11-.08.71-.27.39-.14h0l0-.13-.19-.5-.39-1-.75-2c-.49-1.35-.94-2.71-1.35-4.1a85.35,85.35,0,0,1-2.1-8.55,94.36,94.36,0,0,1-1.68-18.06c0-2.19,0-4.38.22-6.54.08-1.09.16-2.16.24-3.24s.23-2.14.34-3.21l-.42-.05v0c-.32.09.56.21.42.06h0V381l0-.15,0-.29.09-.6.18-1.18c.13-.78.26-1.56.41-2.34.29-1.55.62-3.09,1-4.61a83.26,83.26,0,0,1,2.66-8.9,61.93,61.93,0,0,1,8.36-15.71l0,0,.18-.23h0v0l0,0-.37-.14h0l-.83,1.59,1.17-1.39,1.83-2.14c.59-.72,1.29-1.33,1.93-2a24.73,24.73,0,0,1,4.19-3.49,26.55,26.55,0,0,1,4.66-2.56l1.24-.45c.41-.12.84-.22,1.26-.33a20.56,20.56,0,0,1,2.5-.59l0-.37h-.16l0,.37a21.53,21.53,0,0,1,5.73,0l.06-.36-.53-.1-.07.36,1.48.26,1.44.38,1.42.39,1.36.51c.89.37,1.71.88,2.55,1.33a22.83,22.83,0,0,1,2.4,1.49,21.16,21.16,0,0,1,2.16,1.72,24.93,24.93,0,0,1,2,1.88,25.26,25.26,0,0,1,1.82,1.93c.55.68,1.07,1.39,1.69,2v0a62.31,62.31,0,0,1,9.26,18.31,77.75,77.75,0,0,1,2.25,8.17c.29,1.27.52,2.49.71,3.66s.39,2.29.56,3.35c.56,4.24.76,7.57.85,9.83,0,1.12.06,2,.07,2.57l0,.87s0-.29,0-.87,0-1.45,0-2.58c-.06-2.25-.23-5.59-.76-9.85-.18-1.06-.36-2.17-.55-3.35s-.41-2.41-.69-3.68a77.53,77.53,0,0,0-2.22-8.19,62.2,62.2,0,0,0-9.25-18.43h0a23.71,23.71,0,0,1-1.67-2,24.13,24.13,0,0,0-1.83-2,25.45,25.45,0,0,0-2-1.9,20.73,20.73,0,0,0-2.19-1.75,22.94,22.94,0,0,0-2.42-1.52c-.85-.45-1.68-1-2.58-1.35l-1.39-.51-1.44-.4-1.45-.39-1.49-.27-.07.36.54.1.06-.36a21.79,21.79,0,0,0-5.82,0l0,.37h.16l0-.37a24.38,24.38,0,0,0-2.56.59l-1.28.34-1.26.45a27.38,27.38,0,0,0-4.74,2.6,25.38,25.38,0,0,0-4.25,3.53c-.64.67-1.35,1.29-2,2l-1.84,2.16.34.21v0l-.37-.14h0l0,0c-.06.07-.13.17-.2.27l0,0a61.71,61.71,0,0,0-8.45,15.83,84,84,0,0,0-2.68,8.94c-.37,1.53-.7,3.07-1,4.63-.14.79-.28,1.57-.41,2.36l-.18,1.18-.09.6,0,.29,0,.15v.11h0a2.37,2.37,0,0,0,.41.06s0,0,0,0l-.42-.05c-.11,1.07-.23,2.14-.35,3.22s-.15,2.16-.23,3.25c-.18,2.17-.22,4.37-.23,6.57a95.94,95.94,0,0,0,1.69,18.14,88.3,88.3,0,0,0,2.12,8.59c.42,1.39.87,2.77,1.35,4.12l.76,2,.4,1,.18.49,0,.13,0,.05c-.33.13.49-.07.38-.16h0v0l0-.06-.09-.25-.39.13a61,61,0,0,0,6.19,11.28,24.72,24.72,0,0,0,1.92,2.5,30.32,30.32,0,0,0,2,2.32c.74.72,1.42,1.49,2.19,2.16.38.33.75.68,1.15,1a5.87,5.87,0,0,0,.61.48l.15.1,0,0h0c-.07.07.12-.1,0,0,.52-.57.14-.16.25-.29l-.07-.05-.32-.2-.21.32c1.37.91,2.72,1.86,4.15,2.66a17.17,17.17,0,0,0,4.5,1.78c.78.19,1.53.45,2.32.57a12.51,12.51,0,0,0,2.36.18c.78,0,1.56,0,2.33,0a14.5,14.5,0,0,0,2.29-.31,34.58,34.58,0,0,0,4.34-1.31c.69-.29,1.32-.68,2-1a16.07,16.07,0,0,0,1.89-1.1l1.78-1.22a16.8,16.8,0,0,0,1.65-1.36,37.18,37.18,0,0,0,3-2.91c.92-1,1.79-2,2.59-3.1s1.52-2.14,2.18-3.23a54.86,54.86,0,0,0,3.58-6.47,73.4,73.4,0,0,0,4.47-12.28,89.88,89.88,0,0,0,3-18.18C240.84,396.3,240.75,394,240.75,394Z"
            style="fill:#455a64"></path>
        <path
            d="M227,347s0,0,0-.09a.08.08,0,0,1,.08,0s0,0,0,0a.2.2,0,0,0,0-.07v0h0l0,0-.16.29-.17,0h0s.06,0,.1,0,0-.12.07-.11.06,0,.08,0,0,.05.06,0,.05-.12,0-.16,0-.07,0-.14h0v0l-.17,0-.16.29,0,0v0h0l0,0h.1a.09.09,0,0,0,.1,0C227.05,347,227,347,227,347Z"
            style="fill:#455a64"></path>
        <path
            d="M247.39,394s0-1.19,0-3.45-.21-5.59-.74-9.86a94.68,94.68,0,0,0-3.2-15.32A74.82,74.82,0,0,0,235,346.48a49.33,49.33,0,0,0-7.68-9.3,35,35,0,0,0-11-7.05,27.07,27.07,0,0,0-13.84-1.58,31.21,31.21,0,0,0-13.59,5.82,45.63,45.63,0,0,0-10.59,11.44A70.19,70.19,0,0,0,171,360.36,97.87,97.87,0,0,0,165.27,394,96.06,96.06,0,0,0,171,427.6a69.93,69.93,0,0,0,7.3,14.54,46.73,46.73,0,0,0,10.6,11.43,29.66,29.66,0,0,0,13.58,5.83,26.3,26.3,0,0,0,13.83-1.53,35,35,0,0,0,11-7.07,50.1,50.1,0,0,0,7.69-9.3,72.7,72.7,0,0,0,8.5-18.86,95.48,95.48,0,0,0,3.16-15.33c.53-4.26.7-7.6.76-9.86,0-1.13,0-2,0-2.57s0-.88,0-.88,0,.3,0,.88,0,1.45-.08,2.57c-.08,2.26-.28,5.59-.84,9.84a97.58,97.58,0,0,1-3.21,15.28,73.6,73.6,0,0,1-8.53,18.77,49.94,49.94,0,0,1-7.66,9.22,34.73,34.73,0,0,1-10.88,7A25.93,25.93,0,0,1,202.52,459a29.35,29.35,0,0,1-13.39-5.77,46.68,46.68,0,0,1-10.5-11.34,70.2,70.2,0,0,1-7.25-14.47A96,96,0,0,1,165.69,394a97.87,97.87,0,0,1,5.71-33.46A70,70,0,0,1,178.63,346a45,45,0,0,1,10.49-11.34,30.62,30.62,0,0,1,13.41-5.77,26.59,26.59,0,0,1,13.65,1.54,34.67,34.67,0,0,1,10.89,7,48.9,48.9,0,0,1,7.65,9.23,74.64,74.64,0,0,1,8.48,18.79,94.9,94.9,0,0,1,3.26,15.27c.56,4.26.74,7.59.83,9.85.05,1.13.05,2,.07,2.57Z"
            style="fill:#455a64"></path>
        <path d="M209.32,335.27Z" style="fill:#263238"></path>
        <path
            d="M209.32,335.27s.06,0,.06.05-.11.08-.08.1a.15.15,0,0,0,0,.06l.07-.42h0l0,0s.09.09.05.13-.05,0-.08,0-.06,0-.08,0,.07.12.06.13v.06h0l.08-.42s0,0,0,.06-.1,0-.09.1S209.29,335.26,209.32,335.27Z"
            style="fill:#455a64"></path>
        <path d="M186,346.86h0a1.33,1.33,0,0,1-.19.24C185.68,347.24,185.88,347.05,186,346.86Z"
            style="fill:#263238"></path>
        <path
            d="M186,346.86s-.06.07-.1,0-.05,0-.08,0l-.09.05-.05,0h0a.18.18,0,0,1,.16,0c.15.1.11.12.13.19v.07h0l0,0c.11-.15.13-.3.07-.36h0c-.05,0-.05,0,0,0s0,0,0,0h0a.35.35,0,0,0-.31.13h0l0,0v0s0,0,0,.08,0,.1.13.2a.2.2,0,0,0,.17,0h0l0,0,0,0,0,0,0-.07a1,1,0,0,0,0-.14s0-.06,0-.13S186,346.84,186,346.86Z"
            style="fill:#455a64"></path>
        <path d="M203.7,335.23c.77-.06.31,0,0,0Z" style="fill:#263238"></path>
        <path
            d="M203.7,335.23s.09,0,.09.06,0,.06.05.08a.32.32,0,0,0,.14,0h.12l-.17-.12.13-.3a.67.67,0,0,0-.24.08.11.11,0,0,1,0,.13.17.17,0,0,1-.11,0s0,0,0,0a.19.19,0,0,0,.17.1.64.64,0,0,0,.36,0l.12-.3-.17-.12H204l-.08,0-.13.06-.13.1C203.64,335.24,203.68,335.24,203.7,335.23Z"
            style="fill:#455a64"></path>
        <path
            d="M211.05,394.68c0-.11-8.92-.21-19.9-.21s-19.91.1-19.91.21,8.91.22,19.91.22S211.05,394.8,211.05,394.68Z"
            style="fill:#e0e0e0"></path>
        <path
            d="M302.41,267.72a6.36,6.36,0,0,0-6.16-5.18,6.55,6.55,0,0,0,1.77-7.37,6.86,6.86,0,0,0-6.59-4c.62-4.67-3.65-9.38-8.49-9.36a10.44,10.44,0,0,0-6.52-6.72,10.9,10.9,0,0,0-9.42,1.23,10.6,10.6,0,0,0-8.22-2.3,10.44,10.44,0,0,0-7.14,4.59s-3.73-2.76-9.68.74c-2.4,1.41-3.14,6.28-2.56,9.44,0,0-4.51-.22-6.45,7.31-.59,2.31.77,5.31.31,6.25-.36.76-1.16,1.22-1.71,1.86-2.49,2.86-.8,5.37-.8,5.37s-4.85,2.34-3.58,8.7c.53,2.66,4,3.74,6.81,4a5.46,5.46,0,0,0,2.88,4.54,5.73,5.73,0,0,0,5.48-.16,5.1,5.1,0,0,0,4.53,2.93,5.17,5.17,0,0,0,4.61-2.83l15.43-1.61a7.48,7.48,0,0,0,6.15,4.41,7.58,7.58,0,0,0,6.85-3.3,6.73,6.73,0,0,0,8.59-3.73,6.9,6.9,0,0,0,8-.52,6.43,6.43,0,0,0,1.54-7.61A6.25,6.25,0,0,0,302.41,267.72Z"
            style="fill:#263238"></path>
        <path
            d="M245.49,256.09c.79-6.44,8-12.44,14.19-11.33L272,248a9.73,9.73,0,0,1,7.06,10.3l-2.48,7.24-2,30.56,1,.44s-2.59,13.78-13.94,12.21c-10.21-1.4-7-13.73-7-13.73l.62-8s-10.13-1.26-11.14-12.15C243.64,269.46,244.62,263.24,245.49,256.09Z"
            style="fill:#ffbf9d"></path>
        <path
            d="M249,265.64a1.39,1.39,0,0,0,1.22,1.48,1.29,1.29,0,0,0,1.46-1.15,1.37,1.37,0,0,0-1.21-1.48A1.3,1.3,0,0,0,249,265.64Z"
            style="fill:#263238"></path>
        <path
            d="M247,262.2c.15.17,1.07-.5,2.36-.44s2.22.78,2.36.62-.07-.38-.48-.71a3.24,3.24,0,0,0-1.89-.7,3,3,0,0,0-1.88.56C247,261.83,246.88,262.12,247,262.2Z"
            style="fill:#263238"></path>
        <path
            d="M260.2,267a1.39,1.39,0,0,0,1.22,1.48,1.29,1.29,0,0,0,1.46-1.15,1.37,1.37,0,0,0-1.21-1.48A1.29,1.29,0,0,0,260.2,267Z"
            style="fill:#263238"></path>
        <path
            d="M259.77,263.07c.15.17,1.07-.5,2.36-.44s2.22.78,2.36.62-.07-.38-.48-.71a3.31,3.31,0,0,0-1.89-.7,3,3,0,0,0-1.88.56C259.84,262.7,259.7,263,259.77,263.07Z"
            style="fill:#263238"></path>
        <path
            d="M255.38,272.64a11.11,11.11,0,0,0-2.33-.52c-.36-.06-.71-.15-.76-.35s.09-.53.28-.85l1.2-2.15a59.09,59.09,0,0,0,2.73-5.64,33.7,33.7,0,0,0-3.31,5.43L252,270.72a1.37,1.37,0,0,0-.24,1.13.9.9,0,0,0,.58.48,4.57,4.57,0,0,0,.63.12A13.15,13.15,0,0,0,255.38,272.64Z"
            style="fill:#263238"></path>
        <path d="M255.2,287a26.1,26.1,0,0,0,14.28-2.9s-4,7.45-14.42,5.73Z" style="fill:#ff9a6c"></path>
        <path
            d="M260.45,258.56c.14.47,1.41.21,2.91.42s2.73.73,2.91.31c.09-.21-.14-.65-.64-1.1a4.12,4.12,0,0,0-2.18-1,3.64,3.64,0,0,0-2.25.42C260.66,258,260.39,258.34,260.45,258.56Z"
            style="fill:#263238"></path>
        <path
            d="M247.75,256.66c.21.44,1.31.17,2.56.33s2.27.6,2.57.22c.13-.18,0-.61-.39-1a3.31,3.31,0,0,0-2-1,3.23,3.23,0,0,0-2.15.51C247.86,256.06,247.66,256.45,247.75,256.66Z"
            style="fill:#263238"></path>
        <path d="M276.19,266.09s6.94-2,6.29,4.57-6.93,4.52-6.92,4.33S276.19,266.09,276.19,266.09Z"
            style="fill:#ffbf9d"></path>
        <path
            d="M277.76,272.71s.1.09.28.2a1.08,1.08,0,0,0,.83.11,2.83,2.83,0,0,0,1.52-2.4,3.81,3.81,0,0,0-.15-1.67,1.3,1.3,0,0,0-.75-1,.55.55,0,0,0-.68.24c-.11.18-.08.31-.12.32s-.12-.12,0-.39a.72.72,0,0,1,.29-.38.75.75,0,0,1,.63-.1,1.57,1.57,0,0,1,1.06,1.14,4.08,4.08,0,0,1,.21,1.87,3,3,0,0,1-1.91,2.66,1.17,1.17,0,0,1-1-.29C277.75,272.87,277.73,272.72,277.76,272.71Z"
            style="fill:#ff9a6c"></path>
        <path
            d="M256,275.86c0,.05.28.22.82.26a3.12,3.12,0,0,0,3.19-2.27c.13-.52.07-.86,0-.86s-.13.31-.33.74a3.67,3.67,0,0,1-1.15,1.43,3.54,3.54,0,0,1-1.72.62C256.32,275.83,256,275.79,256,275.86Z"
            style="fill:#263238"></path>
        <path
            d="M281,257.69a8.33,8.33,0,0,0-1.6-5c-1-1.46-1.5-4.33-2.91-5.41-3-2.32-7.33-2.51-11-3.4s-9.47-3.18-13-1.65l-12.35,8.47c.33,1.67,3.27,6.14,4.31,5.45s4.62-4.52,4.41-5.74c1.93,1,5.76-.05,6.52-2.08,1.88,2.7,4.77,3.59,7.61,2a5.13,5.13,0,0,0,7.26,4.93,6.08,6.08,0,0,0-1.21,4.4,3.3,3.3,0,0,0,3.22,2.8,7.07,7.07,0,0,0-1.87,3.11A4.06,4.06,0,0,0,271,269a2.84,2.84,0,0,0,3.28.91,4.88,4.88,0,0,0,2-2.15l2.43-4.12C279.76,261.8,280.89,259.85,281,257.69Z"
            style="fill:#263238"></path>
        <path
            d="M276,275.88a4.3,4.3,0,0,0-4.12,5.51,2.51,2.51,0,0,0-2,1.36,3.75,3.75,0,0,0-.29,2.45,4.91,4.91,0,0,0,9.57.28Z"
            style="fill:#263238"></path>
        <polygon
            points="250.19 449.03 249.63 430.95 263.36 431.26 262.23 449.45 256.05 451.81 250.19 449.03"
            style="fill:#e0e0e0"></polygon>
        <path d="M250.15,448.6v.87s-13,6-13.14,8.79l26-.22-.5-9.77A13.36,13.36,0,0,1,250.15,448.6Z"
            style="fill:#455a64"></path>
        <path d="M263,458l-.12-2.35L238,456.76s-1.15.58-1,1.5Z" style="fill:#e0e0e0"></path>
        <path
            d="M250.41,453s.09-.21.07-.57a3.35,3.35,0,0,0-.39-1.31,2.78,2.78,0,0,0-.88-1c-.28-.18-.47-.22-.49-.18a6.45,6.45,0,0,1,1.13,1.31A7.35,7.35,0,0,1,250.41,453Z"
            style="fill:#263238"></path>
        <path
            d="M251.77,452.64a2.82,2.82,0,0,0-.43-1.84c-.52-.93-1.27-1.31-1.3-1.24A14.35,14.35,0,0,1,251.1,451,15.1,15.1,0,0,1,251.77,452.64Z"
            style="fill:#263238"></path>
        <path
            d="M248.41,453.71a2.21,2.21,0,0,0,.07-1.6c-.22-.89-.75-1.39-.79-1.32s.33.6.52,1.41S248.33,453.69,248.41,453.71Z"
            style="fill:#263238"></path>
        <path d="M269.77,448.69l-.85-4.17s12.49-1.6,12.44-1.45-.27,6.63-.27,6.63l-6.36,3.37Z"
            style="fill:#e0e0e0"></path>
        <path
            d="M269.47,455.16c.28.94,12.95,8.79,16.48,10.86a2.18,2.18,0,0,0,1.85.14h0a1.83,1.83,0,0,0,1-2.57l-7.41-14.22a3.68,3.68,0,0,1-.08-2.06c-1.69.84-7.6,1.25-11.85.23l.05,2.45-.5,3.76a7.07,7.07,0,0,0,.42,1.41"
            style="fill:#455a64"></path>
        <path
            d="M281.21,457.3c.1.05.54-.76,1.44-1.39a16.4,16.4,0,0,1,1.79-.9,2.56,2.56,0,0,0-2,.6A2.6,2.6,0,0,0,281.21,457.3Z"
            style="fill:#263238"></path>
        <path
            d="M280.18,455.44c.1.05.54-.76,1.44-1.39a18,18,0,0,1,1.78-.9,3.27,3.27,0,0,0-3.22,2.29Z"
            style="fill:#263238"></path>
        <path d="M288.23,465.93a2.06,2.06,0,0,1-2.34.1c-9.78-5.78-15.61-9.36-17.12-11l.35-1.8Z"
            style="fill:#e0e0e0"></path>
        <path
            d="M279.07,453.59c.1.05.54-.76,1.44-1.39a16.4,16.4,0,0,1,1.79-.9,2.56,2.56,0,0,0-2,.6A2.6,2.6,0,0,0,279.07,453.59Z"
            style="fill:#263238"></path>
        <path
            d="M287.09,350.2l-24.64,6-24.53-9-.59,6.57a95.15,95.15,0,0,0,.55,22c3.25,22.81,9.45,72.5,9.45,72.5l16.74-.62-.47-9.39-2.31-56.43a1.45,1.45,0,0,1,2.1-1.16l.37.16,2.13,47.77v19l16.75.47s.87-11.18,1.89-22.81,3.2-54.43,3.52-58.58S287.09,350.2,287.09,350.2Z"
            style="fill:#263238"></path>
        <path
            d="M295.24,359.1a5,5,0,0,1-1.6,3,12.24,12.24,0,0,0-2.18,4.13s-1.29,5.78-1.61,7.65-.4,3.61,1.17,3.31,2.08-1.43,2.46-4.88l1-1.8.8,1.42v5.56s-4,3.52-3.79,4.57,1,.9,1,.9l.63.61,6.13-4,2.42-7.28-.11-9.78V352.1l-7,1.73Z"
            style="fill:#ffbf9d"></path>
        <path
            d="M300.14,337.47c-2.13-7-2.4-16.24-2.72-18.68l-10.95,3.81c-.51,3.25,1.7,8.39,2.81,16.39s6.63,23.54,6.63,23.54h5.61S302.22,344.35,300.14,337.47Z"
            style="fill:#ffbf9d"></path>
        <path
            d="M232.23,313.51l-5.51,23.16L216.46,357l-4.8,5.24L217,373.29s15.26-21.24,19.32-26.66,6.36-28.3,6.36-28.3Z"
            style="fill:#ffbf9d"></path>
        <path
            d="M241.42,304.22,237.33,354s13.87,11.51,29.85,9.31S288,351.15,288,351.15s-1.15-20-1.43-27.41c-.34-9-1-28.62-1-28.62L275,290.6s-4.74,6.51-11.13,5.63-8.49-5.13-8.49-5.13l-7.85,1.4Z"
            style="fill:#B2ADF4"></path>
        <path
            d="M247.6,292.5s-7.38,1.94-9.92,4.92c-2.12,2.5-8.27,23-8.27,23s12.75,4,12.75,3.65l1.42-5.36Z"
            style="fill:#B2ADF4"></path>
        <path
            d="M284,294.78A16.53,16.53,0,0,1,294,301c1.22,1.63,5.54,19.18,5.54,19.18l-15.09,5.78-6.38-21.22Z"
            style="fill:#B2ADF4"></path>
        <path
            d="M241.07,307.52a18.13,18.13,0,0,1,0,3.27c-.11,2-.29,4.79-.52,7.85s-.48,5.84-.69,7.84a18.81,18.81,0,0,1-.45,3.23,18,18,0,0,1,0-3.26c.11-2,.29-4.79.52-7.85s.48-5.84.69-7.84A19.06,19.06,0,0,1,241.07,307.52Z"
            style="fill:#263238"></path>
        <path
            d="M288.09,306.49a17.66,17.66,0,0,1,0,3.27c-.1,2-.28,4.78-.51,7.85s-.49,5.83-.69,7.84a20.14,20.14,0,0,1-.45,3.23,18,18,0,0,1,0-3.26c.1-2,.29-4.79.52-7.86s.48-5.84.69-7.84A17.65,17.65,0,0,1,288.09,306.49Z"
            style="fill:#263238"></path>
        <path
            d="M277.75,265.83s3.59-19.41-10.75-29.51l.51-.31c-.25-.18,6.95,1,10.83,9.35s1.79,20.44,1.79,20.44Z"
            style="fill:#B2ADF4"></path>
        <path
            d="M218.15,367.07l-3.66-11.42.85-14.79-11.52,1.54s2.2,13.62,1.51,14.78c-1.27,2.11-1.17,5.75-1.17,5.75s.42,7.48.68,9.88.75,4.53,2.49,3.65,2-2.41,1.24-6.75l.53-2.52,1.42,1.49,1.87,6.78s-3.54,5.61-2.9,6.82,1.46.78,1.46.78l.94.53,5.86-6.84Z"
            style="fill:#ffbf9d"></path>
        <path
            d="M209.11,369.55c-1.52-.47-.17-3.55.92-4.84.36-.42.91-.82,1.44-.63a1.1,1.1,0,0,1,.62,1.15c0,.47-.53.78-.77,1.18.13-.32.51-.53.74-.78a.93.93,0,0,1,.94-.3c.51.16.64.82.6,1.35A6.06,6.06,0,0,1,213,369c.1-.35,0,0,.23-.29a1,1,0,0,1,1-.39,1,1,0,0,1,.64.77,2.48,2.48,0,0,1-.07,1.05,13.18,13.18,0,0,1-2.67,5.4,2.66,2.66,0,0,1-1.46-2.34,2.47,2.47,0,0,1-1.71-1.43,2.41,2.41,0,0,1,.19-2.21"
            style="fill:#ffbf9d"></path>
        <path
            d="M209.11,369.55s-.1.07-.2.25a2.43,2.43,0,0,0,.06,2.37,2.61,2.61,0,0,0,1.62,1.2l-.15-.18a2.87,2.87,0,0,0,1.55,2.55l.16.08.12-.14a13.24,13.24,0,0,0,2.21-3.76,10.46,10.46,0,0,0,.65-2.36,1.49,1.49,0,0,0-.53-1.34,1,1,0,0,0-.8-.19,1.47,1.47,0,0,0-.69.38l-.16.18s0,0,.17,0c0,0,.08,0,0,0-.31,0-.31.17-.32.14a.27.27,0,0,0,0,.08l0,.14.51.17a9.56,9.56,0,0,0,.54-1.56,8,8,0,0,0,.1-.82,2.51,2.51,0,0,0-.1-.86,1.15,1.15,0,0,0-.6-.74,1.12,1.12,0,0,0-.95.07,2,2,0,0,0-.35.28l-.25.22a1.82,1.82,0,0,0-.53.64l.45.22c.15-.27.45-.5.66-.87a1.37,1.37,0,0,0,0-1.22,1.1,1.1,0,0,0-1-.64,1.59,1.59,0,0,0-1,.43,7.4,7.4,0,0,0-1.65,2.79,2.86,2.86,0,0,0-.07,2.09.78.78,0,0,0,.62.43c0-.05-.28-.1-.48-.5a2.82,2.82,0,0,1,.22-1.92,7,7,0,0,1,1.63-2.57,1.11,1.11,0,0,1,.71-.31.63.63,0,0,1,.57.4.91.91,0,0,1,0,.79c-.14.25-.44.47-.67.85l.44.21a1.54,1.54,0,0,1,.4-.43c.09-.08.19-.16.29-.26a.76.76,0,0,1,.23-.17.52.52,0,0,1,.8.37,3.22,3.22,0,0,1,0,1.41,8.66,8.66,0,0,1-.52,1.47l.52.18,0-.12h0l-.08,0-.09,0-.06,0h0l-.07.25h0c.24,0,.24-.06.29-.08a2.26,2.26,0,0,0,.2-.22.61.61,0,0,1,.79-.14,1,1,0,0,1,.31.87,10.86,10.86,0,0,1-.59,2.22,13.25,13.25,0,0,1-2.08,3.65l.27-.06a2.5,2.5,0,0,1-1.38-2.14V373l-.14,0a2.29,2.29,0,0,1-1.83-2.28A4,4,0,0,1,209.11,369.55Z"
            style="fill:#ff9a6c"></path>
        <path
            d="M213.16,368.75c-.09-.11-1.08.65-1.82,2a4.11,4.11,0,0,0-.73,2.57,18.73,18.73,0,0,0,1.21-2.31A19,19,0,0,0,213.16,368.75Z"
            style="fill:#ff9a6c"></path>
        <path
            d="M211.82,365.61c-.1-.11-1,.62-1.81,1.77a4.58,4.58,0,0,0-1.06,2.3c.14.07.72-.88,1.5-2S211.93,365.72,211.82,365.61Z"
            style="fill:#ff9a6c"></path>
        <path
            d="M217.77,376.35a13.9,13.9,0,0,1-.06-2.69c0-1.66.08-4,.18-6.6v.09q-.19-.63-.42-1.29c-.89-2.8-1.67-5.34-2.22-7.19a18.34,18.34,0,0,1-.77-3,18,18,0,0,1,1.12,2.91c.64,1.82,1.47,4.34,2.37,7.14l.41,1.29,0,0v.05c-.11,2.62-.24,4.94-.35,6.6A14.2,14.2,0,0,1,217.77,376.35Z"
            style="fill:#ff9a6c"></path>
        <path
            d="M191.17,291.56l9.05,26.78,4.91,32.84h9.35s2.64-28.78,1.83-35c-.54-4.15-7.61-28.81-7.61-28.81Z"
            style="fill:#ffbf9d"></path>
    </g>
</svg>