<svg xmlns="http://www.w3.org/2000/svg" viewBox="0 0 300 500">
    <g id="freepik--Clipboard--inject-44">
        <g id="freepik--Clipboard-2--inject-44">
            <g id="freepik--Board--inject-44">
                <g id="freepik--Window--inject-44">
                    <path
                        d="M212.59,27.01L44.27,124.07c-1.74,1-3.15,3.44-3.15,5.45V421.66c0,2.01,1.41,4.44,3.15,5.44l.64,.36c1.74,1,4.56,.99,6.3-.01l168.32-97.19c1.74-1,3.15-3.45,3.15-5.45V32.8c0-2.01-1.41-4.44-3.15-5.44l-.64-.36c-1.74-1-4.56-.99-6.3,.01Z"
                        style="fill:#474973;"></path>
                    <path
                        d="M212.59,27.01L44.27,124.07c-1.74,1-3.15,3.44-3.15,5.45V421.66c0,2.01,1.41,4.44,3.15,5.44l.64,.36c1.74,1,4.56,.99,6.3-.01l168.32-97.19c1.74-1,3.15-3.45,3.15-5.45V32.8c0-2.01-1.41-4.44-3.15-5.44l-.64-.36c-1.74-1-4.56-.99-6.3,.01Z"
                        style="opacity:.45;"></path>
                    <path
                        d="M222.69,325.04c0,2.77-1.94,4.53-4.35,5.91L52.42,426.74c-2.39,1.38-4.35,.27-4.35-2.51V134.86h0c0-3.09,1.65-5.95,4.33-7.5L218.33,31.53c1.93-1.12,4.35,.28,4.35,2.51h0V325.04Z"
                        style="fill:#474973;"></path>
                    <path
                        d="M222.69,325.04c0,2.77-1.94,4.53-4.35,5.91L52.42,426.74c-2.39,1.38-4.35,.27-4.35-2.51V134.86h0c0-3.09,1.65-5.95,4.33-7.5L218.33,31.53c1.93-1.12,4.35,.28,4.35,2.51h0V325.04Z"
                        style="opacity:.3;"></path>
                    <path
                        d="M222.69,32.8v1.24c0-2.23-2.42-3.62-4.36-2.51L52.4,127.36c-1.35,.76-2.42,1.87-3.16,3.16-.02,.04-.04,.06-.05,.1l-7.18-4.15c.58-1.01,1.37-1.89,2.27-2.4L212.59,27.01c1.74-1.01,4.57-1.01,6.3-.01l.64,.37c1.74,.99,3.16,3.43,3.16,5.44Z"
                        style="fill:#474973;"></path>
                    <path
                        d="M222.69,32.8v1.24c0-2.23-2.42-3.62-4.36-2.51L52.4,127.36c-1.35,.76-2.42,1.87-3.16,3.16-.02,.04-.04,.06-.05,.1l-7.18-4.15c.58-1.01,1.37-1.89,2.27-2.4L212.59,27.01c1.74-1.01,4.57-1.01,6.3-.01l.64,.37c1.74,.99,3.16,3.43,3.16,5.44Z"
                        style="opacity:.2;"></path>
                </g>
            </g>
            <path id="freepik--Shadow-4--inject-44"
                d="M218.58,312.29c0,2.85-2,4.67-4.48,6.09L57.28,408.92c-2.47,1.43-4.48,.27-4.48-2.59V150.91h0c0-3.19,1.7-6.13,4.46-7.73L214.1,52.6c1.99-1.15,4.48,.29,4.48,2.59V312.29Z"
                style="opacity:.25;"></path>
            <g id="freepik--Form--inject-44">
                <g id="freepik--Paper--inject-44">
                    <path
                        d="M56.82,146.58L213.06,56.37c.74-.43,1.94-.43,2.68,0l1.51,.87c.74,.43,1.34,1.46,1.34,2.32V316.24c0,.85-.6,1.89-1.34,2.32L61,408.76c-.74,.43-1.94,.43-2.67,0l-1.51-.87c-.74-.43-1.34-1.46-1.34-2.32V148.89c0-.85,.6-1.89,1.34-2.32Z"
                        style="fill:#f5f5f5;"></path>
                    <path
                        d="M60.68,408.91c-.15,.06-.32,.1-.49,.13-.08,.01-.18,.02-.26,.03-.27,.02-.55,.01-.81-.03-.18-.03-.34-.07-.49-.13-.1-.04-.21-.09-.3-.14l-1.5-.86c-.74-.43-1.34-1.46-1.34-2.32V148.9c0-.43,.14-.91,.39-1.32l4.18,2.41c-.24,.42-.39,.9-.39,1.32V407.99c0,.73,.43,1.09,1.02,.92Z"
                        style="fill:#e0e0e0;"></path>
                    <g>
                        <g>
                            <path
                                d="M217.25,57.24l-1.51-.87c-.74-.43-1.94-.43-2.67,0L56.82,146.58c-.74,.43-1.34,1.46-1.34,2.32v34.63l4.18,2.43L218.58,94.2V59.55c0-.85-.6-1.89-1.34-2.32Z"
                                style="fill:#474973;"></path>
                            <path
                                d="M217.25,57.24l-1.51-.87c-.74-.43-1.94-.43-2.67,0L56.82,146.58c-.74,.43-1.34,1.46-1.34,2.32v34.63l4.18,2.43L218.58,94.2V59.55c0-.85-.6-1.89-1.34-2.32Z"
                                style="fill:#fff; opacity:.4;"></path>
                        </g>
                        <g>
                            <path
                                d="M218.53,59.15c-.16-.55-.68-.72-1.29-.37L61,148.99c-.37,.22-.71,.58-.95,1l-4.18-2.41c.24-.42,.58-.79,.95-1L213.07,56.37c.73-.43,1.94-.43,2.67,0l1.51,.87c.63,.37,1.15,1.16,1.29,1.91Z"
                                style="fill:#474973;"></path>
                            <path
                                d="M218.53,59.15c-.16-.55-.68-.72-1.29-.37L61,148.99c-.37,.22-.71,.58-.95,1l-4.18-2.41c.24-.42,.58-.79,.95-1L213.07,56.37c.73-.43,1.94-.43,2.67,0l1.51,.87c.63,.37,1.15,1.16,1.29,1.91Z"
                                style="fill:#fff; opacity:.6;"></path>
                        </g>
                        <path
                            d="M55.48,148.9v34.64l4.18,2.41v-34.65c0-.42,.15-.9,.39-1.32l-4.18-2.41c-.25,.41-.39,.89-.39,1.32Z"
                            style="fill:#474973;"></path>
                    </g>
                </g>
            </g>
            <g id="freepik--Clip_Board--inject-44">
                <g>
                    <path
                        d="M95.24,237.51v1.4c0,.76,.53,1.06,1.19,.69l63.08-36.37c.66-.38,1.19-1.3,1.19-2.06v-1.4c0-.76-.53-1.06-1.19-.69l-63.08,36.38c-.66,.38-1.19,1.3-1.19,2.06Z"
                        style="fill:#e0e0e0;"></path>
                    <path
                        d="M95.24,246.32v1.4c0,.76,.53,1.06,1.19,.69l108.34-62.52c.66-.38,1.19-1.3,1.19-2.06v-1.4c0-.76-.53-1.06-1.19-.69l-108.34,62.52c-.66,.38-1.19,1.3-1.19,2.06Z"
                        style="fill:#e0e0e0;"></path>
                    <path
                        d="M95.24,254.7v1.4c0,.76,.53,1.06,1.19,.69l108.34-62.52c.66-.38,1.19-1.3,1.19-2.06v-1.4c0-.76-.53-1.06-1.19-.69l-108.34,62.52c-.66,.38-1.19,1.3-1.19,2.06Z"
                        style="fill:#e0e0e0;"></path>
                </g>
                <g>
                    <path
                        d="M70.65,272.21c-.11,0-.21-.03-.31-.08-.19-.11-.31-.31-.31-.53v-20.23c0-.22,.12-.42,.31-.53l17.4-10.04c.19-.11,.42-.11,.61,0,.19,.11,.31,.31,.31,.53v20.23c0,.22-.12,.42-.31,.53l-17.39,10.04c-.09,.06-.2,.08-.31,.08Zm.61-20.49v18.82l16.17-9.34v-18.82l-16.17,9.34Z"
                        style="fill:#455a64;"></path>
                    <polygon
                        points="79.13 262.75 75.08 258.86 76.43 255.99 78.74 258.21 88.71 237.1 90.45 238.78 79.13 262.75"
                        style="fill:#474973;"></polygon>
                </g>
                <g>
                    <path
                        d="M95.24,269.18v1.4c0,.76,.53,1.06,1.19,.69l63.08-36.37c.66-.38,1.19-1.3,1.19-2.06v-1.4c0-.76-.53-1.06-1.19-.69l-63.08,36.38c-.66,.38-1.19,1.3-1.19,2.06Z"
                        style="fill:#e0e0e0;"></path>
                    <path
                        d="M95.24,277.99v1.4c0,.76,.53,1.06,1.19,.69l108.34-62.52c.66-.38,1.19-1.3,1.19-2.06v-1.4c0-.76-.53-1.06-1.19-.69l-108.34,62.52c-.66,.38-1.19,1.3-1.19,2.06Z"
                        style="fill:#e0e0e0;"></path>
                    <path
                        d="M95.24,286.38v1.4c0,.76,.53,1.06,1.19,.69l108.34-62.52c.66-.38,1.19-1.3,1.19-2.06v-1.4c0-.76-.53-1.06-1.19-.69l-108.34,62.52c-.66,.38-1.19,1.3-1.19,2.06Z"
                        style="fill:#e0e0e0;"></path>
                </g>
                <g>
                    <path
                        d="M70.65,303.88c-.11,0-.21-.03-.31-.08-.19-.11-.31-.31-.31-.53v-20.23c0-.22,.12-.42,.31-.53l17.4-10.04c.19-.11,.42-.11,.61,0,.19,.11,.31,.31,.31,.53v20.23c0,.22-.12,.42-.31,.53l-17.39,10.04c-.09,.06-.2,.08-.31,.08Zm.61-20.49v18.82l16.17-9.34v-18.82l-16.17,9.34Z"
                        style="fill:#455a64;"></path>
                    <polygon
                        points="79.13 294.42 75.08 290.53 76.43 287.66 78.74 289.88 88.71 268.78 90.45 270.45 79.13 294.42"
                        style="fill:#474973;"></polygon>
                </g>
                <g>
                    <path
                        d="M95.24,300.86v1.4c0,.76,.53,1.06,1.19,.69l63.08-36.37c.66-.38,1.19-1.3,1.19-2.06v-1.4c0-.76-.53-1.06-1.19-.69l-63.08,36.38c-.66,.38-1.19,1.3-1.19,2.06Z"
                        style="fill:#e0e0e0;"></path>
                    <path
                        d="M95.24,309.66v1.4c0,.76,.53,1.06,1.19,.69l108.34-62.52c.66-.38,1.19-1.3,1.19-2.06v-1.4c0-.76-.53-1.06-1.19-.69l-108.34,62.52c-.66,.38-1.19,1.3-1.19,2.06Z"
                        style="fill:#e0e0e0;"></path>
                    <path
                        d="M95.24,318.05v1.4c0,.76,.53,1.06,1.19,.69l108.34-62.52c.66-.38,1.19-1.3,1.19-2.06v-1.4c0-.76-.53-1.06-1.19-.69l-108.34,62.52c-.66,.38-1.19,1.3-1.19,2.06Z"
                        style="fill:#e0e0e0;"></path>
                </g>
                <g>
                    <path
                        d="M70.65,335.55c-.11,0-.21-.03-.31-.08-.19-.11-.31-.31-.31-.53v-20.23c0-.22,.12-.42,.31-.53l17.4-10.04c.19-.11,.42-.11,.61,0,.19,.11,.31,.31,.31,.53v20.23c0,.22-.12,.42-.31,.53l-17.39,10.04c-.09,.05-.2,.08-.31,.08Zm.61-20.49v18.82l16.17-9.34v-18.82l-16.17,9.34Z"
                        style="fill:#455a64;"></path>
                    <polygon
                        points="79.13 326.1 75.08 322.2 76.43 319.34 78.74 321.55 88.71 300.45 90.45 302.13 79.13 326.1"
                        style="fill:#474973;"></polygon>
                </g>
                <g>
                    <path
                        d="M95.24,332.53v1.4c0,.76,.53,1.06,1.19,.69l63.08-36.37c.66-.38,1.19-1.3,1.19-2.06v-1.4c0-.76-.53-1.06-1.19-.69l-63.08,36.38c-.66,.38-1.19,1.3-1.19,2.06Z"
                        style="fill:#e0e0e0;"></path>
                    <path
                        d="M95.24,341.34v1.4c0,.76,.53,1.06,1.19,.69l108.34-62.52c.66-.38,1.19-1.3,1.19-2.06v-1.4c0-.76-.53-1.06-1.19-.69l-108.34,62.52c-.66,.38-1.19,1.3-1.19,2.06Z"
                        style="fill:#e0e0e0;"></path>
                    <path
                        d="M95.24,349.72v1.4c0,.76,.53,1.06,1.19,.69l108.34-62.52c.66-.38,1.19-1.3,1.19-2.06v-1.4c0-.76-.53-1.06-1.19-.69l-108.34,62.52c-.66,.38-1.19,1.3-1.19,2.06Z"
                        style="fill:#e0e0e0;"></path>
                </g>
                <g>
                    <path
                        d="M70.65,367.23c-.11,0-.21-.03-.31-.08-.19-.11-.31-.31-.31-.53v-20.23c0-.22,.12-.42,.31-.53l17.4-10.04c.19-.11,.42-.11,.61,0,.19,.11,.31,.31,.31,.53v20.23c0,.22-.12,.42-.31,.53l-17.39,10.04c-.09,.06-.2,.08-.31,.08Zm.61-20.49v18.82l16.17-9.34v-18.82l-16.17,9.34Z"
                        style="fill:#455a64;"></path>
                    <polygon
                        points="79.13 357.77 75.08 353.88 76.43 351.01 78.74 353.23 88.71 332.12 90.45 333.8 79.13 357.77"
                        style="fill:#474973;"></polygon>
                </g>
                <g>
                    <path
                        d="M70.04,221.67v1.4c0,.76,.53,1.06,1.19,.69l133.54-77.12c.66-.38,1.19-1.3,1.19-2.06v-1.4c0-.76-.53-1.06-1.19-.69L71.22,219.62c-.66,.38-1.19,1.3-1.19,2.06Z"
                        style="fill:#e0e0e0;"></path>
                    <path
                        d="M70.04,230.57v1.4c0,.76,.53,1.06,1.19,.69l133.54-77.12c.66-.38,1.19-1.3,1.19-2.06v-1.4c0-.76-.53-1.06-1.19-.69L71.22,228.51c-.66,.38-1.19,1.3-1.19,2.06Z"
                        style="fill:#e0e0e0;"></path>
                    <path
                        d="M70.04,239.47v1.4c0,.76,.53,1.06,1.19,.69l133.54-77.12c.66-.38,1.19-1.3,1.19-2.06v-1.4c0-.76-.53-1.06-1.19-.69L71.22,237.41c-.66,.38-1.19,1.3-1.19,2.06Z"
                        style="fill:#e0e0e0;"></path>
                </g>
                <g>
                    <path
                        d="M70.04,379.05v1.4c0,.76,.53,1.06,1.19,.69l133.54-77.12c.66-.38,1.19-1.3,1.19-2.06v-1.4c0-.76-.53-1.06-1.19-.69l-133.55,77.12c-.66,.38-1.19,1.3-1.19,2.06Z"
                        style="fill:#e0e0e0;"></path>
                    <path
                        d="M70.04,387.94v1.4c0,.76,.53,1.06,1.19,.69l133.54-77.12c.66-.38,1.19-1.3,1.19-2.06v-1.4c0-.76-.53-1.06-1.19-.69l-133.55,77.12c-.66,.38-1.19,1.3-1.19,2.06Z"
                        style="fill:#e0e0e0;"></path>
                </g>
                <g>
                    <path
                        d="M71.46,160.9l54.71-31.61c.79-.46,1.43-.09,1.43,.82v.42c0,.91-.64,2.02-1.43,2.47l-54.71,31.61c-.79,.46-1.43,.09-1.43-.82v-.42c0-.91,.64-2.02,1.43-2.47Z"
                        style="fill:#fafafa;"></path>
                    <path
                        d="M71.46,168.38l32.55-18.79c.79-.46,1.43-.09,1.43,.82v.42c0,.91-.64,2.02-1.43,2.47l-32.55,18.79c-.79,.46-1.43,.09-1.43-.82v-.42c0-.91,.64-2.02,1.43-2.47Z"
                        style="fill:#fafafa;"></path>
                    <g>
                        <path
                            d="M180.91,97.23l24.33-14.06c.39-.23,.71-.04,.71,.41v.93c0,.45-.32,1.01-.71,1.23l-24.33,14.06c-.39,.23-.71,.04-.71-.41v-.93c0-.45,.32-1.01,.71-1.23Z"
                            style="fill:#474973;"></path>
                        <path
                            d="M180.91,108.45l24.33-14.06c.39-.23,.71-.04,.71,.41v.93c0,.45-.32,1.01-.71,1.23l-24.33,14.06c-.39,.23-.71,.04-.71-.41v-.93c0-.45,.32-1.01,.71-1.23Z"
                            style="fill:#474973;"></path>
                        <path
                            d="M185.93,99.91l19.31-11.15c.39-.23,.71-.04,.71,.41v.93c0,.45-.32,1.01-.71,1.23l-19.31,11.15c-.39,.23-.71,.04-.71-.41v-.93c0-.45,.32-1.01,.71-1.23Z"
                            style="fill:#474973;"></path>
                    </g>
                </g>
            </g>
            <g id="freepik--Clip--inject-44">
                <g id="freepik--Shadow-5--inject-44" style="opacity:.25;">
                    <path
                        d="M182.44,67.66v13.43c0,3.4-2.32,7.42-5.27,9.12l-26,15.01c-1.29,.74-2.02,2.22-2.79,3.78-.57,1.15-1.16,2.32-2.01,3.28-2.02,2.29-6.42,4.68-9.53,5.67-1.05,.34-2.09,.58-3.12,.72-.39,.07-.83,.12-1.28,.17-2.84,.38-6.37,.86-8.44,2.06l-30.43,17.56c-.92,.53-1.82,.8-2.65,.8-.64,0-1.24-.15-1.78-.46-1.24-.72-1.93-2.15-1.93-4v-13.43c0-3.4,2.31-7.42,5.27-9.12l10.22-5.9s.09-.04,.14-.05c.49-.22,1.07-.02,1.35,.46,.27,.47,.14,1.08-.28,1.39-.03,.04-.08,.08-.12,.1l-10.22,5.9c-2.26,1.31-4.18,4.62-4.18,7.23v13.43c0,1.04,.31,1.8,.84,2.11,.53,.32,1.35,.19,2.25-.33l30.43-17.57c2.44-1.41,6.22-1.92,9.24-2.32,.45-.05,.87-.12,1.27-.17,.89-.13,1.83-.34,2.77-.64,2.76-.87,6.86-3.11,8.55-5.03,.67-.74,1.16-1.76,1.69-2.81,.88-1.79,1.8-3.63,3.65-4.7l26-15.01c2.26-1.31,4.18-4.62,4.18-7.23v-13.43c0-1.03-.31-1.8-.84-2.1-.53-.32-1.36-.19-2.25,.33l-8.86,5.11c-.29-.67-.68-1.31-1.11-1.88l8.88-5.13c1.6-.94,3.18-1.05,4.43-.34,1.24,.72,1.93,2.15,1.93,4Z"></path>
                </g>
                <g id="freepik--Clip-2--inject-44">
                    <g>
                        <path
                            d="M163.47,67.91h0c.7-.41,1.67-.36,2.74,.26,2.13,1.23,3.86,4.23,3.86,6.69,0,1.24-.44,2.11-1.15,2.51h0l-61.69,35.62-5.46-9.47,61.69-35.62Z"
                            style="fill:#37474f;"></path>
                        <path
                            d="M104.53,108.29l64.43-37.2c-.7-1.22-1.67-2.29-2.74-2.91-.13-.07-.25-.11-.37-.17l-63.43,36.62,2.11,3.66Z"
                            style="fill:#455a64;"></path>
                        <path
                            d="M104.53,103.8c-2.13-1.23-3.86-.23-3.86,2.23s1.73,5.46,3.86,6.69c2.13,1.23,3.86,.23,3.86-2.23,0-2.46-1.73-5.46-3.86-6.69Z"
                            style="fill:#263238;"></path>
                    </g>
                    <path
                        d="M183.54,68.62v13.43c0,3.4-2.32,7.42-5.27,9.12l-26,15.01c-1.29,.74-2.02,2.22-2.79,3.78-.57,1.15-1.16,2.32-2.01,3.28-2.02,2.29-6.42,4.68-9.53,5.67-1.05,.34-2.09,.58-3.12,.72-.39,.07-.83,.12-1.28,.17-2.84,.38-6.37,.86-8.44,2.06l-30.43,17.56c-.92,.53-1.82,.8-2.65,.8-.64,0-1.24-.15-1.78-.46-1.24-.72-1.93-2.15-1.93-4v-13.43c0-3.4,2.31-7.42,5.27-9.12l10.22-5.9s.09-.04,.14-.05c.49-.22,1.07-.02,1.35,.46,.27,.47,.14,1.08-.28,1.38-.03,.04-.08,.08-.12,.1l-10.22,5.9c-2.26,1.31-4.18,4.62-4.18,7.23v13.43c0,1.04,.31,1.8,.84,2.1,.53,.32,1.35,.19,2.25-.33l30.43-17.57c2.44-1.41,6.22-1.92,9.24-2.32,.45-.05,.87-.12,1.26-.17,.89-.13,1.83-.34,2.77-.64,2.76-.87,6.86-3.11,8.55-5.03,.67-.74,1.16-1.76,1.69-2.81,.88-1.79,1.8-3.63,3.65-4.7l26-15.01c2.26-1.31,4.18-4.62,4.18-7.23v-13.43c0-1.03-.31-1.8-.84-2.1-.53-.32-1.36-.19-2.25,.33l-8.86,5.11c-.29-.67-.68-1.31-1.11-1.88l8.88-5.13c1.6-.94,3.18-1.05,4.43-.34,1.24,.72,1.93,2.15,1.93,4Z"
                        style="fill:#455a64;"></path>
                </g>
            </g>
        </g>
    </g>
    <g id="freepik--Shield--inject-44">
        <g id="freepik--Shield-2--inject-44">
            <g>
                <g>
                    <path
                        d="M259.85,187.12c.05-1.33-.27-2.16-.86-2.48,0-.01,.01-.01,.01-.01l-.08-.05c-.63-.28-4.81-2.77-5.41-3.09,0-.01,.01-.01,.01-.01l-.08-.05c-.63-.28-1.56-.01-2.68,.84-11.16,8.54-26.51,10.62-38.19,5.48-1.61-1.19-3.1-2.55-4.43-4.1-.07-.08-.13-.16-.2-.23h-.01c-.38-.42-.75-.73-1.13-.93,0,0-5.1-2.96-5.47-3.16l-.19-.11c-1.25-.59-2.4,.01-3.15,1.87-10.59,26.32-33.16,52.99-48.22,59.66-1.12,.5-2.16,1.27-2.96,2.21-1.06,1.23-1.72,2.74-1.67,4.31,0,33.84,18.54,87.91,53.66,105.98,2.08,1.36,4.23,2.59,6.44,3.67,48.32-49.84,54.62-129.68,54.62-169.78Z"
                        style="fill:#CE7F00;"></path>
                    <path
                        d="M258.92,184.57c-.63-.28-1.56-.01-2.68,.84-12.99,9.94-31.68,11.14-43.63,2.34,11.68,5.12,27.02,3.05,38.16-5.5,1.12-.85,2.05-1.12,2.68-.84l.08,.05s-.01,0-.01,.01c.59,.32,4.77,2.8,5.4,3.09Z"
                        style="fill:#fff; opacity:.4;"></path>
                    <path
                        d="M206.6,182.36c-1.25-.59-2.4,.01-3.15,1.87-10.59,26.33-33.16,52.99-48.22,59.66-1.12,.5-2.16,1.27-2.96,2.21-.44,.53-.82,1.09-1.11,1.7l-5.46-3.15c.28-.61,.65-1.19,1.09-1.7,.81-.94,1.85-1.71,2.96-2.21,15.05-6.67,37.62-33.34,48.22-59.66,.75-1.86,1.9-2.47,3.15-1.87l.19,.11c.18,.09,1.25,.71,2.43,1.39,1.16,.67,2.4,1.4,2.86,1.66Z"
                        style="fill:#CE7F00;"></path>
                    <path
                        d="M206.6,182.36c-1.25-.59-2.4,.01-3.15,1.87-10.59,26.33-33.16,52.99-48.22,59.66-1.12,.5-2.16,1.27-2.96,2.21-.44,.53-.82,1.09-1.11,1.7l-5.46-3.15c.28-.61,.65-1.19,1.09-1.7,.81-.94,1.85-1.71,2.96-2.21,15.05-6.67,37.62-33.34,48.22-59.66,.75-1.86,1.9-2.47,3.15-1.87l.19,.11c.18,.09,1.25,.71,2.43,1.39,1.16,.67,2.4,1.4,2.86,1.66Z"
                        style="fill:#fff; opacity:.4;"></path>
                    <path
                        d="M198.72,353.18c-35.08-18.08-53.59-72.12-53.59-105.93-.03-.92,.2-1.79,.58-2.61l5.46,3.15c-.39,.82-.59,1.7-.57,2.61,0,32.03,16.57,82.17,48.12,102.78Z"
                        style="opacity:.3;"></path>
                </g>
                <path
                    d="M259.85,187.12c0,40.1-6.3,119.95-54.62,169.78-35.76-17.55-54.63-72.34-54.63-106.49-.05-1.58,.61-3.09,1.67-4.31,.81-.94,1.85-1.71,2.96-2.21,15.05-6.67,37.62-33.34,48.22-59.66,.75-1.86,1.9-2.47,3.15-1.87h0l.19,.11c.38,.2,.75,.51,1.13,.93h.01c.07,.07,.13,.15,.2,.23,11.24,13.08,33.34,13.07,48.09,1.78,1.12-.85,2.05-1.12,2.68-.84l.08,.05s-.01,0-.01,.01c.59,.32,.92,1.15,.86,2.48Z"
                    style="fill:#CE7F00;"></path>
                <path
                    d="M259.85,187.12c0,40.1-6.3,119.95-54.62,169.78-35.76-17.55-54.63-72.34-54.63-106.49-.05-1.58,.61-3.09,1.67-4.31,.81-.94,1.85-1.71,2.96-2.21,15.05-6.67,37.62-33.34,48.22-59.66,.75-1.86,1.9-2.47,3.15-1.87h0l.19,.11c.38,.2,.75,.51,1.13,.93h.01c.07,.07,.13,.15,.2,.23,11.24,13.08,33.34,13.07,48.09,1.78,1.12-.85,2.05-1.12,2.68-.84l.08,.05s-.01,0-.01,.01c.59,.32,.92,1.15,.86,2.48Z"
                    style="fill:#fff; opacity:.1;"></path>
                <path
                    d="M206.61,182.36c-1.25-.59-2.4,.01-3.15,1.87-10.59,26.32-33.16,52.99-48.22,59.66-1.12,.5-2.16,1.27-2.96,2.21-1.06,1.23-1.72,2.74-1.67,4.31,0,34.15,18.87,88.94,54.63,106.49,24.03-92.9,1.38-174.54,1.38-174.54Z"
                    style="fill:#CE7F00;"></path>
                <path
                    d="M206.61,182.36c-1.25-.59-2.4,.01-3.15,1.87-10.59,26.32-33.16,52.99-48.22,59.66-1.12,.5-2.16,1.27-2.96,2.21-1.06,1.23-1.72,2.74-1.67,4.31,0,34.15,18.87,88.94,54.63,106.49,24.03-92.9,1.38-174.54,1.38-174.54Z"
                    style="opacity:.05;"></path>
                <path
                    d="M224.84,200.41c12.06,3.08,22.75-2.21,28.86-5.36,0,0,1.42,70.77-22.95,116.54,9.61-35.75,11.97-45.98,12.66-72.48,.67-26.05-9.43-32.21-18.57-38.71Z"
                    style="fill:#fff; opacity:.4;"></path>
            </g>
            <g>
                <polygon
                    points="208.53 300.27 184.25 284.47 191.5 273.32 203.71 281.27 229.26 234.18 240.95 240.52 208.53 300.27"
                    style="fill:#fff;"></polygon>
                <path
                    d="M216.17,258.31l-12.46,22.96-12.21-7.95-7.25,11.14,24.28,15.81,7.24-13.35c.51-10.03,.6-19.61,.4-28.62Z"
                    style="fill:#f0f0f0;"></path>
            </g>
        </g>
    </g>
</svg>