<svg xmlns="http://www.w3.org/2000/svg" viewBox="0 0 500 500"><g id="freepik--Table--inject-124"><rect x="393.55" y="417.16" width="8.21" height="52.65" style="fill:#263238"></rect><rect x="312.03" y="417.16" width="8.21" height="52.65" style="fill:#263238"></rect><path d="M433.76,287.18l30.66,139.7s-22.14,21-36.34,17.6v5.11s-21.58-7.38-35.21-18.17-72.53,8.91-88.71,11-52.69-8.69-52.69-8.69L245,302.21s12.72-37,87.68-37.11S433.76,287.18,433.76,287.18Z" style="fill:#f5f5f5"></path><path d="M433.76,287.18s-1-.81-3.17-2.16a83.24,83.24,0,0,0-9.89-5.12,136.71,136.71,0,0,0-16.84-6,213.3,213.3,0,0,0-23.56-5.18l-6.87-.94-3.57-.49-3.67-.35-7.59-.72-7.94-.44c-10.8-.46-22.51-.84-34.91.26s-25.53,3.36-38.35,8.67a80.6,80.6,0,0,0-9.45,4.59,67.71,67.71,0,0,0-8.91,6,55,55,0,0,0-7.89,7.61,44.09,44.09,0,0,0-3.32,4.46,28.82,28.82,0,0,0-2.61,4.94l0-.09c2,40.27,4.18,84.67,6.49,131.49l-.18-.24c5.67,1.63,11.83,3.21,18.05,4.62a192.52,192.52,0,0,0,21.95,3.84c1.83.23,3.66.3,5.49.43.91,0,1.83,0,2.74,0a24.92,24.92,0,0,0,2.73-.11,39.12,39.12,0,0,0,5.38-.75q2.69-.54,5.32-1.15c14.11-3.31,27.86-7,41.52-9.56a157.69,157.69,0,0,1,20.39-2.72,54,54,0,0,1,10.1.31c.83.08,1.65.32,2.47.47s1.61.46,2.4.75a17.37,17.37,0,0,1,4.25,2.62,79.07,79.07,0,0,0,8.13,5.35c2.77,1.65,5.62,3.12,8.46,4.53a168.42,168.42,0,0,0,17.22,7.27l-.3.22v-5.4l.28.07c3.54.83,7.2.13,10.54-1a49.64,49.64,0,0,0,9.49-4.47,99.8,99.8,0,0,0,16.12-12.1l-.06.19c-9.3-42.56-16.94-77.48-22.24-101.76-2.64-12.15-4.71-21.64-6.11-28.09-.7-3.23-1.23-5.69-1.59-7.36s-.52-2.53-.52-2.53.2.84.58,2.5L436,297c1.42,6.44,3.52,15.91,6.21,28,5.35,24.29,13.05,59.22,22.44,101.78l0,.12-.08.08a99.78,99.78,0,0,1-16.19,12.18,50.24,50.24,0,0,1-9.57,4.51c-3.38,1.11-7.11,1.84-10.78,1l.28-.22v5.44l-.3-.11a168.75,168.75,0,0,1-17.29-7.29c-2.85-1.4-5.7-2.88-8.49-4.53a80,80,0,0,1-8.18-5.38,17.13,17.13,0,0,0-4.14-2.55,22.7,22.7,0,0,0-2.34-.73c-.81-.15-1.6-.39-2.43-.46a52.85,52.85,0,0,0-10-.3,155.57,155.57,0,0,0-20.32,2.71c-13.63,2.57-27.37,6.26-41.49,9.57-1.77.41-3.55.8-5.34,1.15a38.08,38.08,0,0,1-5.44.76,23.25,23.25,0,0,1-2.77.12c-.92,0-1.84,0-2.76,0-1.84-.13-3.69-.2-5.52-.44a192.76,192.76,0,0,1-22-3.84c-6.24-1.41-12.4-3-18.09-4.63l-.18-.05v-.19c-2.29-46.82-4.47-91.22-6.45-131.48v-.05l0,0a28.14,28.14,0,0,1,2.66-5,44,44,0,0,1,3.36-4.51,54.74,54.74,0,0,1,7.95-7.66,67.34,67.34,0,0,1,9-6,80.6,80.6,0,0,1,9.5-4.61c12.89-5.33,26.11-7.61,38.49-8.66s24.14-.69,34.95-.21l7.95.45,7.6.74,3.67.36,3.58.49,6.88,1a207.68,207.68,0,0,1,23.57,5.24,133.36,133.36,0,0,1,16.84,6.1,78.84,78.84,0,0,1,9.87,5.19c1.06.69,1.86,1.22,2.37,1.62S433.76,287.18,433.76,287.18Z" style="fill:#263238"></path><path d="M325.64,269.42s1.36-5.8,10.73-5.84c9,0,9.46,5.84,9.46,5.84Z" style="fill:#455a64"></path><path d="M327.08,269.42c-.09.42,0,7.13,0,7.13s-8.05,2.26-8.3,9.05v8.14s1.6,8,13.57,7.94,21.41,0,21.85-12.48c.41-11.66-9.95-12.9-9.95-12.9l-.25-6.88Z" style="fill:#455a64"></path><path d="M320.84,282.37s-6.38,1.05-7.52-.86-3.47-11.23-5.83-11.33a37.47,37.47,0,0,0-3.79,0v3.05s3.24-.67,3.52.76,2.48,11.71,5,14.76,7.52,5.71,7.52,5.71Z" style="fill:#455a64"></path><path d="M357.55,283.55c-.05.05-.3-.09-.29-.56a1.43,1.43,0,0,1,1.38-1.24,2.38,2.38,0,0,1,2.17,1.94,3.82,3.82,0,0,1-1,3.6,4,4,0,0,1-4.6.68,4.15,4.15,0,0,1-1.88-2,5.63,5.63,0,0,1-.42-2.72,9.13,9.13,0,0,1,2.31-4.82,19.66,19.66,0,0,0,2.79-3.8,4.27,4.27,0,0,0,.43-1.9,4.73,4.73,0,0,0-.46-1.88,4.65,4.65,0,0,0-2.64-2.47,5.15,5.15,0,0,0-3.4.08,5.46,5.46,0,0,0-2.49,1.81,11.26,11.26,0,0,1-2,2.57,2.55,2.55,0,0,1-2.82.43,1.65,1.65,0,0,1-.88-1.56c.05-.43.28-.56.34-.52s.07.23.18.48a1.24,1.24,0,0,0,.79.69,1.55,1.55,0,0,0,1.42-.61,13.71,13.71,0,0,0,1.43-2.49,7.08,7.08,0,0,1,3.2-2.8,7.21,7.21,0,0,1,4.95-.36,7,7,0,0,1,4.21,3.63,7.17,7.17,0,0,1,.75,2.92,6.83,6.83,0,0,1-.65,3.07,19.61,19.61,0,0,1-3.19,4.33,7.14,7.14,0,0,0-1.89,3.46,2.55,2.55,0,0,0,.94,2.6,2.07,2.07,0,0,0,2.32-.12,2.36,2.36,0,0,0,.83-2,1.33,1.33,0,0,0-.78-1.21.84.84,0,0,0-.83.36C357.63,283.32,357.64,283.52,357.55,283.55Z" style="fill:#455a64"></path><path d="M335.81,263.72c-.68-.46-1.41-1.07-1.41-1.89a1.44,1.44,0,0,1,1.63-1.36,1.59,1.59,0,0,1,1.22,1.79,1.75,1.75,0,0,1-1.73,1.38" style="fill:#455a64"></path><path d="M320.09,283.5a12.39,12.39,0,0,1,2.14,5.66,7.06,7.06,0,0,1,0,2.42,3.09,3.09,0,0,1-1,1.76,2.18,2.18,0,0,1-1.24.57c-.32,0-.49-.05-.49-.08a3,3,0,0,0,1.47-.75,2.87,2.87,0,0,0,.76-1.59,7.24,7.24,0,0,0-.09-2.25A41.08,41.08,0,0,0,320.09,283.5Z" style="fill:#263238"></path><path d="M343.81,276.85a61.74,61.74,0,0,1-8.16.16,62.68,62.68,0,0,1-8.15-.37,65.11,65.11,0,0,1,8.16-.15A66.14,66.14,0,0,1,343.81,276.85Z" style="fill:#263238"></path><path d="M346.32,269.25a100.76,100.76,0,0,1-10.16.26,100.89,100.89,0,0,1-10.17-.26,97.46,97.46,0,0,1,10.17-.26A97.34,97.34,0,0,1,346.32,269.25Z" style="fill:#263238"></path><path d="M321.86,284.16a7,7,0,0,1,4.74-6.05,18.9,18.9,0,0,0-2.87,2.63A20.75,20.75,0,0,0,321.86,284.16Z" style="fill:#263238"></path><path d="M327.14,300.4a2.53,2.53,0,0,1-.34-.82,20.28,20.28,0,0,1-.64-2.32,30,30,0,0,1-.64-7.92,30.29,30.29,0,0,1,1.48-7.82,23.44,23.44,0,0,1,.88-2.24,3.53,3.53,0,0,1,.43-.78c.08,0-.4,1.2-1,3.13a34.31,34.31,0,0,0-.83,15.56C326.87,299.17,327.22,300.38,327.14,300.4Z" style="fill:#263238"></path><path d="M332.88,300.24c-.14,0-.4-4.88-.56-10.91s-.18-10.92,0-10.92.39,4.88.56,10.91S333,300.24,332.88,300.24Z" style="fill:#263238"></path><path d="M338.56,299.61a21.1,21.1,0,0,1-.31-3.12c-.14-1.93-.33-4.6-.59-7.54s-.53-5.6-.73-7.53a21.73,21.73,0,0,1-.23-3.13,17.16,17.16,0,0,1,.6,3.09c.29,1.92.62,4.58.88,7.53s.39,5.62.44,7.56A16.5,16.5,0,0,1,338.56,299.61Z" style="fill:#263238"></path><path d="M345.36,298.86a22.24,22.24,0,0,1-.18-3.06c-.07-1.89-.23-4.5-.57-7.36s-.81-5.43-1.18-7.28a23.16,23.16,0,0,1-.56-3,14.89,14.89,0,0,1,.92,2.94,61.71,61.71,0,0,1,1.33,7.3,58.21,58.21,0,0,1,.43,7.41A15.82,15.82,0,0,1,345.36,298.86Z" style="fill:#263238"></path><path d="M350.18,297c-.08,0,.4-1,.77-2.8a15.5,15.5,0,0,0-3.13-13.09c-1.12-1.39-2-2.09-1.95-2.16s.27.12.67.43a12.43,12.43,0,0,1,1.56,1.49,14.63,14.63,0,0,1,3.2,13.41,11.46,11.46,0,0,1-.72,2C350.36,296.8,350.21,297,350.18,297Z" style="fill:#263238"></path><path d="M329.22,270.34a13.94,13.94,0,0,1,0,5.36,13.94,13.94,0,0,1,0-5.36Z" style="fill:#263238"></path><path d="M332.42,270.59a12.68,12.68,0,0,1,0,5.11,12.68,12.68,0,0,1,0-5.11Z" style="fill:#263238"></path><path d="M336.43,270.29a13.18,13.18,0,0,1,0,5.21,13.18,13.18,0,0,1,0-5.21Z" style="fill:#263238"></path><path d="M341.34,271a9.69,9.69,0,0,1,0,4.46,9.69,9.69,0,0,1,0-4.46Z" style="fill:#263238"></path><path d="M335.92,263.52a12.42,12.42,0,0,0-7.4,5c-.06,0,.11-.53.58-1.26a8.77,8.77,0,0,1,2.36-2.38,8.6,8.6,0,0,1,3.08-1.32A2.68,2.68,0,0,1,335.92,263.52Z" style="fill:#263238"></path><path d="M333.2,268.63a3.83,3.83,0,0,1,.52-3c.81-1.54,2.1-2.23,2.15-2.1s-1,.94-1.69,2.35A26.51,26.51,0,0,0,333.2,268.63Z" style="fill:#263238"></path><path d="M339.67,268.29a21.92,21.92,0,0,0-1.29-2.63c-.91-1.33-2.11-2-2-2.11a3.78,3.78,0,0,1,2.46,1.81A3.87,3.87,0,0,1,339.67,268.29Z" style="fill:#263238"></path><path d="M343.21,268.43a9.21,9.21,0,0,0-7.48-4.8,2.69,2.69,0,0,1,1.41-.11,7,7,0,0,1,3.23,1.11,7.31,7.31,0,0,1,2.36,2.47C343.16,267.87,343.27,268.41,343.21,268.43Z" style="fill:#263238"></path><path d="M429.66,293.34l-.29.14-.87.39-3.39,1.44c-.74.3-1.55.67-2.46,1l-3,1.08-3.42,1.23c-1.22.41-2.52.79-3.88,1.22s-2.79.9-4.29,1.32l-4.7,1.25-2.47.66-2.58.59L393,304.89c-7.41,1.49-15.61,2.82-24.28,3.78s-17,1.28-24.53,1.36l-5.52-.08-2.65,0-2.56-.13-4.85-.26c-1.56-.09-3-.26-4.47-.38s-2.77-.25-4.05-.39l-3.6-.5-3.14-.43c-1-.15-1.82-.34-2.61-.48l-3.61-.7-.94-.2a1.11,1.11,0,0,1-.31-.08,1.29,1.29,0,0,1,.32,0l.95.15,3.62.6c.79.13,1.66.3,2.62.43l3.13.39,3.6.46c1.28.13,2.64.22,4.06.35s2.9.27,4.46.35l4.84.23,2.56.11,2.64,0,5.5.05c7.54-.11,15.83-.53,24.49-1.4s16.83-2.27,24.23-3.73l5.38-1.2,2.57-.57,2.48-.65,4.69-1.22c1.5-.41,2.92-.87,4.29-1.28l3.89-1.19,3.42-1.19,3-1c.91-.33,1.72-.68,2.47-1l3.42-1.35.89-.33A1.1,1.1,0,0,1,429.66,293.34Z" style="fill:#263238"></path><path d="M400.68,360a8.21,8.21,0,0,1-.5-1.46c-.29-.95-.67-2.33-1.12-4-.9-3.43-2-8.2-3-13.52s-1.64-10.17-2-13.69c-.19-1.76-.32-3.19-.39-4.18a9.9,9.9,0,0,1-.06-1.54,8,8,0,0,1,.26,1.52c.14,1.07.33,2.47.55,4.15.48,3.51,1.19,8.34,2.17,13.65s2,10.07,2.83,13.52l1,4.08A10.17,10.17,0,0,1,400.68,360Z" style="fill:#263238"></path><path d="M428.08,444.48a2.07,2.07,0,0,1-.13-.33l-.33-1c-.28-.87-.71-2.13-1.21-3.78s-1-3.7-1.68-6l-2-8.05c-2.91-12-6.49-28.61-10.08-47.05s-6.45-35.22-8.24-47.4c-.43-3.05-.81-5.8-1.14-8.23s-.52-4.52-.72-6.24-.24-3.05-.31-3.95c0-.43,0-.77-.07-1a1.55,1.55,0,0,1,0-.35,1.68,1.68,0,0,1,.06.35l.11,1c.1.93.24,2.25.41,3.94l.8,6.22c.36,2.42.77,5.17,1.22,8.21,1.89,12.17,4.83,28.92,8.39,47.36s7.11,35.08,9.92,47.06c.73,3,1.38,5.69,2,8.07s1.15,4.39,1.6,6.06.85,2.9,1.11,3.8l.28,1A1.74,1.74,0,0,1,428.08,444.48Z" style="fill:#263238"></path><path d="M352.3,337.24a67.13,67.13,0,0,1-.55-8.43,68.78,68.78,0,0,1,0-8.46,68.45,68.45,0,0,1,.56,8.44A69.67,69.67,0,0,1,352.3,337.24Z" style="fill:#263238"></path><path d="M357.54,336.08a92.57,92.57,0,0,1,0-9.91,96,96,0,0,1,.55-9.9,95.83,95.83,0,0,1,0,9.91A96,96,0,0,1,357.54,336.08Z" style="fill:#263238"></path></g><g id="freepik--Character--inject-124"><polygon points="233.25 250.77 247.12 251.01 247.12 259.99 233.48 261.2 233.25 250.77" style="fill:#ffbe9d"></polygon><path d="M276.31,242.13l.27-1H275l-13.37.81L257,245l-.89.6-6,4h0l-8.35.63v13.51l7.05-3.44,11.66-1.8,4.88-5s9.21-1.27,9.94-2.8l-5.79-1s5.24-2.17,6.24-3.34v-1l-2.89-.37S276,243.13,276.31,242.13Z" style="fill:#B2ADF4"></path><path d="M276.31,242.13l.27-1H275l-13.37.81-11.44,7.64-8.35.63v13.51l7.05-3.44,11.66-1.8,4.88-5s9.21-1.27,9.94-2.8l-5.79-1s5.24-2.17,6.24-3.34v-1l-2.89-.37S276,243.13,276.31,242.13Z" style="fill:#fff;opacity:0.7000000000000001"></path><polygon points="285.53 228.31 269.7 213.77 251.04 246.1 270.87 255.56 285.53 228.31" style="fill:#f5f5f5"></polygon><path d="M285.53,228.31a3.43,3.43,0,0,1-.23.5l-.76,1.47-2.93,5.58-10.53,19.81-.11.2-.2-.1-19.84-9.43-.25-.12.14-.25,1.48-2.55c6.52-11.28,12.53-21.65,17.22-29.76l.13-.22.19.17,11.52,10.72,3.12,2.94.8.77a1.89,1.89,0,0,1,.25.27l-.31-.26-.86-.75-3.22-2.89-11.58-10.49.32,0-17.13,29.81-1.48,2.55-.11-.36L271,255.35l-.3.1,10.66-19.59c1.3-2.36,2.34-4.24,3.06-5.56.35-.62.63-1.11.83-1.48S285.52,228.31,285.53,228.31Z" style="fill:#263238"></path><path d="M250.79,249.14l7.5-5.42,13.65-2.53a3.08,3.08,0,0,1-1.81,3.43c-2.35,1.09-7,3-7,3a28.31,28.31,0,0,1-5.6,7.46l-6.78,1.35Z" style="fill:#B2ADF4"></path><polygon points="285.53 228.31 302.37 223.29 284.89 268.92 270.87 255.56 285.53 228.31" style="fill:#e0e0e0"></polygon><path d="M285.53,228.31a2.83,2.83,0,0,1-.25.53c-.18.37-.44.87-.76,1.5l-2.94,5.6-10.5,19.73-.05-.27,14,13.33-.42.1c.92-2.42,1.89-4.95,2.88-7.53,5.71-14.82,10.88-28.26,14.67-38.08l.22.25-12.31,3.58-3.38.95-.88.24-.32.07a1,1,0,0,1,.28-.11l.86-.28,3.32-1,12.33-3.77.36-.11-.14.36c-3.74,9.83-8.87,23.28-14.52,38.13L285.13,269l-.14.36-.28-.27-14-13.37-.13-.12.08-.15,10.71-19.71c1.3-2.35,2.32-4.21,3-5.52l.82-1.45A3.75,3.75,0,0,1,285.53,228.31Z" style="fill:#263238"></path><path d="M297.85,229.21a29.44,29.44,0,0,1-6,1.33,29,29,0,0,1-6.09.57,47.23,47.23,0,0,1,6-1.08A44.55,44.55,0,0,1,297.85,229.21Z" style="fill:#263238"></path><path d="M296.22,233.77a34.74,34.74,0,0,1-6.07.48,34.72,34.72,0,0,1-6.1-.05,37,37,0,0,1,6.08-.47A36.41,36.41,0,0,1,296.22,233.77Z" style="fill:#263238"></path><path d="M294.74,238.18a47.77,47.77,0,0,1-5.79-.88,49.2,49.2,0,0,1-5.77-1,25.88,25.88,0,0,1,5.85.53A25.36,25.36,0,0,1,294.74,238.18Z" style="fill:#263238"></path><path d="M293.13,241.66A64.15,64.15,0,0,1,282,238.43a34.07,34.07,0,0,1,5.66,1.37A32.58,32.58,0,0,1,293.13,241.66Z" style="fill:#263238"></path><path d="M286.8,256.31a47.77,47.77,0,0,1-9.41-9.36c.11-.1,2.15,2.06,4.75,4.64A63.22,63.22,0,0,1,286.8,256.31Z" style="fill:#263238"></path><path d="M285.19,261.27a47.82,47.82,0,0,1-5.12-4.79,45.19,45.19,0,0,1-4.76-5.15,48.3,48.3,0,0,1,5.12,4.78A46.92,46.92,0,0,1,285.19,261.27Z" style="fill:#263238"></path><path d="M291,246.48A61.53,61.53,0,0,1,281,241.19a31.21,31.21,0,0,1,5.16,2.42A31.67,31.67,0,0,1,291,246.48Z" style="fill:#263238"></path><path d="M289,251.33a9.7,9.7,0,0,0-1.35-1.08c-.87-.65-2.2-1.43-3.59-2.4a36.79,36.79,0,0,1-4.92-3.64,36.23,36.23,0,0,1,5.22,3.21c1.38,1,2.67,1.79,3.52,2.54a10.72,10.72,0,0,1,.95.93,2.12,2.12,0,0,1,.21.31s0,.1,0,.12S289,251.33,289,251.33Z" style="fill:#263238"></path><path d="M250.79,249.14l7.5-5.42,13.65-2.53a3.08,3.08,0,0,1-1.81,3.43c-2.35,1.09-7,3-7,3a28.31,28.31,0,0,1-5.6,7.46l-6.78,1.35Z" style="fill:#fff;opacity:0.7000000000000001"></path><polygon points="238.77 249.81 237.19 261.56 226.73 262.4 230.74 250.67 238.77 249.81" style="fill:#B2ADF4"></polygon><polygon points="238.77 249.81 237.19 261.56 227.02 262.4 230.74 250.67 238.77 249.81" style="fill:#fff;opacity:0.5"></polygon><path d="M198.44,228.36l9.89,14.76s8,.28,8.88,2.72c0,0,10.6-4.3,13.75,4.3l-3.58,12.32s-12,5.87-21.2,2.86-16.05-9.74-17.19-16.9L186.55,236Z" style="fill:#B2ADF4"></path><path d="M205.67,251.31a9.16,9.16,0,0,1,2.47-7.87c.13.09-1,1.61-1.67,3.8S205.83,251.3,205.67,251.31Z" style="fill:#263238"></path><path d="M203,248.28a10.43,10.43,0,0,1,4.84-5.3c.09.12-1.19,1.11-2.51,2.57S203.11,248.36,203,248.28Z" style="fill:#263238"></path><path d="M106.2,252c0,.4,20.23,76.84,20.23,76.84l-2.61,140.93h8.72L136,356.13l53.67,4.78,22.18,108.9h9.36L207.92,362.68l24.45-8.8,15.17,94.42,11.24-2.25-14-100.6L243,331.12l-67.44-5.9-30.06-88.51L106.2,244v6.76" style="fill:#263238"></path><path d="M153,277.12a71.31,71.31,0,0,0-22.4-5.86c-1.9-.17-4-.23-5.55.87-2.16,1.5-2.49,4.72-1.46,7.15s3.08,4.23,5.08,6a18.57,18.57,0,0,0-1,6.86c.23,2.31,1.53,4.67,3.71,5.47,2.91,1.07,6-.89,8.44-2.74L158.24,281" style="fill:#B2ADF4"></path><g style="opacity:0.5"><path d="M153,277.12a71.31,71.31,0,0,0-22.4-5.86c-1.9-.17-4-.23-5.55.87-2.16,1.5-2.49,4.72-1.46,7.15s3.08,4.23,5.08,6a18.57,18.57,0,0,0-1,6.86c.23,2.31,1.53,4.67,3.71,5.47,2.91,1.07,6-.89,8.44-2.74L158.24,281" style="fill:#fff"></path></g><path d="M135.79,287.39a9.85,9.85,0,0,1,2-1.59,32.62,32.62,0,0,1,5.38-3,31.9,31.9,0,0,1,5.83-1.91,9.8,9.8,0,0,1,2.52-.37,16.48,16.48,0,0,1-2.43.72,48.35,48.35,0,0,0-5.72,2,47.84,47.84,0,0,0-5.38,2.79A17.64,17.64,0,0,1,135.79,287.39Z" style="fill:#fff"></path><path d="M133.72,278.1a13.88,13.88,0,0,1,2.61.31c1.6.24,3.81.56,6.26.84s4.67.48,6.28.61a14.66,14.66,0,0,1,2.61.3,11.92,11.92,0,0,1-2.63.07c-1.62,0-3.86-.18-6.32-.46s-4.68-.67-6.27-1A11.84,11.84,0,0,1,133.72,278.1Z" style="fill:#fff"></path><polygon points="151.28 276.79 194.46 262.65 195.47 274.07 148.87 285.4 151.28 276.79" style="fill:#B2ADF4"></polygon><path d="M136.59,201.16s-10.34-1.88-15.36,5.33S91,250.71,91,250.71l24,7.49,18.18-20.68Z" style="fill:#B2ADF4"></path><path d="M177.45,196.9s22.28,26,22.31,36.31a33.83,33.83,0,0,1-6.25,18.87l2,22-42.88,5.6-13-28.32-6.49-13.83,3.45-36.36Z" style="fill:#B2ADF4"></path><g style="opacity:0.30000000000000004"><path d="M149.22,210.4c-1,1.07-.66,2.89.3,4a11.41,11.41,0,0,0,3.65,2.38,6.54,6.54,0,0,1,3.22,2.86c.5,1.13.42,2.52,1.18,3.5,1.7,2.17,5.39.31,7.86,1.53,1.82.9,2.45,3.22,4,4.47s3.84,1.23,5.89,1.13c1.8-.08,4-.5,4.52-2.25.25-1-.17-2,0-3,.33-2,2.86-3.21,2.59-5.16s-3.25-2.62-3.74-4.58c-.43-1.65,1.17-3.21,1.14-4.92,0-2-2.21-3.29-2.91-5.17a8.78,8.78,0,0,1-.2-3.58,5.26,5.26,0,0,0-.69-3.48c-.72-1-2.34-1.33-3.12-.41" style="fill:#fff"></path></g><polygon points="151.28 276.79 194.46 262.65 195.47 274.07 148.87 285.4 151.28 276.79" style="fill:#fff;opacity:0.5"></polygon><path d="M165.93,275.54a5.5,5.5,0,0,1,1.12-.41l3.09-.94c2.62-.77,6.24-1.79,10.26-2.9s7.65-2.07,10.3-2.75a7.11,7.11,0,0,0,2.92-1.17,3.07,3.07,0,0,0,.68-.92s0,.12-.05.31a2.08,2.08,0,0,1-.5.76,6.65,6.65,0,0,1-2.95,1.37c-2.62.77-6.25,1.8-10.26,2.9s-7.66,2.08-10.3,2.76l-3.14.78A4.71,4.71,0,0,1,165.93,275.54Z" style="fill:#fff"></path><path d="M188.41,272.59a28.76,28.76,0,0,1-3.55.81c-2.2.46-5.24,1.1-8.58,1.87s-6.34,1.53-8.52,2.09a28.66,28.66,0,0,1-3.55.83,3.24,3.24,0,0,1,.91-.37c.6-.21,1.46-.49,2.54-.81,2.16-.65,5.16-1.47,8.51-2.25s6.4-1.36,8.62-1.72c1.11-.18,2-.32,2.64-.39A3.06,3.06,0,0,1,188.41,272.59Z" style="fill:#fff"></path><path d="M181.65,243.33a7.24,7.24,0,0,1-.47,2.42,16,16,0,0,1-7.46,9,7.15,7.15,0,0,1-2.29.91c0-.08.83-.44,2.11-1.23a18.25,18.25,0,0,0,4.37-3.82,18.46,18.46,0,0,0,2.92-5C181.37,244.23,181.56,243.31,181.65,243.33Z" style="fill:#263238"></path><path d="M176.4,227.51a2.42,2.42,0,0,1,0-.5,8.79,8.79,0,0,1,.12-1.42,10.62,10.62,0,0,1,2.08-4.82,8.61,8.61,0,0,1,1.21-1.3,2.41,2.41,0,0,1,.85-.51,1.38,1.38,0,0,1,1.09,0,2,2,0,0,1,.83,2,6.25,6.25,0,0,1-.61,2.13,8.1,8.1,0,0,1-3.17,3.41,14.1,14.1,0,0,1-4.73,1.56,17.38,17.38,0,0,1-5,.48,4.88,4.88,0,0,1-3.91-2.49,2.92,2.92,0,0,1-.13-2.26,2,2,0,0,1,1.68-1.31,4.43,4.43,0,0,1,1.93.33c.58.22,1.11.44,1.62.67a30.29,30.29,0,0,1,4.6,2.53c.51.35.9.63,1.16.83s.38.32.37.34-.59-.36-1.64-1a34.34,34.34,0,0,0-4.64-2.37c-.5-.21-1-.42-1.6-.62a4,4,0,0,0-1.75-.28,1.54,1.54,0,0,0-1.3,1,2.41,2.41,0,0,0,.14,1.89,4.39,4.39,0,0,0,3.53,2.19,17.09,17.09,0,0,0,4.8-.48,13.73,13.73,0,0,0,4.57-1.49,7.69,7.69,0,0,0,3-3.18,6,6,0,0,0,.59-1.95,1.59,1.59,0,0,0-.58-1.56,1.4,1.4,0,0,0-1.49.38,8.94,8.94,0,0,0-1.17,1.22,11,11,0,0,0-2.17,4.62C176.43,226.82,176.46,227.51,176.4,227.51Z" style="fill:#fff"></path><path d="M176.34,236.87c-.15,0,.23-2.11.11-4.69s-.65-4.63-.49-4.67a10.59,10.59,0,0,1,1,4.65A10.42,10.42,0,0,1,176.34,236.87Z" style="fill:#fff"></path><path d="M183.08,235.24a10.43,10.43,0,0,1-6.75-7.94,22.33,22.33,0,0,0,2.71,4.53A23,23,0,0,0,183.08,235.24Z" style="fill:#fff"></path><path d="M148.86,285.35a20,20,0,0,1,1-4.45,21,21,0,0,1,1.49-4.31,20,20,0,0,1-1,4.45A20.35,20.35,0,0,1,148.86,285.35Z" style="fill:#fff"></path><path d="M194.31,262.39c0-.22-.05-.44-.08-.73-.06-.57-.14-1.27-.22-2.11-.19-1.91-.44-4.46-.73-7.45V252l.14-.08c2.06-1.21,3.64-3.68,4.68-6.43A28.35,28.35,0,0,0,200,232.63a13,13,0,0,0-.95-3.82,11.86,11.86,0,0,1-.67-1.3s.1.09.25.29a10,10,0,0,1,.6.92,12.17,12.17,0,0,1,1.13,3.86,27.35,27.35,0,0,1-1.73,13c-1.08,2.8-2.69,5.37-5,6.65l.13-.23c.25,3.08.43,5.66.53,7.48A11.62,11.62,0,0,1,194.31,262.39Z" style="fill:#263238"></path><path d="M191.16,136.32a5.21,5.21,0,0,0,4.68,1,12.69,12.69,0,0,0,3.57-1.61,3.18,3.18,0,0,0,1.16-1.28,1.65,1.65,0,0,0-.14-1.65c-.61-.77-1.84-.59-2.73-.15a1.51,1.51,0,0,0,.38-2,2,2,0,0,0-2-.82,2.93,2.93,0,0,0-1.85,1.2,1.67,1.67,0,0,0-1.18-2,2.33,2.33,0,0,0-2.32.79,3.83,3.83,0,0,0-.81,2.41c0,.86.08,3.08,1,3.88Z" style="fill:#B2ADF4"></path><g style="opacity:0.1"><path d="M191.16,136.32a5.21,5.21,0,0,0,4.68,1,12.69,12.69,0,0,0,3.57-1.61,3.18,3.18,0,0,0,1.16-1.28,1.65,1.65,0,0,0-.14-1.65c-.61-.77-1.84-.59-2.73-.15a1.51,1.51,0,0,0,.38-2,2,2,0,0,0-2-.82,2.93,2.93,0,0,0-1.85,1.2,1.67,1.67,0,0,0-1.18-2,2.33,2.33,0,0,0-2.32.79,3.83,3.83,0,0,0-.81,2.41c0,.86.08,3.08,1,3.88Z" style="fill:#fff"></path></g><path d="M181.69,133.27a6.15,6.15,0,0,0,5.56,1.24,14.53,14.53,0,0,0,4.23-1.91,3.78,3.78,0,0,0,1.38-1.51,2,2,0,0,0-.16-2c-.73-.92-2.19-.7-3.24-.17a1.81,1.81,0,0,0,.45-2.39,2.38,2.38,0,0,0-2.35-1,3.47,3.47,0,0,0-2.2,1.44,2,2,0,0,0-1.41-2.38,2.74,2.74,0,0,0-2.74,1,4.49,4.49,0,0,0-1,2.85c0,1,.09,3.66,1.18,4.61Z" style="fill:#B2ADF4"></path><g style="opacity:0.1"><path d="M181.69,133.27a6.15,6.15,0,0,0,5.56,1.24,14.53,14.53,0,0,0,4.23-1.91,3.78,3.78,0,0,0,1.38-1.51,2,2,0,0,0-.16-2c-.73-.92-2.19-.7-3.24-.17a1.81,1.81,0,0,0,.45-2.39,2.38,2.38,0,0,0-2.35-1,3.47,3.47,0,0,0-2.2,1.44,2,2,0,0,0-1.41-2.38,2.74,2.74,0,0,0-2.74,1,4.49,4.49,0,0,0-1,2.85c0,1,.09,3.66,1.18,4.61Z" style="fill:#fff"></path></g><path d="M137.66,149a22.76,22.76,0,0,1,7.75-15.79,26.21,26.21,0,0,1,16.56-6.3,22.07,22.07,0,0,1,12.81,3.42,15.42,15.42,0,0,1,6.92,11s-12.64-2.13-19.12.76S139.67,150,139.67,150Z" style="fill:#B2ADF4"></path><g style="opacity:0.30000000000000004"><path d="M137.66,149a22.76,22.76,0,0,1,7.75-15.79,26.21,26.21,0,0,1,16.56-6.3,22.07,22.07,0,0,1,12.81,3.42,15.42,15.42,0,0,1,6.92,11s-12.64-2.13-19.12.76S139.67,150,139.67,150Z"></path></g><path d="M175.75,139.28a9.09,9.09,0,0,0,8.17,1.82,21.71,21.71,0,0,0,6.22-2.81,5.55,5.55,0,0,0,2-2.22,2.85,2.85,0,0,0-.24-2.89c-1.07-1.35-3.22-1-4.76-.26a2.64,2.64,0,0,0,.66-3.51,3.49,3.49,0,0,0-3.45-1.44,5.19,5.19,0,0,0-3.24,2.11,2.93,2.93,0,0,0-2.06-3.48,4.07,4.07,0,0,0-4,1.39,6.73,6.73,0,0,0-1.42,4.19c0,1.5.14,5.37,1.74,6.78Z" style="fill:#B2ADF4"></path><g style="opacity:0.30000000000000004"><path d="M175.75,139.28a9.09,9.09,0,0,0,8.17,1.82,21.71,21.71,0,0,0,6.22-2.81,5.55,5.55,0,0,0,2-2.22,2.85,2.85,0,0,0-.24-2.89c-1.07-1.35-3.22-1-4.76-.26a2.64,2.64,0,0,0,.66-3.51,3.49,3.49,0,0,0-3.45-1.44,5.19,5.19,0,0,0-3.24,2.11,2.93,2.93,0,0,0-2.06-3.48,4.07,4.07,0,0,0-4,1.39,6.73,6.73,0,0,0-1.42,4.19c0,1.5.14,5.37,1.74,6.78Z" style="fill:#fff"></path></g><path d="M190.07,144.7A6.57,6.57,0,0,0,196,146a16.17,16.17,0,0,0,4.5-2,4.11,4.11,0,0,0,1.46-1.61,2.06,2.06,0,0,0-.17-2.08c-.78-1-2.33-.75-3.44-.19a1.91,1.91,0,0,0,.47-2.54,2.51,2.51,0,0,0-2.49-1,3.69,3.69,0,0,0-2.34,1.52,2.12,2.12,0,0,0-1.48-2.52,2.94,2.94,0,0,0-2.92,1,4.79,4.79,0,0,0-1,3c0,1.09.1,3.88,1.25,4.9Z" style="fill:#B2ADF4"></path><g style="opacity:0.30000000000000004"><path d="M190.07,144.7A6.57,6.57,0,0,0,196,146a16.17,16.17,0,0,0,4.5-2,4.11,4.11,0,0,0,1.46-1.61,2.06,2.06,0,0,0-.17-2.08c-.78-1-2.33-.75-3.44-.19a1.91,1.91,0,0,0,.47-2.54,2.51,2.51,0,0,0-2.49-1,3.69,3.69,0,0,0-2.34,1.52,2.12,2.12,0,0,0-1.48-2.52,2.94,2.94,0,0,0-2.92,1,4.79,4.79,0,0,0-1,3c0,1.09.1,3.88,1.25,4.9Z" style="fill:#fff"></path></g><path d="M132.65,143.3a54.28,54.28,0,0,0-21.87-2c-2.66.3-5.55.94-7.2,3.06s-1.57,4.92-.65,7.3a22.43,22.43,0,0,0,4.29,6.32c1.77,2.05,3.83,4.25,6.54,4.45a9,9,0,0,0,4.76-1.36,34.13,34.13,0,0,0,9-6.88c2-2.14,3.94-4.68,6.78-5.4a14.33,14.33,0,0,1,5.1,0c4.52.46,9.36.21,13.2-2.23a13.73,13.73,0,0,0,6.17-11.36A14.86,14.86,0,0,0,153,123.56a10.87,10.87,0,0,0-7.29-2.47c-3.61.28-6.62,2.86-8.89,5.67a33.9,33.9,0,0,0-7.1,16.35" style="fill:#B2ADF4"></path><g style="opacity:0.7000000000000001"><path d="M132.65,143.3a54.28,54.28,0,0,0-21.87-2c-2.66.3-5.55.94-7.2,3.06s-1.57,4.92-.65,7.3a22.43,22.43,0,0,0,4.29,6.32c1.77,2.05,3.83,4.25,6.54,4.45a9,9,0,0,0,4.76-1.36,34.13,34.13,0,0,0,9-6.88c2-2.14,3.94-4.68,6.78-5.4a14.33,14.33,0,0,1,5.1,0c4.52.46,9.36.21,13.2-2.23a13.73,13.73,0,0,0,6.17-11.36A14.86,14.86,0,0,0,153,123.56a10.87,10.87,0,0,0-7.29-2.47c-3.61.28-6.62,2.86-8.89,5.67a33.9,33.9,0,0,0-7.1,16.35" style="fill:#fff"></path></g><path d="M132.37,149.26a2.13,2.13,0,0,1-1.63.6,3.48,3.48,0,0,1-1.87-.48,3.67,3.67,0,0,1-1.53-1.81,3.94,3.94,0,0,1-.2-2.35,4.33,4.33,0,0,1,.85-1.72c.72-.84,1.39-1.06,1.41-1s-.53.4-1.11,1.23a3.87,3.87,0,0,0-.47,3.66,3.31,3.31,0,0,0,2.93,2.11A6.89,6.89,0,0,0,132.37,149.26Z" style="fill:#fff"></path><path d="M135,148.19c-.08-.05.29-.56.44-1.51a4.22,4.22,0,0,0-.91-3.42,4.27,4.27,0,0,0-3.28-1.35c-1,0-1.51.33-1.55.25a2.35,2.35,0,0,1,1.53-.61,4.14,4.14,0,0,1,4.57,5.21A2.38,2.38,0,0,1,135,148.19Z" style="fill:#fff"></path><path d="M133.48,142.31c.06,0,.17.47.08,1.24a6.13,6.13,0,0,1-1.12,2.76,6.06,6.06,0,0,1-2.3,1.91c-.7.32-1.19.36-1.2.3a7.86,7.86,0,0,0,4.54-6.21Z" style="fill:#fff"></path><path d="M132.52,145.3c-.11.11-.88-.66-2.12-1a17.41,17.41,0,0,0-2.32-.16,2.62,2.62,0,0,1,2.45-.34C131.94,144.19,132.64,145.24,132.52,145.3Z" style="fill:#fff"></path><path d="M146.67,131.11a16,16,0,0,1-1.93,1.52,50.5,50.5,0,0,0-4.47,3.81,51.33,51.33,0,0,0-4,4.32,14.39,14.39,0,0,1-1.59,1.86,9.71,9.71,0,0,1,1.3-2.09,34.68,34.68,0,0,1,3.92-4.47,34.12,34.12,0,0,1,4.62-3.73A8.61,8.61,0,0,1,146.67,131.11Z" style="fill:#fff"></path><path d="M150.88,137.87a9.89,9.89,0,0,1-2,1.45,34,34,0,0,1-11,4.4,8.84,8.84,0,0,1-2.44.31,17,17,0,0,1,2.35-.67,50.15,50.15,0,0,0,5.57-1.84,51.58,51.58,0,0,0,5.3-2.51A14.62,14.62,0,0,1,150.88,137.87Z" style="fill:#fff"></path><path d="M109.31,151.52a9,9,0,0,1,2.11-1.71,21.64,21.64,0,0,1,6-2.7,21.27,21.27,0,0,1,6.53-.74,8.79,8.79,0,0,1,2.7.39c0,.08-1,0-2.7,0a24.81,24.81,0,0,0-6.4.88,25.27,25.27,0,0,0-5.94,2.5C110.18,151,109.36,151.59,109.31,151.52Z" style="fill:#fff"></path><path d="M118.6,156.4a5.51,5.51,0,0,1,.87-1.65,20.32,20.32,0,0,1,2.86-3.44,19.71,19.71,0,0,1,3.55-2.73,5.17,5.17,0,0,1,1.67-.8c.09.14-2.39,1.51-4.86,3.91S118.74,156.49,118.6,156.4Z" style="fill:#fff"></path><path d="M123.67,159.86a7.19,7.19,0,0,0,5-4.37,16.93,16.93,0,0,0,1.09-5.28,4.35,4.35,0,0,0-.47-2.33,2.27,2.27,0,0,0-2-1.19c-1.36.06-2.15,1.58-2.37,2.93a2.1,2.1,0,0,0-1.94-2.06,2.74,2.74,0,0,0-2.52,1.54,4,4,0,0,0-.16,3,2.32,2.32,0,0,0-3.18-.3,3.23,3.23,0,0,0-1,3.23,5.26,5.26,0,0,0,2,2.85c.94.72,3.49,2.41,5.13,2Z" style="fill:#B2ADF4"></path><g style="opacity:0.30000000000000004"><path d="M123.67,159.86a7.19,7.19,0,0,0,5-4.37,16.93,16.93,0,0,0,1.09-5.28,4.35,4.35,0,0,0-.47-2.33,2.27,2.27,0,0,0-2-1.19c-1.36.06-2.15,1.58-2.37,2.93a2.1,2.1,0,0,0-1.94-2.06,2.74,2.74,0,0,0-2.52,1.54,4,4,0,0,0-.16,3,2.32,2.32,0,0,0-3.18-.3,3.23,3.23,0,0,0-1,3.23,5.26,5.26,0,0,0,2,2.85c.94.72,3.49,2.41,5.13,2Z" style="fill:#fff"></path></g><path d="M122.24,165.42A5.92,5.92,0,0,0,122,160a13.83,13.83,0,0,0-2.82-3.43,3.57,3.57,0,0,0-1.73-.9,1.88,1.88,0,0,0-1.78.64c-.66.9-.1,2.19.65,3a1.73,1.73,0,0,0-2.32.18,2.27,2.27,0,0,0-.32,2.41,3.31,3.31,0,0,0,1.87,1.67,1.93,1.93,0,0,0-1.84,1.89,2.66,2.66,0,0,0,1.56,2.3,4.34,4.34,0,0,0,2.87.18c1-.23,3.35-1,4-2.24Z" style="fill:#B2ADF4"></path><g style="opacity:0.30000000000000004"><path d="M122.24,165.42A5.92,5.92,0,0,0,122,160a13.83,13.83,0,0,0-2.82-3.43,3.57,3.57,0,0,0-1.73-.9,1.88,1.88,0,0,0-1.78.64c-.66.9-.1,2.19.65,3a1.73,1.73,0,0,0-2.32.18,2.27,2.27,0,0,0-.32,2.41,3.31,3.31,0,0,0,1.87,1.67,1.93,1.93,0,0,0-1.84,1.89,2.66,2.66,0,0,0,1.56,2.3,4.34,4.34,0,0,0,2.87.18c1-.23,3.35-1,4-2.24Z" style="fill:#fff"></path></g><path d="M188.8,167.37c9.94-4.38,13.08-7.42,16.46-12.5,4-5.94,1.14-10.42-4.81-13.77-3.75-2.13-14-3.34-18.86-3.71-10.5-.82-14.74.07-25.23,1.59a53.28,53.28,0,0,0-21.42,8c-5.9,3.88-9.06,4.81-15.89,11.86-4.51,4.66-4.3,10.23-.12,14.82,0,0,5,8.13,31.31,4.59C173,175.17,188.8,167.37,188.8,167.37Z" style="fill:#B2ADF4"></path><g style="opacity:0.2"><path d="M140.46,152.54a15,15,0,0,0-7.92,8.47,8.59,8.59,0,0,0-.35,5.88,7.19,7.19,0,0,0,4.86,4.2,17.36,17.36,0,0,0,6.47.28c5.18-.49,10.3-1.42,15.42-2.35,10.86-2,21.93-4,31.64-9.48a14.39,14.39,0,0,0,4.76-3.83,6.48,6.48,0,0,0,1.06-6c-.83-2.14-3-3.35-5-4.24-5.62-2.49-11.2-4.83-17.28-5.2"></path></g><path d="M138,154.08a9.72,9.72,0,0,1-.72,11.6c-1.41,1.6-3.47,2.93-3.71,5-.22,1.91,1,4.36-.55,5.48-.85.61-2,.34-3,.31a6,6,0,0,0-5.26,9.18,6.92,6.92,0,0,0-7.41,10.12c-3.39,2.58-7.15,5.95-6.7,10.18.36,3.38,3.5,5.93,6.81,6.72s6.77.18,10.12-.42l36.16-6.51c2.87-.51,5.82-1,8.66-.4,2.42.54,4.92,1.88,7.22,1s3.21-3.67,2.81-6-1.83-4.42-3.22-6.38c6.34-3.81,8.36-13.29,4.13-19.36" style="fill:#263238"></path><path d="M143.89,143.8c-.17,4.72-6.46,7.58-6.38,12.3,0,2,1.3,3.84,1.54,5.85.33,2.71-1.18,5.26-1.74,7.92-1.14,5.49,2.05,11.29,6.79,14.29s10.68,3.58,16.24,2.82" style="fill:#263238"></path><path d="M178,140.39c-.18,2.53,5.4,7.05,7.09,9s3.56,3.88,3.92,6.39c.65,4.46-3.71,8.59-2.81,13,.48,2.36,2.41,4.26,2.76,6.65s-.91,4.57-2.44,6.32-3.31,1.51-4.67,3.4a19,19,0,0,1-5.88,5.23c-4.89,2.68-10.75-1.19-13.11-1.89" style="fill:#263238"></path><path d="M173.48,200c0-5.27.06-10.4.06-10.37s8.37-1.41,10.08-12.34c.85-5.44.56-14.35.08-21.63-.42-6.55-4.78-14.58-11.31-13.88L152,147a3.85,3.85,0,0,0-3.43,3.91h0l1.87,49.48a11.53,11.53,0,0,0,11.74,11.09h0A11.54,11.54,0,0,0,173.48,200Z" style="fill:#ffbe9d"></path><path d="M181.63,162.29a1.4,1.4,0,0,1-1.34,1.42,1.34,1.34,0,0,1-1.45-1.26,1.4,1.4,0,0,1,1.34-1.42A1.33,1.33,0,0,1,181.63,162.29Z" style="fill:#263238"></path><path d="M181.78,160.31c-.17.18-1.23-.6-2.74-.59s-2.61.76-2.78.58.1-.41.58-.77a3.85,3.85,0,0,1,2.22-.69,3.79,3.79,0,0,1,2.19.7C181.71,159.9,181.87,160.23,181.78,160.31Z" style="fill:#263238"></path><path d="M166.37,162.29a1.4,1.4,0,0,1-1.35,1.42,1.35,1.35,0,0,1-1.45-1.26,1.41,1.41,0,0,1,1.35-1.42A1.35,1.35,0,0,1,166.37,162.29Z" style="fill:#263238"></path><path d="M167,160.63c-.17.18-1.24-.61-2.74-.6s-2.62.77-2.78.58.1-.41.58-.76a3.85,3.85,0,0,1,2.22-.69,3.66,3.66,0,0,1,2.18.7C166.89,160.21,167.05,160.54,167,160.63Z" style="fill:#263238"></path><path d="M172.46,171.8a9.75,9.75,0,0,1,2.45-.45c.38,0,.75-.12.81-.38a1.93,1.93,0,0,0-.26-1.14c-.36-.93-.74-1.91-1.15-2.93-1.59-4.17-2.74-7.6-2.57-7.67s1.6,3.27,3.19,7.44l1.09,3a2.24,2.24,0,0,1,.21,1.51,1,1,0,0,1-.64.56,2.79,2.79,0,0,1-.65.1A10.52,10.52,0,0,1,172.46,171.8Z" style="fill:#263238"></path><path d="M173.54,189.64a27.8,27.8,0,0,1-14.64-3.87c.12,0,4,7.59,14.5,6.45Z" style="fill:#eb996e"></path><path d="M171.83,175.43a2.7,2.7,0,0,0-2.44-1,2.5,2.5,0,0,0-1.71.92,1.57,1.57,0,0,0-.12,1.8,1.82,1.82,0,0,0,2,.49,5.69,5.69,0,0,0,1.93-1.15,1.67,1.67,0,0,0,.43-.45.5.5,0,0,0,0-.56" style="fill:#eb996e"></path><path d="M168,172.85c.25,0,.25,1.62,1.66,2.78s3.14,1,3.16,1.2-.39.32-1.13.34a4,4,0,0,1-2.63-.91,3.56,3.56,0,0,1-1.29-2.33C167.73,173.24,167.91,172.84,168,172.85Z" style="fill:#263238"></path><path d="M167.63,158c-.14.41-1.65.22-3.42.44s-3.2.7-3.43.34c-.11-.18.14-.57.72-1a6,6,0,0,1,5.22-.59C167.37,157.47,167.7,157.79,167.63,158Z" style="fill:#263238"></path><path d="M181.22,156c-.27.34-1.31,0-2.55,0s-2.31.24-2.56-.12c-.1-.17.06-.52.52-.84a3.62,3.62,0,0,1,2.08-.57,3.58,3.58,0,0,1,2,.69C181.19,155.43,181.33,155.78,181.22,156Z" style="fill:#263238"></path><path d="M149.46,174.28c2,.15,5.52,4.07,4.63,5.55a9.38,9.38,0,0,0-1.32,5.08c.12,3.25,4.27,3,4,6.2-.23,2.87-3.86,4.51-4.24,7.37-.29,2.15,1.36,4,2.69,5.72s2.47,4.17,1.22,5.94-4.31,1.57-5.89,3.2c-1.74,1.8-.86,4.73-.94,7.23a6.14,6.14,0,0,1-1.51,4.05,4,4,0,0,1-4,1.18,3,3,0,0,1-1.95-3.49,8.2,8.2,0,0,0,.57-1.57c.18-1.78-2.35-2.43-3.33-3.93-1.74-2.63,2-6.49.24-9.12-1.14-1.71-4-1.72-4.88-3.58-1.13-2.39,2.13-5.23,1-7.59-.58-1.16-2-1.62-2.82-2.62a4.56,4.56,0,0,1-.13-4.84,31.47,31.47,0,0,1,3-4.13,6.33,6.33,0,0,0,1.49-4.75" style="fill:#263238"></path><path d="M151.07,163.76c-.17-.07-7.13-2.11-6.91,5s7.31,5.41,7.32,5.21S151.07,163.76,151.07,163.76Z" style="fill:#ffbe9d"></path><path d="M149.22,171.34s-.12.09-.32.19a1.23,1.23,0,0,1-.93.05,3,3,0,0,1-1.5-2.7,4.07,4.07,0,0,1,.29-1.78,1.42,1.42,0,0,1,.9-1,.62.62,0,0,1,.74.31c.1.2.06.34.1.35s.15-.12.08-.41a.77.77,0,0,0-.29-.44.94.94,0,0,0-.69-.16,1.75,1.75,0,0,0-1.26,1.14,4.31,4.31,0,0,0-.37,2c.1,1.43.87,2.74,1.91,3a1.31,1.31,0,0,0,1.12-.23C149.22,171.51,149.25,171.35,149.22,171.34Z" style="fill:#eb996e"></path><path d="M148.53,163.26a6.17,6.17,0,0,0,7.56-3.24c.36-.86.52-1.8.85-2.68a3.48,3.48,0,0,1,1.75-2.09c1.15-.48,2.45.06,3.69.16a5.36,5.36,0,0,0,5.07-2.77c.56-1,.84-2.38,1.88-2.94s2.33-.08,3.53-.11a4.94,4.94,0,0,0,3.54-1.89,10,10,0,0,0,1.8-3.7c.27-.94.43-2.1-.29-2.77a2.76,2.76,0,0,0-1.58-.57c-6.26-.79-12.59.31-18.79,1.51a20.92,20.92,0,0,0-6.77,2.14c-2.61,1.54-6.05,3.8-6.61,6.78s1.77,6.62,3.64,9" style="fill:#263238"></path><path d="M126.29,173.24c-.12-14.15,18-25.13,38.66-30.28a39.06,39.06,0,0,1,30.71,5.11c1.39.86,1.81-2.25,2.58-3.66a2.41,2.41,0,0,0-.67-2.8,7.9,7.9,0,0,0-2.82-1.42c-14.94-5.43-40.67-3.84-58.46,6.14-5,2.83-10.95,6.22-13.59,11.2s-2.55,11.59,1.49,15.58" style="fill:#B2ADF4"></path><path d="M177.33,174.5a.25.25,0,0,1-.35-.09.26.26,0,0,1,.09-.35.25.25,0,0,1,.35.09A.24.24,0,0,1,177.33,174.5Z" style="fill:#263238"></path><path d="M148.75,173.51a35.77,35.77,0,0,0-.75,4.11,2.15,2.15,0,0,0,.1,1.23.78.78,0,0,0,1,.41,1.5,1.5,0,0,0,.5-1.18,13,13,0,0,0-.88-4.57" style="fill:#B2ADF4"></path><polygon points="331.17 362.89 375.69 385.03 380.28 367.4 342.21 344.26 331.17 362.89" style="fill:#ffbe9d"></polygon><path d="M398,364.16c4.39-4,6-1.77,6-1.77l-14.63,24.17-13.62-.37,10.13,6.13-2.5,4.14s-18.67-8.21-22.44-10.07S354.23,376,354,375.21l10.29-17.5,27.79,12.14Z" style="fill:#455a64"></path><path d="M384.29,365.72a11.39,11.39,0,0,0-2.2,3.29,11.1,11.1,0,0,0-.44,3.93c-.06,0-.27-.41-.38-1.16a6.28,6.28,0,0,1,2-5.42C383.82,365.86,384.26,365.67,384.29,365.72Z" style="fill:#263238"></path><path d="M377.67,362.43a11.43,11.43,0,0,0-3.13,7.65,2.48,2.48,0,0,1-.22-1.26,8,8,0,0,1,2.3-5.64C377.2,362.62,377.63,362.38,377.67,362.43Z" style="fill:#263238"></path><path d="M372,360.17c0,.08-.4.35-1,.91a7.74,7.74,0,0,0-1.77,2.55,7.94,7.94,0,0,0-.61,3.05,7.28,7.28,0,0,1,0,1.34c-.06,0-.3-.46-.41-1.31a6.72,6.72,0,0,1,.5-3.28,6.65,6.65,0,0,1,2-2.63C371.47,360.28,372,360.12,372,360.17Z" style="fill:#263238"></path><path d="M390.69,368.82c.11.11-.67,1-1.11,2.3s-.39,2.48-.54,2.49a4.33,4.33,0,0,1,1.65-4.79Z" style="fill:#263238"></path><path d="M371.52,361a2.45,2.45,0,0,1-.75.41,17.6,17.6,0,0,1-2.19.82,22.49,22.49,0,0,1-3.38.77,9.22,9.22,0,0,1-2.09.15,1.92,1.92,0,0,1-1.11-.49,1.31,1.31,0,0,1-.4-1.25,2.65,2.65,0,0,1,1.71-1.59,8.56,8.56,0,0,1,2-.57,8.89,8.89,0,0,1,3.5.13,7.91,7.91,0,0,1,2.18.88,2.32,2.32,0,0,1,.69.51,16.87,16.87,0,0,0-2.95-1,9.29,9.29,0,0,0-3.34,0,8.43,8.43,0,0,0-1.88.57,2.24,2.24,0,0,0-1.41,1.23c-.15.57.46,1.07,1.07,1.12a9.22,9.22,0,0,0,2-.12,27.3,27.3,0,0,0,3.34-.64C370.36,361.36,371.49,360.89,371.52,361Z" style="fill:#263238"></path><path d="M371.28,359.83a1.59,1.59,0,0,1-.71-.24,8,8,0,0,1-1.7-1.14,8.58,8.58,0,0,1-1.9-2.37,9.09,9.09,0,0,1-.69-1.68,2.38,2.38,0,0,1-.07-1,1.38,1.38,0,0,1,.67-.94,1.11,1.11,0,0,1,1.18.14,3.11,3.11,0,0,1,.66.77c.33.52.63,1,.9,1.54a23.86,23.86,0,0,1,1.25,2.74,9.43,9.43,0,0,1,.72,2.66c-.07,0-.39-1-1.07-2.52a28.19,28.19,0,0,0-1.32-2.65c-.27-.48-.58-1-.91-1.49s-.76-1-1.17-.73a1.16,1.16,0,0,0-.35,1.39,8.54,8.54,0,0,0,.63,1.58,8.81,8.81,0,0,0,1.72,2.33A19.67,19.67,0,0,0,371.28,359.83Z" style="fill:#263238"></path><polygon points="257.82 406.02 266.14 456.84 283.73 450.03 280.16 404.02 257.82 406.02" style="fill:#ffbe9d"></polygon><path d="M297.14,462.93c6,1.28,5.14,4,5.14,4l-28.88,2.74-8.22-12.09,1,12.23h-5.34s-4-20.28-4.76-24.58,4.73-11.92,5.25-12.53l20.93-1.94,6.61,30.71Z" style="fill:#455a64"></path><path d="M287.57,452.4a8.5,8.5,0,0,0-7.66,2.14c-.05,0,.18-.47.75-1a6.5,6.5,0,0,1,5.74-1.61C287.17,452.08,287.59,452.34,287.57,452.4Z" style="fill:#263238"></path><path d="M286.33,444.84a17,17,0,0,0-4.35.2,17.22,17.22,0,0,0-4,1.79s.27-.45.93-.95a8.29,8.29,0,0,1,2.92-1.34,8.14,8.14,0,0,1,3.21-.13C285.89,444.56,286.35,444.78,286.33,444.84Z" style="fill:#263238"></path><path d="M284.8,438.7c0,.08-.53-.12-1.35-.28a7.88,7.88,0,0,0-6.16,1.39c-.67.5-1,.9-1.09.84s.21-.52.86-1.12a6.77,6.77,0,0,1,3.05-1.56,6.89,6.89,0,0,1,3.43.09C284.38,438.32,284.83,438.65,284.8,438.7Z" style="fill:#263238"></path><path d="M288.84,459.65c0,.15-1.23,0-2.61.45s-2.32,1.17-2.42,1.06a4.52,4.52,0,0,1,5-1.51Z" style="fill:#263238"></path><path d="M283.84,438.78a2.53,2.53,0,0,1-.8-.39,19.1,19.1,0,0,1-2-1.34,25.3,25.3,0,0,1-2.69-2.38A9.35,9.35,0,0,1,277,433a2,2,0,0,1-.26-1.23,1.34,1.34,0,0,1,.8-1.09,2.75,2.75,0,0,1,2.36.49,9.54,9.54,0,0,1,1.7,1.33,9.3,9.3,0,0,1,2,3,8.26,8.26,0,0,1,.59,2.36,2.19,2.19,0,0,1,0,.89,15.15,15.15,0,0,0-.91-3.1,9.41,9.41,0,0,0-2-2.83,8.85,8.85,0,0,0-1.62-1.23,2.32,2.32,0,0,0-1.9-.45c-.57.23-.62,1.05-.29,1.6a9.55,9.55,0,0,0,1.28,1.57,28.68,28.68,0,0,0,2.57,2.42C282.81,438.05,283.89,438.71,283.84,438.78Z" style="fill:#263238"></path><path d="M284.65,437.89a1.82,1.82,0,0,1-.22-.74,8.5,8.5,0,0,1-.07-2.12,8.89,8.89,0,0,1,1.84-4.62,2.58,2.58,0,0,1,.83-.69,1.41,1.41,0,0,1,1.19,0,1.14,1.14,0,0,1,.59,1.06,2.88,2.88,0,0,1-.25,1c-.23.6-.49,1.16-.75,1.69a23.56,23.56,0,0,1-1.54,2.7,9.69,9.69,0,0,1-1.8,2.23c-.06-.05.59-.92,1.48-2.42a28.93,28.93,0,0,0,1.43-2.72c.24-.52.48-1.08.71-1.66s.34-1.23-.11-1.44a1.2,1.2,0,0,0-1.38.55,8.89,8.89,0,0,0-1,1.48,9.36,9.36,0,0,0-.91,2.87A20.61,20.61,0,0,0,284.65,437.89Z" style="fill:#263238"></path><path d="M148.87,285.4s-15.63,28.11-12.28,38.38,19.86,22.76,19.86,22.76h10.94s16.73,41.95,18.07,45.07,5.36,46.41,10.71,47.75,21.87,8.48,30.35,0c0,0,19.94,16.52,39,10.71s39.56-40.16,51.17-44.18,28.13-4.19,35.27-12.22,2.68-43.49,2.68-43.49,3.75-10.44-2.94-12.67-18.06-5.7-18.06-5.7l-58-54a42.88,42.88,0,0,0-20.28-4.24c-11,.67-59.86.5-59.86.5Z" style="fill:#B2ADF4"></path><path d="M238.88,431.46s-.11-.2-.3-.6l-.84-1.82c-.73-1.59-1.83-3.94-3.15-7-2.68-6.1-6.44-15-10.61-26.16s-8.75-24.62-13.07-39.78c-2.15-7.58-4.25-15.58-6.22-23.93-1-4.18-1.91-8.44-2.84-12.77a71.09,71.09,0,0,0-3.59-12.9c-.22-.52-.46-1-.7-1.54a6.14,6.14,0,0,0-.82-1.4,2.78,2.78,0,0,0-2.8-.86,2.84,2.84,0,0,0-2.1,2,6.28,6.28,0,0,0-.11,1.59c0,.55,0,1.11,0,1.66a71,71,0,0,0,1.86,12.87c2,8.34,4.12,16.33,6.16,23.94,4.13,15.2,8.18,28.8,11.72,40.18s6.6,20.52,8.73,26.84l2.47,7.26.64,1.89c.14.43.2.65.2.65s-.1-.21-.25-.63l-.69-1.87c-.6-1.65-1.47-4.09-2.56-7.24-2.19-6.29-5.29-15.43-8.89-26.79s-7.68-25-11.83-40.17c-2.06-7.61-4.21-15.59-6.19-23.94a69.2,69.2,0,0,1-1.88-13c0-.55,0-1.11,0-1.67a7.32,7.32,0,0,1,.13-1.72,3.39,3.39,0,0,1,5.8-1.39,7.56,7.56,0,0,1,.89,1.51c.25.52.49,1,.71,1.56a71.57,71.57,0,0,1,3.62,13c.92,4.33,1.84,8.59,2.83,12.76,2,8.34,4,16.34,6.18,23.92,4.3,15.16,8.83,28.61,13,39.78s7.82,20.09,10.45,26.21c1.29,3.07,2.36,5.43,3.05,7l.79,1.83C238.8,431.25,238.88,431.46,238.88,431.46Z" style="fill:#263238"></path><path d="M310.7,397.34s-.21-.1-.61-.32l-1.77-1c-.79-.43-1.73-1-2.84-1.7s-2.37-1.5-3.78-2.46a128,128,0,0,1-21.65-18.8,171.86,171.86,0,0,1-12.61-15.32A227.5,227.5,0,0,1,255,338.68c-4.06-6.91-8-14.34-11.95-22.13q-2.94-5.85-5.88-11.94c-1-2-1.92-4.11-3-6.08a6.4,6.4,0,0,0-2.21-2.4,3.44,3.44,0,0,0-3.08-.28,2.94,2.94,0,0,0-1.58,2.59,9.55,9.55,0,0,0,.39,3.3c.67,2.18,1.33,4.35,2,6.49s1.47,4.24,2.19,6.33,1.54,4.13,2.36,6.15a183.85,183.85,0,0,0,10.87,22.62,188,188,0,0,0,12.29,19.1c2,2.92,4.23,5.58,6.26,8.18,1,1.32,2.11,2.5,3.12,3.72s2,2.39,3,3.52a190.12,190.12,0,0,0,20.66,19.86l1.83,1.55,1.66,1.29,2.61,2,1.59,1.25.54.44s-.2-.12-.57-.4l-1.63-1.21c-.71-.54-1.6-1.2-2.63-2-.52-.39-1.09-.81-1.68-1.27l-1.85-1.53a184.76,184.76,0,0,1-20.81-19.77c-1-1.13-2-2.32-3.05-3.52s-2.13-2.4-3.14-3.71c-2.05-2.61-4.25-5.26-6.3-8.18a185.67,185.67,0,0,1-12.35-19.12,181.89,181.89,0,0,1-10.93-22.67c-.83-2-1.67-4.06-2.38-6.16s-1.55-4.18-2.19-6.35l-2-6.51a10.2,10.2,0,0,1-.41-3.49,4.21,4.21,0,0,1,.51-1.75,3,3,0,0,1,1.37-1.26,3.93,3.93,0,0,1,3.55.3,6.88,6.88,0,0,1,2.41,2.59c1.11,2,2,4.09,3,6.12q2.94,6.08,5.87,11.93c3.9,7.79,7.86,15.21,11.9,22.12s8.2,13.3,12.38,19.05a173.39,173.39,0,0,0,12.53,15.33,130.44,130.44,0,0,0,21.5,18.89c1.39,1,2.63,1.81,3.74,2.49s2,1.3,2.81,1.74l1.74,1Z" style="fill:#263238"></path><path d="M336.76,385.81l-.27-.09-.79-.28-3-1.16-2.18-.85c-.79-.33-1.64-.72-2.55-1.12-1.82-.82-3.93-1.69-6.17-2.85l-3.53-1.76c-1.23-.62-2.46-1.34-3.76-2.05-2.62-1.39-5.3-3.07-8.14-4.81a163.66,163.66,0,0,1-33.15-27.68c-2.22-2.49-4.35-4.82-6.18-7.15-.93-1.15-1.86-2.24-2.69-3.33L262,329.51c-1.54-2-2.77-3.91-3.9-5.55-.56-.83-1.09-1.6-1.55-2.32l-1.23-2c-.71-1.18-1.27-2.11-1.68-2.77l-.42-.73a.83.83,0,0,1-.13-.25s.06.07.17.22.28.42.47.7l1.76,2.72,1.26,2c.48.71,1,1.46,1.59,2.28,1.16,1.63,2.4,3.53,4,5.5l2.38,3.14c.84,1.09,1.78,2.16,2.71,3.31,1.84,2.31,4,4.62,6.2,7.09a168.56,168.56,0,0,0,33.06,27.61c2.83,1.74,5.49,3.43,8.09,4.83,1.29.72,2.52,1.45,3.74,2.07l3.51,1.79c2.22,1.18,4.31,2.07,6.12,2.92.9.41,1.74.81,2.53,1.15l2.16.89,3,1.25.78.33C336.68,385.75,336.77,385.8,336.76,385.81Z" style="fill:#263238"></path><path d="M182.62,336.25a2.13,2.13,0,0,1-.27-.51l-.68-1.53c-.6-1.39-1.43-3.3-2.43-5.63s-2.3-5.2-3.67-8.32q-1.06-2.34-2.21-4.89l-1.19-2.58a7.52,7.52,0,0,0-1.43-2.41,1.41,1.41,0,0,0-1.13-.43,1.36,1.36,0,0,0-1,.69,3.55,3.55,0,0,0-.15,2.58c.35,1.82.75,3.57,1.17,5.22.85,3.31,1.82,6.23,2.71,8.66s1.72,4.34,2.31,5.67l.67,1.52a3.17,3.17,0,0,1,.21.55,2.32,2.32,0,0,1-.3-.5c-.19-.34-.45-.84-.77-1.49-.64-1.3-1.52-3.21-2.46-5.62a79.86,79.86,0,0,1-2.83-8.67c-.44-1.66-.85-3.41-1.21-5.25a4,4,0,0,1,.21-2.95,1.91,1.91,0,0,1,1.34-.93,1.89,1.89,0,0,1,1.54.57,8,8,0,0,1,1.55,2.57l1.18,2.59,2.19,4.91c1.37,3.13,2.57,6,3.56,8.37s1.77,4.34,2.29,5.69l.59,1.57A4.65,4.65,0,0,1,182.62,336.25Z" style="fill:#263238"></path><path d="M259.51,420.25s-.09-.06-.23-.2l-.63-.62c-.54-.57-1.38-1.36-2.36-2.47a105.62,105.62,0,0,1-7.93-9.73,131.36,131.36,0,0,1-9.8-15.84,171.82,171.82,0,0,1-9.2-20.87,314.19,314.19,0,0,1-11.16-39.87c-1.14-5.17-2-9.37-2.59-12.28-.29-1.42-.51-2.54-.67-3.34-.06-.36-.12-.65-.16-.87a1.18,1.18,0,0,1,0-.31,1.32,1.32,0,0,1,.09.29l.21.87.75,3.32,2.76,12.24a337.42,337.42,0,0,0,11.28,39.77A175.81,175.81,0,0,0,239,391.16,132.92,132.92,0,0,0,248.66,407a115.79,115.79,0,0,0,7.78,9.82c1,1.12,1.77,1.94,2.28,2.52l.6.66A2.71,2.71,0,0,1,259.51,420.25Z" style="fill:#263238"></path><g style="opacity:0.2"><path d="M225.66,437.08q-17.5-55.35-29.85-112.17c-.74-3.37-1.43-7,0-10.16s6.08-4.88,8.46-2.38c1.13,1.19,1.41,2.92,1.68,4.54a126.62,126.62,0,0,0,12.43,37.48c1.25,2.42,3,5.08,5.71,5.3,4.26.34,6.11-5.16,9.07-8.24,4.57-4.76,12.86-3.54,18,.6s8,10.34,11.35,16.05,7.63,11.42,13.94,13.32c8.43,2.54,17.35-2.56,26.13-1.84,9,.73,16.33,7.39,22.86,13.68,1.33,1.28,2.77,3,2.21,4.74-.68,2.13-7.75,3.54-5.77,2.49.56-.29-16.07,8.48-22.4,16.64-6.19,8-12.65,17.17-20.45,23.56a37.87,37.87,0,0,1-28.9,8.08c-10.19-1.44-17-4.72-24.49-11.69"></path></g><polygon points="156.46 210.14 175.92 225.96 173.54 196.9 156.46 210.14" style="fill:#ffbe9d"></polygon><path d="M175.94,226.84c-.05-.05.18-.25.52-.07a.67.67,0,0,1,.32.57.65.65,0,0,1-.6.59.64.64,0,0,1-.71-.45.63.63,0,0,1,.22-.62c.31-.24.57-.05.52,0s-.17.08-.25.25-.05.31.16.29.23-.17.11-.34S176,226.91,175.94,226.84Z" style="fill:#fff"></path><path d="M136.25,226.59l18.64,7.79,14.44,16.7s-2.67,2.12-7.66-4.38l3.59,10.88s-3.92.68-6.39-2.07a31.07,31.07,0,0,1-4.37-7.28l1.39,6.51s-2.82,0-3.47-1.6S149,245.9,149,245.9s-8.57-.82-9.39-3.15L137.72,240l-6.15-.86Z" style="fill:#B2ADF4"></path><path d="M116.82,238.1s14.16-11.64,16.05-11.43,9.12,2.52,9.12,2.52l-2.52,11-6.81-2.1-11.54,10.7Z" style="fill:#ffbe9d"></path><path d="M136.25,226.59l18.64,7.79,14.44,16.7s-2.67,2.12-7.66-4.38l3.59,10.88s-3.92.68-6.39-2.07a31.07,31.07,0,0,1-4.37-7.28l1.39,6.51s-2.82,0-3.47-1.6S149,245.9,149,245.9s-8.57-.82-9.39-3.15L137.72,240l-6.15-.86Z" style="fill:#B2ADF4"></path><g style="opacity:0.8"><path d="M136.25,226.59l18.64,7.79,14.44,16.7s-2.67,2.12-7.66-4.38l3.59,10.88s-3.92.68-6.39-2.07a31.07,31.07,0,0,1-4.37-7.28l1.39,6.51s-2.82,0-3.47-1.6S149,245.9,149,245.9s-8.57-.82-9.39-3.15L137.72,240l-6.15-.86Z" style="fill:#fff"></path></g><polygon points="118.96 233.68 127.3 229.57 130.99 239.65 126.54 245.03 118.96 233.68" style="fill:#B2ADF4"></polygon><polygon points="118.96 233.68 127.3 229.57 130.99 239.65 126.54 245.03 118.96 233.68" style="fill:#fff;opacity:0.5"></polygon><path d="M118.49,233c-.7,1-15.36,7.73-15.36,7.73L91,250.71S86.09,274.9,98.61,276l20.17-11.27L128,247.16Z" style="fill:#B2ADF4"></path><path d="M119,264.24s0-.12.13-.34l.45-.94,1.78-3.53c1.58-3.08,3.77-7.34,6.37-12.38v.24l-7.89-11.75c-.55-.83-1.09-1.65-1.61-2.42l.33.09c-3.84,1.88-7.46,3.7-10.6,5.58s-5.78,3.81-8,5.4-4,2.86-5.31,3.71l-1.46,1a2.35,2.35,0,0,1-.53.31,3.59,3.59,0,0,1,.47-.39l1.41-1,5.22-3.85c2.21-1.62,4.84-3.6,8-5.51s6.77-3.76,10.62-5.64l.2-.1.12.18,1.62,2.42c2.81,4.22,5.48,8.22,7.84,11.78l.08.12-.06.12c-2.67,5-4.92,9.24-6.54,12.29-.79,1.45-1.43,2.61-1.89,3.47l-.52.91A1.33,1.33,0,0,1,119,264.24Z" style="fill:#263238"></path></g><g id="freepik--Plant--inject-124"><path d="M365.42,241.25a11.52,11.52,0,0,1-5.3-1.21c-1.56-.94-2.65-2.95-1.93-4.63s3-2.3,4.79-1.86A34.29,34.29,0,0,1,354.15,221c-.69-1.69-1.22-3.7-.3-5.27a4.43,4.43,0,0,1,3.78-1.92,12.94,12.94,0,0,1,4.32.91c-1.26-2.63-3.28-4.79-5.16-7s-3.67-4.65-4.32-7.49.12-6.18,2.53-7.81c2.71-1.83,6.35-1,9.44.09a16.69,16.69,0,0,1,2.59-9.94,10.2,10.2,0,0,1,8.85-4.6c3.34.26,6.26,2.56,8.11,5.35a33.39,33.39,0,0,1,3.76,9.3A11.09,11.09,0,0,1,397,187.9a10,10,0,0,1,8.59,5.64,9.07,9.07,0,0,1-1.81,10,21.6,21.6,0,0,1,7.71-1.34c2.62.19,5.33,1.55,6.36,4a7.32,7.32,0,0,1-.85,6.54,21.8,21.8,0,0,1-4.72,4.92,20.06,20.06,0,0,1,6.74.58,6.79,6.79,0,0,1,4.69,4.52c.67,2.83-1.27,5.71-3.69,7.32s-5.32,2.35-7.95,3.59c.78-1,2.66.07,2.61,1.38s-1.21,2.29-2.35,2.94c-3.14,1.82-9,4.63-11.25,6.71" style="fill:#455a64"></path><path d="M353.37,201.65a3.7,3.7,0,0,0-3.32,6.52l4.52-1.21Z" style="fill:#B2ADF4"></path><path d="M367.64,205.6a10.52,10.52,0,0,0-4.3-6.7,10,10,0,0,0-6-2,7.47,7.47,0,0,0-5.63,2.65,5.94,5.94,0,0,0-.86,6,4.46,4.46,0,0,0-2.89,5.31,6.26,6.26,0,0,0,4.71,4.29,3.9,3.9,0,0,0,1.26,4.25,5.33,5.33,0,0,0,4.48.94,13.3,13.3,0,0,0,4.6-2.2c2.55-1.89,5.21-5.43,5-9.06Z" style="fill:#B2ADF4"></path><path d="M351.17,200.28c.06,0-.3.52-.65,1.45a4.21,4.21,0,0,0-.27,1.75,3.22,3.22,0,0,0,.86,2l.11.11-.05.13a3.68,3.68,0,0,0,.27,3.08,4.73,4.73,0,0,0,2.78,2.23,8.29,8.29,0,0,0,4.86,0,10.29,10.29,0,0,0,3.57-1.9,15,15,0,0,0,2.47-2.86,3,3,0,0,1-.43.95,9,9,0,0,1-1.8,2.19,9.91,9.91,0,0,1-3.67,2.08,8.65,8.65,0,0,1-5.17,0,5.16,5.16,0,0,1-3.05-2.49,4,4,0,0,1-.23-3.47l.05.24a3.57,3.57,0,0,1-.93-2.33,4.23,4.23,0,0,1,.4-1.85,4.94,4.94,0,0,1,.6-1C351.06,200.38,351.15,200.27,351.17,200.28Z" style="fill:#263238"></path><path d="M355.83,201.73a3.72,3.72,0,0,1,1.63-.4,10,10,0,0,1,4,.47,10.09,10.09,0,0,1,3.5,2,3.82,3.82,0,0,1,1.06,1.3,16.21,16.21,0,0,0-4.73-2.83A16,16,0,0,0,355.83,201.73Z" style="fill:#263238"></path><path d="M359.21,217.18a15.55,15.55,0,0,0,7.13-8.62,4.1,4.1,0,0,1-.33,1.68,11.53,11.53,0,0,1-2,3.62,11.77,11.77,0,0,1-3.18,2.68A4.34,4.34,0,0,1,359.21,217.18Z" style="fill:#263238"></path><path d="M354.23,216.07c0,.06-.45.07-1.08-.23a2.73,2.73,0,0,1-1.56-2.17,2.2,2.2,0,0,1,.39-1.5,1.92,1.92,0,0,1,1-.71c.73-.18,1.14.13,1.1.17s-.43-.06-1,.18a1.73,1.73,0,0,0-1,1.82,2.63,2.63,0,0,0,1.22,1.89C353.85,215.87,354.25,216,354.23,216.07Z" style="fill:#263238"></path><path d="M419,213.7a3,3,0,0,0-3.08-5l-1.07,3.61Z" style="fill:#B2ADF4"></path><path d="M410.32,221.84a8.49,8.49,0,0,0,6.4-.13,8.09,8.09,0,0,0,3.9-3.28,6,6,0,0,0,.56-5,4.79,4.79,0,0,0-3.8-3.14,3.58,3.58,0,0,0-2.42-4.22,5.06,5.06,0,0,0-4.93,1.42,3.14,3.14,0,0,0-3.45-.91,4.27,4.27,0,0,0-2.53,2.67,10.61,10.61,0,0,0-.42,4.08c.22,2.56,1.53,5.87,4.1,7.27Z" style="fill:#B2ADF4"></path><path d="M420.9,212.77c-.06,0-.24-.41-.74-1a3.44,3.44,0,0,0-1.08-.91,2.56,2.56,0,0,0-1.72-.24l-.15,0-.09-.12a2.93,2.93,0,0,0-2.19-1.08,3.76,3.76,0,0,0-2.67,1,6.76,6.76,0,0,0-2,3.31,8.17,8.17,0,0,0-.21,3.24,14,14,0,0,0,.89,2.9,2.34,2.34,0,0,1-.49-.68,7.43,7.43,0,0,1-.76-2.17,8,8,0,0,1,.11-3.41,6.87,6.87,0,0,1,2.16-3.59,4.2,4.2,0,0,1,3-1.06,3.31,3.31,0,0,1,2.51,1.33l-.23-.08a2.87,2.87,0,0,1,2,.35,3.92,3.92,0,0,1,1.56,1.93Q420.93,212.76,420.9,212.77Z" style="fill:#263238"></path><path d="M418,215.36a2.8,2.8,0,0,1-.38,1.3,7.91,7.91,0,0,1-2,2.58,7.73,7.73,0,0,1-2.89,1.54,2.49,2.49,0,0,1-1.35.15,14.45,14.45,0,0,0,3.91-2.09A15.09,15.09,0,0,0,418,215.36Z" style="fill:#263238"></path><path d="M405.92,211.17a19.34,19.34,0,0,0,.71,4.52,19.86,19.86,0,0,0,2.21,4,8.41,8.41,0,0,1-2.92-8.53Z" style="fill:#263238"></path><path d="M408.78,208.22s.12-.35.59-.67a2.23,2.23,0,0,1,2.19-.18,1.77,1.77,0,0,1,.88.93,1.59,1.59,0,0,1,0,1c-.19.59-.6.73-.62.67s.2-.29.26-.75a1.36,1.36,0,0,0-.79-1.43,2.11,2.11,0,0,0-1.78,0C409.09,208.07,408.83,208.28,408.78,208.22Z" style="fill:#263238"></path><path d="M397.26,188.89a4.74,4.74,0,0,0-5.59-7.52l-1.19,5.86Z" style="fill:#B2ADF4"></path><path d="M384.58,203a13.49,13.49,0,0,0,10.14-1.11,12.84,12.84,0,0,0,5.71-5.74,9.52,9.52,0,0,0,.18-8,7.62,7.62,0,0,0-6.45-4.43c.61-2.8-1.64-5.72-4.43-6.34a8,8,0,0,0-7.61,2.94,5,5,0,0,0-5.6-1,6.81,6.81,0,0,0-3.63,4.6,16.88,16.88,0,0,0-.1,6.53c.71,4,3.25,9.08,7.53,10.93Z" style="fill:#B2ADF4"></path><path d="M400.08,187.15c-.07,0-.4-.64-1.27-1.59a5.33,5.33,0,0,0-1.85-1.34,4.26,4.26,0,0,0-2.86-.17l-.14,0-.1-.11a4.76,4.76,0,0,0-3.72-1.47,6.17,6.17,0,0,0-4.2,1.93,10.65,10.65,0,0,0-2.77,5.63,12.71,12.71,0,0,0,.15,5.2,16.6,16.6,0,0,0,1.92,4.44s-.09-.07-.23-.24a5.92,5.92,0,0,1-.59-.8,11.92,11.92,0,0,1-1.46-3.31,12.82,12.82,0,0,1-.27-5.37,11,11,0,0,1,2.88-5.92,6.6,6.6,0,0,1,4.55-2.06,5.16,5.16,0,0,1,4.07,1.69l-.24-.06a4.44,4.44,0,0,1,3.15.25,5.57,5.57,0,0,1,1.9,1.49,7.07,7.07,0,0,1,.86,1.27A1.79,1.79,0,0,1,400.08,187.15Z" style="fill:#263238"></path><path d="M395.76,191.67a5.62,5.62,0,0,1-.52,2.07,12.79,12.79,0,0,1-2.84,4.31,13,13,0,0,1-4.29,2.86,5.53,5.53,0,0,1-2.07.53,18.65,18.65,0,0,1,1.92-.87,14.81,14.81,0,0,0,7-7A20.1,20.1,0,0,1,395.76,191.67Z" style="fill:#263238"></path><path d="M376.12,186.73a18.92,18.92,0,0,0,5.82,13.1,6.15,6.15,0,0,1-1.71-1.38,15,15,0,0,1-3-4.39,15.18,15.18,0,0,1-1.28-5.14A6.06,6.06,0,0,1,376.12,186.73Z" style="fill:#263238"></path><path d="M380.23,181.65c-.05,0,.21-.52.91-1.06a3.88,3.88,0,0,1,1.4-.66,3.25,3.25,0,0,1,1.91.13,2.73,2.73,0,0,1,1.47,1.27,2.53,2.53,0,0,1,.23,1.57c-.19.92-.76,1.22-.78,1.17s.35-.43.41-1.22a2.25,2.25,0,0,0-.28-1.29,2.41,2.41,0,0,0-1.23-1,3.35,3.35,0,0,0-2.93.35C380.65,181.31,380.29,181.71,380.23,181.65Z" style="fill:#263238"></path><path d="M393.59,227.67a3.31,3.31,0,0,0,3.74-5.37l-4.15.52Z" style="fill:#B2ADF4"></path><path d="M381.42,222.42a9.42,9.42,0,0,0,3,6.47,9,9,0,0,0,5.07,2.51,6.71,6.71,0,0,0,5.33-1.66,5.35,5.35,0,0,0,1.5-5.26,4,4,0,0,0,3.21-4.35,5.61,5.61,0,0,0-3.65-4.39,3.48,3.48,0,0,0-.6-3.92,4.75,4.75,0,0,0-3.85-1.38,11.8,11.8,0,0,0-4.35,1.39c-2.5,1.36-5.29,4.17-5.56,7.42Z" style="fill:#B2ADF4"></path><path d="M395.37,229.15c-.05,0,.32-.42.74-1.21a3.69,3.69,0,0,0,.45-1.51,2.91,2.91,0,0,0-.52-1.88l-.09-.12.07-.13a3.28,3.28,0,0,0,.14-2.74,4.28,4.28,0,0,0-2.18-2.3,7.42,7.42,0,0,0-4.3-.58,8.85,8.85,0,0,0-3.39,1.23,13.4,13.4,0,0,0-2.55,2.22,2.68,2.68,0,0,1,.48-.8,8.29,8.29,0,0,1,1.87-1.73,8.87,8.87,0,0,1,3.51-1.4,7.69,7.69,0,0,1,4.61.6,4.71,4.71,0,0,1,2.42,2.59,3.72,3.72,0,0,1-.23,3.13l0-.24a3.16,3.16,0,0,1,.53,2.19,3.8,3.8,0,0,1-.58,1.6,4.58,4.58,0,0,1-.67.84C395.49,229.09,395.39,229.17,395.37,229.15Z" style="fill:#263238"></path><path d="M391.42,227.3a3.19,3.19,0,0,1-1.5.18,8.93,8.93,0,0,1-3.51-.91,8.78,8.78,0,0,1-2.86-2.24c-.59-.73-.82-1.26-.77-1.3a15.14,15.14,0,0,0,3.86,3.07A14.91,14.91,0,0,0,391.42,227.3Z" style="fill:#263238"></path><path d="M390.31,213.19a14.34,14.34,0,0,0-7.38,6.77,3.54,3.54,0,0,1,.49-1.46,10.29,10.29,0,0,1,5.39-4.95A3.3,3.3,0,0,1,390.31,213.19Z" style="fill:#263238"></path><path d="M394.6,214.79c0-.06.41,0,.93.31a2.46,2.46,0,0,1,1.14,2.13,2,2,0,0,1-.54,1.3,1.79,1.79,0,0,1-1,.51c-.68.07-1-.27-1-.31s.38.09.89-.06a1.54,1.54,0,0,0,1.12-1.46,2.35,2.35,0,0,0-.84-1.81C394.9,215,394.57,214.86,394.6,214.79Z" style="fill:#263238"></path><path d="M366.29,225.31a2.57,2.57,0,0,0-5,1.13l2.65,1.88Z" style="fill:#B2ADF4"></path><path d="M370.53,234.71a7.36,7.36,0,0,0,1.68-5.29,7,7,0,0,0-1.61-4.1,5.2,5.2,0,0,0-3.93-1.83,4.16,4.16,0,0,0-3.62,2.23,3.09,3.09,0,0,0-4.12.82,4.34,4.34,0,0,0-.2,4.43,2.71,2.71,0,0,0-1.71,2.57,3.69,3.69,0,0,0,1.49,2.82,9.18,9.18,0,0,0,3.22,1.48c2.15.52,5.23.37,7.09-1.35Z" style="fill:#B2ADF4"></path><path d="M366,223.53c0,.06-.4.09-1.05.33a3,3,0,0,0-1,.63,2.24,2.24,0,0,0-.67,1.33V226l-.14.05a2.51,2.51,0,0,0-1.48,1.48,3.27,3.27,0,0,0,0,2.42,5.81,5.81,0,0,0,2.14,2.57,7,7,0,0,0,2.58,1.07,13.08,13.08,0,0,0,2.62.1,1.59,1.59,0,0,1-.7.23,6.26,6.26,0,0,1-2,0,6.85,6.85,0,0,1-2.78-1,6,6,0,0,1-2.36-2.78,3.67,3.67,0,0,1,0-2.8A2.93,2.93,0,0,1,363,225.6l-.15.2a2.5,2.5,0,0,1,.86-1.57,3.07,3.07,0,0,1,1.19-.61A2.2,2.2,0,0,1,366,223.53Z" style="fill:#263238"></path><path d="M367.35,226.66s.44.16,1,.66a6.55,6.55,0,0,1,1.57,2.37,6.72,6.72,0,0,1,.46,2.81c-.05.73-.22,1.15-.28,1.14a14.55,14.55,0,0,0-.66-3.76A14.94,14.94,0,0,0,367.35,226.66Z" style="fill:#263238"></path><path d="M360.58,235.35a19.49,19.49,0,0,0,3.9.64,20,20,0,0,0,3.89-.66,7.07,7.07,0,0,1-7.79,0Z" style="fill:#263238"></path><path d="M359,232.19c-.06,0-.28-.19-.41-.67a1.89,1.89,0,0,1,.46-1.86,1.53,1.53,0,0,1,1-.48,1.4,1.4,0,0,1,.88.27c.43.33.43.71.37.71s-.2-.23-.56-.4a1.16,1.16,0,0,0-1.35.27,1.8,1.8,0,0,0-.47,1.43C358.94,231.88,359,232.16,359,232.19Z" style="fill:#263238"></path><path d="M389,281.07h-6.7a2.7,2.7,0,0,1-2.7-2.7h0a2.7,2.7,0,0,1,2.7-2.7H389a2.7,2.7,0,0,1,2.7,2.7h0A2.7,2.7,0,0,1,389,281.07Z" style="fill:#263238"></path><path d="M401.83,283.6H369.39a1.26,1.26,0,0,1-1.26-1.27h0a1.26,1.26,0,0,1,1.26-1.26h32.44a1.26,1.26,0,0,1,1.26,1.26h0A1.26,1.26,0,0,1,401.83,283.6Z" style="fill:#263238"></path><path d="M362.4,240.23h46.43s-3.38,1.68-4.24,4.27c-.34,1.05-.41,6.31-.37,12.23a18.81,18.81,0,0,1-18.82,18.94h0a18.83,18.83,0,0,1-18.82-18.82V244.5S365.25,240.8,362.4,240.23Z" style="fill:#263238"></path><path d="M383.07,273.65a1.3,1.3,0,0,1-.41,0,7.42,7.42,0,0,1-1.18-.09,13.59,13.59,0,0,1-4.15-1.3,14.6,14.6,0,0,1-5-4.08,13.57,13.57,0,0,1-1.9-3.34,16.85,16.85,0,0,1-1-4,51.38,51.38,0,0,1-.16-7.87,38.11,38.11,0,0,0-.24-6.36,16.94,16.94,0,0,0-1.1-4.13c-.4-.93-.69-1.41-.65-1.44a1.55,1.55,0,0,1,.25.33,9.2,9.2,0,0,1,.59,1,15.32,15.32,0,0,1,1.27,4.15,35.09,35.09,0,0,1,.36,6.43,56.09,56.09,0,0,0,.19,7.8,16.82,16.82,0,0,0,.95,3.88,13.2,13.2,0,0,0,1.8,3.22A14.71,14.71,0,0,0,377.5,272,17.37,17.37,0,0,0,383.07,273.65Z" style="fill:#455a64"></path><path d="M383,273.79a1.24,1.24,0,0,1-.34-.12,6.7,6.7,0,0,1-.92-.49,10,10,0,0,1-2.76-2.65,15.14,15.14,0,0,1-2.34-5.16,29.35,29.35,0,0,1-.72-6.88c0-2.45.05-4.78-.06-6.88a25.64,25.64,0,0,0-.83-5.5,18,18,0,0,0-2.14-4.65s.1.08.26.26a6.52,6.52,0,0,1,.62.83,13.45,13.45,0,0,1,1.61,3.46,23.47,23.47,0,0,1,1,5.57c.14,2.13.08,4.47.1,6.9a30,30,0,0,0,.67,6.78,15.26,15.26,0,0,0,2.17,5.06A11.86,11.86,0,0,0,383,273.79Z" style="fill:#455a64"></path><path d="M384.73,241.36c.14,0,.16,7.19,0,16.05s-.34,16-.48,16-.16-7.18,0-16S384.58,241.36,384.73,241.36Z" style="fill:#455a64"></path><path d="M397.45,241.26a5.92,5.92,0,0,0-1,.94,7,7,0,0,0-1.24,3.53,34.61,34.61,0,0,0-.22,5.68c.06,2.15.25,4.52.26,7a24.76,24.76,0,0,1-.87,7,13.47,13.47,0,0,1-2.75,5.08,9.78,9.78,0,0,1-3.07,2.39,6.87,6.87,0,0,1-1,.38c-.23.07-.36.1-.36.08s.46-.21,1.25-.64a10.44,10.44,0,0,0,2.89-2.45,13.6,13.6,0,0,0,2.57-5,25.27,25.27,0,0,0,.81-6.88c0-2.47-.19-4.84-.22-7a31.34,31.34,0,0,1,.34-5.75,6.91,6.91,0,0,1,1.44-3.61,3,3,0,0,1,.83-.67A1.11,1.11,0,0,1,397.45,241.26Z" style="fill:#455a64"></path><path d="M402.86,242.07a17.12,17.12,0,0,0-1.45,5.24,35,35,0,0,0,0,5.92,45.88,45.88,0,0,1,.05,7.35,14.1,14.1,0,0,1-2.57,6.89,14.59,14.59,0,0,1-4.44,4.06,13,13,0,0,1-3.75,1.52,7.5,7.5,0,0,1-1.08.19c-.25,0-.39,0-.39,0a17.82,17.82,0,0,0,5-2.05,14.7,14.7,0,0,0,4.24-4,13.94,13.94,0,0,0,2.44-6.67,48.76,48.76,0,0,0,0-7.26,33,33,0,0,1,.14-6,14,14,0,0,1,1.08-3.9,7.5,7.5,0,0,1,.51-1A1.42,1.42,0,0,1,402.86,242.07Z" style="fill:#455a64"></path><path d="M383,280.71c-.05,0-.33-.14-.61-.6a3.09,3.09,0,0,1,.59-3.86c.4-.36.73-.45.76-.4a5.71,5.71,0,0,0-1.23,2.3A5.57,5.57,0,0,0,383,280.71Z" style="fill:#455a64"></path><path d="M385.88,280.93a12.41,12.41,0,0,1-.65-5,12.41,12.41,0,0,1,.65,5Z" style="fill:#455a64"></path><path d="M388,280.92a16.45,16.45,0,0,0,.57-2.59,17.21,17.21,0,0,0-.34-2.64,3.24,3.24,0,0,1,.86,2.66A3.17,3.17,0,0,1,388,280.92Z" style="fill:#455a64"></path></g></svg>